<?xml version="1.0" encoding="utf-8" standalone="no"?>
<!DOCTYPE svg PUBLIC "-//W3C//DTD SVG 1.1//EN"
  "http://www.w3.org/Graphics/SVG/1.1/DTD/svg11.dtd">
<!-- Created with matplotlib (https://matplotlib.org/) -->
<svg height="288pt" version="1.1" viewBox="0 0 432 288" width="432pt" xmlns="http://www.w3.org/2000/svg" xmlns:xlink="http://www.w3.org/1999/xlink">
 <metadata>
  <rdf:RDF xmlns:cc="http://creativecommons.org/ns#" xmlns:dc="http://purl.org/dc/elements/1.1/" xmlns:rdf="http://www.w3.org/1999/02/22-rdf-syntax-ns#">
   <cc:Work>
    <dc:type rdf:resource="http://purl.org/dc/dcmitype/StillImage"/>
    <dc:date>2020-11-15T16:56:31.646449</dc:date>
    <dc:format>image/svg+xml</dc:format>
    <dc:creator>
     <cc:Agent>
      <dc:title>Matplotlib v3.3.2, https://matplotlib.org/</dc:title>
     </cc:Agent>
    </dc:creator>
   </cc:Work>
  </rdf:RDF>
 </metadata>
 <defs>
  <style type="text/css">*{stroke-linecap:butt;stroke-linejoin:round;}</style>
 </defs>
 <g id="figure_1">
  <g id="patch_1">
   <path d="M 0 288 
L 432 288 
L 432 0 
L 0 0 
z
" style="fill:#ffffff;"/>
  </g>
  <g id="axes_1">
   <g id="patch_2">
    <path d="M 54 252 
L 388.8 252 
L 388.8 34.56 
L 54 34.56 
z
" style="fill:#eaeaf2;"/>
   </g>
   <g id="matplotlib.axis_1">
    <g id="xtick_1">
     <g id="line2d_1">
      <path clip-path="url(#p3d75eb3b0e)" d="M 79.036364 252 
L 79.036364 34.56 
" style="fill:none;stroke:#ffffff;stroke-linecap:round;"/>
     </g>
     <g id="text_1">
      <!-- 2020-02 -->
      <g style="fill:#262626;" transform="translate(57.305348 270.293125)scale(0.11 -0.11)">
       <defs>
        <path d="M 41.65625 55.8125 
Q 41.65625 61.921875 37.796875 65.40625 
Q 33.9375 68.890625 27.296875 68.890625 
Q 22.609375 68.890625 17.8125 66.5 
Q 13.03125 64.109375 8.890625 59.671875 
L 8.890625 68.953125 
Q 12.59375 72.796875 17.296875 74.84375 
Q 22.015625 76.90625 28.375 76.90625 
Q 38.625 76.90625 44.875 71.40625 
Q 51.125 65.921875 51.125 56.546875 
Q 51.125 48.1875 47.28125 42.078125 
Q 43.453125 35.984375 34.1875 29.59375 
Q 24.703125 23.046875 21.5 20.21875 
Q 18.3125 17.390625 17.03125 14.796875 
Q 15.765625 12.203125 15.765625 8.5 
L 53.375 8.5 
L 53.375 0 
L 5.8125 0 
L 5.8125 3.765625 
Q 5.8125 10.296875 7.59375 14.859375 
Q 9.375 19.4375 13.46875 23.75 
Q 17.578125 28.078125 26.265625 34.125 
Q 35.15625 40.375 38.40625 45.09375 
Q 41.65625 49.8125 41.65625 55.8125 
z
" id="MicrosoftYaHei-50"/>
        <path d="M 4.4375 36.328125 
Q 4.4375 56.34375 11.078125 66.625 
Q 17.71875 76.90625 30.328125 76.90625 
Q 54.34375 76.90625 54.34375 38.140625 
Q 54.34375 19 47.578125 8.859375 
Q 40.828125 -1.265625 28.609375 -1.265625 
Q 17.09375 -1.265625 10.765625 8.34375 
Q 4.4375 17.96875 4.4375 36.328125 
z
M 14.203125 36.765625 
Q 14.203125 6.640625 29.5 6.640625 
Q 44.53125 6.640625 44.53125 37.25 
Q 44.53125 68.953125 29.78125 68.953125 
Q 14.203125 68.953125 14.203125 36.765625 
z
" id="MicrosoftYaHei-48"/>
        <path d="M 36.375 26.265625 
L 7.625 26.265625 
L 7.625 33.640625 
L 36.375 33.640625 
z
" id="MicrosoftYaHei-45"/>
       </defs>
       <use xlink:href="#MicrosoftYaHei-50"/>
       <use x="58.642578" xlink:href="#MicrosoftYaHei-48"/>
       <use x="117.285156" xlink:href="#MicrosoftYaHei-50"/>
       <use x="175.927734" xlink:href="#MicrosoftYaHei-48"/>
       <use x="234.570312" xlink:href="#MicrosoftYaHei-45"/>
       <use x="277.832031" xlink:href="#MicrosoftYaHei-48"/>
       <use x="336.474609" xlink:href="#MicrosoftYaHei-50"/>
      </g>
     </g>
    </g>
    <g id="xtick_2">
     <g id="line2d_2">
      <path clip-path="url(#p3d75eb3b0e)" d="M 135.981818 252 
L 135.981818 34.56 
" style="fill:none;stroke:#ffffff;stroke-linecap:round;"/>
     </g>
     <g id="text_2">
      <!-- 2020-03 -->
      <g style="fill:#262626;" transform="translate(114.250803 270.293125)scale(0.11 -0.11)">
       <defs>
        <path d="M 6.984375 12.640625 
Q 14.75 6.640625 24.515625 6.640625 
Q 32.328125 6.640625 36.890625 10.46875 
Q 41.453125 14.3125 41.453125 20.75 
Q 41.453125 35.109375 20.90625 35.109375 
L 14.59375 35.109375 
L 14.59375 43.015625 
L 20.609375 43.015625 
Q 38.8125 43.015625 38.8125 56.5 
Q 38.8125 68.953125 24.90625 68.953125 
Q 16.9375 68.953125 9.90625 63.578125 
L 9.90625 72.609375 
Q 17.328125 76.90625 27.25 76.90625 
Q 36.921875 76.90625 42.78125 71.84375 
Q 48.640625 66.796875 48.640625 58.734375 
Q 48.640625 43.890625 33.5 39.65625 
L 33.5 39.453125 
Q 41.703125 38.578125 46.453125 33.671875 
Q 51.21875 28.765625 51.21875 21.4375 
Q 51.21875 11.234375 43.875 4.984375 
Q 36.53125 -1.265625 24.3125 -1.265625 
Q 13.578125 -1.265625 6.984375 2.734375 
z
" id="MicrosoftYaHei-51"/>
       </defs>
       <use xlink:href="#MicrosoftYaHei-50"/>
       <use x="58.642578" xlink:href="#MicrosoftYaHei-48"/>
       <use x="117.285156" xlink:href="#MicrosoftYaHei-50"/>
       <use x="175.927734" xlink:href="#MicrosoftYaHei-48"/>
       <use x="234.570312" xlink:href="#MicrosoftYaHei-45"/>
       <use x="277.832031" xlink:href="#MicrosoftYaHei-48"/>
       <use x="336.474609" xlink:href="#MicrosoftYaHei-51"/>
      </g>
     </g>
    </g>
    <g id="xtick_3">
     <g id="line2d_3">
      <path clip-path="url(#p3d75eb3b0e)" d="M 196.854545 252 
L 196.854545 34.56 
" style="fill:none;stroke:#ffffff;stroke-linecap:round;"/>
     </g>
     <g id="text_3">
      <!-- 2020-04 -->
      <g style="fill:#262626;" transform="translate(175.12353 270.293125)scale(0.11 -0.11)">
       <defs>
        <path d="M 45.40625 75.640625 
L 45.40625 25.6875 
L 56.734375 25.6875 
L 56.734375 17.78125 
L 45.40625 17.78125 
L 45.40625 0 
L 36.140625 0 
L 36.140625 17.78125 
L 0.828125 17.78125 
L 0.828125 25.25 
Q 10.25 35.84375 19.765625 49.65625 
Q 29.296875 63.484375 35.5 75.640625 
z
M 11.578125 25.6875 
L 36.140625 25.6875 
L 36.140625 61.71875 
Q 31.0625 52.59375 25.25 44.015625 
Q 19.4375 35.453125 11.578125 25.6875 
z
" id="MicrosoftYaHei-52"/>
       </defs>
       <use xlink:href="#MicrosoftYaHei-50"/>
       <use x="58.642578" xlink:href="#MicrosoftYaHei-48"/>
       <use x="117.285156" xlink:href="#MicrosoftYaHei-50"/>
       <use x="175.927734" xlink:href="#MicrosoftYaHei-48"/>
       <use x="234.570312" xlink:href="#MicrosoftYaHei-45"/>
       <use x="277.832031" xlink:href="#MicrosoftYaHei-48"/>
       <use x="336.474609" xlink:href="#MicrosoftYaHei-52"/>
      </g>
     </g>
    </g>
    <g id="xtick_4">
     <g id="line2d_4">
      <path clip-path="url(#p3d75eb3b0e)" d="M 255.763636 252 
L 255.763636 34.56 
" style="fill:none;stroke:#ffffff;stroke-linecap:round;"/>
     </g>
     <g id="text_4">
      <!-- 2020-05 -->
      <g style="fill:#262626;" transform="translate(234.032621 270.293125)scale(0.11 -0.11)">
       <defs>
        <path d="M 51.46875 23.34375 
Q 51.46875 12.25 44.109375 5.46875 
Q 36.765625 -1.3125 24.359375 -1.3125 
Q 13.71875 -1.3125 8.5 1.859375 
L 8.5 11.625 
Q 16.15625 6.640625 24.125 6.640625 
Q 32.03125 6.640625 36.890625 11 
Q 41.75 15.375 41.75 22.609375 
Q 41.75 29.828125 36.6875 33.859375 
Q 31.640625 37.890625 22.40625 37.890625 
Q 15.28125 37.890625 9.578125 37.25 
L 12.359375 75.640625 
L 47.703125 75.640625 
L 47.703125 67.234375 
L 20.40625 67.234375 
L 18.84375 45.796875 
L 25.734375 46.09375 
Q 37.75 46.09375 44.609375 40.109375 
Q 51.46875 34.125 51.46875 23.34375 
z
" id="MicrosoftYaHei-53"/>
       </defs>
       <use xlink:href="#MicrosoftYaHei-50"/>
       <use x="58.642578" xlink:href="#MicrosoftYaHei-48"/>
       <use x="117.285156" xlink:href="#MicrosoftYaHei-50"/>
       <use x="175.927734" xlink:href="#MicrosoftYaHei-48"/>
       <use x="234.570312" xlink:href="#MicrosoftYaHei-45"/>
       <use x="277.832031" xlink:href="#MicrosoftYaHei-48"/>
       <use x="336.474609" xlink:href="#MicrosoftYaHei-53"/>
      </g>
     </g>
    </g>
    <g id="xtick_5">
     <g id="line2d_5">
      <path clip-path="url(#p3d75eb3b0e)" d="M 316.636364 252 
L 316.636364 34.56 
" style="fill:none;stroke:#ffffff;stroke-linecap:round;"/>
     </g>
     <g id="text_5">
      <!-- 2020-06 -->
      <g style="fill:#262626;" transform="translate(294.905348 270.293125)scale(0.11 -0.11)">
       <defs>
        <path d="M 49.703125 65.921875 
Q 43.796875 68.953125 37.359375 68.953125 
Q 27.546875 68.953125 21.578125 60.40625 
Q 15.625 51.859375 15.53125 37.0625 
L 15.765625 37.0625 
Q 21.140625 47.46875 32.90625 47.46875 
Q 42.71875 47.46875 48.578125 41.0625 
Q 54.4375 34.671875 54.4375 24.078125 
Q 54.4375 12.984375 47.671875 5.859375 
Q 40.921875 -1.265625 30.421875 -1.265625 
Q 18.890625 -1.265625 12.328125 7.734375 
Q 5.765625 16.75 5.765625 33.296875 
Q 5.765625 53.328125 14.375 65.109375 
Q 23 76.90625 37.0625 76.90625 
Q 45.125 76.90625 49.703125 74.703125 
z
M 16.109375 24.75 
Q 16.109375 17.28125 20.09375 11.953125 
Q 24.078125 6.640625 30.671875 6.640625 
Q 36.921875 6.640625 40.828125 11.234375 
Q 44.734375 15.828125 44.734375 23.046875 
Q 44.734375 30.859375 41.046875 35.203125 
Q 37.359375 39.546875 30.5625 39.546875 
Q 24.125 39.546875 20.109375 35.15625 
Q 16.109375 30.765625 16.109375 24.75 
z
" id="MicrosoftYaHei-54"/>
       </defs>
       <use xlink:href="#MicrosoftYaHei-50"/>
       <use x="58.642578" xlink:href="#MicrosoftYaHei-48"/>
       <use x="117.285156" xlink:href="#MicrosoftYaHei-50"/>
       <use x="175.927734" xlink:href="#MicrosoftYaHei-48"/>
       <use x="234.570312" xlink:href="#MicrosoftYaHei-45"/>
       <use x="277.832031" xlink:href="#MicrosoftYaHei-48"/>
       <use x="336.474609" xlink:href="#MicrosoftYaHei-54"/>
      </g>
     </g>
    </g>
    <g id="xtick_6">
     <g id="line2d_6">
      <path clip-path="url(#p3d75eb3b0e)" d="M 375.545455 252 
L 375.545455 34.56 
" style="fill:none;stroke:#ffffff;stroke-linecap:round;"/>
     </g>
     <g id="text_6">
      <!-- 2020-07 -->
      <g style="fill:#262626;" transform="translate(353.814439 270.293125)scale(0.11 -0.11)">
       <defs>
        <path d="M 53.46875 69.734375 
Q 41.546875 48.921875 34.734375 31.21875 
Q 27.9375 13.53125 26.3125 0 
L 16.359375 0 
Q 18.171875 13.328125 24.90625 30.421875 
Q 31.640625 47.515625 42.921875 67.1875 
L 5.421875 67.1875 
L 5.421875 75.640625 
L 53.46875 75.640625 
z
" id="MicrosoftYaHei-55"/>
       </defs>
       <use xlink:href="#MicrosoftYaHei-50"/>
       <use x="58.642578" xlink:href="#MicrosoftYaHei-48"/>
       <use x="117.285156" xlink:href="#MicrosoftYaHei-50"/>
       <use x="175.927734" xlink:href="#MicrosoftYaHei-48"/>
       <use x="234.570312" xlink:href="#MicrosoftYaHei-45"/>
       <use x="277.832031" xlink:href="#MicrosoftYaHei-48"/>
       <use x="336.474609" xlink:href="#MicrosoftYaHei-55"/>
      </g>
     </g>
    </g>
    <g id="text_7">
     <!-- 日期 -->
     <g style="fill:#262626;" transform="translate(209.4 286.620156)scale(0.12 -0.12)">
      <defs>
       <path d="M 15.234375 76.703125 
L 84.859375 76.703125 
L 84.859375 -11.96875 
L 76.5625 -11.96875 
L 76.5625 -5.03125 
L 23.53125 -5.03125 
L 23.53125 -11.96875 
L 15.234375 -11.96875 
z
M 23.53125 32.859375 
L 23.53125 2.09375 
L 76.5625 2.09375 
L 76.5625 32.859375 
z
M 23.53125 69.390625 
L 23.53125 40.1875 
L 76.5625 40.1875 
L 76.5625 69.390625 
z
" id="MicrosoftYaHei-26085"/>
       <path d="M 58.890625 79.15625 
L 93.453125 79.15625 
L 93.453125 -0.046875 
Q 93.453125 -11.578125 82.515625 -11.578125 
Q 77.046875 -11.578125 71.78125 -11.28125 
Q 71.390625 -8.0625 70.609375 -3.765625 
Q 77.734375 -4.4375 80.859375 -4.4375 
Q 86.234375 -4.4375 86.234375 0.921875 
L 86.234375 21.4375 
L 65.328125 21.4375 
Q 64.265625 0.046875 52.34375 -14.109375 
Q 49.703125 -11.375 46.484375 -8.640625 
Q 54.390625 0.4375 56.546875 10.203125 
Q 58.890625 19.578125 58.890625 42.828125 
z
M 1.953125 17.828125 
L 11.140625 17.828125 
L 11.140625 62.9375 
L 3.125 62.9375 
L 3.125 69.578125 
L 11.140625 69.578125 
L 11.140625 81.5 
L 18.359375 81.5 
L 18.359375 69.578125 
L 38.671875 69.578125 
L 38.671875 81.890625 
L 45.90625 81.890625 
L 45.90625 69.578125 
L 53.8125 69.578125 
L 53.8125 62.9375 
L 45.90625 62.9375 
L 45.90625 17.828125 
L 53.71875 17.828125 
L 53.71875 11.1875 
L 1.953125 11.1875 
z
M 65.765625 27.875 
L 86.234375 27.875 
L 86.234375 47.015625 
L 66.109375 47.015625 
Q 66.21875 34.421875 65.765625 27.875 
z
M 86.234375 72.515625 
L 66.109375 72.515625 
L 66.109375 53.46875 
L 86.234375 53.46875 
z
M 18.359375 17.828125 
L 38.671875 17.828125 
L 38.671875 28.765625 
L 18.359375 28.765625 
z
M 18.359375 35.015625 
L 38.671875 35.015625 
L 38.671875 45.84375 
L 18.359375 45.84375 
z
M 18.359375 52.09375 
L 38.671875 52.09375 
L 38.671875 62.9375 
L 18.359375 62.9375 
z
M 18.359375 9.328125 
L 24.3125 4.640625 
Q 14.453125 -6 6.34375 -13.234375 
Q 4.296875 -10.890625 1.171875 -8.0625 
Q 10.453125 -0.140625 18.359375 9.328125 
z
M 31.15625 4.734375 
L 35.84375 9.515625 
Q 42.671875 4.4375 48.734375 -0.734375 
L 43.5625 -6.296875 
Q 38.09375 -0.828125 31.15625 4.734375 
z
" id="MicrosoftYaHei-26399"/>
      </defs>
      <use xlink:href="#MicrosoftYaHei-26085"/>
      <use x="100" xlink:href="#MicrosoftYaHei-26399"/>
     </g>
    </g>
   </g>
   <g id="matplotlib.axis_2">
    <g id="ytick_1">
     <g id="line2d_7">
      <path clip-path="url(#p3d75eb3b0e)" d="M 54 242.116364 
L 388.8 242.116364 
" style="fill:none;stroke:#ffffff;stroke-linecap:round;"/>
     </g>
     <g id="text_8">
      <!-- 0 -->
      <g style="fill:#262626;" transform="translate(38.049531 246.512926)scale(0.11 -0.11)">
       <use xlink:href="#MicrosoftYaHei-48"/>
      </g>
     </g>
    </g>
    <g id="ytick_2">
     <g id="line2d_8">
      <path clip-path="url(#p3d75eb3b0e)" d="M 54 217.290592 
L 388.8 217.290592 
" style="fill:none;stroke:#ffffff;stroke-linecap:round;"/>
     </g>
     <g id="text_9">
      <!-- 2500 -->
      <g style="fill:#262626;" transform="translate(18.698125 221.687154)scale(0.11 -0.11)">
       <use xlink:href="#MicrosoftYaHei-50"/>
       <use x="58.642578" xlink:href="#MicrosoftYaHei-53"/>
       <use x="117.285156" xlink:href="#MicrosoftYaHei-48"/>
       <use x="175.927734" xlink:href="#MicrosoftYaHei-48"/>
      </g>
     </g>
    </g>
    <g id="ytick_3">
     <g id="line2d_9">
      <path clip-path="url(#p3d75eb3b0e)" d="M 54 192.46482 
L 388.8 192.46482 
" style="fill:none;stroke:#ffffff;stroke-linecap:round;"/>
     </g>
     <g id="text_10">
      <!-- 5000 -->
      <g style="fill:#262626;" transform="translate(18.698125 196.861382)scale(0.11 -0.11)">
       <use xlink:href="#MicrosoftYaHei-53"/>
       <use x="58.642578" xlink:href="#MicrosoftYaHei-48"/>
       <use x="117.285156" xlink:href="#MicrosoftYaHei-48"/>
       <use x="175.927734" xlink:href="#MicrosoftYaHei-48"/>
      </g>
     </g>
    </g>
    <g id="ytick_4">
     <g id="line2d_10">
      <path clip-path="url(#p3d75eb3b0e)" d="M 54 167.639048 
L 388.8 167.639048 
" style="fill:none;stroke:#ffffff;stroke-linecap:round;"/>
     </g>
     <g id="text_11">
      <!-- 7500 -->
      <g style="fill:#262626;" transform="translate(18.698125 172.03561)scale(0.11 -0.11)">
       <use xlink:href="#MicrosoftYaHei-55"/>
       <use x="58.642578" xlink:href="#MicrosoftYaHei-53"/>
       <use x="117.285156" xlink:href="#MicrosoftYaHei-48"/>
       <use x="175.927734" xlink:href="#MicrosoftYaHei-48"/>
      </g>
     </g>
    </g>
    <g id="ytick_5">
     <g id="line2d_11">
      <path clip-path="url(#p3d75eb3b0e)" d="M 54 142.813275 
L 388.8 142.813275 
" style="fill:none;stroke:#ffffff;stroke-linecap:round;"/>
     </g>
     <g id="text_12">
      <!-- 10000 -->
      <g style="fill:#262626;" transform="translate(12.247656 147.209838)scale(0.11 -0.11)">
       <defs>
        <path d="M 27.828125 0 
L 27.828125 64.703125 
Q 25.59375 62.453125 20.234375 59.671875 
Q 14.890625 56.890625 10.359375 55.765625 
L 10.359375 65.140625 
Q 16.359375 66.796875 23.1875 70.4375 
Q 30.03125 74.078125 33.6875 77.296875 
L 37.3125 77.296875 
L 37.3125 0 
z
" id="MicrosoftYaHei-49"/>
       </defs>
       <use xlink:href="#MicrosoftYaHei-49"/>
       <use x="58.642578" xlink:href="#MicrosoftYaHei-48"/>
       <use x="117.285156" xlink:href="#MicrosoftYaHei-48"/>
       <use x="175.927734" xlink:href="#MicrosoftYaHei-48"/>
       <use x="234.570312" xlink:href="#MicrosoftYaHei-48"/>
      </g>
     </g>
    </g>
    <g id="ytick_6">
     <g id="line2d_12">
      <path clip-path="url(#p3d75eb3b0e)" d="M 54 117.987503 
L 388.8 117.987503 
" style="fill:none;stroke:#ffffff;stroke-linecap:round;"/>
     </g>
     <g id="text_13">
      <!-- 12500 -->
      <g style="fill:#262626;" transform="translate(12.247656 122.384066)scale(0.11 -0.11)">
       <use xlink:href="#MicrosoftYaHei-49"/>
       <use x="58.642578" xlink:href="#MicrosoftYaHei-50"/>
       <use x="117.285156" xlink:href="#MicrosoftYaHei-53"/>
       <use x="175.927734" xlink:href="#MicrosoftYaHei-48"/>
       <use x="234.570312" xlink:href="#MicrosoftYaHei-48"/>
      </g>
     </g>
    </g>
    <g id="ytick_7">
     <g id="line2d_13">
      <path clip-path="url(#p3d75eb3b0e)" d="M 54 93.161731 
L 388.8 93.161731 
" style="fill:none;stroke:#ffffff;stroke-linecap:round;"/>
     </g>
     <g id="text_14">
      <!-- 15000 -->
      <g style="fill:#262626;" transform="translate(12.247656 97.558294)scale(0.11 -0.11)">
       <use xlink:href="#MicrosoftYaHei-49"/>
       <use x="58.642578" xlink:href="#MicrosoftYaHei-53"/>
       <use x="117.285156" xlink:href="#MicrosoftYaHei-48"/>
       <use x="175.927734" xlink:href="#MicrosoftYaHei-48"/>
       <use x="234.570312" xlink:href="#MicrosoftYaHei-48"/>
      </g>
     </g>
    </g>
    <g id="ytick_8">
     <g id="line2d_14">
      <path clip-path="url(#p3d75eb3b0e)" d="M 54 68.335959 
L 388.8 68.335959 
" style="fill:none;stroke:#ffffff;stroke-linecap:round;"/>
     </g>
     <g id="text_15">
      <!-- 17500 -->
      <g style="fill:#262626;" transform="translate(12.247656 72.732522)scale(0.11 -0.11)">
       <use xlink:href="#MicrosoftYaHei-49"/>
       <use x="58.642578" xlink:href="#MicrosoftYaHei-55"/>
       <use x="117.285156" xlink:href="#MicrosoftYaHei-53"/>
       <use x="175.927734" xlink:href="#MicrosoftYaHei-48"/>
       <use x="234.570312" xlink:href="#MicrosoftYaHei-48"/>
      </g>
     </g>
    </g>
    <g id="ytick_9">
     <g id="line2d_15">
      <path clip-path="url(#p3d75eb3b0e)" d="M 54 43.510187 
L 388.8 43.510187 
" style="fill:none;stroke:#ffffff;stroke-linecap:round;"/>
     </g>
     <g id="text_16">
      <!-- 20000 -->
      <g style="fill:#262626;" transform="translate(12.247656 47.90675)scale(0.11 -0.11)">
       <use xlink:href="#MicrosoftYaHei-50"/>
       <use x="58.642578" xlink:href="#MicrosoftYaHei-48"/>
       <use x="117.285156" xlink:href="#MicrosoftYaHei-48"/>
       <use x="175.927734" xlink:href="#MicrosoftYaHei-48"/>
       <use x="234.570312" xlink:href="#MicrosoftYaHei-48"/>
      </g>
     </g>
    </g>
    <g id="text_17">
     <!-- 新增确诊 -->
     <g style="fill:#262626;" transform="translate(5.264531 167.28)rotate(-90)scale(0.12 -0.12)">
      <defs>
       <path d="M 56.15625 74.953125 
Q 76.375 75.140625 93.453125 78.953125 
L 96 71.4375 
Q 76.65625 68.890625 63.09375 68.109375 
L 63.09375 45.359375 
L 98.734375 45.359375 
L 98.734375 38.71875 
L 84.765625 38.71875 
L 84.765625 -12.453125 
L 77.546875 -12.453125 
L 77.546875 38.71875 
L 63.09375 38.71875 
L 63.09375 33.9375 
Q 63.09375 3.953125 48.734375 -12.75 
Q 46.390625 -9.71875 43.5625 -6.5 
Q 56.15625 7.28125 56.15625 34.234375 
z
M 4.109375 31.109375 
L 24.03125 31.109375 
L 24.03125 40.375 
L 31.0625 40.375 
L 31.0625 31.109375 
L 50.203125 31.109375 
L 50.203125 24.859375 
L 31.0625 24.859375 
L 31.0625 -0.640625 
Q 31.0625 -10.984375 21.09375 -10.984375 
Q 16.890625 -10.984375 11.625 -10.890625 
Q 11.234375 -7.671875 10.546875 -3.46875 
Q 16.21875 -4.046875 19.4375 -4.046875 
Q 24.03125 -4.046875 24.03125 0.921875 
L 24.03125 24.859375 
L 4.109375 24.859375 
z
M 1.375 49.359375 
L 17.09375 49.359375 
Q 12.9375 55.953125 9.28125 60.6875 
L 14.546875 64.40625 
Q 17.78125 60.5 22.859375 53.375 
L 17.328125 49.359375 
L 30.21875 49.359375 
Q 35.546875 57.03125 40.046875 64.5 
L 46.96875 60.59375 
Q 42.234375 54.5 37.9375 49.359375 
L 52.734375 49.359375 
L 52.734375 43.109375 
L 1.375 43.109375 
z
M 4.5 72.015625 
L 25.59375 72.015625 
Q 23.484375 76.03125 20.796875 80.71875 
L 27.046875 83.640625 
Q 30.078125 78.65625 32.71875 73.578125 
L 29.4375 72.015625 
L 50.203125 72.015625 
L 50.203125 65.765625 
L 4.5 65.765625 
z
M 11.625 20.453125 
L 18.265625 17.328125 
Q 12.984375 6.296875 7.8125 -2.59375 
Q 4.984375 -0.828125 1.375 0.921875 
Q 6.15625 8.34375 11.625 20.453125 
z
M 39.75 19.96875 
Q 45.21875 12.546875 49.3125 6.296875 
L 43.0625 2 
Q 38.765625 9.515625 33.984375 16.15625 
z
" id="MicrosoftYaHei-26032"/>
       <path d="M 34.1875 69.671875 
L 50.921875 69.671875 
Q 47.515625 74.703125 43.359375 79.9375 
L 48.921875 83.84375 
Q 54 77.984375 57.71875 72.90625 
L 53.171875 69.671875 
L 69.578125 69.671875 
Q 74.359375 76.375 78.90625 83.9375 
L 85.9375 79.9375 
Q 81.78125 74.5625 77.78125 69.671875 
L 94.34375 69.671875 
L 94.34375 33.15625 
L 87.5 33.15625 
L 87.5 36.078125 
L 41.015625 36.078125 
L 41.015625 33.15625 
L 34.1875 33.15625 
z
M 38.09375 28.078125 
L 90.4375 28.078125 
L 90.4375 -13.234375 
L 83.40625 -13.234375 
L 83.40625 -8.546875 
L 45.125 -8.546875 
L 45.125 -13.234375 
L 38.09375 -13.234375 
z
M 1.265625 6.6875 
Q 7.28125 8.40625 13.96875 10.5 
L 13.96875 50.828125 
L 2.25 50.828125 
L 2.25 57.765625 
L 13.96875 57.765625 
L 13.96875 82.171875 
L 21.1875 82.171875 
L 21.1875 57.765625 
L 31.25 57.765625 
L 31.25 50.828125 
L 21.1875 50.828125 
L 21.1875 12.796875 
Q 26.703125 14.546875 32.71875 16.546875 
Q 32.90625 11.859375 33.203125 8.640625 
Q 20.40625 4.9375 3.90625 -0.828125 
z
M 87.5 63.8125 
L 67.578125 63.8125 
L 67.578125 41.9375 
L 87.5 41.9375 
z
M 41.015625 41.9375 
L 60.84375 41.9375 
L 60.84375 63.8125 
L 41.015625 63.8125 
z
M 83.40625 22.015625 
L 45.125 22.015625 
L 45.125 12.640625 
L 83.40625 12.640625 
z
M 45.125 -2.484375 
L 83.40625 -2.484375 
L 83.40625 6.78125 
L 45.125 6.78125 
z
M 83.59375 56.390625 
Q 78.21875 47.90625 75.875 45.0625 
L 70.609375 48.1875 
Q 74.125 52.984375 77.828125 59.8125 
z
M 44.734375 56.203125 
L 49.703125 59.421875 
Q 54.109375 53.765625 57.328125 48.78125 
L 51.859375 45.265625 
Q 48.734375 50.4375 44.734375 56.203125 
z
" id="MicrosoftYaHei-22686"/>
       <path d="M 32.421875 53.953125 
Q 46.1875 67.71875 54 83.734375 
L 61.421875 82.375 
Q 59.078125 77.984375 56.546875 73.78125 
L 84.96875 73.78125 
L 84.96875 67.625 
L 76.703125 57.28125 
L 94.734375 57.28125 
L 94.734375 -0.828125 
Q 94.734375 -11.375 85.546875 -11.375 
Q 80.375 -11.375 76.65625 -11.1875 
Q 76.078125 -7.765625 75.203125 -4.046875 
Q 80.5625 -4.546875 83.296875 -4.546875 
Q 87.796875 -4.546875 87.796875 0.25 
L 87.796875 11.46875 
L 71.6875 11.46875 
L 71.6875 -10.296875 
L 64.75 -10.296875 
L 64.75 11.46875 
L 48.640625 11.46875 
Q 46 -4.109375 38.1875 -13.8125 
Q 35.75 -10.984375 32.515625 -7.953125 
Q 43.0625 4.546875 43.0625 28.765625 
L 43.0625 54.78125 
Q 40.578125 51.8125 37.984375 48.96875 
Q 35.640625 51.21875 32.421875 53.953125 
z
M 0.484375 26.421875 
Q 11.578125 44.28125 16.65625 67.046875 
L 3.609375 67.046875 
L 3.609375 73.6875 
L 38.578125 73.6875 
L 38.578125 67.046875 
L 23.578125 67.046875 
Q 21.1875 56.453125 17.625 46.734375 
L 34.375 46.734375 
L 34.375 2 
L 17.96875 2 
L 17.96875 -5.421875 
L 11.53125 -5.421875 
L 11.53125 32.171875 
Q 8.734375 26.421875 5.46875 21.046875 
Q 3.515625 23.390625 0.484375 26.421875 
z
M 27.9375 8.453125 
L 27.9375 40.28125 
L 17.96875 40.28125 
L 17.96875 8.453125 
z
M 76.171875 67.53125 
L 52.59375 67.53125 
Q 49.03125 62.203125 45.0625 57.28125 
L 68.5 57.28125 
z
M 71.6875 17.71875 
L 87.796875 17.71875 
L 87.796875 31.109375 
L 71.6875 31.109375 
z
M 87.796875 50.640625 
L 71.6875 50.640625 
L 71.6875 37.359375 
L 87.796875 37.359375 
z
M 49.46875 17.71875 
L 64.75 17.71875 
L 64.75 31.109375 
L 50 31.109375 
Q 50 28.765625 49.46875 17.71875 
z
M 50 37.359375 
L 64.75 37.359375 
L 64.75 50.640625 
L 50 50.640625 
z
" id="MicrosoftYaHei-30830"/>
       <path d="M 32.328125 15.578125 
Q 32.71875 10.59375 33.40625 6.984375 
Q 24.515625 0.25 19.34375 -4.046875 
Q 17.28125 -5.90625 14.9375 -8.546875 
L 9.375 -2.390625 
Q 12.40625 0.828125 12.40625 6.59375 
L 12.40625 43.015625 
L 1.375 43.015625 
L 1.375 50.25 
L 20.015625 50.25 
L 20.015625 5.515625 
Q 25.875 10.203125 32.328125 15.578125 
z
M 14.546875 80.8125 
Q 22.171875 73.296875 29.984375 64.59375 
L 23.140625 58.84375 
Q 15.140625 69.1875 8.6875 75.828125 
z
M 67.578125 82.46875 
L 66.21875 80.03125 
Q 76.46875 60.5 98.734375 50.34375 
Q 95.515625 46.140625 93.453125 43.21875 
Q 71.390625 56.109375 61.921875 73.296875 
Q 53.125 57.28125 30.078125 42.71875 
Q 27.046875 46.734375 24.609375 49.5625 
Q 49.125 61.96875 58.59375 82.46875 
z
M 30.671875 -6.109375 
Q 68.953125 5.125 87.796875 25.34375 
L 93.5625 20.0625 
Q 73.734375 -1.21875 34.671875 -13.625 
Q 32.71875 -9.8125 30.671875 -6.109375 
z
M 33.796875 35.203125 
Q 54.59375 43.796875 65.046875 56.203125 
L 71.1875 51.609375 
Q 59.28125 38.140625 38.09375 28.46875 
Q 35.84375 32.078125 33.796875 35.203125 
z
M 36.421875 15.375 
Q 62.015625 25.828125 77.046875 40.875 
L 82.625 35.6875 
Q 66.796875 19.390625 40.53125 8.453125 
Q 39.0625 11.078125 36.421875 15.375 
z
" id="MicrosoftYaHei-35786"/>
      </defs>
      <use xlink:href="#MicrosoftYaHei-26032"/>
      <use x="100" xlink:href="#MicrosoftYaHei-22686"/>
      <use x="200" xlink:href="#MicrosoftYaHei-30830"/>
      <use x="300" xlink:href="#MicrosoftYaHei-35786"/>
     </g>
    </g>
   </g>
   <g id="line2d_16">
    <path clip-path="url(#p3d75eb3b0e)" d="M 69.218182 242.116364 
L 143.836364 242.086573 
L 145.8 241.967409 
L 147.763636 242.066712 
L 157.581818 241.977339 
L 159.545455 241.699291 
L 163.472727 241.570197 
L 165.436364 241.222636 
L 167.4 241.192845 
L 169.363636 240.537445 
L 171.327273 240.805563 
L 173.290909 240.170023 
L 175.254545 239.901905 
L 177.218182 239.822462 
L 179.181818 241.172984 
L 181.145455 235.969502 
L 183.109091 234.162186 
L 185.072727 236.982394 
L 187.036364 235.820548 
L 189 234.996332 
L 190.963636 231.123512 
L 192.927273 234.132395 
L 194.890909 234.400514 
L 196.854545 226.535709 
L 198.818182 231.153303 
L 200.781818 230.577345 
L 202.745455 229.584314 
L 204.709091 227.449298 
L 206.672727 227.320204 
L 208.636364 230.656787 
L 210.6 229.892153 
L 212.563636 228.392677 
L 214.527273 227.359925 
L 216.490909 228.382747 
L 218.454545 230.497902 
L 220.418182 231.530654 
L 222.381818 224.450344 
L 224.345455 233.169155 
L 226.309091 223.953829 
L 228.272727 224.470205 
L 230.236364 224.817766 
L 232.2 227.121597 
L 234.163636 227.51881 
L 236.127273 222.355049 
L 238.090909 231.788842 
L 240.054545 218.263762 
L 242.018182 222.990589 
L 243.981818 226.088845 
L 245.945455 227.945813 
L 247.909091 226.863409 
L 249.872727 230.468111 
L 251.836364 223.516895 
L 253.8 229.961666 
L 255.763636 221.659927 
L 257.727273 223.099822 
L 259.690909 230.775951 
L 261.654545 214.708711 
L 263.618182 229.226823 
L 265.581818 229.46515 
L 267.545455 227.717416 
L 269.509091 227.955743 
L 271.472727 223.66585 
L 273.436364 230.041108 
L 275.4 230.597205 
L 277.363636 230.339017 
L 279.327273 230.75609 
L 281.290909 231.689539 
L 283.254545 233.526647 
L 285.218182 226.198079 
L 289.145455 234.191977 
L 291.109091 227.250691 
L 293.072727 236.029084 
L 295.036364 242.116364 
L 297 220.150521 
L 298.963636 226.545639 
L 300.927273 230.309226 
L 302.890909 235.979433 
L 304.854545 229.216892 
L 306.818182 235.671593 
L 308.781818 233.457134 
L 310.745455 232.255567 
L 312.709091 230.021247 
L 314.672727 234.311141 
L 316.636364 233.824556 
L 318.6 234.172117 
L 320.563636 236.187969 
L 322.527273 235.23466 
L 324.490909 239.286226 
L 326.454545 236.068806 
L 328.418182 234.946681 
L 330.381818 235.741105 
L 332.345455 236.704345 
L 334.309091 238.054867 
L 336.272727 235.413405 
L 338.236364 240.110441 
L 340.2 238.015146 
L 342.163636 237.478909 
L 344.127273 238.372637 
L 346.090909 238.541452 
L 348.054545 238.938665 
L 350.018182 238.283264 
L 351.981818 238.47194 
L 353.945455 238.054867 
L 355.909091 238.243543 
L 357.872727 238.958525 
L 359.836364 239.137271 
L 361.8 238.879083 
L 363.763636 239.345807 
L 365.727273 238.342846 
L 367.690909 240.408351 
L 369.654545 239.75295 
L 371.618182 239.951556 
L 373.581818 235.482917 
L 373.581818 235.482917 
" style="fill:none;stroke:#4c72b0;stroke-linecap:round;stroke-width:1.5;"/>
   </g>
   <g id="line2d_17">
    <path clip-path="url(#p3d75eb3b0e)" d="M 75.109091 242.116364 
L 141.872727 242.026991 
L 143.836364 241.977339 
L 145.8 242.096503 
L 151.690909 242.116364 
L 153.654545 241.927688 
L 155.618182 242.086573 
L 157.581818 241.9972 
L 161.509091 242.086573 
L 163.472727 241.887967 
L 165.436364 242.086573 
L 167.4 241.848245 
L 169.363636 241.977339 
L 171.327273 241.897897 
L 173.290909 241.619848 
L 175.254545 241.520545 
L 177.218182 241.540406 
L 179.181818 241.381521 
L 181.145455 241.083612 
L 183.109091 241.252427 
L 185.072727 241.68936 
L 187.036364 241.37159 
L 189 240.189884 
L 190.963636 241.063751 
L 192.927273 239.862184 
L 194.890909 240.497723 
L 196.854545 239.901905 
L 198.818182 237.82647 
L 200.781818 237.369676 
L 202.745455 238.591104 
L 204.709091 235.413405 
L 206.672727 235.125426 
L 208.636364 237.071767 
L 210.6 237.300164 
L 212.563636 236.247551 
L 214.527273 233.218807 
L 216.490909 234.489886 
L 218.454545 233.00034 
L 220.418182 233.129434 
L 222.381818 227.588322 
L 224.345455 231.014278 
L 226.309091 233.913929 
L 228.272727 231.431351 
L 230.236364 232.603128 
L 232.2 228.978565 
L 234.163636 226.823688 
L 236.127273 228.918983 
L 238.090909 227.359925 
L 240.054545 229.912014 
L 242.018182 224.718463 
L 243.981818 227.320204 
L 245.945455 222.504004 
L 247.909091 227.588322 
L 249.872727 226.287451 
L 251.836364 224.112714 
L 253.8 228.48205 
L 255.763636 220.220033 
L 257.727273 218.174389 
L 259.690909 220.229963 
L 261.654545 216.764285 
L 263.618182 200.627533 
L 265.581818 215.503136 
L 267.545455 205.831015 
L 269.509091 209.376135 
L 271.472727 209.147738 
L 273.436364 209.574742 
L 275.4 194.838163 
L 277.363636 211.76934 
L 279.327273 207.112025 
L 281.290909 205.155754 
L 283.254545 202.722829 
L 285.218182 202.693038 
L 287.181818 192.593914 
L 289.145455 190.061685 
L 291.109091 192.762729 
L 293.072727 242.116364 
L 295.036364 186.397401 
L 297 242.116364 
L 298.963636 59.885267 
L 300.927273 174.917964 
L 302.890909 172.832599 
L 304.854545 177.221796 
L 306.818182 178.691481 
L 308.781818 176.913956 
L 310.745455 167.976678 
L 312.709091 163.031384 
L 314.672727 158.900376 
L 316.636364 158.781212 
L 318.6 160.97581 
L 320.563636 153.647242 
L 322.527273 149.72477 
L 324.490909 144.292891 
L 326.454545 143.9354 
L 328.418182 143.101254 
L 332.345455 142.94237 
L 334.309091 142.96223 
L 336.272727 142.852997 
L 338.236364 133.3199 
L 340.2 128.334885 
L 342.163636 123.65771 
L 344.127273 127.897952 
L 346.090909 136.18976 
L 348.054545 133.141155 
L 350.018182 114.204056 
L 351.981818 107.203188 
L 355.909091 89.060514 
L 357.872727 94.939257 
L 359.836364 93.827062 
L 361.8 83.549192 
L 363.763636 74.075678 
L 365.727273 70.361742 
L 367.690909 57.889274 
L 369.654545 44.443636 
L 371.618182 48.882484 
L 373.581818 58.187184 
L 373.581818 58.187184 
" style="fill:none;stroke:#dd8452;stroke-linecap:round;stroke-width:1.5;"/>
   </g>
   <g id="line2d_18">
    <path clip-path="url(#p3d75eb3b0e)" d="M 77.072727 242.116364 
L 118.309091 242.116364 
L 120.272727 241.947548 
L 122.236364 241.153124 
L 124.2 240.994239 
L 126.163636 241.590057 
L 128.127273 241.212706 
L 130.090909 240.587096 
L 132.054545 240.875075 
L 134.018182 239.782741 
L 135.981818 239.73309 
L 137.945455 236.495809 
L 139.909091 238.720198 
L 143.836364 236.287272 
L 145.8 233.794765 
L 147.763636 235.075775 
L 149.727273 229.733269 
L 151.690909 227.300343 
L 153.654545 224.271599 
L 155.618182 231.083791 
L 157.581818 220.478221 
L 159.545455 215.791115 
L 161.509091 216.823867 
L 163.472727 206.267949 
L 165.436364 205.691991 
L 167.4 201.560982 
L 169.363636 217.449477 
L 171.327273 185.791652 
L 173.290909 203.815163 
L 177.218182 160.717622 
L 179.181818 199.455757 
L 181.145455 193.815342 
L 183.109091 180.876149 
L 185.072727 203.974047 
L 187.036364 175.156291 
L 189 181.084686 
L 190.963636 184.7589 
L 192.927273 196.059591 
L 194.890909 198.25419 
L 196.854545 205.513245 
L 198.818182 194.629627 
L 200.781818 189.27719 
L 202.745455 198.562029 
L 204.709091 195.096351 
L 206.672727 197.777535 
L 208.636364 209.058366 
L 210.6 211.501222 
L 212.563636 202.45471 
L 214.527273 204.986939 
L 216.490909 196.526316 
L 218.454545 196.00994 
L 220.418182 204.252096 
L 222.381818 213.884496 
L 224.345455 212.603486 
L 226.309091 215.63223 
L 228.272727 204.520214 
L 230.236364 207.429795 
L 232.2 207.449656 
L 234.163636 211.858713 
L 236.127273 192.613774 
L 238.090909 242.116364 
L 240.054545 208.651223 
L 242.018182 185.841304 
L 243.981818 242.116364 
L 245.945455 218.710626 
L 247.909091 219.038326 
L 249.872727 224.847557 
L 251.836364 221.352088 
L 253.8 221.401739 
L 255.763636 223.526826 
L 257.727273 222.603307 
L 259.690909 223.248777 
L 261.654545 228.323165 
L 263.618182 229.991457 
L 265.581818 231.441282 
L 267.545455 227.776998 
L 269.509091 228.204001 
L 271.472727 228.938844 
L 273.436364 231.361839 
L 275.4 234.152256 
L 277.363636 234.728214 
L 279.327273 228.194071 
L 281.290909 233.298249 
L 283.254545 232.265497 
L 285.218182 234.28135 
L 287.181818 233.427343 
L 289.145455 235.413405 
L 291.109091 237.637794 
L 293.072727 242.116364 
L 295.036364 234.043023 
L 297 242.116364 
L 298.963636 222.662889 
L 300.927273 235.472987 
L 302.890909 236.84337 
L 304.854545 239.137271 
L 306.818182 238.174031 
L 308.781818 236.317063 
L 310.745455 236.227691 
L 312.709091 236.992324 
L 314.672727 237.985355 
L 316.636364 238.591104 
L 318.6 240.348769 
L 320.563636 238.958525 
L 322.527273 238.928735 
L 324.490909 240.358699 
L 326.454545 236.972464 
L 328.418182 239.43518 
L 330.381818 240.160093 
L 332.345455 239.335877 
L 334.309091 239.306086 
L 336.272727 240.110441 
L 338.236364 238.352777 
L 340.2 240.497723 
L 342.163636 238.680477 
L 344.127273 238.759919 
L 346.090909 239.127341 
L 348.054545 240.030999 
L 350.018182 237.041976 
L 351.981818 240.646678 
L 353.945455 240.964448 
L 355.909091 239.891974 
L 357.872727 239.921765 
L 359.836364 242.036921 
L 361.8 241.073681 
L 363.763636 236.386575 
L 365.727273 239.176992 
L 367.690909 239.584135 
L 369.654545 240.37856 
L 371.618182 240.38849 
L 373.581818 240.865145 
L 373.581818 240.865145 
" style="fill:none;stroke:#55a868;stroke-linecap:round;stroke-width:1.5;"/>
   </g>
   <g id="line2d_19">
    <path clip-path="url(#p3d75eb3b0e)" d="M 116.345455 242.116364 
L 118.309091 241.957479 
L 122.236364 241.967409 
L 124.2 241.937618 
L 128.127273 241.67943 
L 130.090909 241.063751 
L 132.054545 241.868106 
L 134.018182 238.908874 
L 135.981818 238.293195 
L 137.945455 236.922812 
L 139.909091 233.824556 
L 141.872727 236.297203 
L 143.836364 242.116364 
L 145.8 223.99355 
L 147.763636 231.431351 
L 149.727273 234.738144 
L 151.690909 236.20783 
L 153.654545 233.367762 
L 155.618182 232.603128 
L 157.581818 231.441282 
L 159.545455 229.316196 
L 161.509091 228.561492 
L 165.436364 231.659748 
L 167.4 230.41846 
L 169.363636 230.279436 
L 171.327273 231.729261 
L 173.290909 229.832572 
L 175.254545 232.523685 
L 177.218182 231.908006 
L 179.181818 228.104698 
L 181.145455 224.61916 
L 183.109091 220.210102 
L 185.072727 218.392856 
L 187.036364 213.06028 
L 189 211.570734 
L 190.963636 213.308538 
L 192.927273 210.4784 
L 194.890909 211.223173 
L 198.818182 213.566726 
L 202.745455 216.694773 
L 204.709091 217.459407 
L 206.672727 219.534841 
L 208.636364 221.371949 
L 210.6 195.473703 
L 212.563636 242.116364 
L 216.490909 223.874386 
L 218.454545 225.661842 
L 222.381818 226.486058 
L 224.345455 227.101737 
L 226.309091 226.168288 
L 228.272727 227.230831 
L 230.236364 228.472119 
L 232.2 228.779959 
L 234.163636 229.266544 
L 236.127273 229.236753 
L 238.090909 230.259575 
L 240.054545 231.888146 
L 242.018182 230.517763 
L 243.981818 230.855393 
L 245.945455 230.666718 
L 247.909091 232.275428 
L 249.872727 231.07386 
L 251.836364 231.461142 
L 253.8 232.35487 
L 255.763636 232.126473 
L 257.727273 234.152256 
L 259.690909 232.424382 
L 261.654545 229.971596 
L 263.618182 228.978565 
L 265.581818 225.433445 
L 267.545455 227.369855 
L 269.509091 226.664803 
L 271.472727 226.932921 
L 273.436364 228.382747 
L 275.4 225.403654 
L 277.363636 227.409576 
L 279.327273 222.672819 
L 281.290909 224.162365 
L 283.254545 221.242855 
L 285.218182 224.668811 
L 287.181818 224.182226 
L 289.145455 219.336235 
L 291.109091 221.153482 
L 293.072727 242.116364 
L 297 242.116364 
L 298.963636 153.55787 
L 300.927273 220.46829 
L 302.890909 222.027349 
L 304.854545 224.370902 
L 306.818182 221.461321 
L 308.781818 219.693726 
L 310.745455 214.122823 
L 312.709091 219.455399 
L 314.672727 217.131707 
L 316.636364 212.533974 
L 318.6 211.163591 
L 320.563636 210.994776 
L 322.527273 206.62544 
L 324.490909 213.457492 
L 326.454545 219.584493 
L 328.418182 218.641114 
L 330.381818 221.828743 
L 332.345455 221.312367 
L 334.309091 222.146513 
L 336.272727 220.090939 
L 338.236364 218.392856 
L 340.2 218.184319 
L 342.163636 217.56864 
L 344.127273 217.797037 
L 346.090909 216.664982 
L 348.054545 216.178397 
L 350.018182 216.337282 
L 351.981818 241.848245 
L 353.945455 193.358547 
L 355.909091 218.601392 
L 357.872727 216.565679 
L 359.836364 217.836759 
L 361.8 216.982752 
L 363.763636 216.347212 
L 365.727273 216.019512 
L 367.690909 217.727525 
L 369.654545 217.399825 
L 371.618182 216.9331 
L 373.581818 217.717595 
L 373.581818 217.717595 
" style="fill:none;stroke:#c44e52;stroke-linecap:round;stroke-width:1.5;"/>
   </g>
   <g id="line2d_20">
    <path clip-path="url(#p3d75eb3b0e)" d="M 145.8 242.116364 
L 147.763636 242.116364 
L 149.727273 242.066712 
L 151.690909 242.116364 
L 153.654545 242.116364 
L 155.618182 242.116364 
L 157.581818 242.116364 
L 159.545455 241.957479 
L 161.509091 242.056782 
L 163.472727 242.116364 
L 165.436364 241.68936 
L 167.4 242.116364 
L 169.363636 241.659569 
L 171.327273 241.838315 
L 173.290909 241.232566 
L 175.254545 241.828385 
L 177.218182 241.570197 
L 179.181818 241.6695 
L 181.145455 241.798594 
L 183.109091 242.116364 
L 185.072727 241.272287 
L 187.036364 241.123333 
L 189 241.570197 
L 190.963636 241.758873 
L 192.927273 240.318978 
L 194.890909 241.143193 
L 196.854545 240.974378 
L 198.818182 242.116364 
L 200.781818 238.650686 
L 202.745455 242.116364 
L 204.709091 238.819501 
L 206.672727 236.803648 
L 208.636364 242.116364 
L 210.6 235.433266 
L 212.563636 228.432398 
L 214.527273 242.116364 
L 216.490909 226.57543 
L 218.454545 242.116364 
L 220.418182 226.009403 
L 222.381818 242.116364 
L 224.345455 242.116364 
L 226.309091 242.116364 
L 228.272727 214.470384 
L 230.236364 210.4784 
L 232.2 232.871246 
L 234.163636 230.120551 
L 236.127273 235.194938 
L 238.090909 227.101737 
L 240.054545 228.084837 
L 242.018182 225.59233 
L 243.981818 234.827517 
L 245.945455 205.543036 
L 247.909091 220.408709 
L 249.872727 230.378739 
L 251.836364 217.379964 
L 253.8 214.897387 
L 255.763636 211.878573 
L 257.727273 207.529098 
L 259.690909 221.510973 
L 261.654545 208.412896 
L 263.618182 227.776998 
L 265.581818 204.212375 
L 267.545455 206.089203 
L 269.509091 205.284848 
L 271.472727 209.137808 
L 273.436364 210.657145 
L 275.4 219.356096 
L 277.363636 227.071946 
L 279.327273 209.971954 
L 281.290909 199.942342 
L 283.254545 199.435896 
L 285.218182 203.477532 
L 287.181818 201.938334 
L 289.145455 205.056451 
L 291.109091 215.701742 
L 293.072727 196.933459 
L 295.036364 242.116364 
L 297 149.903516 
L 298.963636 213.030489 
L 300.927273 201.839031 
L 302.890909 200.359415 
L 304.854545 202.196522 
L 306.818182 184.798621 
L 308.781818 181.005243 
L 310.745455 183.78573 
L 312.709091 177.509774 
L 314.672727 168.771103 
L 316.636364 154.679995 
L 318.6 186.874056 
L 320.563636 194.004017 
L 322.527273 202.097219 
L 324.490909 199.574921 
L 326.454545 200.389206 
L 328.418182 198.840078 
L 330.381818 194.877885 
L 332.345455 210.528051 
L 334.309091 201.997916 
L 336.272727 191.600883 
L 338.236364 182.882072 
L 340.2 182.921793 
L 342.163636 198.59182 
L 344.127273 196.397222 
L 346.090909 209.783278 
L 348.054545 200.766558 
L 350.018182 204.857845 
L 351.981818 207.558889 
L 353.945455 206.992861 
L 355.909091 208.22422 
L 357.872727 206.387113 
L 359.836364 217.181358 
L 361.8 208.720735 
L 363.763636 203.596696 
L 365.727273 203.259065 
L 367.690909 204.758542 
L 369.654545 206.118994 
L 371.618182 208.055404 
L 373.581818 212.861674 
" style="fill:none;stroke:#8172b3;stroke-linecap:round;stroke-width:1.5;"/>
   </g>
   <g id="line2d_21">
    <path clip-path="url(#p3d75eb3b0e)" d="M 145.8 242.116364 
L 147.763636 242.116364 
L 149.727273 242.106433 
L 151.690909 242.116364 
L 153.654545 242.116364 
L 155.618182 242.066712 
L 157.581818 242.017061 
L 159.545455 242.046851 
L 161.509091 242.116364 
L 163.472727 241.848245 
L 165.436364 242.116364 
L 167.4 242.00713 
L 169.363636 241.580127 
L 171.327273 242.116364 
L 173.290909 241.262357 
L 175.254545 241.739012 
L 177.218182 242.116364 
L 179.181818 240.507654 
L 181.145455 242.116364 
L 183.109091 239.067759 
L 185.072727 242.116364 
L 187.036364 239.951556 
L 189 239.703299 
L 190.963636 241.947548 
L 192.927273 241.192845 
L 194.890909 241.659569 
L 196.854545 241.848245 
L 198.818182 241.848245 
L 200.781818 241.302078 
L 202.745455 241.68936 
L 204.709091 241.321939 
L 206.672727 241.421242 
L 208.636364 241.808524 
L 210.6 242.116364 
L 212.563636 240.537445 
L 214.527273 240.547375 
L 216.490909 242.116364 
L 218.454545 241.868106 
L 220.418182 240.676469 
L 222.381818 239.713229 
L 224.345455 242.116364 
L 226.309091 241.212706 
L 228.272727 241.133263 
L 230.236364 240.348769 
L 232.2 239.623856 
L 234.163636 240.885005 
L 236.127273 240.70626 
L 238.090909 240.477863 
L 240.054545 240.428211 
L 242.018182 238.958525 
L 243.981818 239.464971 
L 245.945455 240.71619 
L 247.909091 240.279257 
L 249.872727 239.663577 
L 251.836364 240.100511 
L 253.8 238.601034 
L 255.763636 239.167062 
L 257.727273 239.09755 
L 259.690909 238.293195 
L 261.654545 237.677516 
L 263.618182 237.776819 
L 265.581818 238.620895 
L 267.545455 239.772811 
L 269.509091 237.905913 
L 271.472727 230.319157 
L 273.436364 242.116364 
L 275.4 236.20783 
L 277.363636 228.859401 
L 279.327273 242.116364 
L 281.290909 234.92682 
L 283.254545 235.512708 
L 285.218182 234.321071 
L 287.181818 233.864277 
L 289.145455 230.597205 
L 291.109091 233.00034 
L 293.072727 234.499817 
L 295.036364 242.116364 
L 297 222.881355 
L 298.963636 232.305219 
L 300.927273 230.021247 
L 302.890909 229.802781 
L 304.854545 231.868285 
L 306.818182 235.671593 
L 308.781818 225.502957 
L 310.745455 227.558531 
L 312.709091 223.874386 
L 314.672727 224.96672 
L 316.636364 208.452617 
L 318.6 242.116364 
L 320.563636 227.667764 
L 322.527273 225.105745 
L 324.490909 209.674045 
L 326.454545 215.880488 
L 328.418182 216.90331 
L 330.381818 219.15749 
L 332.345455 216.357143 
L 334.309091 221.143551 
L 336.272727 217.985713 
L 338.236364 210.865682 
L 340.2 208.760456 
L 342.163636 204.291817 
L 344.127273 199.396175 
L 346.090909 207.409934 
L 348.054545 214.301569 
L 350.018182 201.620564 
L 351.981818 207.57875 
L 353.945455 204.132932 
L 355.909091 192.80245 
L 357.872727 196.228407 
L 359.836364 199.535199 
L 361.8 197.251228 
L 363.763636 185.632767 
L 365.727273 176.784862 
L 367.690909 180.399494 
L 369.654545 170.518837 
L 371.618182 179.217788 
L 373.581818 181.243571 
" style="fill:none;stroke:#937860;stroke-linecap:round;stroke-width:1.5;"/>
   </g>
   <g id="line2d_22"/>
   <g id="line2d_23"/>
   <g id="line2d_24"/>
   <g id="line2d_25"/>
   <g id="line2d_26"/>
   <g id="line2d_27"/>
   <g id="patch_3">
    <path d="M 54 252 
L 54 34.56 
" style="fill:none;stroke:#ffffff;stroke-linecap:square;stroke-linejoin:miter;stroke-width:1.25;"/>
   </g>
   <g id="patch_4">
    <path d="M 388.8 252 
L 388.8 34.56 
" style="fill:none;stroke:#ffffff;stroke-linecap:square;stroke-linejoin:miter;stroke-width:1.25;"/>
   </g>
   <g id="patch_5">
    <path d="M 54 252 
L 388.8 252 
" style="fill:none;stroke:#ffffff;stroke-linecap:square;stroke-linejoin:miter;stroke-width:1.25;"/>
   </g>
   <g id="patch_6">
    <path d="M 54 34.56 
L 388.8 34.56 
" style="fill:none;stroke:#ffffff;stroke-linecap:square;stroke-linejoin:miter;stroke-width:1.25;"/>
   </g>
   <g id="legend_1">
    <g id="patch_7">
     <path d="M 61.7 163.601563 
L 129.9 163.601563 
Q 132.1 163.601563 132.1 161.401563 
L 132.1 42.26 
Q 132.1 40.06 129.9 40.06 
L 61.7 40.06 
Q 59.5 40.06 59.5 42.26 
L 59.5 161.401563 
Q 59.5 163.601563 61.7 163.601563 
z
" style="fill:#eaeaf2;opacity:0.8;stroke:#cccccc;stroke-linejoin:miter;"/>
    </g>
    <g id="text_18">
     <!-- 国家 -->
     <g style="fill:#262626;" transform="translate(83.8 54.0525)scale(0.12 -0.12)">
      <defs>
       <path d="M 7.328125 78.078125 
L 92.78125 78.078125 
L 92.78125 -13.03125 
L 85.25 -13.03125 
L 85.25 -8.15625 
L 14.84375 -8.15625 
L 14.84375 -13.140625 
L 7.328125 -13.140625 
z
M 85.25 71.140625 
L 14.84375 71.140625 
L 14.84375 -1.21875 
L 85.25 -1.21875 
z
M 19.34375 15.765625 
L 46.296875 15.765625 
L 46.296875 35.109375 
L 22.75 35.109375 
L 22.75 41.75 
L 46.296875 41.75 
L 46.296875 54.828125 
L 20.90625 54.828125 
L 20.90625 61.46875 
L 79.109375 61.46875 
L 79.109375 54.828125 
L 53.515625 54.828125 
L 53.515625 41.75 
L 77.15625 41.75 
L 77.15625 35.109375 
L 53.515625 35.109375 
L 53.515625 15.765625 
L 80.671875 15.765625 
L 80.671875 9.125 
L 19.34375 9.125 
z
M 58.59375 28.859375 
L 64.0625 32.953125 
Q 69.4375 27.390625 73.25 22.515625 
L 67.484375 18.109375 
Q 62.796875 24.46875 58.59375 28.859375 
z
" id="MicrosoftYaHei-22269"/>
       <path d="M 3.03125 -3.265625 
Q 32.515625 5.171875 50 24.3125 
Q 48.640625 27.15625 46.828125 29.734375 
Q 32.28125 14.703125 6.640625 6.59375 
Q 5.171875 9.90625 3.125 13.234375 
Q 28.265625 20.171875 42.234375 35.25 
Q 40.625 36.859375 38.71875 38.421875 
Q 25.78125 29.25 6.9375 23.390625 
Q 5.078125 26.609375 2.546875 30.328125 
Q 25.828125 35.5 39.84375 47.703125 
L 15.234375 47.703125 
L 15.234375 54.734375 
L 84.96875 54.734375 
L 84.96875 47.703125 
L 49.515625 47.703125 
Q 47.015625 45.0625 44.140625 42.625 
Q 51.8125 36.421875 56.0625 28.765625 
Q 71.34375 36.234375 83.203125 44.09375 
L 87.796875 37.84375 
Q 79.828125 33.0625 70.84375 28.375 
Q 79.5 9.625 98.921875 2.203125 
Q 95.703125 -1.515625 92.875 -5.421875 
Q 73.78125 4.34375 64.546875 25.140625 
Q 61.765625 23.78125 58.890625 22.359375 
Q 64.453125 1.609375 57.125 -7.859375 
Q 53.609375 -12.0625 43.65625 -12.0625 
Q 39.75 -12.0625 31.34375 -11.765625 
Q 30.765625 -7.953125 29.890625 -3.65625 
Q 37.5 -4.546875 43.453125 -4.546875 
Q 54 -5.125 53.71875 8.15625 
Q 53.5625 12.546875 52.640625 16.609375 
Q 35.359375 -0.4375 6.546875 -10.015625 
Q 5.078125 -6.78125 3.03125 -3.265625 
z
M 5.171875 70.75 
L 49.3125 70.75 
Q 46.4375 75.09375 42.578125 80.03125 
L 49.421875 84.421875 
Q 53.8125 79.046875 57.421875 73.78125 
L 52.4375 70.75 
L 94.734375 70.75 
L 94.734375 54.046875 
L 86.921875 54.046875 
L 86.921875 63.53125 
L 12.984375 63.53125 
L 12.984375 54.046875 
L 5.171875 54.046875 
z
" id="MicrosoftYaHei-23478"/>
      </defs>
      <use xlink:href="#MicrosoftYaHei-22269"/>
      <use x="100" xlink:href="#MicrosoftYaHei-23478"/>
     </g>
    </g>
    <g id="line2d_28">
     <path d="M 63.9 67.47875 
L 85.9 67.47875 
" style="fill:none;stroke:#4c72b0;stroke-linecap:round;stroke-width:1.5;"/>
    </g>
    <g id="line2d_29"/>
    <g id="text_19">
     <!-- 加拿大 -->
     <g style="fill:#262626;" transform="translate(94.7 71.32875)scale(0.11 -0.11)">
      <defs>
       <path d="M 57.234375 70.0625 
L 94.34375 70.0625 
L 94.34375 -10.40625 
L 86.625 -10.40625 
L 86.625 -0.53125 
L 64.9375 -0.53125 
L 64.9375 -10.40625 
L 57.234375 -10.40625 
z
M 3.609375 65.28125 
L 17.234375 65.28125 
Q 17.328125 73.140625 17.28125 82.765625 
L 25 82.765625 
Q 25 73.046875 24.90625 65.28125 
L 47.65625 65.28125 
Q 47.171875 27.78125 46.390625 6.390625 
Q 46 -11.1875 33.109375 -10.5 
Q 29.296875 -10.5 21.875 -10.203125 
Q 21.1875 -6.109375 20.3125 -1.703125 
Q 27.15625 -2.59375 31.453125 -2.59375 
Q 37.984375 -2.78125 38.578125 6.6875 
Q 39.65625 29.828125 39.84375 57.859375 
L 24.8125 57.859375 
Q 24.703125 50.390625 24.515625 45.171875 
Q 24.125 6.984375 6.15625 -13.625 
Q 3.71875 -10.59375 0.390625 -7.078125 
Q 16.609375 10.6875 16.890625 45.953125 
Q 17.09375 51.078125 17.1875 57.859375 
L 3.609375 57.859375 
z
M 86.625 62.84375 
L 64.9375 62.84375 
L 64.9375 6.5 
L 86.625 6.5 
z
" id="MicrosoftYaHei-21152"/>
       <path d="M 2.25 6.5 
L 47.859375 6.5 
L 47.859375 12.359375 
L 11.328125 12.359375 
L 11.328125 17.625 
L 47.859375 17.625 
L 47.859375 23.78125 
Q 27.640625 23.09375 10.640625 22.796875 
Q 9.859375 26.90625 9.28125 28.953125 
Q 56.453125 29.34375 85.9375 31.390625 
L 87.109375 25.25 
Q 70.21875 24.5625 55.078125 23.96875 
L 55.078125 17.625 
L 87.703125 17.625 
L 87.703125 12.359375 
L 55.078125 12.359375 
L 55.078125 6.5 
L 97.359375 6.5 
L 97.359375 0.828125 
L 55.078125 0.828125 
L 55.078125 -1.8125 
Q 55.078125 -12.0625 45.015625 -12.25 
Q 39.75 -12.359375 30.078125 -12.359375 
Q 29.59375 -9.234375 28.71875 -4.828125 
Q 37.203125 -5.515625 42.578125 -5.515625 
Q 47.859375 -5.515625 47.859375 -0.4375 
L 47.859375 0.828125 
L 2.25 0.828125 
z
M 18.75 53.5625 
L 81.25 53.5625 
L 81.25 34.125 
L 74.421875 34.125 
L 74.421875 35.5 
L 25.59375 35.5 
L 25.59375 33.453125 
L 18.75 33.453125 
z
M 57.234375 82.953125 
L 55.671875 81.390625 
Q 71.484375 66.453125 98.640625 60.296875 
Q 95.609375 56.5 93.84375 53.171875 
Q 80.28125 57.375 69.53125 63.234375 
L 69.53125 59.515625 
L 29.78125 59.515625 
L 29.78125 63.234375 
Q 18.84375 57.171875 5.859375 51.90625 
Q 3.515625 55.515625 1.375 58.0625 
Q 29.390625 68.21875 46.875 82.953125 
z
M 74.421875 48.09375 
L 25.59375 48.09375 
L 25.59375 40.96875 
L 74.421875 40.96875 
z
M 50.6875 76.90625 
Q 42.578125 70.65625 32.8125 64.984375 
L 66.5 64.984375 
Q 57.625 70.265625 50.6875 76.90625 
z
" id="MicrosoftYaHei-25343"/>
       <path d="M 1.375 -5.328125 
Q 41.65625 12.59375 44.828125 48.484375 
L 3.125 48.484375 
L 3.125 56.109375 
L 45.171875 56.109375 
Q 45.40625 69.234375 45.40625 82.5625 
L 53.90625 82.5625 
Q 53.90625 69.4375 53.65625 56.109375 
L 96.96875 56.109375 
L 96.96875 48.484375 
L 53.515625 48.484375 
Q 60.453125 9.46875 99.03125 -2.984375 
Q 94.046875 -7.765625 91.609375 -10.890625 
Q 59.8125 1.90625 50.046875 34.671875 
Q 42.4375 5.03125 7.421875 -12.84375 
Q 5.46875 -10.203125 1.375 -5.328125 
z
" id="MicrosoftYaHei-22823"/>
      </defs>
      <use xlink:href="#MicrosoftYaHei-21152"/>
      <use x="100" xlink:href="#MicrosoftYaHei-25343"/>
      <use x="200" xlink:href="#MicrosoftYaHei-22823"/>
     </g>
    </g>
    <g id="line2d_30">
     <path d="M 63.9 84.506406 
L 85.9 84.506406 
" style="fill:none;stroke:#dd8452;stroke-linecap:round;stroke-width:1.5;"/>
    </g>
    <g id="line2d_31"/>
    <g id="text_20">
     <!-- 印度 -->
     <g style="fill:#262626;" transform="translate(94.7 88.356406)scale(0.11 -0.11)">
      <defs>
       <path d="M 51.265625 75.4375 
L 92.96875 75.4375 
L 92.96875 16.453125 
Q 92.96875 3.5625 80.5625 3.46875 
Q 74.3125 3.375 65.625 3.5625 
Q 65.140625 7.859375 64.359375 12.546875 
Q 73.140625 11.765625 78.125 11.765625 
Q 84.96875 11.671875 84.96875 18.890625 
L 84.96875 67.828125 
L 59.28125 67.828125 
L 59.28125 -13.03125 
L 51.265625 -13.03125 
z
M 47.46875 76.125 
Q 34.578125 72.609375 15.53125 68.703125 
L 15.53125 46.234375 
L 45.125 46.234375 
L 45.125 38.921875 
L 15.53125 38.921875 
L 15.53125 8.640625 
Q 30.765625 13.53125 45.703125 18.890625 
Q 45.703125 14.703125 46.484375 10.59375 
Q 30.078125 5.21875 15.71875 -0.4375 
Q 12.3125 -2.09375 9.859375 -4.34375 
L 4.59375 2.484375 
Q 7.71875 6 7.515625 11.375 
L 7.515625 74.46875 
Q 28.609375 78.5625 43.75 83.25 
z
" id="MicrosoftYaHei-21360"/>
       <path d="M 24.21875 19 
L 24.21875 25.4375 
L 85.453125 25.4375 
L 85.453125 19.09375 
Q 76.609375 9.578125 64.796875 2.546875 
Q 78.90625 -3.125 97.859375 -4.828125 
L 94.046875 -12.453125 
Q 72.265625 -9.421875 56.9375 -1.703125 
Q 40.625 -9.671875 19.53125 -13.53125 
Q 17.96875 -10.40625 15.53125 -6.5 
Q 34.859375 -3.46875 49.46875 2.59375 
Q 39.015625 9.375 32.28125 19 
z
M 21.296875 55.328125 
L 35.84375 55.328125 
L 35.84375 63.53125 
L 43.265625 63.53125 
L 43.265625 55.328125 
L 70.90625 55.328125 
L 70.90625 63.625 
L 78.328125 63.625 
L 78.328125 55.328125 
L 96.09375 55.328125 
L 96.09375 48.875 
L 78.328125 48.875 
L 78.328125 30.125 
L 70.90625 30.125 
L 70.90625 33.546875 
L 43.265625 33.546875 
L 43.265625 30.03125 
L 35.84375 30.03125 
L 35.84375 48.875 
L 21.296875 48.875 
z
M 47.265625 80.8125 
L 54.390625 84.234375 
Q 57.71875 79 61.078125 72.40625 
L 97.078125 72.40625 
L 97.078125 65.578125 
L 19.140625 65.578125 
L 19.140625 36.1875 
Q 19.140625 2.78125 6.15625 -13.625 
Q 3.71875 -10.40625 0.59375 -6.984375 
Q 11.328125 6.203125 11.53125 36.671875 
L 11.53125 72.40625 
L 52.046875 72.40625 
Q 49.8125 76.703125 47.265625 80.8125 
z
M 43.265625 39.796875 
L 70.90625 39.796875 
L 70.90625 48.875 
L 43.265625 48.875 
z
M 75.296875 19 
L 40.4375 19 
Q 47.359375 11.375 57.125 6.109375 
Q 67.71875 11.578125 75.296875 19 
z
" id="MicrosoftYaHei-24230"/>
      </defs>
      <use xlink:href="#MicrosoftYaHei-21360"/>
      <use x="100" xlink:href="#MicrosoftYaHei-24230"/>
     </g>
    </g>
    <g id="line2d_32">
     <path d="M 63.9 101.534063 
L 85.9 101.534063 
" style="fill:none;stroke:#55a868;stroke-linecap:round;stroke-width:1.5;"/>
    </g>
    <g id="line2d_33"/>
    <g id="text_21">
     <!-- 意大利 -->
     <g style="fill:#262626;" transform="translate(94.7 105.384063)scale(0.11 -0.11)">
      <defs>
       <path d="M 42.28125 11.859375 
L 47.21875 16.0625 
L 22.171875 16.0625 
L 22.171875 13.03125 
L 14.9375 13.03125 
L 14.9375 46.828125 
L 84.46875 46.828125 
L 84.46875 13.03125 
L 77.25 13.03125 
L 77.25 16.0625 
L 47.46875 16.0625 
Q 53.859375 10.640625 58.6875 5.515625 
L 52.9375 0.734375 
Q 48.828125 5.515625 42.28125 11.859375 
z
M 2.34375 58.15625 
L 29.78125 58.15625 
Q 25.921875 61.8125 21.96875 65.1875 
L 24.90625 67.921875 
L 8.40625 67.921875 
L 8.40625 73.78125 
L 47.3125 73.78125 
Q 45.3125 77.875 43.171875 81.5 
L 49.8125 84.328125 
Q 52.984375 78.8125 55.28125 73.78125 
L 91.609375 73.78125 
L 91.609375 67.921875 
L 74.5625 67.921875 
L 77.9375 65.375 
Q 74.03125 61.765625 69.875 58.15625 
L 97.65625 58.15625 
L 97.65625 52.296875 
L 2.34375 52.296875 
z
M 25.78125 12.359375 
L 33.203125 12.359375 
L 33.203125 1.21875 
Q 33.203125 -4.4375 39.65625 -4.4375 
L 59.671875 -4.4375 
Q 66.703125 -4.4375 67.96875 0.921875 
Q 68.953125 4.640625 69.734375 9.71875 
Q 73.140625 8.25 77.046875 6.984375 
Q 75.875 1.421875 74.90625 -2 
Q 72.5625 -11.078125 61.71875 -11.078125 
L 38.09375 -11.078125 
Q 25.78125 -11.078125 25.78125 0.53125 
z
M 22.171875 21.734375 
L 77.25 21.734375 
L 77.25 28.765625 
L 22.171875 28.765625 
z
M 77.25 41.15625 
L 22.171875 41.15625 
L 22.171875 34.234375 
L 77.25 34.234375 
z
M 61.328125 59.90625 
Q 65.28125 63.234375 70.015625 67.921875 
L 28.71875 67.921875 
Q 33.0625 64.703125 37.203125 61.078125 
L 34.234375 58.15625 
L 63.09375 58.15625 
z
M 10.25 11.859375 
L 17.09375 9.234375 
Q 13.578125 0.34375 8.890625 -8.734375 
Q 5.953125 -7.375 2.046875 -5.71875 
Q 6.0625 1.515625 10.25 11.859375 
z
M 80.859375 7.859375 
L 86.421875 12.15625 
Q 93.359375 4.734375 98.828125 -1.8125 
L 92.671875 -6.6875 
Q 86.71875 1.125 80.859375 7.859375 
z
" id="MicrosoftYaHei-24847"/>
       <path d="M 1.171875 11.578125 
Q 14.265625 25.828125 23.25 46.828125 
L 1.65625 46.828125 
L 1.65625 53.953125 
L 25.09375 53.953125 
L 25.09375 68.609375 
Q 15.046875 67.625 5.171875 66.75 
Q 4.5 70.359375 3.21875 74.171875 
Q 26.65625 76.03125 51.078125 79.15625 
L 53.03125 71.734375 
Q 42.671875 70.453125 32.515625 69.390625 
L 32.515625 53.953125 
L 54.6875 53.953125 
L 54.6875 46.828125 
L 32.515625 46.828125 
L 32.515625 33.734375 
L 36.8125 37.84375 
Q 46 30.03125 55.078125 21.046875 
L 49.125 14.984375 
Q 43.171875 21.921875 32.515625 32.078125 
L 32.515625 -12.9375 
L 25.09375 -12.9375 
L 25.09375 35.890625 
Q 16.703125 16.9375 5.078125 2.78125 
Q 2.4375 9.125 1.171875 11.578125 
z
M 85.0625 81.203125 
L 92.78125 81.203125 
L 92.78125 -0.140625 
Q 92.78125 -12.546875 80.28125 -12.453125 
Q 76.265625 -12.453125 67.28125 -12.359375 
Q 66.703125 -8.34375 65.828125 -3.5625 
Q 73.734375 -4.4375 77.828125 -4.4375 
Q 85.0625 -4.546875 85.0625 2.875 
z
M 61.921875 71.4375 
L 69.34375 71.4375 
L 69.34375 9.71875 
L 61.921875 9.71875 
z
" id="MicrosoftYaHei-21033"/>
      </defs>
      <use xlink:href="#MicrosoftYaHei-24847"/>
      <use x="100" xlink:href="#MicrosoftYaHei-22823"/>
      <use x="200" xlink:href="#MicrosoftYaHei-21033"/>
     </g>
    </g>
    <g id="line2d_34">
     <path d="M 63.9 118.561719 
L 85.9 118.561719 
" style="fill:none;stroke:#c44e52;stroke-linecap:round;stroke-width:1.5;"/>
    </g>
    <g id="line2d_35"/>
    <g id="text_22">
     <!-- 伊朗 -->
     <g style="fill:#262626;" transform="translate(94.7 122.411719)scale(0.11 -0.11)">
      <defs>
       <path d="M 30.28125 26.703125 
L 48.578125 26.703125 
Q 49.515625 34.28125 49.609375 44.578125 
L 27.34375 44.578125 
L 27.34375 51.609375 
L 49.65625 51.609375 
Q 49.703125 57.90625 49.703125 69.28125 
L 33.796875 69.28125 
L 33.796875 76.125 
L 88.671875 76.125 
L 88.671875 51.609375 
L 98.53125 51.609375 
L 98.53125 44.578125 
L 88.671875 44.578125 
L 88.671875 15.671875 
L 81.25 15.671875 
L 81.25 19.875 
L 55.078125 19.875 
Q 51.953125 -1.125 33.40625 -13.421875 
Q 31.15625 -10.5 28.03125 -7.171875 
Q 44.53125 3.5625 47.515625 19.875 
L 30.28125 19.875 
z
M 0.875 37.359375 
Q 16.015625 57.765625 23.828125 83.546875 
L 31.734375 80.90625 
Q 26.90625 67.328125 21.1875 55.90625 
L 21.1875 -12.75 
L 13.765625 -12.75 
L 13.765625 42.53125 
Q 9.125 35.015625 4 28.65625 
Q 2.640625 32.859375 0.875 37.359375 
z
M 56 26.703125 
L 81.25 26.703125 
L 81.25 44.578125 
L 57.078125 44.578125 
Q 56.890625 34.46875 56 26.703125 
z
M 81.25 69.28125 
L 57.328125 69.28125 
Q 57.328125 58.5 57.234375 51.609375 
L 81.25 51.609375 
z
" id="MicrosoftYaHei-20234"/>
       <path d="M 54.203125 77.390625 
L 92.09375 77.390625 
L 92.09375 -0.53125 
Q 92.09375 -10.890625 81.9375 -10.890625 
L 69.140625 -10.890625 
Q 69.046875 -10.296875 67.96875 -3.375 
Q 75.59375 -3.765625 80.859375 -3.765625 
Q 84.671875 -3.765625 84.671875 -0.140625 
L 84.671875 21.34375 
L 60.796875 21.34375 
Q 57.8125 -1.078125 43.953125 -12.640625 
Q 41.21875 -9.8125 37.890625 -7.375 
Q 54.203125 5.328125 54.203125 35.109375 
z
M 25.6875 17.921875 
L 30.46875 22.3125 
Q 39.453125 14.109375 46.484375 6.296875 
L 41.703125 1.125 
Q 39.453125 3.71875 37.359375 6 
Q 14.265625 -5.5625 10.25 -9.515625 
L 5.765625 -2.59375 
Q 8.40625 0.046875 8.40625 4.4375 
L 8.40625 71.734375 
L 26.078125 71.734375 
Q 22.46875 75.921875 18.5625 79.25 
L 24.03125 83.84375 
Q 28.515625 79.828125 32.234375 75.828125 
L 27.640625 71.734375 
L 44.4375 71.734375 
L 44.4375 23.484375 
L 37.203125 23.484375 
L 37.203125 27.484375 
L 15.625 27.484375 
L 15.625 2.484375 
Q 24.5625 6.9375 32.515625 11.234375 
Q 28.765625 15.1875 25.6875 17.921875 
z
M 61.421875 27.984375 
L 84.671875 27.984375 
L 84.671875 46.046875 
L 61.625 46.046875 
Q 61.71875 34.421875 61.421875 27.984375 
z
M 84.671875 70.75 
L 61.625 70.75 
L 61.625 52.6875 
L 84.671875 52.6875 
z
M 15.625 33.9375 
L 37.203125 33.9375 
L 37.203125 46.53125 
L 15.625 46.53125 
z
M 37.203125 65.28125 
L 15.625 65.28125 
L 15.625 52.984375 
L 37.203125 52.984375 
z
" id="MicrosoftYaHei-26391"/>
      </defs>
      <use xlink:href="#MicrosoftYaHei-20234"/>
      <use x="100" xlink:href="#MicrosoftYaHei-26391"/>
     </g>
    </g>
    <g id="line2d_36">
     <path d="M 63.9 135.589375 
L 85.9 135.589375 
" style="fill:none;stroke:#8172b3;stroke-linecap:round;stroke-width:1.5;"/>
    </g>
    <g id="line2d_37"/>
    <g id="text_23">
     <!-- 秘鲁 -->
     <g style="fill:#262626;" transform="translate(94.7 139.439375)scale(0.11 -0.11)">
      <defs>
       <path d="M 31.640625 -1.125 
Q 43.3125 6.5 52.546875 16.3125 
L 52.546875 67.921875 
L 59.859375 67.921875 
L 59.859375 24.953125 
Q 74.359375 44.09375 82.234375 73.6875 
L 89.84375 71.921875 
Q 79.640625 34.671875 59.859375 12.703125 
L 59.859375 4.046875 
Q 59.859375 -1.8125 65.625 -1.8125 
L 73.25 -1.8125 
Q 80.28125 -1.8125 80.953125 4.046875 
Q 81.9375 10.015625 82.328125 19.875 
Q 86.234375 18.109375 90.140625 16.9375 
Q 89.359375 7.078125 88.578125 1.703125 
Q 87.109375 -9.234375 74.3125 -9.234375 
L 63.484375 -9.234375 
Q 52.546875 -9.234375 52.546875 3.078125 
L 52.546875 5.328125 
Q 45.21875 -1.421875 36.71875 -6.984375 
Q 35.359375 -4.9375 31.640625 -1.125 
z
M 1.65625 13.71875 
Q 10.5 29.203125 15.671875 48.390625 
L 3.515625 48.390625 
L 3.515625 55.328125 
L 16.703125 55.328125 
L 16.703125 68.703125 
Q 11.03125 68.265625 4.59375 67.828125 
Q 4.109375 71.140625 3.125 74.953125 
Q 23.046875 76.03125 37.890625 78.171875 
L 39.65625 70.75 
Q 33.15625 70.0625 23.921875 69.28125 
L 23.921875 55.328125 
L 37.3125 55.328125 
L 37.3125 48.390625 
L 23.921875 48.390625 
L 23.921875 40.875 
L 28.03125 43.609375 
Q 32.125 37.546875 37.015625 28.375 
L 30.953125 24.46875 
Q 26.765625 32.953125 23.921875 38.03125 
L 23.921875 -12.25 
L 16.703125 -12.25 
L 16.703125 33.84375 
Q 11.96875 17.140625 5.078125 5.328125 
Q 3.515625 9.421875 1.65625 13.71875 
z
M 41.015625 47.3125 
L 48.34375 46.234375 
Q 46.09375 30.515625 43.453125 17.921875 
Q 38.578125 19.28125 36.234375 19.390625 
Q 39.359375 31.390625 41.015625 47.3125 
z
M 84.96875 45.65625 
L 92.28125 47.703125 
Q 96.09375 34.625 98.828125 21.828125 
L 91.3125 19.875 
Q 88.578125 33.84375 84.96875 45.65625 
z
M 55.953125 79.734375 
L 62.5 83.84375 
Q 68.453125 75.53125 75 64.984375 
L 67.96875 60.59375 
Q 62.109375 71.34375 55.953125 79.734375 
z
" id="MicrosoftYaHei-31192"/>
       <path d="M 1.859375 62.453125 
Q 17.484375 71.046875 26.5625 83.34375 
L 34.96875 83.34375 
Q 32.71875 80.46875 30.375 77.78125 
L 67.671875 77.78125 
L 67.671875 72.515625 
L 61.234375 65.375 
L 86.921875 65.375 
L 86.921875 35.40625 
L 80.28125 35.40625 
L 80.28125 37.453125 
L 19.734375 37.453125 
L 19.734375 35.40625 
L 13.09375 35.40625 
L 13.09375 61.578125 
Q 9.671875 58.984375 6.15625 56.78125 
Q 4.203125 59.8125 1.859375 62.453125 
z
M 14.84375 20.0625 
L 85.15625 20.0625 
L 85.15625 -13.03125 
L 78.328125 -13.03125 
L 78.328125 -9.03125 
L 21.6875 -9.03125 
L 21.6875 -13.03125 
L 14.84375 -13.03125 
z
M 2.734375 31.390625 
L 97.265625 31.390625 
L 97.265625 25.921875 
L 2.734375 25.921875 
z
M 78.328125 14.703125 
L 21.6875 14.703125 
L 21.6875 8.0625 
L 78.328125 8.0625 
z
M 21.6875 -3.65625 
L 78.328125 -3.65625 
L 78.328125 2.984375 
L 21.6875 2.984375 
z
M 17.828125 65.375 
L 52.4375 65.375 
L 58.5 72.3125 
L 25.296875 72.3125 
Q 21.6875 68.609375 17.828125 65.375 
z
M 80.28125 60.203125 
L 53.328125 60.203125 
L 53.328125 53.859375 
L 80.28125 53.859375 
z
M 19.734375 42.625 
L 46.6875 42.625 
L 46.6875 48.96875 
L 19.734375 48.96875 
z
M 19.734375 53.859375 
L 46.6875 53.859375 
L 46.6875 60.203125 
L 19.734375 60.203125 
z
M 53.328125 42.625 
L 80.28125 42.625 
L 80.28125 48.96875 
L 53.328125 48.96875 
z
" id="MicrosoftYaHei-40065"/>
      </defs>
      <use xlink:href="#MicrosoftYaHei-31192"/>
      <use x="100" xlink:href="#MicrosoftYaHei-40065"/>
     </g>
    </g>
    <g id="line2d_38">
     <path d="M 63.9 152.617031 
L 85.9 152.617031 
" style="fill:none;stroke:#937860;stroke-linecap:round;stroke-width:1.5;"/>
    </g>
    <g id="line2d_39"/>
    <g id="text_24">
     <!-- 南非 -->
     <g style="fill:#262626;" transform="translate(94.7 156.467031)scale(0.11 -0.11)">
      <defs>
       <path d="M 2.546875 71.140625 
L 46.390625 71.140625 
L 46.390625 82.171875 
L 54.390625 82.171875 
L 54.390625 71.140625 
L 97.171875 71.140625 
L 97.171875 64.203125 
L 54.390625 64.203125 
L 54.390625 54.25 
L 91.796875 54.25 
L 91.796875 -1.125 
Q 91.796875 -12.546875 80.46875 -12.640625 
Q 74.03125 -12.75 64.359375 -12.359375 
Q 63.765625 -8.734375 62.890625 -4.34375 
Q 72.5625 -4.9375 77.640625 -4.9375 
Q 84.078125 -4.9375 84.078125 0.734375 
L 84.078125 47.40625 
L 16.5 47.40625 
L 16.5 -13.03125 
L 8.796875 -13.03125 
L 8.796875 54.25 
L 46.390625 54.25 
L 46.390625 64.203125 
L 2.546875 64.203125 
z
M 20.3125 14.203125 
L 46.484375 14.203125 
L 46.484375 24.859375 
L 23.4375 24.859375 
L 23.4375 31.296875 
L 54.109375 31.296875 
Q 58.796875 38.328125 63.578125 46.734375 
L 70.796875 42.71875 
Q 66.015625 36.1875 62.109375 31.296875 
L 77.15625 31.296875 
L 77.15625 24.859375 
L 54.109375 24.859375 
L 54.109375 14.203125 
L 80.28125 14.203125 
L 80.28125 7.765625 
L 54.109375 7.765625 
L 54.109375 -10.984375 
L 46.484375 -10.984375 
L 46.484375 7.765625 
L 20.3125 7.765625 
z
M 29.890625 42.828125 
L 35.640625 46.734375 
Q 40.625 40.96875 44.734375 35.5 
L 38.28125 31.5 
Q 34.375 37.15625 29.890625 42.828125 
z
" id="MicrosoftYaHei-21335"/>
       <path d="M 57.625 82.5625 
L 65.4375 82.5625 
L 65.4375 68.609375 
L 95.796875 68.609375 
L 95.796875 61.578125 
L 65.4375 61.578125 
L 65.4375 42.4375 
L 94.34375 42.4375 
L 94.34375 35.40625 
L 65.4375 35.40625 
L 65.4375 15.875 
L 97.953125 15.875 
L 97.953125 8.84375 
L 65.4375 8.84375 
L 65.4375 -12.453125 
L 57.625 -12.453125 
z
M 2.34375 15.875 
L 34.46875 15.875 
L 34.46875 35.40625 
L 5.859375 35.40625 
L 5.859375 42.4375 
L 34.46875 42.4375 
L 34.46875 61.578125 
L 4.296875 61.578125 
L 4.296875 68.609375 
L 34.46875 68.609375 
L 34.46875 82.5625 
L 42.28125 82.5625 
L 42.28125 -12.453125 
L 34.46875 -12.453125 
L 34.46875 8.84375 
L 2.34375 8.84375 
z
" id="MicrosoftYaHei-38750"/>
      </defs>
      <use xlink:href="#MicrosoftYaHei-21335"/>
      <use x="100" xlink:href="#MicrosoftYaHei-38750"/>
     </g>
    </g>
   </g>
  </g>
 </g>
 <defs>
  <clipPath id="p3d75eb3b0e">
   <rect height="217.44" width="334.8" x="54" y="34.56"/>
  </clipPath>
 </defs>
</svg>
