<?xml version="1.0" encoding="utf-8" standalone="no"?>
<!DOCTYPE svg PUBLIC "-//W3C//DTD SVG 1.1//EN"
  "http://www.w3.org/Graphics/SVG/1.1/DTD/svg11.dtd">
<!-- Created with matplotlib (https://matplotlib.org/) -->
<svg height="288pt" version="1.1" viewBox="0 0 432 288" width="432pt" xmlns="http://www.w3.org/2000/svg" xmlns:xlink="http://www.w3.org/1999/xlink">
 <metadata>
  <rdf:RDF xmlns:cc="http://creativecommons.org/ns#" xmlns:dc="http://purl.org/dc/elements/1.1/" xmlns:rdf="http://www.w3.org/1999/02/22-rdf-syntax-ns#">
   <cc:Work>
    <dc:type rdf:resource="http://purl.org/dc/dcmitype/StillImage"/>
    <dc:date>2020-11-15T16:57:51.991025</dc:date>
    <dc:format>image/svg+xml</dc:format>
    <dc:creator>
     <cc:Agent>
      <dc:title>Matplotlib v3.3.2, https://matplotlib.org/</dc:title>
     </cc:Agent>
    </dc:creator>
   </cc:Work>
  </rdf:RDF>
 </metadata>
 <defs>
  <style type="text/css">*{stroke-linecap:butt;stroke-linejoin:round;}</style>
 </defs>
 <g id="figure_1">
  <g id="patch_1">
   <path d="M 0 288 
L 432 288 
L 432 0 
L 0 0 
z
" style="fill:#ffffff;"/>
  </g>
  <g id="axes_1">
   <g id="patch_2">
    <path d="M 54 252 
L 388.8 252 
L 388.8 34.56 
L 54 34.56 
z
" style="fill:#eaeaf2;"/>
   </g>
   <g id="matplotlib.axis_1">
    <g id="xtick_1">
     <g id="line2d_1">
      <path clip-path="url(#p6ac9fcfc2e)" d="M 79.036364 252 
L 79.036364 34.56 
" style="fill:none;stroke:#ffffff;stroke-linecap:round;"/>
     </g>
     <g id="text_1">
      <!-- 2020-02 -->
      <g style="fill:#262626;" transform="translate(57.305348 270.293125)scale(0.11 -0.11)">
       <defs>
        <path d="M 41.65625 55.8125 
Q 41.65625 61.921875 37.796875 65.40625 
Q 33.9375 68.890625 27.296875 68.890625 
Q 22.609375 68.890625 17.8125 66.5 
Q 13.03125 64.109375 8.890625 59.671875 
L 8.890625 68.953125 
Q 12.59375 72.796875 17.296875 74.84375 
Q 22.015625 76.90625 28.375 76.90625 
Q 38.625 76.90625 44.875 71.40625 
Q 51.125 65.921875 51.125 56.546875 
Q 51.125 48.1875 47.28125 42.078125 
Q 43.453125 35.984375 34.1875 29.59375 
Q 24.703125 23.046875 21.5 20.21875 
Q 18.3125 17.390625 17.03125 14.796875 
Q 15.765625 12.203125 15.765625 8.5 
L 53.375 8.5 
L 53.375 0 
L 5.8125 0 
L 5.8125 3.765625 
Q 5.8125 10.296875 7.59375 14.859375 
Q 9.375 19.4375 13.46875 23.75 
Q 17.578125 28.078125 26.265625 34.125 
Q 35.15625 40.375 38.40625 45.09375 
Q 41.65625 49.8125 41.65625 55.8125 
z
" id="MicrosoftYaHei-50"/>
        <path d="M 4.4375 36.328125 
Q 4.4375 56.34375 11.078125 66.625 
Q 17.71875 76.90625 30.328125 76.90625 
Q 54.34375 76.90625 54.34375 38.140625 
Q 54.34375 19 47.578125 8.859375 
Q 40.828125 -1.265625 28.609375 -1.265625 
Q 17.09375 -1.265625 10.765625 8.34375 
Q 4.4375 17.96875 4.4375 36.328125 
z
M 14.203125 36.765625 
Q 14.203125 6.640625 29.5 6.640625 
Q 44.53125 6.640625 44.53125 37.25 
Q 44.53125 68.953125 29.78125 68.953125 
Q 14.203125 68.953125 14.203125 36.765625 
z
" id="MicrosoftYaHei-48"/>
        <path d="M 36.375 26.265625 
L 7.625 26.265625 
L 7.625 33.640625 
L 36.375 33.640625 
z
" id="MicrosoftYaHei-45"/>
       </defs>
       <use xlink:href="#MicrosoftYaHei-50"/>
       <use x="58.642578" xlink:href="#MicrosoftYaHei-48"/>
       <use x="117.285156" xlink:href="#MicrosoftYaHei-50"/>
       <use x="175.927734" xlink:href="#MicrosoftYaHei-48"/>
       <use x="234.570312" xlink:href="#MicrosoftYaHei-45"/>
       <use x="277.832031" xlink:href="#MicrosoftYaHei-48"/>
       <use x="336.474609" xlink:href="#MicrosoftYaHei-50"/>
      </g>
     </g>
    </g>
    <g id="xtick_2">
     <g id="line2d_2">
      <path clip-path="url(#p6ac9fcfc2e)" d="M 135.981818 252 
L 135.981818 34.56 
" style="fill:none;stroke:#ffffff;stroke-linecap:round;"/>
     </g>
     <g id="text_2">
      <!-- 2020-03 -->
      <g style="fill:#262626;" transform="translate(114.250803 270.293125)scale(0.11 -0.11)">
       <defs>
        <path d="M 6.984375 12.640625 
Q 14.75 6.640625 24.515625 6.640625 
Q 32.328125 6.640625 36.890625 10.46875 
Q 41.453125 14.3125 41.453125 20.75 
Q 41.453125 35.109375 20.90625 35.109375 
L 14.59375 35.109375 
L 14.59375 43.015625 
L 20.609375 43.015625 
Q 38.8125 43.015625 38.8125 56.5 
Q 38.8125 68.953125 24.90625 68.953125 
Q 16.9375 68.953125 9.90625 63.578125 
L 9.90625 72.609375 
Q 17.328125 76.90625 27.25 76.90625 
Q 36.921875 76.90625 42.78125 71.84375 
Q 48.640625 66.796875 48.640625 58.734375 
Q 48.640625 43.890625 33.5 39.65625 
L 33.5 39.453125 
Q 41.703125 38.578125 46.453125 33.671875 
Q 51.21875 28.765625 51.21875 21.4375 
Q 51.21875 11.234375 43.875 4.984375 
Q 36.53125 -1.265625 24.3125 -1.265625 
Q 13.578125 -1.265625 6.984375 2.734375 
z
" id="MicrosoftYaHei-51"/>
       </defs>
       <use xlink:href="#MicrosoftYaHei-50"/>
       <use x="58.642578" xlink:href="#MicrosoftYaHei-48"/>
       <use x="117.285156" xlink:href="#MicrosoftYaHei-50"/>
       <use x="175.927734" xlink:href="#MicrosoftYaHei-48"/>
       <use x="234.570312" xlink:href="#MicrosoftYaHei-45"/>
       <use x="277.832031" xlink:href="#MicrosoftYaHei-48"/>
       <use x="336.474609" xlink:href="#MicrosoftYaHei-51"/>
      </g>
     </g>
    </g>
    <g id="xtick_3">
     <g id="line2d_3">
      <path clip-path="url(#p6ac9fcfc2e)" d="M 196.854545 252 
L 196.854545 34.56 
" style="fill:none;stroke:#ffffff;stroke-linecap:round;"/>
     </g>
     <g id="text_3">
      <!-- 2020-04 -->
      <g style="fill:#262626;" transform="translate(175.12353 270.293125)scale(0.11 -0.11)">
       <defs>
        <path d="M 45.40625 75.640625 
L 45.40625 25.6875 
L 56.734375 25.6875 
L 56.734375 17.78125 
L 45.40625 17.78125 
L 45.40625 0 
L 36.140625 0 
L 36.140625 17.78125 
L 0.828125 17.78125 
L 0.828125 25.25 
Q 10.25 35.84375 19.765625 49.65625 
Q 29.296875 63.484375 35.5 75.640625 
z
M 11.578125 25.6875 
L 36.140625 25.6875 
L 36.140625 61.71875 
Q 31.0625 52.59375 25.25 44.015625 
Q 19.4375 35.453125 11.578125 25.6875 
z
" id="MicrosoftYaHei-52"/>
       </defs>
       <use xlink:href="#MicrosoftYaHei-50"/>
       <use x="58.642578" xlink:href="#MicrosoftYaHei-48"/>
       <use x="117.285156" xlink:href="#MicrosoftYaHei-50"/>
       <use x="175.927734" xlink:href="#MicrosoftYaHei-48"/>
       <use x="234.570312" xlink:href="#MicrosoftYaHei-45"/>
       <use x="277.832031" xlink:href="#MicrosoftYaHei-48"/>
       <use x="336.474609" xlink:href="#MicrosoftYaHei-52"/>
      </g>
     </g>
    </g>
    <g id="xtick_4">
     <g id="line2d_4">
      <path clip-path="url(#p6ac9fcfc2e)" d="M 255.763636 252 
L 255.763636 34.56 
" style="fill:none;stroke:#ffffff;stroke-linecap:round;"/>
     </g>
     <g id="text_4">
      <!-- 2020-05 -->
      <g style="fill:#262626;" transform="translate(234.032621 270.293125)scale(0.11 -0.11)">
       <defs>
        <path d="M 51.46875 23.34375 
Q 51.46875 12.25 44.109375 5.46875 
Q 36.765625 -1.3125 24.359375 -1.3125 
Q 13.71875 -1.3125 8.5 1.859375 
L 8.5 11.625 
Q 16.15625 6.640625 24.125 6.640625 
Q 32.03125 6.640625 36.890625 11 
Q 41.75 15.375 41.75 22.609375 
Q 41.75 29.828125 36.6875 33.859375 
Q 31.640625 37.890625 22.40625 37.890625 
Q 15.28125 37.890625 9.578125 37.25 
L 12.359375 75.640625 
L 47.703125 75.640625 
L 47.703125 67.234375 
L 20.40625 67.234375 
L 18.84375 45.796875 
L 25.734375 46.09375 
Q 37.75 46.09375 44.609375 40.109375 
Q 51.46875 34.125 51.46875 23.34375 
z
" id="MicrosoftYaHei-53"/>
       </defs>
       <use xlink:href="#MicrosoftYaHei-50"/>
       <use x="58.642578" xlink:href="#MicrosoftYaHei-48"/>
       <use x="117.285156" xlink:href="#MicrosoftYaHei-50"/>
       <use x="175.927734" xlink:href="#MicrosoftYaHei-48"/>
       <use x="234.570312" xlink:href="#MicrosoftYaHei-45"/>
       <use x="277.832031" xlink:href="#MicrosoftYaHei-48"/>
       <use x="336.474609" xlink:href="#MicrosoftYaHei-53"/>
      </g>
     </g>
    </g>
    <g id="xtick_5">
     <g id="line2d_5">
      <path clip-path="url(#p6ac9fcfc2e)" d="M 316.636364 252 
L 316.636364 34.56 
" style="fill:none;stroke:#ffffff;stroke-linecap:round;"/>
     </g>
     <g id="text_5">
      <!-- 2020-06 -->
      <g style="fill:#262626;" transform="translate(294.905348 270.293125)scale(0.11 -0.11)">
       <defs>
        <path d="M 49.703125 65.921875 
Q 43.796875 68.953125 37.359375 68.953125 
Q 27.546875 68.953125 21.578125 60.40625 
Q 15.625 51.859375 15.53125 37.0625 
L 15.765625 37.0625 
Q 21.140625 47.46875 32.90625 47.46875 
Q 42.71875 47.46875 48.578125 41.0625 
Q 54.4375 34.671875 54.4375 24.078125 
Q 54.4375 12.984375 47.671875 5.859375 
Q 40.921875 -1.265625 30.421875 -1.265625 
Q 18.890625 -1.265625 12.328125 7.734375 
Q 5.765625 16.75 5.765625 33.296875 
Q 5.765625 53.328125 14.375 65.109375 
Q 23 76.90625 37.0625 76.90625 
Q 45.125 76.90625 49.703125 74.703125 
z
M 16.109375 24.75 
Q 16.109375 17.28125 20.09375 11.953125 
Q 24.078125 6.640625 30.671875 6.640625 
Q 36.921875 6.640625 40.828125 11.234375 
Q 44.734375 15.828125 44.734375 23.046875 
Q 44.734375 30.859375 41.046875 35.203125 
Q 37.359375 39.546875 30.5625 39.546875 
Q 24.125 39.546875 20.109375 35.15625 
Q 16.109375 30.765625 16.109375 24.75 
z
" id="MicrosoftYaHei-54"/>
       </defs>
       <use xlink:href="#MicrosoftYaHei-50"/>
       <use x="58.642578" xlink:href="#MicrosoftYaHei-48"/>
       <use x="117.285156" xlink:href="#MicrosoftYaHei-50"/>
       <use x="175.927734" xlink:href="#MicrosoftYaHei-48"/>
       <use x="234.570312" xlink:href="#MicrosoftYaHei-45"/>
       <use x="277.832031" xlink:href="#MicrosoftYaHei-48"/>
       <use x="336.474609" xlink:href="#MicrosoftYaHei-54"/>
      </g>
     </g>
    </g>
    <g id="xtick_6">
     <g id="line2d_6">
      <path clip-path="url(#p6ac9fcfc2e)" d="M 375.545455 252 
L 375.545455 34.56 
" style="fill:none;stroke:#ffffff;stroke-linecap:round;"/>
     </g>
     <g id="text_6">
      <!-- 2020-07 -->
      <g style="fill:#262626;" transform="translate(353.814439 270.293125)scale(0.11 -0.11)">
       <defs>
        <path d="M 53.46875 69.734375 
Q 41.546875 48.921875 34.734375 31.21875 
Q 27.9375 13.53125 26.3125 0 
L 16.359375 0 
Q 18.171875 13.328125 24.90625 30.421875 
Q 31.640625 47.515625 42.921875 67.1875 
L 5.421875 67.1875 
L 5.421875 75.640625 
L 53.46875 75.640625 
z
" id="MicrosoftYaHei-55"/>
       </defs>
       <use xlink:href="#MicrosoftYaHei-50"/>
       <use x="58.642578" xlink:href="#MicrosoftYaHei-48"/>
       <use x="117.285156" xlink:href="#MicrosoftYaHei-50"/>
       <use x="175.927734" xlink:href="#MicrosoftYaHei-48"/>
       <use x="234.570312" xlink:href="#MicrosoftYaHei-45"/>
       <use x="277.832031" xlink:href="#MicrosoftYaHei-48"/>
       <use x="336.474609" xlink:href="#MicrosoftYaHei-55"/>
      </g>
     </g>
    </g>
    <g id="text_7">
     <!-- 日期 -->
     <g style="fill:#262626;" transform="translate(209.4 286.620156)scale(0.12 -0.12)">
      <defs>
       <path d="M 15.234375 76.703125 
L 84.859375 76.703125 
L 84.859375 -11.96875 
L 76.5625 -11.96875 
L 76.5625 -5.03125 
L 23.53125 -5.03125 
L 23.53125 -11.96875 
L 15.234375 -11.96875 
z
M 23.53125 32.859375 
L 23.53125 2.09375 
L 76.5625 2.09375 
L 76.5625 32.859375 
z
M 23.53125 69.390625 
L 23.53125 40.1875 
L 76.5625 40.1875 
L 76.5625 69.390625 
z
" id="MicrosoftYaHei-26085"/>
       <path d="M 58.890625 79.15625 
L 93.453125 79.15625 
L 93.453125 -0.046875 
Q 93.453125 -11.578125 82.515625 -11.578125 
Q 77.046875 -11.578125 71.78125 -11.28125 
Q 71.390625 -8.0625 70.609375 -3.765625 
Q 77.734375 -4.4375 80.859375 -4.4375 
Q 86.234375 -4.4375 86.234375 0.921875 
L 86.234375 21.4375 
L 65.328125 21.4375 
Q 64.265625 0.046875 52.34375 -14.109375 
Q 49.703125 -11.375 46.484375 -8.640625 
Q 54.390625 0.4375 56.546875 10.203125 
Q 58.890625 19.578125 58.890625 42.828125 
z
M 1.953125 17.828125 
L 11.140625 17.828125 
L 11.140625 62.9375 
L 3.125 62.9375 
L 3.125 69.578125 
L 11.140625 69.578125 
L 11.140625 81.5 
L 18.359375 81.5 
L 18.359375 69.578125 
L 38.671875 69.578125 
L 38.671875 81.890625 
L 45.90625 81.890625 
L 45.90625 69.578125 
L 53.8125 69.578125 
L 53.8125 62.9375 
L 45.90625 62.9375 
L 45.90625 17.828125 
L 53.71875 17.828125 
L 53.71875 11.1875 
L 1.953125 11.1875 
z
M 65.765625 27.875 
L 86.234375 27.875 
L 86.234375 47.015625 
L 66.109375 47.015625 
Q 66.21875 34.421875 65.765625 27.875 
z
M 86.234375 72.515625 
L 66.109375 72.515625 
L 66.109375 53.46875 
L 86.234375 53.46875 
z
M 18.359375 17.828125 
L 38.671875 17.828125 
L 38.671875 28.765625 
L 18.359375 28.765625 
z
M 18.359375 35.015625 
L 38.671875 35.015625 
L 38.671875 45.84375 
L 18.359375 45.84375 
z
M 18.359375 52.09375 
L 38.671875 52.09375 
L 38.671875 62.9375 
L 18.359375 62.9375 
z
M 18.359375 9.328125 
L 24.3125 4.640625 
Q 14.453125 -6 6.34375 -13.234375 
Q 4.296875 -10.890625 1.171875 -8.0625 
Q 10.453125 -0.140625 18.359375 9.328125 
z
M 31.15625 4.734375 
L 35.84375 9.515625 
Q 42.671875 4.4375 48.734375 -0.734375 
L 43.5625 -6.296875 
Q 38.09375 -0.828125 31.15625 4.734375 
z
" id="MicrosoftYaHei-26399"/>
      </defs>
      <use xlink:href="#MicrosoftYaHei-26085"/>
      <use x="100" xlink:href="#MicrosoftYaHei-26399"/>
     </g>
    </g>
   </g>
   <g id="matplotlib.axis_2">
    <g id="ytick_1">
     <g id="line2d_7">
      <path clip-path="url(#p6ac9fcfc2e)" d="M 54 242.116364 
L 388.8 242.116364 
" style="fill:none;stroke:#ffffff;stroke-linecap:round;"/>
     </g>
     <g id="text_8">
      <!-- 0 -->
      <g style="fill:#262626;" transform="translate(38.049531 246.512926)scale(0.11 -0.11)">
       <use xlink:href="#MicrosoftYaHei-48"/>
      </g>
     </g>
    </g>
    <g id="ytick_2">
     <g id="line2d_8">
      <path clip-path="url(#p6ac9fcfc2e)" d="M 54 212.597772 
L 388.8 212.597772 
" style="fill:none;stroke:#ffffff;stroke-linecap:round;"/>
     </g>
     <g id="text_9">
      <!-- 20000 -->
      <g style="fill:#262626;" transform="translate(12.247656 216.994334)scale(0.11 -0.11)">
       <use xlink:href="#MicrosoftYaHei-50"/>
       <use x="58.642578" xlink:href="#MicrosoftYaHei-48"/>
       <use x="117.285156" xlink:href="#MicrosoftYaHei-48"/>
       <use x="175.927734" xlink:href="#MicrosoftYaHei-48"/>
       <use x="234.570312" xlink:href="#MicrosoftYaHei-48"/>
      </g>
     </g>
    </g>
    <g id="ytick_3">
     <g id="line2d_9">
      <path clip-path="url(#p6ac9fcfc2e)" d="M 54 183.07918 
L 388.8 183.07918 
" style="fill:none;stroke:#ffffff;stroke-linecap:round;"/>
     </g>
     <g id="text_10">
      <!-- 40000 -->
      <g style="fill:#262626;" transform="translate(12.247656 187.475742)scale(0.11 -0.11)">
       <use xlink:href="#MicrosoftYaHei-52"/>
       <use x="58.642578" xlink:href="#MicrosoftYaHei-48"/>
       <use x="117.285156" xlink:href="#MicrosoftYaHei-48"/>
       <use x="175.927734" xlink:href="#MicrosoftYaHei-48"/>
       <use x="234.570312" xlink:href="#MicrosoftYaHei-48"/>
      </g>
     </g>
    </g>
    <g id="ytick_4">
     <g id="line2d_10">
      <path clip-path="url(#p6ac9fcfc2e)" d="M 54 153.560588 
L 388.8 153.560588 
" style="fill:none;stroke:#ffffff;stroke-linecap:round;"/>
     </g>
     <g id="text_11">
      <!-- 60000 -->
      <g style="fill:#262626;" transform="translate(12.247656 157.95715)scale(0.11 -0.11)">
       <use xlink:href="#MicrosoftYaHei-54"/>
       <use x="58.642578" xlink:href="#MicrosoftYaHei-48"/>
       <use x="117.285156" xlink:href="#MicrosoftYaHei-48"/>
       <use x="175.927734" xlink:href="#MicrosoftYaHei-48"/>
       <use x="234.570312" xlink:href="#MicrosoftYaHei-48"/>
      </g>
     </g>
    </g>
    <g id="ytick_5">
     <g id="line2d_11">
      <path clip-path="url(#p6ac9fcfc2e)" d="M 54 124.041996 
L 388.8 124.041996 
" style="fill:none;stroke:#ffffff;stroke-linecap:round;"/>
     </g>
     <g id="text_12">
      <!-- 80000 -->
      <g style="fill:#262626;" transform="translate(12.247656 128.438558)scale(0.11 -0.11)">
       <defs>
        <path d="M 4.78125 21.09375 
Q 4.78125 27.640625 8.6875 33.15625 
Q 12.59375 38.671875 18.75 41.015625 
Q 13.8125 43.796875 10.9375 48.140625 
Q 8.0625 52.484375 8.0625 57.5625 
Q 8.0625 62.9375 10.8125 67.375 
Q 13.578125 71.828125 18.484375 74.359375 
Q 23.390625 76.90625 29.296875 76.90625 
Q 35.25 76.90625 40.1875 74.390625 
Q 45.125 71.875 47.859375 67.421875 
Q 50.59375 62.984375 50.59375 57.5625 
Q 50.59375 52.59375 47.78125 48.21875 
Q 44.96875 43.84375 39.984375 41.015625 
Q 46.140625 38.625 50 33.109375 
Q 53.859375 27.59375 53.859375 21.09375 
Q 53.859375 14.65625 50.78125 9.546875 
Q 47.703125 4.4375 42.03125 1.609375 
Q 36.375 -1.21875 29.296875 -1.21875 
Q 22.265625 -1.21875 16.640625 1.609375 
Q 11.03125 4.4375 7.90625 9.5625 
Q 4.78125 14.703125 4.78125 21.09375 
z
M 14.15625 21.53125 
Q 14.15625 14.796875 18.3125 10.734375 
Q 22.46875 6.6875 29.34375 6.6875 
Q 36.078125 6.6875 40.34375 10.8125 
Q 44.625 14.9375 44.625 21.53125 
Q 44.625 27.78125 40.296875 32.046875 
Q 35.984375 36.328125 29.34375 36.328125 
Q 22.75 36.328125 18.453125 32.15625 
Q 14.15625 27.984375 14.15625 21.53125 
z
M 16.890625 56.78125 
Q 16.890625 51.703125 20.5 48.0625 
Q 24.125 44.4375 29.34375 44.4375 
Q 34.46875 44.4375 38.203125 48.09375 
Q 41.9375 51.765625 41.9375 56.78125 
Q 41.9375 61.921875 38.34375 65.484375 
Q 34.765625 69.046875 29.34375 69.046875 
Q 23.96875 69.046875 20.421875 65.546875 
Q 16.890625 62.0625 16.890625 56.78125 
z
" id="MicrosoftYaHei-56"/>
       </defs>
       <use xlink:href="#MicrosoftYaHei-56"/>
       <use x="58.642578" xlink:href="#MicrosoftYaHei-48"/>
       <use x="117.285156" xlink:href="#MicrosoftYaHei-48"/>
       <use x="175.927734" xlink:href="#MicrosoftYaHei-48"/>
       <use x="234.570312" xlink:href="#MicrosoftYaHei-48"/>
      </g>
     </g>
    </g>
    <g id="ytick_6">
     <g id="line2d_12">
      <path clip-path="url(#p6ac9fcfc2e)" d="M 54 94.523404 
L 388.8 94.523404 
" style="fill:none;stroke:#ffffff;stroke-linecap:round;"/>
     </g>
     <g id="text_13">
      <!-- 100000 -->
      <g style="fill:#262626;" transform="translate(5.797187 98.919966)scale(0.11 -0.11)">
       <defs>
        <path d="M 27.828125 0 
L 27.828125 64.703125 
Q 25.59375 62.453125 20.234375 59.671875 
Q 14.890625 56.890625 10.359375 55.765625 
L 10.359375 65.140625 
Q 16.359375 66.796875 23.1875 70.4375 
Q 30.03125 74.078125 33.6875 77.296875 
L 37.3125 77.296875 
L 37.3125 0 
z
" id="MicrosoftYaHei-49"/>
       </defs>
       <use xlink:href="#MicrosoftYaHei-49"/>
       <use x="58.642578" xlink:href="#MicrosoftYaHei-48"/>
       <use x="117.285156" xlink:href="#MicrosoftYaHei-48"/>
       <use x="175.927734" xlink:href="#MicrosoftYaHei-48"/>
       <use x="234.570312" xlink:href="#MicrosoftYaHei-48"/>
       <use x="293.212891" xlink:href="#MicrosoftYaHei-48"/>
      </g>
     </g>
    </g>
    <g id="ytick_7">
     <g id="line2d_13">
      <path clip-path="url(#p6ac9fcfc2e)" d="M 54 65.004812 
L 388.8 65.004812 
" style="fill:none;stroke:#ffffff;stroke-linecap:round;"/>
     </g>
     <g id="text_14">
      <!-- 120000 -->
      <g style="fill:#262626;" transform="translate(5.797187 69.401374)scale(0.11 -0.11)">
       <use xlink:href="#MicrosoftYaHei-49"/>
       <use x="58.642578" xlink:href="#MicrosoftYaHei-50"/>
       <use x="117.285156" xlink:href="#MicrosoftYaHei-48"/>
       <use x="175.927734" xlink:href="#MicrosoftYaHei-48"/>
       <use x="234.570312" xlink:href="#MicrosoftYaHei-48"/>
       <use x="293.212891" xlink:href="#MicrosoftYaHei-48"/>
      </g>
     </g>
    </g>
    <g id="ytick_8">
     <g id="line2d_14">
      <path clip-path="url(#p6ac9fcfc2e)" d="M 54 35.48622 
L 388.8 35.48622 
" style="fill:none;stroke:#ffffff;stroke-linecap:round;"/>
     </g>
     <g id="text_15">
      <!-- 140000 -->
      <g style="fill:#262626;" transform="translate(5.797187 39.882782)scale(0.11 -0.11)">
       <use xlink:href="#MicrosoftYaHei-49"/>
       <use x="58.642578" xlink:href="#MicrosoftYaHei-52"/>
       <use x="117.285156" xlink:href="#MicrosoftYaHei-48"/>
       <use x="175.927734" xlink:href="#MicrosoftYaHei-48"/>
       <use x="234.570312" xlink:href="#MicrosoftYaHei-48"/>
       <use x="293.212891" xlink:href="#MicrosoftYaHei-48"/>
      </g>
     </g>
    </g>
    <g id="text_16">
     <!-- 新增确诊 -->
     <g style="fill:#262626;" transform="translate(-1.185938 167.28)rotate(-90)scale(0.12 -0.12)">
      <defs>
       <path d="M 56.15625 74.953125 
Q 76.375 75.140625 93.453125 78.953125 
L 96 71.4375 
Q 76.65625 68.890625 63.09375 68.109375 
L 63.09375 45.359375 
L 98.734375 45.359375 
L 98.734375 38.71875 
L 84.765625 38.71875 
L 84.765625 -12.453125 
L 77.546875 -12.453125 
L 77.546875 38.71875 
L 63.09375 38.71875 
L 63.09375 33.9375 
Q 63.09375 3.953125 48.734375 -12.75 
Q 46.390625 -9.71875 43.5625 -6.5 
Q 56.15625 7.28125 56.15625 34.234375 
z
M 4.109375 31.109375 
L 24.03125 31.109375 
L 24.03125 40.375 
L 31.0625 40.375 
L 31.0625 31.109375 
L 50.203125 31.109375 
L 50.203125 24.859375 
L 31.0625 24.859375 
L 31.0625 -0.640625 
Q 31.0625 -10.984375 21.09375 -10.984375 
Q 16.890625 -10.984375 11.625 -10.890625 
Q 11.234375 -7.671875 10.546875 -3.46875 
Q 16.21875 -4.046875 19.4375 -4.046875 
Q 24.03125 -4.046875 24.03125 0.921875 
L 24.03125 24.859375 
L 4.109375 24.859375 
z
M 1.375 49.359375 
L 17.09375 49.359375 
Q 12.9375 55.953125 9.28125 60.6875 
L 14.546875 64.40625 
Q 17.78125 60.5 22.859375 53.375 
L 17.328125 49.359375 
L 30.21875 49.359375 
Q 35.546875 57.03125 40.046875 64.5 
L 46.96875 60.59375 
Q 42.234375 54.5 37.9375 49.359375 
L 52.734375 49.359375 
L 52.734375 43.109375 
L 1.375 43.109375 
z
M 4.5 72.015625 
L 25.59375 72.015625 
Q 23.484375 76.03125 20.796875 80.71875 
L 27.046875 83.640625 
Q 30.078125 78.65625 32.71875 73.578125 
L 29.4375 72.015625 
L 50.203125 72.015625 
L 50.203125 65.765625 
L 4.5 65.765625 
z
M 11.625 20.453125 
L 18.265625 17.328125 
Q 12.984375 6.296875 7.8125 -2.59375 
Q 4.984375 -0.828125 1.375 0.921875 
Q 6.15625 8.34375 11.625 20.453125 
z
M 39.75 19.96875 
Q 45.21875 12.546875 49.3125 6.296875 
L 43.0625 2 
Q 38.765625 9.515625 33.984375 16.15625 
z
" id="MicrosoftYaHei-26032"/>
       <path d="M 34.1875 69.671875 
L 50.921875 69.671875 
Q 47.515625 74.703125 43.359375 79.9375 
L 48.921875 83.84375 
Q 54 77.984375 57.71875 72.90625 
L 53.171875 69.671875 
L 69.578125 69.671875 
Q 74.359375 76.375 78.90625 83.9375 
L 85.9375 79.9375 
Q 81.78125 74.5625 77.78125 69.671875 
L 94.34375 69.671875 
L 94.34375 33.15625 
L 87.5 33.15625 
L 87.5 36.078125 
L 41.015625 36.078125 
L 41.015625 33.15625 
L 34.1875 33.15625 
z
M 38.09375 28.078125 
L 90.4375 28.078125 
L 90.4375 -13.234375 
L 83.40625 -13.234375 
L 83.40625 -8.546875 
L 45.125 -8.546875 
L 45.125 -13.234375 
L 38.09375 -13.234375 
z
M 1.265625 6.6875 
Q 7.28125 8.40625 13.96875 10.5 
L 13.96875 50.828125 
L 2.25 50.828125 
L 2.25 57.765625 
L 13.96875 57.765625 
L 13.96875 82.171875 
L 21.1875 82.171875 
L 21.1875 57.765625 
L 31.25 57.765625 
L 31.25 50.828125 
L 21.1875 50.828125 
L 21.1875 12.796875 
Q 26.703125 14.546875 32.71875 16.546875 
Q 32.90625 11.859375 33.203125 8.640625 
Q 20.40625 4.9375 3.90625 -0.828125 
z
M 87.5 63.8125 
L 67.578125 63.8125 
L 67.578125 41.9375 
L 87.5 41.9375 
z
M 41.015625 41.9375 
L 60.84375 41.9375 
L 60.84375 63.8125 
L 41.015625 63.8125 
z
M 83.40625 22.015625 
L 45.125 22.015625 
L 45.125 12.640625 
L 83.40625 12.640625 
z
M 45.125 -2.484375 
L 83.40625 -2.484375 
L 83.40625 6.78125 
L 45.125 6.78125 
z
M 83.59375 56.390625 
Q 78.21875 47.90625 75.875 45.0625 
L 70.609375 48.1875 
Q 74.125 52.984375 77.828125 59.8125 
z
M 44.734375 56.203125 
L 49.703125 59.421875 
Q 54.109375 53.765625 57.328125 48.78125 
L 51.859375 45.265625 
Q 48.734375 50.4375 44.734375 56.203125 
z
" id="MicrosoftYaHei-22686"/>
       <path d="M 32.421875 53.953125 
Q 46.1875 67.71875 54 83.734375 
L 61.421875 82.375 
Q 59.078125 77.984375 56.546875 73.78125 
L 84.96875 73.78125 
L 84.96875 67.625 
L 76.703125 57.28125 
L 94.734375 57.28125 
L 94.734375 -0.828125 
Q 94.734375 -11.375 85.546875 -11.375 
Q 80.375 -11.375 76.65625 -11.1875 
Q 76.078125 -7.765625 75.203125 -4.046875 
Q 80.5625 -4.546875 83.296875 -4.546875 
Q 87.796875 -4.546875 87.796875 0.25 
L 87.796875 11.46875 
L 71.6875 11.46875 
L 71.6875 -10.296875 
L 64.75 -10.296875 
L 64.75 11.46875 
L 48.640625 11.46875 
Q 46 -4.109375 38.1875 -13.8125 
Q 35.75 -10.984375 32.515625 -7.953125 
Q 43.0625 4.546875 43.0625 28.765625 
L 43.0625 54.78125 
Q 40.578125 51.8125 37.984375 48.96875 
Q 35.640625 51.21875 32.421875 53.953125 
z
M 0.484375 26.421875 
Q 11.578125 44.28125 16.65625 67.046875 
L 3.609375 67.046875 
L 3.609375 73.6875 
L 38.578125 73.6875 
L 38.578125 67.046875 
L 23.578125 67.046875 
Q 21.1875 56.453125 17.625 46.734375 
L 34.375 46.734375 
L 34.375 2 
L 17.96875 2 
L 17.96875 -5.421875 
L 11.53125 -5.421875 
L 11.53125 32.171875 
Q 8.734375 26.421875 5.46875 21.046875 
Q 3.515625 23.390625 0.484375 26.421875 
z
M 27.9375 8.453125 
L 27.9375 40.28125 
L 17.96875 40.28125 
L 17.96875 8.453125 
z
M 76.171875 67.53125 
L 52.59375 67.53125 
Q 49.03125 62.203125 45.0625 57.28125 
L 68.5 57.28125 
z
M 71.6875 17.71875 
L 87.796875 17.71875 
L 87.796875 31.109375 
L 71.6875 31.109375 
z
M 87.796875 50.640625 
L 71.6875 50.640625 
L 71.6875 37.359375 
L 87.796875 37.359375 
z
M 49.46875 17.71875 
L 64.75 17.71875 
L 64.75 31.109375 
L 50 31.109375 
Q 50 28.765625 49.46875 17.71875 
z
M 50 37.359375 
L 64.75 37.359375 
L 64.75 50.640625 
L 50 50.640625 
z
" id="MicrosoftYaHei-30830"/>
       <path d="M 32.328125 15.578125 
Q 32.71875 10.59375 33.40625 6.984375 
Q 24.515625 0.25 19.34375 -4.046875 
Q 17.28125 -5.90625 14.9375 -8.546875 
L 9.375 -2.390625 
Q 12.40625 0.828125 12.40625 6.59375 
L 12.40625 43.015625 
L 1.375 43.015625 
L 1.375 50.25 
L 20.015625 50.25 
L 20.015625 5.515625 
Q 25.875 10.203125 32.328125 15.578125 
z
M 14.546875 80.8125 
Q 22.171875 73.296875 29.984375 64.59375 
L 23.140625 58.84375 
Q 15.140625 69.1875 8.6875 75.828125 
z
M 67.578125 82.46875 
L 66.21875 80.03125 
Q 76.46875 60.5 98.734375 50.34375 
Q 95.515625 46.140625 93.453125 43.21875 
Q 71.390625 56.109375 61.921875 73.296875 
Q 53.125 57.28125 30.078125 42.71875 
Q 27.046875 46.734375 24.609375 49.5625 
Q 49.125 61.96875 58.59375 82.46875 
z
M 30.671875 -6.109375 
Q 68.953125 5.125 87.796875 25.34375 
L 93.5625 20.0625 
Q 73.734375 -1.21875 34.671875 -13.625 
Q 32.71875 -9.8125 30.671875 -6.109375 
z
M 33.796875 35.203125 
Q 54.59375 43.796875 65.046875 56.203125 
L 71.1875 51.609375 
Q 59.28125 38.140625 38.09375 28.46875 
Q 35.84375 32.078125 33.796875 35.203125 
z
M 36.421875 15.375 
Q 62.015625 25.828125 77.046875 40.875 
L 82.625 35.6875 
Q 66.796875 19.390625 40.53125 8.453125 
Q 39.0625 11.078125 36.421875 15.375 
z
" id="MicrosoftYaHei-35786"/>
      </defs>
      <use xlink:href="#MicrosoftYaHei-26032"/>
      <use x="100" xlink:href="#MicrosoftYaHei-22686"/>
      <use x="200" xlink:href="#MicrosoftYaHei-30830"/>
      <use x="300" xlink:href="#MicrosoftYaHei-35786"/>
     </g>
    </g>
   </g>
   <g id="line2d_15">
    <path clip-path="url(#p6ac9fcfc2e)" d="M 69.218182 242.116364 
L 143.836364 242.07061 
L 149.727273 241.937776 
L 153.654545 241.921541 
L 155.618182 241.673585 
L 157.581818 242.116364 
L 159.545455 241.185052 
L 161.509091 241.453671 
L 163.472727 240.934144 
L 165.436364 240.913481 
L 167.4 240.697995 
L 169.363636 239.520203 
L 171.327273 236.45027 
L 173.290909 236.225929 
L 175.254545 234.184718 
L 177.218182 231.234335 
L 179.181818 229.773164 
L 181.145455 225.748304 
L 183.109091 229.138515 
L 185.072727 221.52567 
L 187.036364 217.54804 
L 189 213.143866 
L 190.963636 213.7549 
L 192.927273 214.93712 
L 194.890909 210.380925 
L 196.854545 205.173846 
L 198.818182 202.134907 
L 200.781818 199.408865 
L 202.745455 193.589274 
L 204.709091 192.365729 
L 206.672727 204.146599 
L 208.636364 197.132981 
L 212.563636 194.001059 
L 214.527273 191.04182 
L 216.490909 191.298632 
L 218.454545 198.99708 
L 220.418182 201.239017 
L 222.381818 205.669758 
L 224.345455 203.039652 
L 226.309091 197.36913 
L 228.272727 194.544201 
L 230.236364 191.069862 
L 232.2 200.002188 
L 234.163636 204.917034 
L 236.127273 200.273759 
L 238.090909 187.117323 
L 240.054545 215.914185 
L 242.018182 202.958475 
L 243.981818 188.056014 
L 245.945455 192.37606 
L 247.909091 202.579162 
L 249.872727 209.982424 
L 251.836364 204.906702 
L 253.8 203.683157 
L 255.763636 198.688611 
L 257.727273 186.351316 
L 259.690909 204.843238 
L 261.654545 204.816671 
L 263.618182 207.367077 
L 265.581818 206.047596 
L 267.545455 204.303047 
L 269.509091 205.175322 
L 271.472727 198.04363 
L 273.436364 204.825526 
L 275.4 212.137282 
L 277.363636 214.385122 
L 279.327273 212.309965 
L 281.290909 206.885924 
L 283.254545 205.612197 
L 285.218182 202.447804 
L 287.181818 207.691782 
L 289.145455 212.603675 
L 291.109091 211.427359 
L 293.072727 216.169521 
L 295.036364 242.116364 
L 297 169.515387 
L 298.963636 203.106068 
L 300.927273 209.544073 
L 302.890909 212.247976 
L 304.854545 213.502516 
L 306.818182 215.120135 
L 308.781818 214.460395 
L 312.709091 204.731067 
L 314.672727 208.440078 
L 316.636364 213.347544 
L 318.6 213.168956 
L 320.563636 212.17418 
L 322.527273 209.551453 
L 324.490909 215.27806 
L 326.454545 199.71143 
L 328.418182 213.836077 
L 330.381818 204.344373 
L 332.345455 216.016025 
L 334.309091 216.929625 
L 336.272727 208.115373 
L 338.236364 213.458239 
L 340.2 197.45621 
L 342.163636 209.300545 
L 344.127273 213.774088 
L 346.090909 213.871499 
L 348.054545 202.124575 
L 350.018182 208.472548 
L 353.945455 195.772174 
L 355.909091 192.544316 
L 357.872727 204.161358 
L 359.836364 195.562592 
L 361.8 189.704628 
L 363.763636 192.309643 
L 365.727273 183.296141 
L 367.690909 175.283319 
L 369.654545 163.675133 
L 371.618182 200.664881 
L 373.581818 44.443636 
L 373.581818 44.443636 
" style="fill:none;stroke:#4c72b0;stroke-linecap:round;stroke-width:1.5;"/>
   </g>
   <g id="line2d_16">
    <path clip-path="url(#p6ac9fcfc2e)" d="M 77.072727 242.116364 
L 177.218182 242.116364 
L 179.181818 241.921541 
L 181.145455 242.032236 
L 183.109091 241.875787 
L 192.927273 241.670633 
L 194.890909 241.376923 
L 196.854545 241.466955 
L 198.818182 240.978422 
L 200.781818 241.22933 
L 202.745455 241.257373 
L 204.709091 241.145202 
L 206.672727 240.708327 
L 208.636364 240.413141 
L 210.6 240.382146 
L 214.527273 239.480353 
L 216.490909 239.655989 
L 218.454545 238.889982 
L 220.418182 238.340936 
L 222.381818 238.022135 
L 224.345455 237.115914 
L 226.309091 237.027358 
L 228.272727 236.10933 
L 230.236364 235.05404 
L 232.2 233.17223 
L 234.163636 235.817096 
L 236.127273 233.789169 
L 240.054545 235.070276 
L 242.018182 233.483651 
L 243.981818 233.310968 
L 245.945455 232.727975 
L 247.909091 232.968552 
L 249.872727 232.654179 
L 251.836364 233.495459 
L 253.8 231.638739 
L 255.763636 230.407814 
L 257.727273 227.913493 
L 259.690909 226.422804 
L 261.654545 226.499553 
L 263.618182 227.206523 
L 265.581818 226.532023 
L 267.545455 225.540198 
L 269.509091 226.325393 
L 271.472727 226.151233 
L 273.436364 225.863427 
L 275.4 224.912928 
L 277.363636 226.030207 
L 279.327273 227.315742 
L 281.290909 227.395442 
L 283.254545 226.474462 
L 285.218182 228.537811 
L 287.181818 227.786563 
L 289.145455 228.942216 
L 291.109091 228.444828 
L 293.072727 229.181317 
L 295.036364 242.116364 
L 297 215.928945 
L 298.963636 228.192444 
L 300.927273 229.424845 
L 302.890909 228.912697 
L 304.854545 228.958451 
L 306.818182 229.810063 
L 308.781818 229.761357 
L 310.745455 229.464695 
L 314.672727 228.437448 
L 320.563636 229.517829 
L 322.527273 229.082429 
L 324.490909 229.237402 
L 328.418182 228.856612 
L 330.381818 228.855136 
L 332.345455 229.457315 
L 334.309091 229.686085 
L 336.272727 229.159178 
L 338.236364 228.852184 
L 340.2 229.266921 
L 342.163636 229.076526 
L 344.127273 229.945848 
L 346.090909 229.942896 
L 348.054545 230.540648 
L 350.018182 230.618872 
L 351.981818 230.350253 
L 353.945455 230.472755 
L 363.763636 231.618076 
L 365.727273 232.080042 
L 367.690909 232.003294 
L 373.581818 232.237967 
L 373.581818 232.237967 
" style="fill:none;stroke:#dd8452;stroke-linecap:round;stroke-width:1.5;"/>
   </g>
   <g id="line2d_17">
    <path clip-path="url(#p6ac9fcfc2e)" d="M 77.072727 242.116364 
L 151.690909 242.116364 
L 153.654545 241.949584 
L 155.618182 242.036663 
L 161.509091 241.80937 
L 165.436364 241.521564 
L 167.4 241.51566 
L 169.363636 241.118635 
L 171.327273 242.116364 
L 173.290909 241.167341 
L 175.254545 241.06255 
L 177.218182 240.588777 
L 179.181818 241.13487 
L 181.145455 240.68914 
L 183.109091 240.010212 
L 185.072727 239.973314 
L 187.036364 234.662919 
L 189 238.41178 
L 190.963636 238.525427 
L 192.927273 238.250904 
L 194.890909 237.675291 
L 196.854545 235.734444 
L 198.818182 235.852518 
L 200.781818 235.548477 
L 202.745455 236.603767 
L 204.709091 233.403951 
L 206.672727 242.116364 
L 208.636364 231.141351 
L 210.6 242.116364 
L 212.563636 234.012034 
L 214.527273 235.704925 
L 216.490909 221.580279 
L 218.454545 234.311648 
L 220.418182 235.707877 
L 222.381818 234.364781 
L 224.345455 235.32266 
L 226.309091 235.301997 
L 228.272727 233.852634 
L 230.236364 233.961853 
L 232.2 233.482175 
L 234.163636 235.214917 
L 236.127273 235.76839 
L 240.054545 235.352178 
L 242.018182 234.167007 
L 245.945455 235.52929 
L 247.909091 242.116364 
L 249.872727 235.756583 
L 251.836364 236.218549 
L 253.8 236.100475 
L 255.763636 233.213556 
L 257.727273 232.964124 
L 259.690909 235.023046 
L 261.654545 235.712305 
L 263.618182 236.234784 
L 265.581818 235.613418 
L 267.545455 233.096958 
L 269.509091 233.830495 
L 271.472727 235.254767 
L 273.436364 230.57607 
L 275.4 236.394185 
L 277.363636 237.093775 
L 279.327273 237.3314 
L 281.290909 237.03031 
L 283.254545 236.862054 
L 285.218182 237.024407 
L 287.181818 242.116364 
L 289.145455 236.900428 
L 291.109091 238.115118 
L 293.072727 242.116364 
L 295.036364 238.556421 
L 297 242.116364 
L 298.963636 229.813014 
L 300.927273 242.116364 
L 302.890909 238.566753 
L 304.854545 233.750795 
L 306.818182 239.145317 
L 308.781818 242.116364 
L 312.709091 236.6569 
L 314.672727 239.258964 
L 316.636364 242.116364 
L 318.6 237.359443 
L 320.563636 239.354899 
L 322.527273 242.116364 
L 324.490909 237.017027 
L 326.454545 239.818341 
L 328.418182 242.116364 
L 330.381818 238.380786 
L 332.345455 242.116364 
L 334.309091 238.066413 
L 336.272727 240.247837 
L 338.236364 242.116364 
L 340.2 237.738756 
L 344.127273 242.116364 
L 346.090909 240.687664 
L 348.054545 238.582988 
L 350.018182 242.116364 
L 351.981818 240.318681 
L 353.945455 238.218434 
L 355.909091 240.314254 
L 357.872727 242.116364 
L 359.836364 240.702423 
L 361.8 240.757032 
L 363.763636 241.154058 
L 365.727273 238.429491 
L 367.690909 242.116364 
L 369.654545 239.472974 
L 371.618182 242.116364 
L 373.581818 239.898041 
L 373.581818 239.898041 
" style="fill:none;stroke:#55a868;stroke-linecap:round;stroke-width:1.5;"/>
   </g>
   <g id="line2d_18"/>
   <g id="line2d_19"/>
   <g id="line2d_20"/>
   <g id="patch_3">
    <path d="M 54 252 
L 54 34.56 
" style="fill:none;stroke:#ffffff;stroke-linecap:square;stroke-linejoin:miter;stroke-width:1.25;"/>
   </g>
   <g id="patch_4">
    <path d="M 388.8 252 
L 388.8 34.56 
" style="fill:none;stroke:#ffffff;stroke-linecap:square;stroke-linejoin:miter;stroke-width:1.25;"/>
   </g>
   <g id="patch_5">
    <path d="M 54 252 
L 388.8 252 
" style="fill:none;stroke:#ffffff;stroke-linecap:square;stroke-linejoin:miter;stroke-width:1.25;"/>
   </g>
   <g id="patch_6">
    <path d="M 54 34.56 
L 388.8 34.56 
" style="fill:none;stroke:#ffffff;stroke-linecap:square;stroke-linejoin:miter;stroke-width:1.25;"/>
   </g>
   <g id="legend_1">
    <g id="patch_7">
     <path d="M 61.7 112.518594 
L 129.9 112.518594 
Q 132.1 112.518594 132.1 110.318594 
L 132.1 42.26 
Q 132.1 40.06 129.9 40.06 
L 61.7 40.06 
Q 59.5 40.06 59.5 42.26 
L 59.5 110.318594 
Q 59.5 112.518594 61.7 112.518594 
z
" style="fill:#eaeaf2;opacity:0.8;stroke:#cccccc;stroke-linejoin:miter;"/>
    </g>
    <g id="text_17">
     <!-- 国家 -->
     <g style="fill:#262626;" transform="translate(83.8 54.0525)scale(0.12 -0.12)">
      <defs>
       <path d="M 7.328125 78.078125 
L 92.78125 78.078125 
L 92.78125 -13.03125 
L 85.25 -13.03125 
L 85.25 -8.15625 
L 14.84375 -8.15625 
L 14.84375 -13.140625 
L 7.328125 -13.140625 
z
M 85.25 71.140625 
L 14.84375 71.140625 
L 14.84375 -1.21875 
L 85.25 -1.21875 
z
M 19.34375 15.765625 
L 46.296875 15.765625 
L 46.296875 35.109375 
L 22.75 35.109375 
L 22.75 41.75 
L 46.296875 41.75 
L 46.296875 54.828125 
L 20.90625 54.828125 
L 20.90625 61.46875 
L 79.109375 61.46875 
L 79.109375 54.828125 
L 53.515625 54.828125 
L 53.515625 41.75 
L 77.15625 41.75 
L 77.15625 35.109375 
L 53.515625 35.109375 
L 53.515625 15.765625 
L 80.671875 15.765625 
L 80.671875 9.125 
L 19.34375 9.125 
z
M 58.59375 28.859375 
L 64.0625 32.953125 
Q 69.4375 27.390625 73.25 22.515625 
L 67.484375 18.109375 
Q 62.796875 24.46875 58.59375 28.859375 
z
" id="MicrosoftYaHei-22269"/>
       <path d="M 3.03125 -3.265625 
Q 32.515625 5.171875 50 24.3125 
Q 48.640625 27.15625 46.828125 29.734375 
Q 32.28125 14.703125 6.640625 6.59375 
Q 5.171875 9.90625 3.125 13.234375 
Q 28.265625 20.171875 42.234375 35.25 
Q 40.625 36.859375 38.71875 38.421875 
Q 25.78125 29.25 6.9375 23.390625 
Q 5.078125 26.609375 2.546875 30.328125 
Q 25.828125 35.5 39.84375 47.703125 
L 15.234375 47.703125 
L 15.234375 54.734375 
L 84.96875 54.734375 
L 84.96875 47.703125 
L 49.515625 47.703125 
Q 47.015625 45.0625 44.140625 42.625 
Q 51.8125 36.421875 56.0625 28.765625 
Q 71.34375 36.234375 83.203125 44.09375 
L 87.796875 37.84375 
Q 79.828125 33.0625 70.84375 28.375 
Q 79.5 9.625 98.921875 2.203125 
Q 95.703125 -1.515625 92.875 -5.421875 
Q 73.78125 4.34375 64.546875 25.140625 
Q 61.765625 23.78125 58.890625 22.359375 
Q 64.453125 1.609375 57.125 -7.859375 
Q 53.609375 -12.0625 43.65625 -12.0625 
Q 39.75 -12.0625 31.34375 -11.765625 
Q 30.765625 -7.953125 29.890625 -3.65625 
Q 37.5 -4.546875 43.453125 -4.546875 
Q 54 -5.125 53.71875 8.15625 
Q 53.5625 12.546875 52.640625 16.609375 
Q 35.359375 -0.4375 6.546875 -10.015625 
Q 5.078125 -6.78125 3.03125 -3.265625 
z
M 5.171875 70.75 
L 49.3125 70.75 
Q 46.4375 75.09375 42.578125 80.03125 
L 49.421875 84.421875 
Q 53.8125 79.046875 57.421875 73.78125 
L 52.4375 70.75 
L 94.734375 70.75 
L 94.734375 54.046875 
L 86.921875 54.046875 
L 86.921875 63.53125 
L 12.984375 63.53125 
L 12.984375 54.046875 
L 5.171875 54.046875 
z
" id="MicrosoftYaHei-23478"/>
      </defs>
      <use xlink:href="#MicrosoftYaHei-22269"/>
      <use x="100" xlink:href="#MicrosoftYaHei-23478"/>
     </g>
    </g>
    <g id="line2d_21">
     <path d="M 63.9 67.47875 
L 85.9 67.47875 
" style="fill:none;stroke:#4c72b0;stroke-linecap:round;stroke-width:1.5;"/>
    </g>
    <g id="line2d_22"/>
    <g id="text_18">
     <!-- 美国 -->
     <g style="fill:#262626;" transform="translate(94.7 71.32875)scale(0.11 -0.11)">
      <defs>
       <path d="M 2.34375 37.546875 
L 46.1875 37.546875 
L 46.1875 46.734375 
L 10.359375 46.734375 
L 10.359375 53.375 
L 46.1875 53.375 
L 46.1875 62.359375 
L 4.5 62.359375 
L 4.5 69 
L 35.296875 69 
Q 30.28125 73.34375 22.265625 79.4375 
L 26.765625 84.328125 
Q 35.25 78.5625 40.921875 74.265625 
L 35.75 69 
L 61.71875 69 
L 58.109375 73.09375 
Q 65.828125 78.46875 72.078125 83.9375 
L 77.828125 78.46875 
Q 71.578125 73.78125 64.3125 69 
L 96.09375 69 
L 96.09375 62.359375 
L 54.203125 62.359375 
L 54.203125 53.375 
L 90.828125 53.375 
L 90.828125 46.734375 
L 54.203125 46.734375 
L 54.203125 37.546875 
L 97.859375 37.546875 
L 97.859375 30.90625 
L 2.34375 30.90625 
z
M 98.640625 -4.734375 
Q 94.921875 -9.71875 92.96875 -12.84375 
Q 60.890625 -6.546875 50.25 12.546875 
Q 40.71875 -7.625 6.34375 -13.625 
Q 4.390625 -10.296875 1.5625 -6.203125 
Q 34.375 -1.65625 42.828125 14.3125 
L 3.71875 14.3125 
L 3.71875 20.953125 
L 45.515625 20.953125 
Q 46.484375 24.359375 47.078125 28.765625 
L 55.078125 28.765625 
Q 54.296875 24.46875 53.328125 20.953125 
L 96.875 20.953125 
L 96.875 14.3125 
L 56.734375 14.3125 
Q 68.171875 -2.15625 98.640625 -4.734375 
z
" id="MicrosoftYaHei-32654"/>
      </defs>
      <use xlink:href="#MicrosoftYaHei-32654"/>
      <use x="100" xlink:href="#MicrosoftYaHei-22269"/>
     </g>
    </g>
    <g id="line2d_23">
     <path d="M 63.9 84.506406 
L 85.9 84.506406 
" style="fill:none;stroke:#dd8452;stroke-linecap:round;stroke-width:1.5;"/>
    </g>
    <g id="line2d_24"/>
    <g id="text_19">
     <!-- 俄罗斯 -->
     <g style="fill:#262626;" transform="translate(94.7 88.356406)scale(0.11 -0.11)">
      <defs>
       <path d="M 51.265625 2.203125 
Q 61.234375 7.375 69.234375 14.203125 
Q 66.609375 27.09375 65.671875 45.953125 
L 47.75 45.953125 
L 47.75 29.734375 
Q 54.390625 31.296875 61.71875 33.0625 
Q 62.015625 28.953125 62.40625 25.828125 
Q 54.546875 23.875 47.75 22.21875 
L 47.75 1.3125 
Q 47.75 -6 45.40625 -8.453125 
Q 42.96875 -11.078125 36.03125 -11.1875 
Q 31.546875 -11.28125 26.5625 -10.984375 
Q 26.171875 -6.6875 25 -2.984375 
Q 30.765625 -3.859375 34.859375 -3.859375 
Q 38.1875 -3.859375 39.359375 -2.78125 
Q 40.328125 -1.90625 40.328125 1.703125 
L 40.328125 20.359375 
Q 31.78125 18.21875 25.296875 16.546875 
L 23.046875 24.359375 
Q 30.953125 25.984375 40.328125 28.03125 
L 40.328125 45.953125 
L 23.640625 45.953125 
L 23.640625 52.984375 
L 40.328125 52.984375 
L 40.328125 66.703125 
Q 34.28125 65.765625 28.515625 65.09375 
Q 27.828125 68.40625 26.46875 72.125 
Q 41.796875 73.578125 59.578125 77.6875 
L 61.8125 70.65625 
Q 54.59375 69.140625 47.75 67.921875 
L 47.75 52.984375 
L 65.375 52.984375 
Q 64.984375 66.015625 64.84375 83.0625 
L 72.5625 83.0625 
Q 72.3125 67.390625 72.796875 52.984375 
L 98.640625 52.984375 
L 98.640625 45.953125 
L 73.046875 45.953125 
Q 73.828125 30.515625 75.484375 20.0625 
Q 83.9375 28.859375 89.65625 39.890625 
L 96.484375 36.1875 
Q 88.875 22.21875 77.25 11.421875 
Q 80.28125 -0.140625 85.15625 -3.46875 
Q 88.765625 -5.71875 89.9375 -0.640625 
Q 91.015625 5.21875 91.609375 13.421875 
Q 95.515625 11.578125 98.734375 10.6875 
Q 97.859375 2.875 96.6875 -2.6875 
Q 94.53125 -12.546875 88.28125 -12.546875 
Q 80.859375 -12.546875 75.6875 -3.859375 
Q 73.1875 0.203125 71.296875 6.25 
Q 64.3125 0.6875 56.0625 -3.859375 
Q 54.109375 -0.921875 51.265625 2.203125 
z
M 0.875 37.359375 
Q 14.9375 59.421875 20.3125 83.15625 
L 27.640625 81.6875 
Q 24.078125 68.75 19.234375 57.28125 
L 19.234375 -13.421875 
L 12.5 -13.421875 
L 12.5 43.171875 
Q 8.59375 35.9375 4.109375 29.34375 
Q 2.734375 33.15625 0.875 37.359375 
z
M 76.953125 73.296875 
L 81.546875 77.984375 
Q 88.484375 72.21875 95.609375 65.578125 
L 90.234375 60.109375 
Q 83.890625 67.046875 76.953125 73.296875 
z
" id="MicrosoftYaHei-20420"/>
       <path d="M 7.421875 78.171875 
L 93.0625 78.171875 
L 93.0625 41.84375 
L 85.640625 41.84375 
L 85.640625 45.65625 
L 14.84375 45.65625 
L 14.84375 41.84375 
L 7.421875 41.84375 
z
M 34.578125 45.5625 
L 42.1875 42.4375 
Q 39.0625 38.421875 35.75 34.625 
L 87.796875 34.625 
L 87.796875 27.6875 
Q 65.046875 -7.078125 6.734375 -14.796875 
Q 4.984375 -11.375 2.828125 -7.28125 
Q 28.609375 -4.25 43.65625 2.203125 
Q 35.75 9.125 24.21875 17.828125 
L 29.59375 22.796875 
Q 42.578125 13.53125 51.859375 6 
Q 67.28125 13.8125 78.328125 27.875 
L 29.5 27.875 
Q 20.125 18.609375 7.125 9.125 
Q 4.390625 12.75 2.046875 15.484375 
Q 21.78125 27.59375 34.578125 45.5625 
z
M 85.640625 71.625 
L 66.796875 71.625 
L 66.796875 52.203125 
L 85.640625 52.203125 
z
M 40.828125 52.203125 
L 59.578125 52.203125 
L 59.578125 71.625 
L 40.828125 71.625 
z
M 14.84375 52.203125 
L 33.59375 52.203125 
L 33.59375 71.625 
L 14.84375 71.625 
z
" id="MicrosoftYaHei-32599"/>
       <path d="M 2.046875 19 
L 9.578125 19 
L 9.578125 64.109375 
L 2.734375 64.109375 
L 2.734375 70.75 
L 9.578125 70.75 
L 9.578125 82.375 
L 16.796875 82.375 
L 16.796875 70.75 
L 37.109375 70.75 
L 37.109375 82.375 
L 44.34375 82.375 
L 44.34375 70.75 
L 51.5625 70.75 
L 51.5625 64.109375 
L 44.34375 64.109375 
L 44.34375 19 
L 51.65625 19 
L 51.65625 12.359375 
L 2.046875 12.359375 
z
M 57.03125 74.265625 
Q 77.9375 76.3125 93.265625 80.03125 
L 96.296875 72.796875 
Q 80.859375 69.875 64.265625 68.21875 
L 64.265625 47.125 
L 98.046875 47.125 
L 98.046875 40.28125 
L 86.921875 40.28125 
L 86.921875 -12.75 
L 79.6875 -12.75 
L 79.6875 40.28125 
L 64.265625 40.28125 
Q 64.109375 6.6875 52.4375 -12.15625 
Q 49.8125 -9.421875 46.296875 -6.6875 
Q 57.03125 9.625 57.03125 39.59375 
z
M 16.796875 19 
L 37.109375 19 
L 37.109375 29.9375 
L 16.796875 29.9375 
z
M 16.796875 53.265625 
L 37.109375 53.265625 
L 37.109375 64.109375 
L 16.796875 64.109375 
z
M 16.796875 36.1875 
L 37.109375 36.1875 
L 37.109375 47.015625 
L 16.796875 47.015625 
z
M 17.1875 10.109375 
L 23.140625 5.421875 
Q 13.96875 -5.90625 6.546875 -12.640625 
Q 4.5 -10.296875 1.171875 -7.46875 
Q 10.359375 0.640625 17.1875 10.109375 
z
M 30.171875 6.109375 
L 35.25 10.59375 
Q 41.21875 5.125 46.96875 -0.921875 
L 41.40625 -6 
Q 36.140625 0.140625 30.171875 6.109375 
z
" id="MicrosoftYaHei-26031"/>
      </defs>
      <use xlink:href="#MicrosoftYaHei-20420"/>
      <use x="100" xlink:href="#MicrosoftYaHei-32599"/>
      <use x="200" xlink:href="#MicrosoftYaHei-26031"/>
     </g>
    </g>
    <g id="line2d_25">
     <path d="M 63.9 101.534062 
L 85.9 101.534062 
" style="fill:none;stroke:#55a868;stroke-linecap:round;stroke-width:1.5;"/>
    </g>
    <g id="line2d_26"/>
    <g id="text_20">
     <!-- 英国 -->
     <g style="fill:#262626;" transform="translate(94.7 105.384062)scale(0.11 -0.11)">
      <defs>
       <path d="M 2.25 24.5625 
L 14.546875 24.5625 
L 14.546875 50.34375 
L 46.34375 50.34375 
Q 46.34375 54.890625 46.296875 59.90625 
L 54.109375 59.90625 
Q 54.109375 54.890625 54.046875 50.34375 
L 85.453125 50.34375 
L 85.453125 24.5625 
L 98.140625 24.5625 
L 98.140625 17.71875 
L 55.8125 17.71875 
Q 67.1875 -1.421875 98.734375 -4.34375 
Q 95.40625 -8.640625 93.0625 -12.25 
Q 60.109375 -5.671875 50.140625 15.046875 
Q 42.71875 -2.484375 6.9375 -13.71875 
Q 4.6875 -10.5 1.375 -6.59375 
Q 35.75 2.34375 43.703125 17.71875 
L 2.25 17.71875 
z
M 2.734375 71.734375 
L 28.328125 71.734375 
L 28.328125 83.25 
L 35.9375 83.25 
L 35.9375 71.734375 
L 64.265625 71.734375 
L 64.265625 83.25 
L 71.875 83.25 
L 71.875 71.734375 
L 97.65625 71.734375 
L 97.65625 64.890625 
L 71.875 64.890625 
L 71.875 56 
L 64.265625 56 
L 64.265625 64.890625 
L 35.9375 64.890625 
L 35.9375 56 
L 28.328125 56 
L 28.328125 64.890625 
L 2.734375 64.890625 
z
M 46.296875 43.703125 
L 22.171875 43.703125 
L 22.171875 24.5625 
L 45.84375 24.5625 
Q 46.1875 32.328125 46.296875 43.703125 
z
M 53.609375 24.5625 
L 77.828125 24.5625 
L 77.828125 43.703125 
L 54 43.703125 
Q 53.90625 32.375 53.609375 24.5625 
z
" id="MicrosoftYaHei-33521"/>
      </defs>
      <use xlink:href="#MicrosoftYaHei-33521"/>
      <use x="100" xlink:href="#MicrosoftYaHei-22269"/>
     </g>
    </g>
   </g>
  </g>
 </g>
 <defs>
  <clipPath id="p6ac9fcfc2e">
   <rect height="217.44" width="334.8" x="54" y="34.56"/>
  </clipPath>
 </defs>
</svg>
