<?xml version="1.0" encoding="utf-8" standalone="no"?>
<!DOCTYPE svg PUBLIC "-//W3C//DTD SVG 1.1//EN"
  "http://www.w3.org/Graphics/SVG/1.1/DTD/svg11.dtd">
<!-- Created with matplotlib (https://matplotlib.org/) -->
<svg height="288pt" version="1.1" viewBox="0 0 432 288" width="432pt" xmlns="http://www.w3.org/2000/svg" xmlns:xlink="http://www.w3.org/1999/xlink">
 <metadata>
  <rdf:RDF xmlns:cc="http://creativecommons.org/ns#" xmlns:dc="http://purl.org/dc/elements/1.1/" xmlns:rdf="http://www.w3.org/1999/02/22-rdf-syntax-ns#">
   <cc:Work>
    <dc:type rdf:resource="http://purl.org/dc/dcmitype/StillImage"/>
    <dc:date>2020-11-15T16:56:36.868232</dc:date>
    <dc:format>image/svg+xml</dc:format>
    <dc:creator>
     <cc:Agent>
      <dc:title>Matplotlib v3.3.2, https://matplotlib.org/</dc:title>
     </cc:Agent>
    </dc:creator>
   </cc:Work>
  </rdf:RDF>
 </metadata>
 <defs>
  <style type="text/css">*{stroke-linecap:butt;stroke-linejoin:round;}</style>
 </defs>
 <g id="figure_1">
  <g id="patch_1">
   <path d="M 0 288 
L 432 288 
L 432 0 
L 0 0 
z
" style="fill:#ffffff;"/>
  </g>
  <g id="axes_1">
   <g id="patch_2">
    <path d="M 54 252 
L 388.8 252 
L 388.8 34.56 
L 54 34.56 
z
" style="fill:#eaeaf2;"/>
   </g>
   <g id="matplotlib.axis_1">
    <g id="xtick_1">
     <g id="line2d_1">
      <path clip-path="url(#p00389a88eb)" d="M 79.036364 252 
L 79.036364 34.56 
" style="fill:none;stroke:#ffffff;stroke-linecap:round;"/>
     </g>
     <g id="text_1">
      <!-- 2020-02 -->
      <g style="fill:#262626;" transform="translate(57.305348 270.293125)scale(0.11 -0.11)">
       <defs>
        <path d="M 41.65625 55.8125 
Q 41.65625 61.921875 37.796875 65.40625 
Q 33.9375 68.890625 27.296875 68.890625 
Q 22.609375 68.890625 17.8125 66.5 
Q 13.03125 64.109375 8.890625 59.671875 
L 8.890625 68.953125 
Q 12.59375 72.796875 17.296875 74.84375 
Q 22.015625 76.90625 28.375 76.90625 
Q 38.625 76.90625 44.875 71.40625 
Q 51.125 65.921875 51.125 56.546875 
Q 51.125 48.1875 47.28125 42.078125 
Q 43.453125 35.984375 34.1875 29.59375 
Q 24.703125 23.046875 21.5 20.21875 
Q 18.3125 17.390625 17.03125 14.796875 
Q 15.765625 12.203125 15.765625 8.5 
L 53.375 8.5 
L 53.375 0 
L 5.8125 0 
L 5.8125 3.765625 
Q 5.8125 10.296875 7.59375 14.859375 
Q 9.375 19.4375 13.46875 23.75 
Q 17.578125 28.078125 26.265625 34.125 
Q 35.15625 40.375 38.40625 45.09375 
Q 41.65625 49.8125 41.65625 55.8125 
z
" id="MicrosoftYaHei-50"/>
        <path d="M 4.4375 36.328125 
Q 4.4375 56.34375 11.078125 66.625 
Q 17.71875 76.90625 30.328125 76.90625 
Q 54.34375 76.90625 54.34375 38.140625 
Q 54.34375 19 47.578125 8.859375 
Q 40.828125 -1.265625 28.609375 -1.265625 
Q 17.09375 -1.265625 10.765625 8.34375 
Q 4.4375 17.96875 4.4375 36.328125 
z
M 14.203125 36.765625 
Q 14.203125 6.640625 29.5 6.640625 
Q 44.53125 6.640625 44.53125 37.25 
Q 44.53125 68.953125 29.78125 68.953125 
Q 14.203125 68.953125 14.203125 36.765625 
z
" id="MicrosoftYaHei-48"/>
        <path d="M 36.375 26.265625 
L 7.625 26.265625 
L 7.625 33.640625 
L 36.375 33.640625 
z
" id="MicrosoftYaHei-45"/>
       </defs>
       <use xlink:href="#MicrosoftYaHei-50"/>
       <use x="58.642578" xlink:href="#MicrosoftYaHei-48"/>
       <use x="117.285156" xlink:href="#MicrosoftYaHei-50"/>
       <use x="175.927734" xlink:href="#MicrosoftYaHei-48"/>
       <use x="234.570312" xlink:href="#MicrosoftYaHei-45"/>
       <use x="277.832031" xlink:href="#MicrosoftYaHei-48"/>
       <use x="336.474609" xlink:href="#MicrosoftYaHei-50"/>
      </g>
     </g>
    </g>
    <g id="xtick_2">
     <g id="line2d_2">
      <path clip-path="url(#p00389a88eb)" d="M 135.981818 252 
L 135.981818 34.56 
" style="fill:none;stroke:#ffffff;stroke-linecap:round;"/>
     </g>
     <g id="text_2">
      <!-- 2020-03 -->
      <g style="fill:#262626;" transform="translate(114.250803 270.293125)scale(0.11 -0.11)">
       <defs>
        <path d="M 6.984375 12.640625 
Q 14.75 6.640625 24.515625 6.640625 
Q 32.328125 6.640625 36.890625 10.46875 
Q 41.453125 14.3125 41.453125 20.75 
Q 41.453125 35.109375 20.90625 35.109375 
L 14.59375 35.109375 
L 14.59375 43.015625 
L 20.609375 43.015625 
Q 38.8125 43.015625 38.8125 56.5 
Q 38.8125 68.953125 24.90625 68.953125 
Q 16.9375 68.953125 9.90625 63.578125 
L 9.90625 72.609375 
Q 17.328125 76.90625 27.25 76.90625 
Q 36.921875 76.90625 42.78125 71.84375 
Q 48.640625 66.796875 48.640625 58.734375 
Q 48.640625 43.890625 33.5 39.65625 
L 33.5 39.453125 
Q 41.703125 38.578125 46.453125 33.671875 
Q 51.21875 28.765625 51.21875 21.4375 
Q 51.21875 11.234375 43.875 4.984375 
Q 36.53125 -1.265625 24.3125 -1.265625 
Q 13.578125 -1.265625 6.984375 2.734375 
z
" id="MicrosoftYaHei-51"/>
       </defs>
       <use xlink:href="#MicrosoftYaHei-50"/>
       <use x="58.642578" xlink:href="#MicrosoftYaHei-48"/>
       <use x="117.285156" xlink:href="#MicrosoftYaHei-50"/>
       <use x="175.927734" xlink:href="#MicrosoftYaHei-48"/>
       <use x="234.570312" xlink:href="#MicrosoftYaHei-45"/>
       <use x="277.832031" xlink:href="#MicrosoftYaHei-48"/>
       <use x="336.474609" xlink:href="#MicrosoftYaHei-51"/>
      </g>
     </g>
    </g>
    <g id="xtick_3">
     <g id="line2d_3">
      <path clip-path="url(#p00389a88eb)" d="M 196.854545 252 
L 196.854545 34.56 
" style="fill:none;stroke:#ffffff;stroke-linecap:round;"/>
     </g>
     <g id="text_3">
      <!-- 2020-04 -->
      <g style="fill:#262626;" transform="translate(175.12353 270.293125)scale(0.11 -0.11)">
       <defs>
        <path d="M 45.40625 75.640625 
L 45.40625 25.6875 
L 56.734375 25.6875 
L 56.734375 17.78125 
L 45.40625 17.78125 
L 45.40625 0 
L 36.140625 0 
L 36.140625 17.78125 
L 0.828125 17.78125 
L 0.828125 25.25 
Q 10.25 35.84375 19.765625 49.65625 
Q 29.296875 63.484375 35.5 75.640625 
z
M 11.578125 25.6875 
L 36.140625 25.6875 
L 36.140625 61.71875 
Q 31.0625 52.59375 25.25 44.015625 
Q 19.4375 35.453125 11.578125 25.6875 
z
" id="MicrosoftYaHei-52"/>
       </defs>
       <use xlink:href="#MicrosoftYaHei-50"/>
       <use x="58.642578" xlink:href="#MicrosoftYaHei-48"/>
       <use x="117.285156" xlink:href="#MicrosoftYaHei-50"/>
       <use x="175.927734" xlink:href="#MicrosoftYaHei-48"/>
       <use x="234.570312" xlink:href="#MicrosoftYaHei-45"/>
       <use x="277.832031" xlink:href="#MicrosoftYaHei-48"/>
       <use x="336.474609" xlink:href="#MicrosoftYaHei-52"/>
      </g>
     </g>
    </g>
    <g id="xtick_4">
     <g id="line2d_4">
      <path clip-path="url(#p00389a88eb)" d="M 255.763636 252 
L 255.763636 34.56 
" style="fill:none;stroke:#ffffff;stroke-linecap:round;"/>
     </g>
     <g id="text_4">
      <!-- 2020-05 -->
      <g style="fill:#262626;" transform="translate(234.032621 270.293125)scale(0.11 -0.11)">
       <defs>
        <path d="M 51.46875 23.34375 
Q 51.46875 12.25 44.109375 5.46875 
Q 36.765625 -1.3125 24.359375 -1.3125 
Q 13.71875 -1.3125 8.5 1.859375 
L 8.5 11.625 
Q 16.15625 6.640625 24.125 6.640625 
Q 32.03125 6.640625 36.890625 11 
Q 41.75 15.375 41.75 22.609375 
Q 41.75 29.828125 36.6875 33.859375 
Q 31.640625 37.890625 22.40625 37.890625 
Q 15.28125 37.890625 9.578125 37.25 
L 12.359375 75.640625 
L 47.703125 75.640625 
L 47.703125 67.234375 
L 20.40625 67.234375 
L 18.84375 45.796875 
L 25.734375 46.09375 
Q 37.75 46.09375 44.609375 40.109375 
Q 51.46875 34.125 51.46875 23.34375 
z
" id="MicrosoftYaHei-53"/>
       </defs>
       <use xlink:href="#MicrosoftYaHei-50"/>
       <use x="58.642578" xlink:href="#MicrosoftYaHei-48"/>
       <use x="117.285156" xlink:href="#MicrosoftYaHei-50"/>
       <use x="175.927734" xlink:href="#MicrosoftYaHei-48"/>
       <use x="234.570312" xlink:href="#MicrosoftYaHei-45"/>
       <use x="277.832031" xlink:href="#MicrosoftYaHei-48"/>
       <use x="336.474609" xlink:href="#MicrosoftYaHei-53"/>
      </g>
     </g>
    </g>
    <g id="xtick_5">
     <g id="line2d_5">
      <path clip-path="url(#p00389a88eb)" d="M 316.636364 252 
L 316.636364 34.56 
" style="fill:none;stroke:#ffffff;stroke-linecap:round;"/>
     </g>
     <g id="text_5">
      <!-- 2020-06 -->
      <g style="fill:#262626;" transform="translate(294.905348 270.293125)scale(0.11 -0.11)">
       <defs>
        <path d="M 49.703125 65.921875 
Q 43.796875 68.953125 37.359375 68.953125 
Q 27.546875 68.953125 21.578125 60.40625 
Q 15.625 51.859375 15.53125 37.0625 
L 15.765625 37.0625 
Q 21.140625 47.46875 32.90625 47.46875 
Q 42.71875 47.46875 48.578125 41.0625 
Q 54.4375 34.671875 54.4375 24.078125 
Q 54.4375 12.984375 47.671875 5.859375 
Q 40.921875 -1.265625 30.421875 -1.265625 
Q 18.890625 -1.265625 12.328125 7.734375 
Q 5.765625 16.75 5.765625 33.296875 
Q 5.765625 53.328125 14.375 65.109375 
Q 23 76.90625 37.0625 76.90625 
Q 45.125 76.90625 49.703125 74.703125 
z
M 16.109375 24.75 
Q 16.109375 17.28125 20.09375 11.953125 
Q 24.078125 6.640625 30.671875 6.640625 
Q 36.921875 6.640625 40.828125 11.234375 
Q 44.734375 15.828125 44.734375 23.046875 
Q 44.734375 30.859375 41.046875 35.203125 
Q 37.359375 39.546875 30.5625 39.546875 
Q 24.125 39.546875 20.109375 35.15625 
Q 16.109375 30.765625 16.109375 24.75 
z
" id="MicrosoftYaHei-54"/>
       </defs>
       <use xlink:href="#MicrosoftYaHei-50"/>
       <use x="58.642578" xlink:href="#MicrosoftYaHei-48"/>
       <use x="117.285156" xlink:href="#MicrosoftYaHei-50"/>
       <use x="175.927734" xlink:href="#MicrosoftYaHei-48"/>
       <use x="234.570312" xlink:href="#MicrosoftYaHei-45"/>
       <use x="277.832031" xlink:href="#MicrosoftYaHei-48"/>
       <use x="336.474609" xlink:href="#MicrosoftYaHei-54"/>
      </g>
     </g>
    </g>
    <g id="xtick_6">
     <g id="line2d_6">
      <path clip-path="url(#p00389a88eb)" d="M 375.545455 252 
L 375.545455 34.56 
" style="fill:none;stroke:#ffffff;stroke-linecap:round;"/>
     </g>
     <g id="text_6">
      <!-- 2020-07 -->
      <g style="fill:#262626;" transform="translate(353.814439 270.293125)scale(0.11 -0.11)">
       <defs>
        <path d="M 53.46875 69.734375 
Q 41.546875 48.921875 34.734375 31.21875 
Q 27.9375 13.53125 26.3125 0 
L 16.359375 0 
Q 18.171875 13.328125 24.90625 30.421875 
Q 31.640625 47.515625 42.921875 67.1875 
L 5.421875 67.1875 
L 5.421875 75.640625 
L 53.46875 75.640625 
z
" id="MicrosoftYaHei-55"/>
       </defs>
       <use xlink:href="#MicrosoftYaHei-50"/>
       <use x="58.642578" xlink:href="#MicrosoftYaHei-48"/>
       <use x="117.285156" xlink:href="#MicrosoftYaHei-50"/>
       <use x="175.927734" xlink:href="#MicrosoftYaHei-48"/>
       <use x="234.570312" xlink:href="#MicrosoftYaHei-45"/>
       <use x="277.832031" xlink:href="#MicrosoftYaHei-48"/>
       <use x="336.474609" xlink:href="#MicrosoftYaHei-55"/>
      </g>
     </g>
    </g>
    <g id="text_7">
     <!-- 日期 -->
     <g style="fill:#262626;" transform="translate(209.4 286.620156)scale(0.12 -0.12)">
      <defs>
       <path d="M 15.234375 76.703125 
L 84.859375 76.703125 
L 84.859375 -11.96875 
L 76.5625 -11.96875 
L 76.5625 -5.03125 
L 23.53125 -5.03125 
L 23.53125 -11.96875 
L 15.234375 -11.96875 
z
M 23.53125 32.859375 
L 23.53125 2.09375 
L 76.5625 2.09375 
L 76.5625 32.859375 
z
M 23.53125 69.390625 
L 23.53125 40.1875 
L 76.5625 40.1875 
L 76.5625 69.390625 
z
" id="MicrosoftYaHei-26085"/>
       <path d="M 58.890625 79.15625 
L 93.453125 79.15625 
L 93.453125 -0.046875 
Q 93.453125 -11.578125 82.515625 -11.578125 
Q 77.046875 -11.578125 71.78125 -11.28125 
Q 71.390625 -8.0625 70.609375 -3.765625 
Q 77.734375 -4.4375 80.859375 -4.4375 
Q 86.234375 -4.4375 86.234375 0.921875 
L 86.234375 21.4375 
L 65.328125 21.4375 
Q 64.265625 0.046875 52.34375 -14.109375 
Q 49.703125 -11.375 46.484375 -8.640625 
Q 54.390625 0.4375 56.546875 10.203125 
Q 58.890625 19.578125 58.890625 42.828125 
z
M 1.953125 17.828125 
L 11.140625 17.828125 
L 11.140625 62.9375 
L 3.125 62.9375 
L 3.125 69.578125 
L 11.140625 69.578125 
L 11.140625 81.5 
L 18.359375 81.5 
L 18.359375 69.578125 
L 38.671875 69.578125 
L 38.671875 81.890625 
L 45.90625 81.890625 
L 45.90625 69.578125 
L 53.8125 69.578125 
L 53.8125 62.9375 
L 45.90625 62.9375 
L 45.90625 17.828125 
L 53.71875 17.828125 
L 53.71875 11.1875 
L 1.953125 11.1875 
z
M 65.765625 27.875 
L 86.234375 27.875 
L 86.234375 47.015625 
L 66.109375 47.015625 
Q 66.21875 34.421875 65.765625 27.875 
z
M 86.234375 72.515625 
L 66.109375 72.515625 
L 66.109375 53.46875 
L 86.234375 53.46875 
z
M 18.359375 17.828125 
L 38.671875 17.828125 
L 38.671875 28.765625 
L 18.359375 28.765625 
z
M 18.359375 35.015625 
L 38.671875 35.015625 
L 38.671875 45.84375 
L 18.359375 45.84375 
z
M 18.359375 52.09375 
L 38.671875 52.09375 
L 38.671875 62.9375 
L 18.359375 62.9375 
z
M 18.359375 9.328125 
L 24.3125 4.640625 
Q 14.453125 -6 6.34375 -13.234375 
Q 4.296875 -10.890625 1.171875 -8.0625 
Q 10.453125 -0.140625 18.359375 9.328125 
z
M 31.15625 4.734375 
L 35.84375 9.515625 
Q 42.671875 4.4375 48.734375 -0.734375 
L 43.5625 -6.296875 
Q 38.09375 -0.828125 31.15625 4.734375 
z
" id="MicrosoftYaHei-26399"/>
      </defs>
      <use xlink:href="#MicrosoftYaHei-26085"/>
      <use x="100" xlink:href="#MicrosoftYaHei-26399"/>
     </g>
    </g>
   </g>
   <g id="matplotlib.axis_2">
    <g id="ytick_1">
     <g id="line2d_7">
      <path clip-path="url(#p00389a88eb)" d="M 54 242.116712 
L 388.8 242.116712 
" style="fill:none;stroke:#ffffff;stroke-linecap:round;"/>
     </g>
     <g id="text_8">
      <!-- 0 -->
      <g style="fill:#262626;" transform="translate(38.049531 246.513275)scale(0.11 -0.11)">
       <use xlink:href="#MicrosoftYaHei-48"/>
      </g>
     </g>
    </g>
    <g id="ytick_2">
     <g id="line2d_8">
      <path clip-path="url(#p00389a88eb)" d="M 54 207.243895 
L 388.8 207.243895 
" style="fill:none;stroke:#ffffff;stroke-linecap:round;"/>
     </g>
     <g id="text_9">
      <!-- 100000 -->
      <g style="fill:#262626;" transform="translate(5.797187 211.640458)scale(0.11 -0.11)">
       <defs>
        <path d="M 27.828125 0 
L 27.828125 64.703125 
Q 25.59375 62.453125 20.234375 59.671875 
Q 14.890625 56.890625 10.359375 55.765625 
L 10.359375 65.140625 
Q 16.359375 66.796875 23.1875 70.4375 
Q 30.03125 74.078125 33.6875 77.296875 
L 37.3125 77.296875 
L 37.3125 0 
z
" id="MicrosoftYaHei-49"/>
       </defs>
       <use xlink:href="#MicrosoftYaHei-49"/>
       <use x="58.642578" xlink:href="#MicrosoftYaHei-48"/>
       <use x="117.285156" xlink:href="#MicrosoftYaHei-48"/>
       <use x="175.927734" xlink:href="#MicrosoftYaHei-48"/>
       <use x="234.570312" xlink:href="#MicrosoftYaHei-48"/>
       <use x="293.212891" xlink:href="#MicrosoftYaHei-48"/>
      </g>
     </g>
    </g>
    <g id="ytick_3">
     <g id="line2d_9">
      <path clip-path="url(#p00389a88eb)" d="M 54 172.371078 
L 388.8 172.371078 
" style="fill:none;stroke:#ffffff;stroke-linecap:round;"/>
     </g>
     <g id="text_10">
      <!-- 200000 -->
      <g style="fill:#262626;" transform="translate(5.797187 176.767641)scale(0.11 -0.11)">
       <use xlink:href="#MicrosoftYaHei-50"/>
       <use x="58.642578" xlink:href="#MicrosoftYaHei-48"/>
       <use x="117.285156" xlink:href="#MicrosoftYaHei-48"/>
       <use x="175.927734" xlink:href="#MicrosoftYaHei-48"/>
       <use x="234.570312" xlink:href="#MicrosoftYaHei-48"/>
       <use x="293.212891" xlink:href="#MicrosoftYaHei-48"/>
      </g>
     </g>
    </g>
    <g id="ytick_4">
     <g id="line2d_10">
      <path clip-path="url(#p00389a88eb)" d="M 54 137.498261 
L 388.8 137.498261 
" style="fill:none;stroke:#ffffff;stroke-linecap:round;"/>
     </g>
     <g id="text_11">
      <!-- 300000 -->
      <g style="fill:#262626;" transform="translate(5.797187 141.894824)scale(0.11 -0.11)">
       <use xlink:href="#MicrosoftYaHei-51"/>
       <use x="58.642578" xlink:href="#MicrosoftYaHei-48"/>
       <use x="117.285156" xlink:href="#MicrosoftYaHei-48"/>
       <use x="175.927734" xlink:href="#MicrosoftYaHei-48"/>
       <use x="234.570312" xlink:href="#MicrosoftYaHei-48"/>
       <use x="293.212891" xlink:href="#MicrosoftYaHei-48"/>
      </g>
     </g>
    </g>
    <g id="ytick_5">
     <g id="line2d_11">
      <path clip-path="url(#p00389a88eb)" d="M 54 102.625444 
L 388.8 102.625444 
" style="fill:none;stroke:#ffffff;stroke-linecap:round;"/>
     </g>
     <g id="text_12">
      <!-- 400000 -->
      <g style="fill:#262626;" transform="translate(5.797187 107.022007)scale(0.11 -0.11)">
       <use xlink:href="#MicrosoftYaHei-52"/>
       <use x="58.642578" xlink:href="#MicrosoftYaHei-48"/>
       <use x="117.285156" xlink:href="#MicrosoftYaHei-48"/>
       <use x="175.927734" xlink:href="#MicrosoftYaHei-48"/>
       <use x="234.570312" xlink:href="#MicrosoftYaHei-48"/>
       <use x="293.212891" xlink:href="#MicrosoftYaHei-48"/>
      </g>
     </g>
    </g>
    <g id="ytick_6">
     <g id="line2d_12">
      <path clip-path="url(#p00389a88eb)" d="M 54 67.752627 
L 388.8 67.752627 
" style="fill:none;stroke:#ffffff;stroke-linecap:round;"/>
     </g>
     <g id="text_13">
      <!-- 500000 -->
      <g style="fill:#262626;" transform="translate(5.797187 72.14919)scale(0.11 -0.11)">
       <use xlink:href="#MicrosoftYaHei-53"/>
       <use x="58.642578" xlink:href="#MicrosoftYaHei-48"/>
       <use x="117.285156" xlink:href="#MicrosoftYaHei-48"/>
       <use x="175.927734" xlink:href="#MicrosoftYaHei-48"/>
       <use x="234.570312" xlink:href="#MicrosoftYaHei-48"/>
       <use x="293.212891" xlink:href="#MicrosoftYaHei-48"/>
      </g>
     </g>
    </g>
    <g id="text_14">
     <!-- 累计确诊 -->
     <g style="fill:#262626;" transform="translate(-1.185938 167.28)rotate(-90)scale(0.12 -0.12)">
      <defs>
       <path d="M 71.09375 31.109375 
Q 84.765625 19.96875 92.875 12.0625 
L 87.5 6.59375 
Q 83.6875 10.546875 79.640625 14.40625 
Q 67.71875 13.921875 55.5625 13.375 
L 55.5625 0.34375 
Q 55.5625 -11.765625 43.359375 -11.765625 
Q 37.109375 -11.765625 29.390625 -11.671875 
Q 28.8125 -7.765625 27.9375 -3.5625 
Q 35.453125 -4.25 41.40625 -4.25 
Q 47.953125 -4.25 47.953125 2.875 
L 47.953125 13.03125 
Q 34.859375 12.40625 21.484375 11.765625 
Q 17.1875 11.578125 13.1875 10.984375 
L 10.546875 18.40625 
Q 16.5 19.09375 23.921875 21.921875 
Q 33.9375 25.78125 45.5625 31 
Q 33.40625 30.609375 23.921875 30.03125 
Q 19.234375 29.734375 16.890625 29.4375 
L 14.359375 35.890625 
Q 19.234375 36.859375 24.21875 39.109375 
Q 30.765625 42.046875 37.15625 45.453125 
L 18.84375 45.453125 
L 18.84375 42.625 
L 11.421875 42.625 
L 11.421875 79.734375 
L 88.671875 79.734375 
L 88.671875 42.625 
L 81.25 42.625 
L 81.25 45.453125 
L 48.828125 45.453125 
Q 38.03125 39.984375 27.546875 35.5 
Q 40.328125 35.84375 57.328125 36.46875 
Q 64.0625 39.65625 71.296875 43.3125 
L 76.375 38.03125 
Q 53.03125 27 28.515625 17.921875 
Q 53.171875 19 73.1875 20.265625 
Q 69.625 23.4375 65.921875 26.515625 
z
M 53.609375 51.125 
L 81.25 51.125 
L 81.25 60.015625 
L 53.609375 60.015625 
z
M 18.84375 51.125 
L 46.390625 51.125 
L 46.390625 60.015625 
L 18.84375 60.015625 
z
M 81.25 74.078125 
L 53.609375 74.078125 
L 53.609375 65.28125 
L 81.25 65.28125 
z
M 18.84375 65.28125 
L 46.390625 65.28125 
L 46.390625 74.078125 
L 18.84375 74.078125 
z
M 29.59375 8.9375 
L 33.984375 2.875 
Q 19.734375 -4.25 5.953125 -9.625 
Q 4.5 -6.59375 2.546875 -3.078125 
Q 17.09375 2.59375 29.59375 8.9375 
z
M 69.234375 8.546875 
Q 83.796875 3.65625 97.171875 -2.296875 
L 94.140625 -8.9375 
Q 81.0625 -2.984375 65.921875 2.09375 
z
" id="MicrosoftYaHei-32047"/>
       <path d="M 32.8125 49.265625 
L 61.234375 49.265625 
L 61.234375 82.859375 
L 69.625 82.859375 
L 69.625 49.265625 
L 98.25 49.265625 
L 98.25 42.234375 
L 69.625 42.234375 
L 69.625 -12.84375 
L 61.234375 -12.84375 
L 61.234375 42.234375 
L 32.8125 42.234375 
z
M 41.796875 14.109375 
Q 42.09375 9.03125 42.484375 5.609375 
Q 26.859375 -4.15625 16.703125 -11.375 
L 12.015625 -4.734375 
Q 15.4375 -1.8125 15.4375 4.15625 
L 15.4375 42.828125 
L 1.5625 42.828125 
L 1.5625 49.859375 
L 23.25 49.859375 
L 23.25 2.390625 
Q 31.734375 7.5625 41.796875 14.109375 
z
M 11.53125 81.59375 
Q 22.171875 70.65625 26.953125 65.375 
L 20.125 59.625 
Q 13.96875 67.71875 5.5625 76.421875 
z
" id="MicrosoftYaHei-35745"/>
       <path d="M 32.421875 53.953125 
Q 46.1875 67.71875 54 83.734375 
L 61.421875 82.375 
Q 59.078125 77.984375 56.546875 73.78125 
L 84.96875 73.78125 
L 84.96875 67.625 
L 76.703125 57.28125 
L 94.734375 57.28125 
L 94.734375 -0.828125 
Q 94.734375 -11.375 85.546875 -11.375 
Q 80.375 -11.375 76.65625 -11.1875 
Q 76.078125 -7.765625 75.203125 -4.046875 
Q 80.5625 -4.546875 83.296875 -4.546875 
Q 87.796875 -4.546875 87.796875 0.25 
L 87.796875 11.46875 
L 71.6875 11.46875 
L 71.6875 -10.296875 
L 64.75 -10.296875 
L 64.75 11.46875 
L 48.640625 11.46875 
Q 46 -4.109375 38.1875 -13.8125 
Q 35.75 -10.984375 32.515625 -7.953125 
Q 43.0625 4.546875 43.0625 28.765625 
L 43.0625 54.78125 
Q 40.578125 51.8125 37.984375 48.96875 
Q 35.640625 51.21875 32.421875 53.953125 
z
M 0.484375 26.421875 
Q 11.578125 44.28125 16.65625 67.046875 
L 3.609375 67.046875 
L 3.609375 73.6875 
L 38.578125 73.6875 
L 38.578125 67.046875 
L 23.578125 67.046875 
Q 21.1875 56.453125 17.625 46.734375 
L 34.375 46.734375 
L 34.375 2 
L 17.96875 2 
L 17.96875 -5.421875 
L 11.53125 -5.421875 
L 11.53125 32.171875 
Q 8.734375 26.421875 5.46875 21.046875 
Q 3.515625 23.390625 0.484375 26.421875 
z
M 27.9375 8.453125 
L 27.9375 40.28125 
L 17.96875 40.28125 
L 17.96875 8.453125 
z
M 76.171875 67.53125 
L 52.59375 67.53125 
Q 49.03125 62.203125 45.0625 57.28125 
L 68.5 57.28125 
z
M 71.6875 17.71875 
L 87.796875 17.71875 
L 87.796875 31.109375 
L 71.6875 31.109375 
z
M 87.796875 50.640625 
L 71.6875 50.640625 
L 71.6875 37.359375 
L 87.796875 37.359375 
z
M 49.46875 17.71875 
L 64.75 17.71875 
L 64.75 31.109375 
L 50 31.109375 
Q 50 28.765625 49.46875 17.71875 
z
M 50 37.359375 
L 64.75 37.359375 
L 64.75 50.640625 
L 50 50.640625 
z
" id="MicrosoftYaHei-30830"/>
       <path d="M 32.328125 15.578125 
Q 32.71875 10.59375 33.40625 6.984375 
Q 24.515625 0.25 19.34375 -4.046875 
Q 17.28125 -5.90625 14.9375 -8.546875 
L 9.375 -2.390625 
Q 12.40625 0.828125 12.40625 6.59375 
L 12.40625 43.015625 
L 1.375 43.015625 
L 1.375 50.25 
L 20.015625 50.25 
L 20.015625 5.515625 
Q 25.875 10.203125 32.328125 15.578125 
z
M 14.546875 80.8125 
Q 22.171875 73.296875 29.984375 64.59375 
L 23.140625 58.84375 
Q 15.140625 69.1875 8.6875 75.828125 
z
M 67.578125 82.46875 
L 66.21875 80.03125 
Q 76.46875 60.5 98.734375 50.34375 
Q 95.515625 46.140625 93.453125 43.21875 
Q 71.390625 56.109375 61.921875 73.296875 
Q 53.125 57.28125 30.078125 42.71875 
Q 27.046875 46.734375 24.609375 49.5625 
Q 49.125 61.96875 58.59375 82.46875 
z
M 30.671875 -6.109375 
Q 68.953125 5.125 87.796875 25.34375 
L 93.5625 20.0625 
Q 73.734375 -1.21875 34.671875 -13.625 
Q 32.71875 -9.8125 30.671875 -6.109375 
z
M 33.796875 35.203125 
Q 54.59375 43.796875 65.046875 56.203125 
L 71.1875 51.609375 
Q 59.28125 38.140625 38.09375 28.46875 
Q 35.84375 32.078125 33.796875 35.203125 
z
M 36.421875 15.375 
Q 62.015625 25.828125 77.046875 40.875 
L 82.625 35.6875 
Q 66.796875 19.390625 40.53125 8.453125 
Q 39.0625 11.078125 36.421875 15.375 
z
" id="MicrosoftYaHei-35786"/>
      </defs>
      <use xlink:href="#MicrosoftYaHei-32047"/>
      <use x="100" xlink:href="#MicrosoftYaHei-35745"/>
      <use x="200" xlink:href="#MicrosoftYaHei-30830"/>
      <use x="300" xlink:href="#MicrosoftYaHei-35786"/>
     </g>
    </g>
   </g>
   <g id="line2d_13">
    <path clip-path="url(#p00389a88eb)" d="M 69.218182 242.116364 
L 163.472727 242.028484 
L 173.290909 241.794836 
L 181.145455 241.387522 
L 185.072727 240.927898 
L 189 240.456766 
L 192.927273 239.790347 
L 194.890909 239.519385 
L 196.854545 238.97223 
L 202.745455 237.741917 
L 208.636364 236.304809 
L 212.563636 235.393582 
L 216.490909 234.393081 
L 220.418182 233.613325 
L 222.381818 232.992937 
L 224.345455 232.678733 
L 230.236364 230.813735 
L 234.163636 229.774525 
L 236.127273 229.080556 
L 238.090909 228.717879 
L 240.054545 227.880234 
L 243.981818 226.645736 
L 253.8 224.123385 
L 257.727273 222.73719 
L 259.690909 222.338943 
L 261.654545 221.376453 
L 269.509091 219.476582 
L 271.472727 218.828645 
L 281.290909 216.821366 
L 283.254545 216.519716 
L 285.218182 215.960705 
L 287.181818 215.542231 
L 289.145455 215.263946 
L 291.109091 214.7419 
L 293.072727 214.528129 
L 295.036364 214.528129 
L 297 213.756743 
L 298.963636 213.209937 
L 300.927273 212.795299 
L 302.890909 212.579785 
L 304.854545 212.126787 
L 308.781818 211.596372 
L 316.636364 210.260045 
L 322.527273 209.531203 
L 324.490909 209.431816 
L 336.272727 208.175697 
L 340.2 207.961229 
L 346.090909 207.54136 
L 373.581818 205.877578 
L 373.581818 205.877578 
" style="fill:none;stroke:#4c72b0;stroke-linecap:round;stroke-width:1.5;"/>
   </g>
   <g id="line2d_14">
    <path clip-path="url(#p00389a88eb)" d="M 75.109091 242.116364 
L 175.254545 242.018022 
L 190.963636 241.759615 
L 198.818182 241.395194 
L 206.672727 240.623807 
L 212.563636 240.071422 
L 220.418182 238.855407 
L 222.381818 238.345217 
L 226.309091 237.66729 
L 232.2 236.496609 
L 238.090909 234.977898 
L 240.054545 234.549311 
L 247.909091 232.219807 
L 253.8 230.552886 
L 259.690909 228.17456 
L 261.654545 227.284257 
L 263.618182 225.827271 
L 265.581818 224.892679 
L 269.509091 222.46867 
L 273.436364 220.16811 
L 275.4 218.507815 
L 277.363636 217.442102 
L 281.290909 214.914869 
L 285.218182 212.147013 
L 291.109091 206.846694 
L 293.072727 206.846694 
L 295.036364 204.88998 
L 297 204.88998 
L 298.963636 198.49047 
L 306.818182 189.191284 
L 308.781818 186.901535 
L 312.709091 181.520659 
L 320.563636 169.715513 
L 324.490909 163.035625 
L 336.272727 142.178542 
L 340.2 134.362149 
L 344.127273 126.191099 
L 348.054545 118.644273 
L 351.981818 109.414484 
L 353.945455 104.352346 
L 357.872727 93.808899 
L 359.836364 88.601341 
L 363.763636 77.131671 
L 365.727273 71.100069 
L 367.690909 64.630464 
L 371.618182 50.90278 
L 373.581818 44.443636 
L 373.581818 44.443636 
" style="fill:none;stroke:#dd8452;stroke-linecap:round;stroke-width:1.5;"/>
   </g>
   <g id="line2d_15">
    <path clip-path="url(#p00389a88eb)" d="M 77.072727 242.116015 
L 126.163636 242.018022 
L 134.018182 241.807042 
L 135.981818 241.723347 
L 139.909091 241.406702 
L 143.836364 241.039491 
L 149.727273 240.065145 
L 155.618182 238.530741 
L 157.581818 237.770862 
L 161.509091 235.958173 
L 165.436364 233.420129 
L 167.4 231.995923 
L 169.363636 231.129683 
L 171.327273 229.151696 
L 173.290909 227.806652 
L 175.254545 225.719165 
L 177.218182 222.86064 
L 179.181818 221.362504 
L 181.145455 219.66629 
L 183.109091 217.515684 
L 185.072727 216.176219 
L 187.036364 213.824745 
L 190.963636 209.667207 
L 194.890909 206.509474 
L 196.854545 205.224062 
L 198.818182 203.556444 
L 200.781818 201.700861 
L 204.709091 198.520111 
L 206.672727 196.96304 
L 210.6 194.726995 
L 216.490909 190.429269 
L 218.454545 188.810124 
L 220.418182 187.480424 
L 226.309091 184.522511 
L 230.236364 181.984119 
L 232.2 180.766709 
L 234.163636 179.704134 
L 236.127273 177.965724 
L 238.090909 177.965724 
L 240.054545 176.79051 
L 242.018182 174.814268 
L 243.981818 174.814268 
L 247.909091 173.181871 
L 249.872727 172.575433 
L 255.763636 170.465976 
L 259.690909 169.118142 
L 263.618182 168.207961 
L 265.581818 167.833079 
L 271.472727 166.378185 
L 275.4 165.720832 
L 277.363636 165.461378 
L 279.327273 164.972461 
L 289.145455 163.501177 
L 291.109091 163.343901 
L 293.072727 163.343901 
L 295.036364 163.060385 
L 297 163.060385 
L 298.963636 162.377226 
L 302.890909 161.958753 
L 306.818182 161.715689 
L 314.672727 160.980221 
L 322.527273 160.571512 
L 324.490909 160.509787 
L 328.418182 160.234989 
L 336.272727 159.899513 
L 344.127273 159.471972 
L 355.909091 158.945392 
L 359.836364 158.865534 
L 361.8 158.828917 
L 365.727273 158.524478 
L 373.581818 158.269906 
L 373.581818 158.269906 
" style="fill:none;stroke:#55a868;stroke-linecap:round;stroke-width:1.5;"/>
   </g>
   <g id="line2d_16">
    <path clip-path="url(#p00389a88eb)" d="M 116.345455 242.116015 
L 132.054545 242.022556 
L 137.945455 241.593271 
L 141.872727 241.097729 
L 143.836364 241.097729 
L 145.8 240.4613 
L 147.763636 240.086068 
L 155.618182 238.978159 
L 159.545455 238.153765 
L 163.472727 237.256139 
L 171.327273 235.697673 
L 175.254545 234.929425 
L 177.218182 234.570932 
L 179.181818 234.078877 
L 181.145455 233.464418 
L 185.072727 231.862012 
L 190.963636 228.757285 
L 196.854545 225.519693 
L 200.781818 223.570302 
L 204.709091 221.811666 
L 208.636364 220.290165 
L 210.6 218.652189 
L 212.563636 218.652189 
L 214.527273 218.336241 
L 218.454545 217.117785 
L 228.272727 214.394915 
L 236.127273 212.543866 
L 245.945455 210.563439 
L 261.654545 207.715725 
L 263.618182 207.254357 
L 269.509091 205.608011 
L 277.363636 203.489139 
L 285.218182 200.830087 
L 287.181818 200.200284 
L 291.109091 198.664136 
L 297 198.664136 
L 298.963636 195.554178 
L 302.890909 194.088474 
L 306.818182 192.739942 
L 308.781818 191.952514 
L 310.745455 190.969449 
L 314.672727 189.296251 
L 320.563636 186.07749 
L 322.527273 184.831136 
L 324.490909 183.824706 
L 332.345455 180.766012 
L 336.272727 179.29124 
L 346.090909 175.007812 
L 350.018182 173.191636 
L 351.981818 173.18222 
L 353.945455 171.469965 
L 359.836364 168.894258 
L 373.581818 162.72456 
L 373.581818 162.72456 
" style="fill:none;stroke:#c44e52;stroke-linecap:round;stroke-width:1.5;"/>
   </g>
   <g id="line2d_17">
    <path clip-path="url(#p00389a88eb)" d="M 145.8 242.116364 
L 147.763636 242.116364 
L 149.727273 242.11462 
L 151.690909 242.11462 
L 153.654545 242.11462 
L 155.618182 242.11462 
L 157.581818 242.11462 
L 159.545455 242.10904 
L 161.509091 242.106948 
L 163.472727 242.106948 
L 165.436364 242.091953 
L 167.4 242.091953 
L 169.363636 242.075911 
L 171.327273 242.066147 
L 173.290909 242.03511 
L 175.254545 242.024997 
L 177.218182 242.005817 
L 179.181818 241.990124 
L 181.145455 241.978965 
L 183.109091 241.978965 
L 185.072727 241.949323 
L 187.036364 241.91445 
L 189 241.89527 
L 190.963636 241.882716 
L 192.927273 241.819596 
L 194.890909 241.785421 
L 196.854545 241.745317 
L 198.818182 241.745317 
L 200.781818 241.623611 
L 202.745455 241.623611 
L 204.709091 241.507833 
L 206.672727 241.321263 
L 208.636364 241.321263 
L 210.6 241.086569 
L 212.563636 240.606022 
L 214.527273 240.606022 
L 216.490909 240.060262 
L 218.454545 240.060262 
L 220.418182 239.494625 
L 222.381818 239.494625 
L 224.345455 239.494625 
L 226.309091 239.494625 
L 228.272727 238.523766 
L 230.236364 237.412718 
L 232.2 237.088052 
L 234.163636 236.666789 
L 236.127273 236.423725 
L 238.090909 235.896448 
L 240.054545 235.403695 
L 242.018182 234.823411 
L 243.981818 234.567445 
L 245.945455 233.283079 
L 247.909091 232.520759 
L 249.872727 232.108563 
L 251.836364 231.239881 
L 253.8 230.284017 
L 255.763636 229.22214 
L 257.727273 228.007519 
L 259.690909 227.283908 
L 261.654545 226.100325 
L 263.618182 225.596761 
L 265.581818 224.265666 
L 267.545455 223.00048 
L 269.509091 221.707047 
L 271.472727 220.548921 
L 273.436364 219.44415 
L 275.4 218.644865 
L 277.363636 218.116542 
L 279.327273 216.987709 
L 281.290909 215.506661 
L 283.254545 214.007827 
L 285.218182 212.650926 
L 287.181818 211.239971 
L 289.145455 209.938518 
L 291.109091 209.010901 
L 293.072727 207.424188 
L 295.036364 207.424188 
L 297 204.185898 
L 298.963636 203.164473 
L 300.927273 201.750032 
L 302.890909 200.28363 
L 304.854545 198.881743 
L 306.818182 196.868884 
L 308.781818 194.72281 
L 310.745455 192.674381 
L 312.709091 190.405556 
L 314.672727 187.829849 
L 316.636364 184.759298 
L 318.6 182.819323 
L 320.563636 181.129735 
L 322.527273 179.724361 
L 324.490909 178.230409 
L 326.454545 176.765053 
L 328.418182 175.245296 
L 330.381818 173.586396 
L 332.345455 172.477092 
L 334.309091 171.06823 
L 336.272727 169.29425 
L 338.236364 167.214086 
L 340.2 165.135318 
L 342.163636 163.606842 
L 344.127273 162.001297 
L 346.090909 160.865839 
L 348.054545 159.413734 
L 350.018182 158.105306 
L 351.981818 156.891732 
L 353.945455 155.658281 
L 355.909091 154.468072 
L 357.872727 153.213348 
L 359.836364 152.337691 
L 361.8 151.164918 
L 363.763636 149.812202 
L 365.727273 148.447628 
L 367.690909 147.135713 
L 369.654545 145.871573 
L 371.618182 144.675436 
L 373.581818 143.648083 
" style="fill:none;stroke:#8172b3;stroke-linecap:round;stroke-width:1.5;"/>
   </g>
   <g id="line2d_18">
    <path clip-path="url(#p00389a88eb)" d="M 145.8 242.116364 
L 147.763636 242.116364 
L 149.727273 242.116015 
L 151.690909 242.116015 
L 153.654545 242.116015 
L 155.618182 242.114271 
L 157.581818 242.110784 
L 159.545455 242.108343 
L 161.509091 242.108343 
L 163.472727 242.098927 
L 165.436364 242.098927 
L 167.4 242.095091 
L 169.363636 242.07626 
L 171.327273 242.07626 
L 173.290909 242.046269 
L 175.254545 242.033018 
L 177.218182 242.033018 
L 179.181818 241.976524 
L 181.145455 241.976524 
L 183.109091 241.869464 
L 185.072727 241.869464 
L 187.036364 241.793441 
L 189 241.7087 
L 190.963636 241.702772 
L 192.927273 241.67034 
L 194.890909 241.654299 
L 196.854545 241.644883 
L 198.818182 241.635467 
L 200.781818 241.606872 
L 202.745455 241.591876 
L 204.709091 241.563978 
L 206.672727 241.539567 
L 208.636364 241.528757 
L 210.6 241.528757 
L 212.563636 241.473309 
L 214.527273 241.41821 
L 216.490909 241.41821 
L 218.454545 241.409492 
L 220.418182 241.358926 
L 222.381818 241.274534 
L 224.345455 241.274534 
L 226.309091 241.2428 
L 228.272727 241.208275 
L 230.236364 241.146202 
L 232.2 241.058671 
L 234.163636 241.015429 
L 236.127273 240.965909 
L 238.090909 240.908369 
L 240.054545 240.849085 
L 242.018182 240.73819 
L 243.981818 240.645079 
L 245.945455 240.595909 
L 247.909091 240.531394 
L 249.872727 240.445258 
L 251.836364 240.374466 
L 253.8 240.251017 
L 255.763636 240.147444 
L 257.727273 240.041431 
L 259.690909 239.907171 
L 261.654545 239.751289 
L 263.618182 239.598895 
L 265.581818 239.476143 
L 267.545455 239.393843 
L 269.509091 239.245982 
L 271.472727 238.831693 
L 273.436364 238.831693 
L 275.4 238.6242 
L 277.363636 238.158648 
L 279.327273 238.158648 
L 281.290909 237.906168 
L 283.254545 237.674264 
L 285.218182 237.400513 
L 287.181818 237.110719 
L 289.145455 236.706195 
L 291.109091 236.386062 
L 293.072727 236.118588 
L 295.036364 236.118588 
L 297 235.443101 
L 298.963636 235.098558 
L 300.927273 234.673807 
L 302.890909 234.241384 
L 304.854545 233.881497 
L 306.818182 233.655172 
L 308.781818 233.07175 
L 310.745455 232.560514 
L 312.709091 231.919901 
L 314.672727 231.317647 
L 316.636364 230.135459 
L 318.6 230.135459 
L 320.563636 229.628059 
L 322.527273 229.030688 
L 324.490909 227.891393 
L 326.454545 226.970053 
L 328.418182 226.084632 
L 330.381818 225.278373 
L 332.345455 224.373772 
L 334.309091 223.637258 
L 336.272727 222.789848 
L 338.236364 221.692401 
L 340.2 220.521023 
L 342.163636 219.192717 
L 344.127273 217.692489 
L 346.090909 216.473684 
L 348.054545 215.496896 
L 350.018182 214.074783 
L 351.981818 212.861906 
L 353.945455 211.528021 
L 355.909091 209.796237 
L 357.872727 208.184764 
L 359.836364 206.689418 
L 361.8 205.113864 
L 363.763636 203.130298 
L 365.727273 200.836015 
L 367.690909 198.66867 
L 369.654545 196.15434 
L 371.618182 193.945495 
L 373.581818 191.807792 
" style="fill:none;stroke:#937860;stroke-linecap:round;stroke-width:1.5;"/>
   </g>
   <g id="line2d_19"/>
   <g id="line2d_20"/>
   <g id="line2d_21"/>
   <g id="line2d_22"/>
   <g id="line2d_23"/>
   <g id="line2d_24"/>
   <g id="patch_3">
    <path d="M 54 252 
L 54 34.56 
" style="fill:none;stroke:#ffffff;stroke-linecap:square;stroke-linejoin:miter;stroke-width:1.25;"/>
   </g>
   <g id="patch_4">
    <path d="M 388.8 252 
L 388.8 34.56 
" style="fill:none;stroke:#ffffff;stroke-linecap:square;stroke-linejoin:miter;stroke-width:1.25;"/>
   </g>
   <g id="patch_5">
    <path d="M 54 252 
L 388.8 252 
" style="fill:none;stroke:#ffffff;stroke-linecap:square;stroke-linejoin:miter;stroke-width:1.25;"/>
   </g>
   <g id="patch_6">
    <path d="M 54 34.56 
L 388.8 34.56 
" style="fill:none;stroke:#ffffff;stroke-linecap:square;stroke-linejoin:miter;stroke-width:1.25;"/>
   </g>
   <g id="legend_1">
    <g id="patch_7">
     <path d="M 61.7 163.601563 
L 129.9 163.601563 
Q 132.1 163.601563 132.1 161.401563 
L 132.1 42.26 
Q 132.1 40.06 129.9 40.06 
L 61.7 40.06 
Q 59.5 40.06 59.5 42.26 
L 59.5 161.401563 
Q 59.5 163.601563 61.7 163.601563 
z
" style="fill:#eaeaf2;opacity:0.8;stroke:#cccccc;stroke-linejoin:miter;"/>
    </g>
    <g id="text_15">
     <!-- 国家 -->
     <g style="fill:#262626;" transform="translate(83.8 54.0525)scale(0.12 -0.12)">
      <defs>
       <path d="M 7.328125 78.078125 
L 92.78125 78.078125 
L 92.78125 -13.03125 
L 85.25 -13.03125 
L 85.25 -8.15625 
L 14.84375 -8.15625 
L 14.84375 -13.140625 
L 7.328125 -13.140625 
z
M 85.25 71.140625 
L 14.84375 71.140625 
L 14.84375 -1.21875 
L 85.25 -1.21875 
z
M 19.34375 15.765625 
L 46.296875 15.765625 
L 46.296875 35.109375 
L 22.75 35.109375 
L 22.75 41.75 
L 46.296875 41.75 
L 46.296875 54.828125 
L 20.90625 54.828125 
L 20.90625 61.46875 
L 79.109375 61.46875 
L 79.109375 54.828125 
L 53.515625 54.828125 
L 53.515625 41.75 
L 77.15625 41.75 
L 77.15625 35.109375 
L 53.515625 35.109375 
L 53.515625 15.765625 
L 80.671875 15.765625 
L 80.671875 9.125 
L 19.34375 9.125 
z
M 58.59375 28.859375 
L 64.0625 32.953125 
Q 69.4375 27.390625 73.25 22.515625 
L 67.484375 18.109375 
Q 62.796875 24.46875 58.59375 28.859375 
z
" id="MicrosoftYaHei-22269"/>
       <path d="M 3.03125 -3.265625 
Q 32.515625 5.171875 50 24.3125 
Q 48.640625 27.15625 46.828125 29.734375 
Q 32.28125 14.703125 6.640625 6.59375 
Q 5.171875 9.90625 3.125 13.234375 
Q 28.265625 20.171875 42.234375 35.25 
Q 40.625 36.859375 38.71875 38.421875 
Q 25.78125 29.25 6.9375 23.390625 
Q 5.078125 26.609375 2.546875 30.328125 
Q 25.828125 35.5 39.84375 47.703125 
L 15.234375 47.703125 
L 15.234375 54.734375 
L 84.96875 54.734375 
L 84.96875 47.703125 
L 49.515625 47.703125 
Q 47.015625 45.0625 44.140625 42.625 
Q 51.8125 36.421875 56.0625 28.765625 
Q 71.34375 36.234375 83.203125 44.09375 
L 87.796875 37.84375 
Q 79.828125 33.0625 70.84375 28.375 
Q 79.5 9.625 98.921875 2.203125 
Q 95.703125 -1.515625 92.875 -5.421875 
Q 73.78125 4.34375 64.546875 25.140625 
Q 61.765625 23.78125 58.890625 22.359375 
Q 64.453125 1.609375 57.125 -7.859375 
Q 53.609375 -12.0625 43.65625 -12.0625 
Q 39.75 -12.0625 31.34375 -11.765625 
Q 30.765625 -7.953125 29.890625 -3.65625 
Q 37.5 -4.546875 43.453125 -4.546875 
Q 54 -5.125 53.71875 8.15625 
Q 53.5625 12.546875 52.640625 16.609375 
Q 35.359375 -0.4375 6.546875 -10.015625 
Q 5.078125 -6.78125 3.03125 -3.265625 
z
M 5.171875 70.75 
L 49.3125 70.75 
Q 46.4375 75.09375 42.578125 80.03125 
L 49.421875 84.421875 
Q 53.8125 79.046875 57.421875 73.78125 
L 52.4375 70.75 
L 94.734375 70.75 
L 94.734375 54.046875 
L 86.921875 54.046875 
L 86.921875 63.53125 
L 12.984375 63.53125 
L 12.984375 54.046875 
L 5.171875 54.046875 
z
" id="MicrosoftYaHei-23478"/>
      </defs>
      <use xlink:href="#MicrosoftYaHei-22269"/>
      <use x="100" xlink:href="#MicrosoftYaHei-23478"/>
     </g>
    </g>
    <g id="line2d_25">
     <path d="M 63.9 67.47875 
L 85.9 67.47875 
" style="fill:none;stroke:#4c72b0;stroke-linecap:round;stroke-width:1.5;"/>
    </g>
    <g id="line2d_26"/>
    <g id="text_16">
     <!-- 加拿大 -->
     <g style="fill:#262626;" transform="translate(94.7 71.32875)scale(0.11 -0.11)">
      <defs>
       <path d="M 57.234375 70.0625 
L 94.34375 70.0625 
L 94.34375 -10.40625 
L 86.625 -10.40625 
L 86.625 -0.53125 
L 64.9375 -0.53125 
L 64.9375 -10.40625 
L 57.234375 -10.40625 
z
M 3.609375 65.28125 
L 17.234375 65.28125 
Q 17.328125 73.140625 17.28125 82.765625 
L 25 82.765625 
Q 25 73.046875 24.90625 65.28125 
L 47.65625 65.28125 
Q 47.171875 27.78125 46.390625 6.390625 
Q 46 -11.1875 33.109375 -10.5 
Q 29.296875 -10.5 21.875 -10.203125 
Q 21.1875 -6.109375 20.3125 -1.703125 
Q 27.15625 -2.59375 31.453125 -2.59375 
Q 37.984375 -2.78125 38.578125 6.6875 
Q 39.65625 29.828125 39.84375 57.859375 
L 24.8125 57.859375 
Q 24.703125 50.390625 24.515625 45.171875 
Q 24.125 6.984375 6.15625 -13.625 
Q 3.71875 -10.59375 0.390625 -7.078125 
Q 16.609375 10.6875 16.890625 45.953125 
Q 17.09375 51.078125 17.1875 57.859375 
L 3.609375 57.859375 
z
M 86.625 62.84375 
L 64.9375 62.84375 
L 64.9375 6.5 
L 86.625 6.5 
z
" id="MicrosoftYaHei-21152"/>
       <path d="M 2.25 6.5 
L 47.859375 6.5 
L 47.859375 12.359375 
L 11.328125 12.359375 
L 11.328125 17.625 
L 47.859375 17.625 
L 47.859375 23.78125 
Q 27.640625 23.09375 10.640625 22.796875 
Q 9.859375 26.90625 9.28125 28.953125 
Q 56.453125 29.34375 85.9375 31.390625 
L 87.109375 25.25 
Q 70.21875 24.5625 55.078125 23.96875 
L 55.078125 17.625 
L 87.703125 17.625 
L 87.703125 12.359375 
L 55.078125 12.359375 
L 55.078125 6.5 
L 97.359375 6.5 
L 97.359375 0.828125 
L 55.078125 0.828125 
L 55.078125 -1.8125 
Q 55.078125 -12.0625 45.015625 -12.25 
Q 39.75 -12.359375 30.078125 -12.359375 
Q 29.59375 -9.234375 28.71875 -4.828125 
Q 37.203125 -5.515625 42.578125 -5.515625 
Q 47.859375 -5.515625 47.859375 -0.4375 
L 47.859375 0.828125 
L 2.25 0.828125 
z
M 18.75 53.5625 
L 81.25 53.5625 
L 81.25 34.125 
L 74.421875 34.125 
L 74.421875 35.5 
L 25.59375 35.5 
L 25.59375 33.453125 
L 18.75 33.453125 
z
M 57.234375 82.953125 
L 55.671875 81.390625 
Q 71.484375 66.453125 98.640625 60.296875 
Q 95.609375 56.5 93.84375 53.171875 
Q 80.28125 57.375 69.53125 63.234375 
L 69.53125 59.515625 
L 29.78125 59.515625 
L 29.78125 63.234375 
Q 18.84375 57.171875 5.859375 51.90625 
Q 3.515625 55.515625 1.375 58.0625 
Q 29.390625 68.21875 46.875 82.953125 
z
M 74.421875 48.09375 
L 25.59375 48.09375 
L 25.59375 40.96875 
L 74.421875 40.96875 
z
M 50.6875 76.90625 
Q 42.578125 70.65625 32.8125 64.984375 
L 66.5 64.984375 
Q 57.625 70.265625 50.6875 76.90625 
z
" id="MicrosoftYaHei-25343"/>
       <path d="M 1.375 -5.328125 
Q 41.65625 12.59375 44.828125 48.484375 
L 3.125 48.484375 
L 3.125 56.109375 
L 45.171875 56.109375 
Q 45.40625 69.234375 45.40625 82.5625 
L 53.90625 82.5625 
Q 53.90625 69.4375 53.65625 56.109375 
L 96.96875 56.109375 
L 96.96875 48.484375 
L 53.515625 48.484375 
Q 60.453125 9.46875 99.03125 -2.984375 
Q 94.046875 -7.765625 91.609375 -10.890625 
Q 59.8125 1.90625 50.046875 34.671875 
Q 42.4375 5.03125 7.421875 -12.84375 
Q 5.46875 -10.203125 1.375 -5.328125 
z
" id="MicrosoftYaHei-22823"/>
      </defs>
      <use xlink:href="#MicrosoftYaHei-21152"/>
      <use x="100" xlink:href="#MicrosoftYaHei-25343"/>
      <use x="200" xlink:href="#MicrosoftYaHei-22823"/>
     </g>
    </g>
    <g id="line2d_27">
     <path d="M 63.9 84.506406 
L 85.9 84.506406 
" style="fill:none;stroke:#dd8452;stroke-linecap:round;stroke-width:1.5;"/>
    </g>
    <g id="line2d_28"/>
    <g id="text_17">
     <!-- 印度 -->
     <g style="fill:#262626;" transform="translate(94.7 88.356406)scale(0.11 -0.11)">
      <defs>
       <path d="M 51.265625 75.4375 
L 92.96875 75.4375 
L 92.96875 16.453125 
Q 92.96875 3.5625 80.5625 3.46875 
Q 74.3125 3.375 65.625 3.5625 
Q 65.140625 7.859375 64.359375 12.546875 
Q 73.140625 11.765625 78.125 11.765625 
Q 84.96875 11.671875 84.96875 18.890625 
L 84.96875 67.828125 
L 59.28125 67.828125 
L 59.28125 -13.03125 
L 51.265625 -13.03125 
z
M 47.46875 76.125 
Q 34.578125 72.609375 15.53125 68.703125 
L 15.53125 46.234375 
L 45.125 46.234375 
L 45.125 38.921875 
L 15.53125 38.921875 
L 15.53125 8.640625 
Q 30.765625 13.53125 45.703125 18.890625 
Q 45.703125 14.703125 46.484375 10.59375 
Q 30.078125 5.21875 15.71875 -0.4375 
Q 12.3125 -2.09375 9.859375 -4.34375 
L 4.59375 2.484375 
Q 7.71875 6 7.515625 11.375 
L 7.515625 74.46875 
Q 28.609375 78.5625 43.75 83.25 
z
" id="MicrosoftYaHei-21360"/>
       <path d="M 24.21875 19 
L 24.21875 25.4375 
L 85.453125 25.4375 
L 85.453125 19.09375 
Q 76.609375 9.578125 64.796875 2.546875 
Q 78.90625 -3.125 97.859375 -4.828125 
L 94.046875 -12.453125 
Q 72.265625 -9.421875 56.9375 -1.703125 
Q 40.625 -9.671875 19.53125 -13.53125 
Q 17.96875 -10.40625 15.53125 -6.5 
Q 34.859375 -3.46875 49.46875 2.59375 
Q 39.015625 9.375 32.28125 19 
z
M 21.296875 55.328125 
L 35.84375 55.328125 
L 35.84375 63.53125 
L 43.265625 63.53125 
L 43.265625 55.328125 
L 70.90625 55.328125 
L 70.90625 63.625 
L 78.328125 63.625 
L 78.328125 55.328125 
L 96.09375 55.328125 
L 96.09375 48.875 
L 78.328125 48.875 
L 78.328125 30.125 
L 70.90625 30.125 
L 70.90625 33.546875 
L 43.265625 33.546875 
L 43.265625 30.03125 
L 35.84375 30.03125 
L 35.84375 48.875 
L 21.296875 48.875 
z
M 47.265625 80.8125 
L 54.390625 84.234375 
Q 57.71875 79 61.078125 72.40625 
L 97.078125 72.40625 
L 97.078125 65.578125 
L 19.140625 65.578125 
L 19.140625 36.1875 
Q 19.140625 2.78125 6.15625 -13.625 
Q 3.71875 -10.40625 0.59375 -6.984375 
Q 11.328125 6.203125 11.53125 36.671875 
L 11.53125 72.40625 
L 52.046875 72.40625 
Q 49.8125 76.703125 47.265625 80.8125 
z
M 43.265625 39.796875 
L 70.90625 39.796875 
L 70.90625 48.875 
L 43.265625 48.875 
z
M 75.296875 19 
L 40.4375 19 
Q 47.359375 11.375 57.125 6.109375 
Q 67.71875 11.578125 75.296875 19 
z
" id="MicrosoftYaHei-24230"/>
      </defs>
      <use xlink:href="#MicrosoftYaHei-21360"/>
      <use x="100" xlink:href="#MicrosoftYaHei-24230"/>
     </g>
    </g>
    <g id="line2d_29">
     <path d="M 63.9 101.534063 
L 85.9 101.534063 
" style="fill:none;stroke:#55a868;stroke-linecap:round;stroke-width:1.5;"/>
    </g>
    <g id="line2d_30"/>
    <g id="text_18">
     <!-- 意大利 -->
     <g style="fill:#262626;" transform="translate(94.7 105.384063)scale(0.11 -0.11)">
      <defs>
       <path d="M 42.28125 11.859375 
L 47.21875 16.0625 
L 22.171875 16.0625 
L 22.171875 13.03125 
L 14.9375 13.03125 
L 14.9375 46.828125 
L 84.46875 46.828125 
L 84.46875 13.03125 
L 77.25 13.03125 
L 77.25 16.0625 
L 47.46875 16.0625 
Q 53.859375 10.640625 58.6875 5.515625 
L 52.9375 0.734375 
Q 48.828125 5.515625 42.28125 11.859375 
z
M 2.34375 58.15625 
L 29.78125 58.15625 
Q 25.921875 61.8125 21.96875 65.1875 
L 24.90625 67.921875 
L 8.40625 67.921875 
L 8.40625 73.78125 
L 47.3125 73.78125 
Q 45.3125 77.875 43.171875 81.5 
L 49.8125 84.328125 
Q 52.984375 78.8125 55.28125 73.78125 
L 91.609375 73.78125 
L 91.609375 67.921875 
L 74.5625 67.921875 
L 77.9375 65.375 
Q 74.03125 61.765625 69.875 58.15625 
L 97.65625 58.15625 
L 97.65625 52.296875 
L 2.34375 52.296875 
z
M 25.78125 12.359375 
L 33.203125 12.359375 
L 33.203125 1.21875 
Q 33.203125 -4.4375 39.65625 -4.4375 
L 59.671875 -4.4375 
Q 66.703125 -4.4375 67.96875 0.921875 
Q 68.953125 4.640625 69.734375 9.71875 
Q 73.140625 8.25 77.046875 6.984375 
Q 75.875 1.421875 74.90625 -2 
Q 72.5625 -11.078125 61.71875 -11.078125 
L 38.09375 -11.078125 
Q 25.78125 -11.078125 25.78125 0.53125 
z
M 22.171875 21.734375 
L 77.25 21.734375 
L 77.25 28.765625 
L 22.171875 28.765625 
z
M 77.25 41.15625 
L 22.171875 41.15625 
L 22.171875 34.234375 
L 77.25 34.234375 
z
M 61.328125 59.90625 
Q 65.28125 63.234375 70.015625 67.921875 
L 28.71875 67.921875 
Q 33.0625 64.703125 37.203125 61.078125 
L 34.234375 58.15625 
L 63.09375 58.15625 
z
M 10.25 11.859375 
L 17.09375 9.234375 
Q 13.578125 0.34375 8.890625 -8.734375 
Q 5.953125 -7.375 2.046875 -5.71875 
Q 6.0625 1.515625 10.25 11.859375 
z
M 80.859375 7.859375 
L 86.421875 12.15625 
Q 93.359375 4.734375 98.828125 -1.8125 
L 92.671875 -6.6875 
Q 86.71875 1.125 80.859375 7.859375 
z
" id="MicrosoftYaHei-24847"/>
       <path d="M 1.171875 11.578125 
Q 14.265625 25.828125 23.25 46.828125 
L 1.65625 46.828125 
L 1.65625 53.953125 
L 25.09375 53.953125 
L 25.09375 68.609375 
Q 15.046875 67.625 5.171875 66.75 
Q 4.5 70.359375 3.21875 74.171875 
Q 26.65625 76.03125 51.078125 79.15625 
L 53.03125 71.734375 
Q 42.671875 70.453125 32.515625 69.390625 
L 32.515625 53.953125 
L 54.6875 53.953125 
L 54.6875 46.828125 
L 32.515625 46.828125 
L 32.515625 33.734375 
L 36.8125 37.84375 
Q 46 30.03125 55.078125 21.046875 
L 49.125 14.984375 
Q 43.171875 21.921875 32.515625 32.078125 
L 32.515625 -12.9375 
L 25.09375 -12.9375 
L 25.09375 35.890625 
Q 16.703125 16.9375 5.078125 2.78125 
Q 2.4375 9.125 1.171875 11.578125 
z
M 85.0625 81.203125 
L 92.78125 81.203125 
L 92.78125 -0.140625 
Q 92.78125 -12.546875 80.28125 -12.453125 
Q 76.265625 -12.453125 67.28125 -12.359375 
Q 66.703125 -8.34375 65.828125 -3.5625 
Q 73.734375 -4.4375 77.828125 -4.4375 
Q 85.0625 -4.546875 85.0625 2.875 
z
M 61.921875 71.4375 
L 69.34375 71.4375 
L 69.34375 9.71875 
L 61.921875 9.71875 
z
" id="MicrosoftYaHei-21033"/>
      </defs>
      <use xlink:href="#MicrosoftYaHei-24847"/>
      <use x="100" xlink:href="#MicrosoftYaHei-22823"/>
      <use x="200" xlink:href="#MicrosoftYaHei-21033"/>
     </g>
    </g>
    <g id="line2d_31">
     <path d="M 63.9 118.561719 
L 85.9 118.561719 
" style="fill:none;stroke:#c44e52;stroke-linecap:round;stroke-width:1.5;"/>
    </g>
    <g id="line2d_32"/>
    <g id="text_19">
     <!-- 伊朗 -->
     <g style="fill:#262626;" transform="translate(94.7 122.411719)scale(0.11 -0.11)">
      <defs>
       <path d="M 30.28125 26.703125 
L 48.578125 26.703125 
Q 49.515625 34.28125 49.609375 44.578125 
L 27.34375 44.578125 
L 27.34375 51.609375 
L 49.65625 51.609375 
Q 49.703125 57.90625 49.703125 69.28125 
L 33.796875 69.28125 
L 33.796875 76.125 
L 88.671875 76.125 
L 88.671875 51.609375 
L 98.53125 51.609375 
L 98.53125 44.578125 
L 88.671875 44.578125 
L 88.671875 15.671875 
L 81.25 15.671875 
L 81.25 19.875 
L 55.078125 19.875 
Q 51.953125 -1.125 33.40625 -13.421875 
Q 31.15625 -10.5 28.03125 -7.171875 
Q 44.53125 3.5625 47.515625 19.875 
L 30.28125 19.875 
z
M 0.875 37.359375 
Q 16.015625 57.765625 23.828125 83.546875 
L 31.734375 80.90625 
Q 26.90625 67.328125 21.1875 55.90625 
L 21.1875 -12.75 
L 13.765625 -12.75 
L 13.765625 42.53125 
Q 9.125 35.015625 4 28.65625 
Q 2.640625 32.859375 0.875 37.359375 
z
M 56 26.703125 
L 81.25 26.703125 
L 81.25 44.578125 
L 57.078125 44.578125 
Q 56.890625 34.46875 56 26.703125 
z
M 81.25 69.28125 
L 57.328125 69.28125 
Q 57.328125 58.5 57.234375 51.609375 
L 81.25 51.609375 
z
" id="MicrosoftYaHei-20234"/>
       <path d="M 54.203125 77.390625 
L 92.09375 77.390625 
L 92.09375 -0.53125 
Q 92.09375 -10.890625 81.9375 -10.890625 
L 69.140625 -10.890625 
Q 69.046875 -10.296875 67.96875 -3.375 
Q 75.59375 -3.765625 80.859375 -3.765625 
Q 84.671875 -3.765625 84.671875 -0.140625 
L 84.671875 21.34375 
L 60.796875 21.34375 
Q 57.8125 -1.078125 43.953125 -12.640625 
Q 41.21875 -9.8125 37.890625 -7.375 
Q 54.203125 5.328125 54.203125 35.109375 
z
M 25.6875 17.921875 
L 30.46875 22.3125 
Q 39.453125 14.109375 46.484375 6.296875 
L 41.703125 1.125 
Q 39.453125 3.71875 37.359375 6 
Q 14.265625 -5.5625 10.25 -9.515625 
L 5.765625 -2.59375 
Q 8.40625 0.046875 8.40625 4.4375 
L 8.40625 71.734375 
L 26.078125 71.734375 
Q 22.46875 75.921875 18.5625 79.25 
L 24.03125 83.84375 
Q 28.515625 79.828125 32.234375 75.828125 
L 27.640625 71.734375 
L 44.4375 71.734375 
L 44.4375 23.484375 
L 37.203125 23.484375 
L 37.203125 27.484375 
L 15.625 27.484375 
L 15.625 2.484375 
Q 24.5625 6.9375 32.515625 11.234375 
Q 28.765625 15.1875 25.6875 17.921875 
z
M 61.421875 27.984375 
L 84.671875 27.984375 
L 84.671875 46.046875 
L 61.625 46.046875 
Q 61.71875 34.421875 61.421875 27.984375 
z
M 84.671875 70.75 
L 61.625 70.75 
L 61.625 52.6875 
L 84.671875 52.6875 
z
M 15.625 33.9375 
L 37.203125 33.9375 
L 37.203125 46.53125 
L 15.625 46.53125 
z
M 37.203125 65.28125 
L 15.625 65.28125 
L 15.625 52.984375 
L 37.203125 52.984375 
z
" id="MicrosoftYaHei-26391"/>
      </defs>
      <use xlink:href="#MicrosoftYaHei-20234"/>
      <use x="100" xlink:href="#MicrosoftYaHei-26391"/>
     </g>
    </g>
    <g id="line2d_33">
     <path d="M 63.9 135.589375 
L 85.9 135.589375 
" style="fill:none;stroke:#8172b3;stroke-linecap:round;stroke-width:1.5;"/>
    </g>
    <g id="line2d_34"/>
    <g id="text_20">
     <!-- 秘鲁 -->
     <g style="fill:#262626;" transform="translate(94.7 139.439375)scale(0.11 -0.11)">
      <defs>
       <path d="M 31.640625 -1.125 
Q 43.3125 6.5 52.546875 16.3125 
L 52.546875 67.921875 
L 59.859375 67.921875 
L 59.859375 24.953125 
Q 74.359375 44.09375 82.234375 73.6875 
L 89.84375 71.921875 
Q 79.640625 34.671875 59.859375 12.703125 
L 59.859375 4.046875 
Q 59.859375 -1.8125 65.625 -1.8125 
L 73.25 -1.8125 
Q 80.28125 -1.8125 80.953125 4.046875 
Q 81.9375 10.015625 82.328125 19.875 
Q 86.234375 18.109375 90.140625 16.9375 
Q 89.359375 7.078125 88.578125 1.703125 
Q 87.109375 -9.234375 74.3125 -9.234375 
L 63.484375 -9.234375 
Q 52.546875 -9.234375 52.546875 3.078125 
L 52.546875 5.328125 
Q 45.21875 -1.421875 36.71875 -6.984375 
Q 35.359375 -4.9375 31.640625 -1.125 
z
M 1.65625 13.71875 
Q 10.5 29.203125 15.671875 48.390625 
L 3.515625 48.390625 
L 3.515625 55.328125 
L 16.703125 55.328125 
L 16.703125 68.703125 
Q 11.03125 68.265625 4.59375 67.828125 
Q 4.109375 71.140625 3.125 74.953125 
Q 23.046875 76.03125 37.890625 78.171875 
L 39.65625 70.75 
Q 33.15625 70.0625 23.921875 69.28125 
L 23.921875 55.328125 
L 37.3125 55.328125 
L 37.3125 48.390625 
L 23.921875 48.390625 
L 23.921875 40.875 
L 28.03125 43.609375 
Q 32.125 37.546875 37.015625 28.375 
L 30.953125 24.46875 
Q 26.765625 32.953125 23.921875 38.03125 
L 23.921875 -12.25 
L 16.703125 -12.25 
L 16.703125 33.84375 
Q 11.96875 17.140625 5.078125 5.328125 
Q 3.515625 9.421875 1.65625 13.71875 
z
M 41.015625 47.3125 
L 48.34375 46.234375 
Q 46.09375 30.515625 43.453125 17.921875 
Q 38.578125 19.28125 36.234375 19.390625 
Q 39.359375 31.390625 41.015625 47.3125 
z
M 84.96875 45.65625 
L 92.28125 47.703125 
Q 96.09375 34.625 98.828125 21.828125 
L 91.3125 19.875 
Q 88.578125 33.84375 84.96875 45.65625 
z
M 55.953125 79.734375 
L 62.5 83.84375 
Q 68.453125 75.53125 75 64.984375 
L 67.96875 60.59375 
Q 62.109375 71.34375 55.953125 79.734375 
z
" id="MicrosoftYaHei-31192"/>
       <path d="M 1.859375 62.453125 
Q 17.484375 71.046875 26.5625 83.34375 
L 34.96875 83.34375 
Q 32.71875 80.46875 30.375 77.78125 
L 67.671875 77.78125 
L 67.671875 72.515625 
L 61.234375 65.375 
L 86.921875 65.375 
L 86.921875 35.40625 
L 80.28125 35.40625 
L 80.28125 37.453125 
L 19.734375 37.453125 
L 19.734375 35.40625 
L 13.09375 35.40625 
L 13.09375 61.578125 
Q 9.671875 58.984375 6.15625 56.78125 
Q 4.203125 59.8125 1.859375 62.453125 
z
M 14.84375 20.0625 
L 85.15625 20.0625 
L 85.15625 -13.03125 
L 78.328125 -13.03125 
L 78.328125 -9.03125 
L 21.6875 -9.03125 
L 21.6875 -13.03125 
L 14.84375 -13.03125 
z
M 2.734375 31.390625 
L 97.265625 31.390625 
L 97.265625 25.921875 
L 2.734375 25.921875 
z
M 78.328125 14.703125 
L 21.6875 14.703125 
L 21.6875 8.0625 
L 78.328125 8.0625 
z
M 21.6875 -3.65625 
L 78.328125 -3.65625 
L 78.328125 2.984375 
L 21.6875 2.984375 
z
M 17.828125 65.375 
L 52.4375 65.375 
L 58.5 72.3125 
L 25.296875 72.3125 
Q 21.6875 68.609375 17.828125 65.375 
z
M 80.28125 60.203125 
L 53.328125 60.203125 
L 53.328125 53.859375 
L 80.28125 53.859375 
z
M 19.734375 42.625 
L 46.6875 42.625 
L 46.6875 48.96875 
L 19.734375 48.96875 
z
M 19.734375 53.859375 
L 46.6875 53.859375 
L 46.6875 60.203125 
L 19.734375 60.203125 
z
M 53.328125 42.625 
L 80.28125 42.625 
L 80.28125 48.96875 
L 53.328125 48.96875 
z
" id="MicrosoftYaHei-40065"/>
      </defs>
      <use xlink:href="#MicrosoftYaHei-31192"/>
      <use x="100" xlink:href="#MicrosoftYaHei-40065"/>
     </g>
    </g>
    <g id="line2d_35">
     <path d="M 63.9 152.617031 
L 85.9 152.617031 
" style="fill:none;stroke:#937860;stroke-linecap:round;stroke-width:1.5;"/>
    </g>
    <g id="line2d_36"/>
    <g id="text_21">
     <!-- 南非 -->
     <g style="fill:#262626;" transform="translate(94.7 156.467031)scale(0.11 -0.11)">
      <defs>
       <path d="M 2.546875 71.140625 
L 46.390625 71.140625 
L 46.390625 82.171875 
L 54.390625 82.171875 
L 54.390625 71.140625 
L 97.171875 71.140625 
L 97.171875 64.203125 
L 54.390625 64.203125 
L 54.390625 54.25 
L 91.796875 54.25 
L 91.796875 -1.125 
Q 91.796875 -12.546875 80.46875 -12.640625 
Q 74.03125 -12.75 64.359375 -12.359375 
Q 63.765625 -8.734375 62.890625 -4.34375 
Q 72.5625 -4.9375 77.640625 -4.9375 
Q 84.078125 -4.9375 84.078125 0.734375 
L 84.078125 47.40625 
L 16.5 47.40625 
L 16.5 -13.03125 
L 8.796875 -13.03125 
L 8.796875 54.25 
L 46.390625 54.25 
L 46.390625 64.203125 
L 2.546875 64.203125 
z
M 20.3125 14.203125 
L 46.484375 14.203125 
L 46.484375 24.859375 
L 23.4375 24.859375 
L 23.4375 31.296875 
L 54.109375 31.296875 
Q 58.796875 38.328125 63.578125 46.734375 
L 70.796875 42.71875 
Q 66.015625 36.1875 62.109375 31.296875 
L 77.15625 31.296875 
L 77.15625 24.859375 
L 54.109375 24.859375 
L 54.109375 14.203125 
L 80.28125 14.203125 
L 80.28125 7.765625 
L 54.109375 7.765625 
L 54.109375 -10.984375 
L 46.484375 -10.984375 
L 46.484375 7.765625 
L 20.3125 7.765625 
z
M 29.890625 42.828125 
L 35.640625 46.734375 
Q 40.625 40.96875 44.734375 35.5 
L 38.28125 31.5 
Q 34.375 37.15625 29.890625 42.828125 
z
" id="MicrosoftYaHei-21335"/>
       <path d="M 57.625 82.5625 
L 65.4375 82.5625 
L 65.4375 68.609375 
L 95.796875 68.609375 
L 95.796875 61.578125 
L 65.4375 61.578125 
L 65.4375 42.4375 
L 94.34375 42.4375 
L 94.34375 35.40625 
L 65.4375 35.40625 
L 65.4375 15.875 
L 97.953125 15.875 
L 97.953125 8.84375 
L 65.4375 8.84375 
L 65.4375 -12.453125 
L 57.625 -12.453125 
z
M 2.34375 15.875 
L 34.46875 15.875 
L 34.46875 35.40625 
L 5.859375 35.40625 
L 5.859375 42.4375 
L 34.46875 42.4375 
L 34.46875 61.578125 
L 4.296875 61.578125 
L 4.296875 68.609375 
L 34.46875 68.609375 
L 34.46875 82.5625 
L 42.28125 82.5625 
L 42.28125 -12.453125 
L 34.46875 -12.453125 
L 34.46875 8.84375 
L 2.34375 8.84375 
z
" id="MicrosoftYaHei-38750"/>
      </defs>
      <use xlink:href="#MicrosoftYaHei-21335"/>
      <use x="100" xlink:href="#MicrosoftYaHei-38750"/>
     </g>
    </g>
   </g>
  </g>
 </g>
 <defs>
  <clipPath id="p00389a88eb">
   <rect height="217.44" width="334.8" x="54" y="34.56"/>
  </clipPath>
 </defs>
</svg>
