<?xml version="1.0" encoding="utf-8" standalone="no"?>
<!DOCTYPE svg PUBLIC "-//W3C//DTD SVG 1.1//EN"
  "http://www.w3.org/Graphics/SVG/1.1/DTD/svg11.dtd">
<!-- Created with matplotlib (https://matplotlib.org/) -->
<svg height="288pt" version="1.1" viewBox="0 0 432 288" width="432pt" xmlns="http://www.w3.org/2000/svg" xmlns:xlink="http://www.w3.org/1999/xlink">
 <metadata>
  <rdf:RDF xmlns:cc="http://creativecommons.org/ns#" xmlns:dc="http://purl.org/dc/elements/1.1/" xmlns:rdf="http://www.w3.org/1999/02/22-rdf-syntax-ns#">
   <cc:Work>
    <dc:type rdf:resource="http://purl.org/dc/dcmitype/StillImage"/>
    <dc:date>2020-11-15T16:56:28.261358</dc:date>
    <dc:format>image/svg+xml</dc:format>
    <dc:creator>
     <cc:Agent>
      <dc:title>Matplotlib v3.3.2, https://matplotlib.org/</dc:title>
     </cc:Agent>
    </dc:creator>
   </cc:Work>
  </rdf:RDF>
 </metadata>
 <defs>
  <style type="text/css">*{stroke-linecap:butt;stroke-linejoin:round;}</style>
 </defs>
 <g id="figure_1">
  <g id="patch_1">
   <path d="M 0 288 
L 432 288 
L 432 0 
L 0 0 
z
" style="fill:#ffffff;"/>
  </g>
  <g id="axes_1">
   <g id="patch_2">
    <path d="M 54 252 
L 388.8 252 
L 388.8 34.56 
L 54 34.56 
z
" style="fill:#eaeaf2;"/>
   </g>
   <g id="matplotlib.axis_1">
    <g id="xtick_1">
     <g id="line2d_1">
      <path clip-path="url(#p9fa2fd46ca)" d="M 79.036364 252 
L 79.036364 34.56 
" style="fill:none;stroke:#ffffff;stroke-linecap:round;"/>
     </g>
     <g id="text_1">
      <!-- 2020-02 -->
      <g style="fill:#262626;" transform="translate(57.305348 270.293125)scale(0.11 -0.11)">
       <defs>
        <path d="M 41.65625 55.8125 
Q 41.65625 61.921875 37.796875 65.40625 
Q 33.9375 68.890625 27.296875 68.890625 
Q 22.609375 68.890625 17.8125 66.5 
Q 13.03125 64.109375 8.890625 59.671875 
L 8.890625 68.953125 
Q 12.59375 72.796875 17.296875 74.84375 
Q 22.015625 76.90625 28.375 76.90625 
Q 38.625 76.90625 44.875 71.40625 
Q 51.125 65.921875 51.125 56.546875 
Q 51.125 48.1875 47.28125 42.078125 
Q 43.453125 35.984375 34.1875 29.59375 
Q 24.703125 23.046875 21.5 20.21875 
Q 18.3125 17.390625 17.03125 14.796875 
Q 15.765625 12.203125 15.765625 8.5 
L 53.375 8.5 
L 53.375 0 
L 5.8125 0 
L 5.8125 3.765625 
Q 5.8125 10.296875 7.59375 14.859375 
Q 9.375 19.4375 13.46875 23.75 
Q 17.578125 28.078125 26.265625 34.125 
Q 35.15625 40.375 38.40625 45.09375 
Q 41.65625 49.8125 41.65625 55.8125 
z
" id="MicrosoftYaHei-50"/>
        <path d="M 4.4375 36.328125 
Q 4.4375 56.34375 11.078125 66.625 
Q 17.71875 76.90625 30.328125 76.90625 
Q 54.34375 76.90625 54.34375 38.140625 
Q 54.34375 19 47.578125 8.859375 
Q 40.828125 -1.265625 28.609375 -1.265625 
Q 17.09375 -1.265625 10.765625 8.34375 
Q 4.4375 17.96875 4.4375 36.328125 
z
M 14.203125 36.765625 
Q 14.203125 6.640625 29.5 6.640625 
Q 44.53125 6.640625 44.53125 37.25 
Q 44.53125 68.953125 29.78125 68.953125 
Q 14.203125 68.953125 14.203125 36.765625 
z
" id="MicrosoftYaHei-48"/>
        <path d="M 36.375 26.265625 
L 7.625 26.265625 
L 7.625 33.640625 
L 36.375 33.640625 
z
" id="MicrosoftYaHei-45"/>
       </defs>
       <use xlink:href="#MicrosoftYaHei-50"/>
       <use x="58.642578" xlink:href="#MicrosoftYaHei-48"/>
       <use x="117.285156" xlink:href="#MicrosoftYaHei-50"/>
       <use x="175.927734" xlink:href="#MicrosoftYaHei-48"/>
       <use x="234.570312" xlink:href="#MicrosoftYaHei-45"/>
       <use x="277.832031" xlink:href="#MicrosoftYaHei-48"/>
       <use x="336.474609" xlink:href="#MicrosoftYaHei-50"/>
      </g>
     </g>
    </g>
    <g id="xtick_2">
     <g id="line2d_2">
      <path clip-path="url(#p9fa2fd46ca)" d="M 135.981818 252 
L 135.981818 34.56 
" style="fill:none;stroke:#ffffff;stroke-linecap:round;"/>
     </g>
     <g id="text_2">
      <!-- 2020-03 -->
      <g style="fill:#262626;" transform="translate(114.250803 270.293125)scale(0.11 -0.11)">
       <defs>
        <path d="M 6.984375 12.640625 
Q 14.75 6.640625 24.515625 6.640625 
Q 32.328125 6.640625 36.890625 10.46875 
Q 41.453125 14.3125 41.453125 20.75 
Q 41.453125 35.109375 20.90625 35.109375 
L 14.59375 35.109375 
L 14.59375 43.015625 
L 20.609375 43.015625 
Q 38.8125 43.015625 38.8125 56.5 
Q 38.8125 68.953125 24.90625 68.953125 
Q 16.9375 68.953125 9.90625 63.578125 
L 9.90625 72.609375 
Q 17.328125 76.90625 27.25 76.90625 
Q 36.921875 76.90625 42.78125 71.84375 
Q 48.640625 66.796875 48.640625 58.734375 
Q 48.640625 43.890625 33.5 39.65625 
L 33.5 39.453125 
Q 41.703125 38.578125 46.453125 33.671875 
Q 51.21875 28.765625 51.21875 21.4375 
Q 51.21875 11.234375 43.875 4.984375 
Q 36.53125 -1.265625 24.3125 -1.265625 
Q 13.578125 -1.265625 6.984375 2.734375 
z
" id="MicrosoftYaHei-51"/>
       </defs>
       <use xlink:href="#MicrosoftYaHei-50"/>
       <use x="58.642578" xlink:href="#MicrosoftYaHei-48"/>
       <use x="117.285156" xlink:href="#MicrosoftYaHei-50"/>
       <use x="175.927734" xlink:href="#MicrosoftYaHei-48"/>
       <use x="234.570312" xlink:href="#MicrosoftYaHei-45"/>
       <use x="277.832031" xlink:href="#MicrosoftYaHei-48"/>
       <use x="336.474609" xlink:href="#MicrosoftYaHei-51"/>
      </g>
     </g>
    </g>
    <g id="xtick_3">
     <g id="line2d_3">
      <path clip-path="url(#p9fa2fd46ca)" d="M 196.854545 252 
L 196.854545 34.56 
" style="fill:none;stroke:#ffffff;stroke-linecap:round;"/>
     </g>
     <g id="text_3">
      <!-- 2020-04 -->
      <g style="fill:#262626;" transform="translate(175.12353 270.293125)scale(0.11 -0.11)">
       <defs>
        <path d="M 45.40625 75.640625 
L 45.40625 25.6875 
L 56.734375 25.6875 
L 56.734375 17.78125 
L 45.40625 17.78125 
L 45.40625 0 
L 36.140625 0 
L 36.140625 17.78125 
L 0.828125 17.78125 
L 0.828125 25.25 
Q 10.25 35.84375 19.765625 49.65625 
Q 29.296875 63.484375 35.5 75.640625 
z
M 11.578125 25.6875 
L 36.140625 25.6875 
L 36.140625 61.71875 
Q 31.0625 52.59375 25.25 44.015625 
Q 19.4375 35.453125 11.578125 25.6875 
z
" id="MicrosoftYaHei-52"/>
       </defs>
       <use xlink:href="#MicrosoftYaHei-50"/>
       <use x="58.642578" xlink:href="#MicrosoftYaHei-48"/>
       <use x="117.285156" xlink:href="#MicrosoftYaHei-50"/>
       <use x="175.927734" xlink:href="#MicrosoftYaHei-48"/>
       <use x="234.570312" xlink:href="#MicrosoftYaHei-45"/>
       <use x="277.832031" xlink:href="#MicrosoftYaHei-48"/>
       <use x="336.474609" xlink:href="#MicrosoftYaHei-52"/>
      </g>
     </g>
    </g>
    <g id="xtick_4">
     <g id="line2d_4">
      <path clip-path="url(#p9fa2fd46ca)" d="M 255.763636 252 
L 255.763636 34.56 
" style="fill:none;stroke:#ffffff;stroke-linecap:round;"/>
     </g>
     <g id="text_4">
      <!-- 2020-05 -->
      <g style="fill:#262626;" transform="translate(234.032621 270.293125)scale(0.11 -0.11)">
       <defs>
        <path d="M 51.46875 23.34375 
Q 51.46875 12.25 44.109375 5.46875 
Q 36.765625 -1.3125 24.359375 -1.3125 
Q 13.71875 -1.3125 8.5 1.859375 
L 8.5 11.625 
Q 16.15625 6.640625 24.125 6.640625 
Q 32.03125 6.640625 36.890625 11 
Q 41.75 15.375 41.75 22.609375 
Q 41.75 29.828125 36.6875 33.859375 
Q 31.640625 37.890625 22.40625 37.890625 
Q 15.28125 37.890625 9.578125 37.25 
L 12.359375 75.640625 
L 47.703125 75.640625 
L 47.703125 67.234375 
L 20.40625 67.234375 
L 18.84375 45.796875 
L 25.734375 46.09375 
Q 37.75 46.09375 44.609375 40.109375 
Q 51.46875 34.125 51.46875 23.34375 
z
" id="MicrosoftYaHei-53"/>
       </defs>
       <use xlink:href="#MicrosoftYaHei-50"/>
       <use x="58.642578" xlink:href="#MicrosoftYaHei-48"/>
       <use x="117.285156" xlink:href="#MicrosoftYaHei-50"/>
       <use x="175.927734" xlink:href="#MicrosoftYaHei-48"/>
       <use x="234.570312" xlink:href="#MicrosoftYaHei-45"/>
       <use x="277.832031" xlink:href="#MicrosoftYaHei-48"/>
       <use x="336.474609" xlink:href="#MicrosoftYaHei-53"/>
      </g>
     </g>
    </g>
    <g id="xtick_5">
     <g id="line2d_5">
      <path clip-path="url(#p9fa2fd46ca)" d="M 316.636364 252 
L 316.636364 34.56 
" style="fill:none;stroke:#ffffff;stroke-linecap:round;"/>
     </g>
     <g id="text_5">
      <!-- 2020-06 -->
      <g style="fill:#262626;" transform="translate(294.905348 270.293125)scale(0.11 -0.11)">
       <defs>
        <path d="M 49.703125 65.921875 
Q 43.796875 68.953125 37.359375 68.953125 
Q 27.546875 68.953125 21.578125 60.40625 
Q 15.625 51.859375 15.53125 37.0625 
L 15.765625 37.0625 
Q 21.140625 47.46875 32.90625 47.46875 
Q 42.71875 47.46875 48.578125 41.0625 
Q 54.4375 34.671875 54.4375 24.078125 
Q 54.4375 12.984375 47.671875 5.859375 
Q 40.921875 -1.265625 30.421875 -1.265625 
Q 18.890625 -1.265625 12.328125 7.734375 
Q 5.765625 16.75 5.765625 33.296875 
Q 5.765625 53.328125 14.375 65.109375 
Q 23 76.90625 37.0625 76.90625 
Q 45.125 76.90625 49.703125 74.703125 
z
M 16.109375 24.75 
Q 16.109375 17.28125 20.09375 11.953125 
Q 24.078125 6.640625 30.671875 6.640625 
Q 36.921875 6.640625 40.828125 11.234375 
Q 44.734375 15.828125 44.734375 23.046875 
Q 44.734375 30.859375 41.046875 35.203125 
Q 37.359375 39.546875 30.5625 39.546875 
Q 24.125 39.546875 20.109375 35.15625 
Q 16.109375 30.765625 16.109375 24.75 
z
" id="MicrosoftYaHei-54"/>
       </defs>
       <use xlink:href="#MicrosoftYaHei-50"/>
       <use x="58.642578" xlink:href="#MicrosoftYaHei-48"/>
       <use x="117.285156" xlink:href="#MicrosoftYaHei-50"/>
       <use x="175.927734" xlink:href="#MicrosoftYaHei-48"/>
       <use x="234.570312" xlink:href="#MicrosoftYaHei-45"/>
       <use x="277.832031" xlink:href="#MicrosoftYaHei-48"/>
       <use x="336.474609" xlink:href="#MicrosoftYaHei-54"/>
      </g>
     </g>
    </g>
    <g id="xtick_6">
     <g id="line2d_6">
      <path clip-path="url(#p9fa2fd46ca)" d="M 375.545455 252 
L 375.545455 34.56 
" style="fill:none;stroke:#ffffff;stroke-linecap:round;"/>
     </g>
     <g id="text_6">
      <!-- 2020-07 -->
      <g style="fill:#262626;" transform="translate(353.814439 270.293125)scale(0.11 -0.11)">
       <defs>
        <path d="M 53.46875 69.734375 
Q 41.546875 48.921875 34.734375 31.21875 
Q 27.9375 13.53125 26.3125 0 
L 16.359375 0 
Q 18.171875 13.328125 24.90625 30.421875 
Q 31.640625 47.515625 42.921875 67.1875 
L 5.421875 67.1875 
L 5.421875 75.640625 
L 53.46875 75.640625 
z
" id="MicrosoftYaHei-55"/>
       </defs>
       <use xlink:href="#MicrosoftYaHei-50"/>
       <use x="58.642578" xlink:href="#MicrosoftYaHei-48"/>
       <use x="117.285156" xlink:href="#MicrosoftYaHei-50"/>
       <use x="175.927734" xlink:href="#MicrosoftYaHei-48"/>
       <use x="234.570312" xlink:href="#MicrosoftYaHei-45"/>
       <use x="277.832031" xlink:href="#MicrosoftYaHei-48"/>
       <use x="336.474609" xlink:href="#MicrosoftYaHei-55"/>
      </g>
     </g>
    </g>
    <g id="text_7">
     <!-- 日期 -->
     <g style="fill:#262626;" transform="translate(209.4 286.620156)scale(0.12 -0.12)">
      <defs>
       <path d="M 15.234375 76.703125 
L 84.859375 76.703125 
L 84.859375 -11.96875 
L 76.5625 -11.96875 
L 76.5625 -5.03125 
L 23.53125 -5.03125 
L 23.53125 -11.96875 
L 15.234375 -11.96875 
z
M 23.53125 32.859375 
L 23.53125 2.09375 
L 76.5625 2.09375 
L 76.5625 32.859375 
z
M 23.53125 69.390625 
L 23.53125 40.1875 
L 76.5625 40.1875 
L 76.5625 69.390625 
z
" id="MicrosoftYaHei-26085"/>
       <path d="M 58.890625 79.15625 
L 93.453125 79.15625 
L 93.453125 -0.046875 
Q 93.453125 -11.578125 82.515625 -11.578125 
Q 77.046875 -11.578125 71.78125 -11.28125 
Q 71.390625 -8.0625 70.609375 -3.765625 
Q 77.734375 -4.4375 80.859375 -4.4375 
Q 86.234375 -4.4375 86.234375 0.921875 
L 86.234375 21.4375 
L 65.328125 21.4375 
Q 64.265625 0.046875 52.34375 -14.109375 
Q 49.703125 -11.375 46.484375 -8.640625 
Q 54.390625 0.4375 56.546875 10.203125 
Q 58.890625 19.578125 58.890625 42.828125 
z
M 1.953125 17.828125 
L 11.140625 17.828125 
L 11.140625 62.9375 
L 3.125 62.9375 
L 3.125 69.578125 
L 11.140625 69.578125 
L 11.140625 81.5 
L 18.359375 81.5 
L 18.359375 69.578125 
L 38.671875 69.578125 
L 38.671875 81.890625 
L 45.90625 81.890625 
L 45.90625 69.578125 
L 53.8125 69.578125 
L 53.8125 62.9375 
L 45.90625 62.9375 
L 45.90625 17.828125 
L 53.71875 17.828125 
L 53.71875 11.1875 
L 1.953125 11.1875 
z
M 65.765625 27.875 
L 86.234375 27.875 
L 86.234375 47.015625 
L 66.109375 47.015625 
Q 66.21875 34.421875 65.765625 27.875 
z
M 86.234375 72.515625 
L 66.109375 72.515625 
L 66.109375 53.46875 
L 86.234375 53.46875 
z
M 18.359375 17.828125 
L 38.671875 17.828125 
L 38.671875 28.765625 
L 18.359375 28.765625 
z
M 18.359375 35.015625 
L 38.671875 35.015625 
L 38.671875 45.84375 
L 18.359375 45.84375 
z
M 18.359375 52.09375 
L 38.671875 52.09375 
L 38.671875 62.9375 
L 18.359375 62.9375 
z
M 18.359375 9.328125 
L 24.3125 4.640625 
Q 14.453125 -6 6.34375 -13.234375 
Q 4.296875 -10.890625 1.171875 -8.0625 
Q 10.453125 -0.140625 18.359375 9.328125 
z
M 31.15625 4.734375 
L 35.84375 9.515625 
Q 42.671875 4.4375 48.734375 -0.734375 
L 43.5625 -6.296875 
Q 38.09375 -0.828125 31.15625 4.734375 
z
" id="MicrosoftYaHei-26399"/>
      </defs>
      <use xlink:href="#MicrosoftYaHei-26085"/>
      <use x="100" xlink:href="#MicrosoftYaHei-26399"/>
     </g>
    </g>
   </g>
   <g id="matplotlib.axis_2">
    <g id="ytick_1">
     <g id="line2d_7">
      <path clip-path="url(#p9fa2fd46ca)" d="M 54 242.116364 
L 388.8 242.116364 
" style="fill:none;stroke:#ffffff;stroke-linecap:round;"/>
     </g>
     <g id="text_8">
      <!-- 0 -->
      <g style="fill:#262626;" transform="translate(38.049531 246.512926)scale(0.11 -0.11)">
       <use xlink:href="#MicrosoftYaHei-48"/>
      </g>
     </g>
    </g>
    <g id="ytick_2">
     <g id="line2d_8">
      <path clip-path="url(#p9fa2fd46ca)" d="M 54 213.757892 
L 388.8 213.757892 
" style="fill:none;stroke:#ffffff;stroke-linecap:round;"/>
     </g>
     <g id="text_9">
      <!-- 2000 -->
      <g style="fill:#262626;" transform="translate(18.698125 218.154454)scale(0.11 -0.11)">
       <use xlink:href="#MicrosoftYaHei-50"/>
       <use x="58.642578" xlink:href="#MicrosoftYaHei-48"/>
       <use x="117.285156" xlink:href="#MicrosoftYaHei-48"/>
       <use x="175.927734" xlink:href="#MicrosoftYaHei-48"/>
      </g>
     </g>
    </g>
    <g id="ytick_3">
     <g id="line2d_9">
      <path clip-path="url(#p9fa2fd46ca)" d="M 54 185.39942 
L 388.8 185.39942 
" style="fill:none;stroke:#ffffff;stroke-linecap:round;"/>
     </g>
     <g id="text_10">
      <!-- 4000 -->
      <g style="fill:#262626;" transform="translate(18.698125 189.795983)scale(0.11 -0.11)">
       <use xlink:href="#MicrosoftYaHei-52"/>
       <use x="58.642578" xlink:href="#MicrosoftYaHei-48"/>
       <use x="117.285156" xlink:href="#MicrosoftYaHei-48"/>
       <use x="175.927734" xlink:href="#MicrosoftYaHei-48"/>
      </g>
     </g>
    </g>
    <g id="ytick_4">
     <g id="line2d_10">
      <path clip-path="url(#p9fa2fd46ca)" d="M 54 157.040948 
L 388.8 157.040948 
" style="fill:none;stroke:#ffffff;stroke-linecap:round;"/>
     </g>
     <g id="text_11">
      <!-- 6000 -->
      <g style="fill:#262626;" transform="translate(18.698125 161.437511)scale(0.11 -0.11)">
       <use xlink:href="#MicrosoftYaHei-54"/>
       <use x="58.642578" xlink:href="#MicrosoftYaHei-48"/>
       <use x="117.285156" xlink:href="#MicrosoftYaHei-48"/>
       <use x="175.927734" xlink:href="#MicrosoftYaHei-48"/>
      </g>
     </g>
    </g>
    <g id="ytick_5">
     <g id="line2d_11">
      <path clip-path="url(#p9fa2fd46ca)" d="M 54 128.682477 
L 388.8 128.682477 
" style="fill:none;stroke:#ffffff;stroke-linecap:round;"/>
     </g>
     <g id="text_12">
      <!-- 8000 -->
      <g style="fill:#262626;" transform="translate(18.698125 133.079039)scale(0.11 -0.11)">
       <defs>
        <path d="M 4.78125 21.09375 
Q 4.78125 27.640625 8.6875 33.15625 
Q 12.59375 38.671875 18.75 41.015625 
Q 13.8125 43.796875 10.9375 48.140625 
Q 8.0625 52.484375 8.0625 57.5625 
Q 8.0625 62.9375 10.8125 67.375 
Q 13.578125 71.828125 18.484375 74.359375 
Q 23.390625 76.90625 29.296875 76.90625 
Q 35.25 76.90625 40.1875 74.390625 
Q 45.125 71.875 47.859375 67.421875 
Q 50.59375 62.984375 50.59375 57.5625 
Q 50.59375 52.59375 47.78125 48.21875 
Q 44.96875 43.84375 39.984375 41.015625 
Q 46.140625 38.625 50 33.109375 
Q 53.859375 27.59375 53.859375 21.09375 
Q 53.859375 14.65625 50.78125 9.546875 
Q 47.703125 4.4375 42.03125 1.609375 
Q 36.375 -1.21875 29.296875 -1.21875 
Q 22.265625 -1.21875 16.640625 1.609375 
Q 11.03125 4.4375 7.90625 9.5625 
Q 4.78125 14.703125 4.78125 21.09375 
z
M 14.15625 21.53125 
Q 14.15625 14.796875 18.3125 10.734375 
Q 22.46875 6.6875 29.34375 6.6875 
Q 36.078125 6.6875 40.34375 10.8125 
Q 44.625 14.9375 44.625 21.53125 
Q 44.625 27.78125 40.296875 32.046875 
Q 35.984375 36.328125 29.34375 36.328125 
Q 22.75 36.328125 18.453125 32.15625 
Q 14.15625 27.984375 14.15625 21.53125 
z
M 16.890625 56.78125 
Q 16.890625 51.703125 20.5 48.0625 
Q 24.125 44.4375 29.34375 44.4375 
Q 34.46875 44.4375 38.203125 48.09375 
Q 41.9375 51.765625 41.9375 56.78125 
Q 41.9375 61.921875 38.34375 65.484375 
Q 34.765625 69.046875 29.34375 69.046875 
Q 23.96875 69.046875 20.421875 65.546875 
Q 16.890625 62.0625 16.890625 56.78125 
z
" id="MicrosoftYaHei-56"/>
       </defs>
       <use xlink:href="#MicrosoftYaHei-56"/>
       <use x="58.642578" xlink:href="#MicrosoftYaHei-48"/>
       <use x="117.285156" xlink:href="#MicrosoftYaHei-48"/>
       <use x="175.927734" xlink:href="#MicrosoftYaHei-48"/>
      </g>
     </g>
    </g>
    <g id="ytick_6">
     <g id="line2d_12">
      <path clip-path="url(#p9fa2fd46ca)" d="M 54 100.324005 
L 388.8 100.324005 
" style="fill:none;stroke:#ffffff;stroke-linecap:round;"/>
     </g>
     <g id="text_13">
      <!-- 10000 -->
      <g style="fill:#262626;" transform="translate(12.247656 104.720567)scale(0.11 -0.11)">
       <defs>
        <path d="M 27.828125 0 
L 27.828125 64.703125 
Q 25.59375 62.453125 20.234375 59.671875 
Q 14.890625 56.890625 10.359375 55.765625 
L 10.359375 65.140625 
Q 16.359375 66.796875 23.1875 70.4375 
Q 30.03125 74.078125 33.6875 77.296875 
L 37.3125 77.296875 
L 37.3125 0 
z
" id="MicrosoftYaHei-49"/>
       </defs>
       <use xlink:href="#MicrosoftYaHei-49"/>
       <use x="58.642578" xlink:href="#MicrosoftYaHei-48"/>
       <use x="117.285156" xlink:href="#MicrosoftYaHei-48"/>
       <use x="175.927734" xlink:href="#MicrosoftYaHei-48"/>
       <use x="234.570312" xlink:href="#MicrosoftYaHei-48"/>
      </g>
     </g>
    </g>
    <g id="ytick_7">
     <g id="line2d_13">
      <path clip-path="url(#p9fa2fd46ca)" d="M 54 71.965533 
L 388.8 71.965533 
" style="fill:none;stroke:#ffffff;stroke-linecap:round;"/>
     </g>
     <g id="text_14">
      <!-- 12000 -->
      <g style="fill:#262626;" transform="translate(12.247656 76.362096)scale(0.11 -0.11)">
       <use xlink:href="#MicrosoftYaHei-49"/>
       <use x="58.642578" xlink:href="#MicrosoftYaHei-50"/>
       <use x="117.285156" xlink:href="#MicrosoftYaHei-48"/>
       <use x="175.927734" xlink:href="#MicrosoftYaHei-48"/>
       <use x="234.570312" xlink:href="#MicrosoftYaHei-48"/>
      </g>
     </g>
    </g>
    <g id="ytick_8">
     <g id="line2d_14">
      <path clip-path="url(#p9fa2fd46ca)" d="M 54 43.607061 
L 388.8 43.607061 
" style="fill:none;stroke:#ffffff;stroke-linecap:round;"/>
     </g>
     <g id="text_15">
      <!-- 14000 -->
      <g style="fill:#262626;" transform="translate(12.247656 48.003624)scale(0.11 -0.11)">
       <use xlink:href="#MicrosoftYaHei-49"/>
       <use x="58.642578" xlink:href="#MicrosoftYaHei-52"/>
       <use x="117.285156" xlink:href="#MicrosoftYaHei-48"/>
       <use x="175.927734" xlink:href="#MicrosoftYaHei-48"/>
       <use x="234.570312" xlink:href="#MicrosoftYaHei-48"/>
      </g>
     </g>
    </g>
    <g id="text_16">
     <!-- 新增治愈 -->
     <g style="fill:#262626;" transform="translate(5.264531 167.28)rotate(-90)scale(0.12 -0.12)">
      <defs>
       <path d="M 56.15625 74.953125 
Q 76.375 75.140625 93.453125 78.953125 
L 96 71.4375 
Q 76.65625 68.890625 63.09375 68.109375 
L 63.09375 45.359375 
L 98.734375 45.359375 
L 98.734375 38.71875 
L 84.765625 38.71875 
L 84.765625 -12.453125 
L 77.546875 -12.453125 
L 77.546875 38.71875 
L 63.09375 38.71875 
L 63.09375 33.9375 
Q 63.09375 3.953125 48.734375 -12.75 
Q 46.390625 -9.71875 43.5625 -6.5 
Q 56.15625 7.28125 56.15625 34.234375 
z
M 4.109375 31.109375 
L 24.03125 31.109375 
L 24.03125 40.375 
L 31.0625 40.375 
L 31.0625 31.109375 
L 50.203125 31.109375 
L 50.203125 24.859375 
L 31.0625 24.859375 
L 31.0625 -0.640625 
Q 31.0625 -10.984375 21.09375 -10.984375 
Q 16.890625 -10.984375 11.625 -10.890625 
Q 11.234375 -7.671875 10.546875 -3.46875 
Q 16.21875 -4.046875 19.4375 -4.046875 
Q 24.03125 -4.046875 24.03125 0.921875 
L 24.03125 24.859375 
L 4.109375 24.859375 
z
M 1.375 49.359375 
L 17.09375 49.359375 
Q 12.9375 55.953125 9.28125 60.6875 
L 14.546875 64.40625 
Q 17.78125 60.5 22.859375 53.375 
L 17.328125 49.359375 
L 30.21875 49.359375 
Q 35.546875 57.03125 40.046875 64.5 
L 46.96875 60.59375 
Q 42.234375 54.5 37.9375 49.359375 
L 52.734375 49.359375 
L 52.734375 43.109375 
L 1.375 43.109375 
z
M 4.5 72.015625 
L 25.59375 72.015625 
Q 23.484375 76.03125 20.796875 80.71875 
L 27.046875 83.640625 
Q 30.078125 78.65625 32.71875 73.578125 
L 29.4375 72.015625 
L 50.203125 72.015625 
L 50.203125 65.765625 
L 4.5 65.765625 
z
M 11.625 20.453125 
L 18.265625 17.328125 
Q 12.984375 6.296875 7.8125 -2.59375 
Q 4.984375 -0.828125 1.375 0.921875 
Q 6.15625 8.34375 11.625 20.453125 
z
M 39.75 19.96875 
Q 45.21875 12.546875 49.3125 6.296875 
L 43.0625 2 
Q 38.765625 9.515625 33.984375 16.15625 
z
" id="MicrosoftYaHei-26032"/>
       <path d="M 34.1875 69.671875 
L 50.921875 69.671875 
Q 47.515625 74.703125 43.359375 79.9375 
L 48.921875 83.84375 
Q 54 77.984375 57.71875 72.90625 
L 53.171875 69.671875 
L 69.578125 69.671875 
Q 74.359375 76.375 78.90625 83.9375 
L 85.9375 79.9375 
Q 81.78125 74.5625 77.78125 69.671875 
L 94.34375 69.671875 
L 94.34375 33.15625 
L 87.5 33.15625 
L 87.5 36.078125 
L 41.015625 36.078125 
L 41.015625 33.15625 
L 34.1875 33.15625 
z
M 38.09375 28.078125 
L 90.4375 28.078125 
L 90.4375 -13.234375 
L 83.40625 -13.234375 
L 83.40625 -8.546875 
L 45.125 -8.546875 
L 45.125 -13.234375 
L 38.09375 -13.234375 
z
M 1.265625 6.6875 
Q 7.28125 8.40625 13.96875 10.5 
L 13.96875 50.828125 
L 2.25 50.828125 
L 2.25 57.765625 
L 13.96875 57.765625 
L 13.96875 82.171875 
L 21.1875 82.171875 
L 21.1875 57.765625 
L 31.25 57.765625 
L 31.25 50.828125 
L 21.1875 50.828125 
L 21.1875 12.796875 
Q 26.703125 14.546875 32.71875 16.546875 
Q 32.90625 11.859375 33.203125 8.640625 
Q 20.40625 4.9375 3.90625 -0.828125 
z
M 87.5 63.8125 
L 67.578125 63.8125 
L 67.578125 41.9375 
L 87.5 41.9375 
z
M 41.015625 41.9375 
L 60.84375 41.9375 
L 60.84375 63.8125 
L 41.015625 63.8125 
z
M 83.40625 22.015625 
L 45.125 22.015625 
L 45.125 12.640625 
L 83.40625 12.640625 
z
M 45.125 -2.484375 
L 83.40625 -2.484375 
L 83.40625 6.78125 
L 45.125 6.78125 
z
M 83.59375 56.390625 
Q 78.21875 47.90625 75.875 45.0625 
L 70.609375 48.1875 
Q 74.125 52.984375 77.828125 59.8125 
z
M 44.734375 56.203125 
L 49.703125 59.421875 
Q 54.109375 53.765625 57.328125 48.78125 
L 51.859375 45.265625 
Q 48.734375 50.4375 44.734375 56.203125 
z
" id="MicrosoftYaHei-22686"/>
       <path d="M 34.859375 30.21875 
L 89.359375 30.21875 
L 89.359375 -12.84375 
L 81.9375 -12.84375 
L 81.9375 -6.296875 
L 42.28125 -6.296875 
L 42.28125 -12.84375 
L 34.859375 -12.84375 
z
M 78.421875 70.0625 
Q 89.546875 55.03125 98.828125 39.59375 
L 91.796875 35.296875 
Q 89.15625 39.890625 86.53125 44.34375 
Q 57.71875 43.109375 40.53125 41.65625 
Q 36.625 41.265625 32.515625 40.09375 
L 28.609375 47.703125 
Q 32.625 49.171875 35.75 52.6875 
Q 45.796875 64.703125 54.984375 83.34375 
L 62.796875 80.125 
Q 52.9375 63.421875 42.390625 49.265625 
Q 60.203125 49.859375 82.515625 50.921875 
Q 77.4375 58.984375 72.265625 66.359375 
z
M 81.9375 23.390625 
L 42.28125 23.390625 
L 42.28125 0.53125 
L 81.9375 0.53125 
z
M 15.828125 29.734375 
Q 19.734375 27.875 23.828125 26.3125 
Q 16.703125 4.34375 11.921875 -11.96875 
L 3.609375 -8.84375 
Q 10.25 7.953125 15.828125 29.734375 
z
M 10.359375 81.390625 
Q 20.90625 74.171875 28.421875 68.109375 
Q 25.296875 64.5 22.953125 61.765625 
Q 15.53125 68.40625 5.5625 75.828125 
z
M 6.34375 56.984375 
Q 15.328125 51.03125 23.828125 44.484375 
Q 22.359375 43.015625 18.5625 38.03125 
Q 8.796875 46.140625 1.5625 51.421875 
z
" id="MicrosoftYaHei-27835"/>
       <path d="M 19.234375 16.546875 
L 12.5 16.546875 
L 12.5 55.328125 
L 50 55.328125 
L 50 26.21875 
Q 50 16.15625 40.234375 16.15625 
Q 37.015625 16.15625 31.34375 16.359375 
Q 30.765625 19.671875 29.984375 23.09375 
Q 35.359375 22.515625 39.15625 22.515625 
Q 43.265625 22.515625 43.265625 26.90625 
L 43.265625 28.171875 
L 19.234375 28.171875 
z
M 56.734375 83.0625 
L 55.078125 81.6875 
Q 71.296875 68.703125 98.640625 62.359375 
Q 96.578125 59.8125 93.84375 55.609375 
Q 79 60.203125 67.96875 65.765625 
L 67.96875 61.1875 
L 31.9375 61.1875 
L 31.9375 66.359375 
Q 20.609375 60.6875 5.859375 55.21875 
Q 3.8125 58.453125 1.375 61.1875 
Q 29.6875 69.96875 46.96875 83.0625 
z
M 27.25 12.546875 
L 34.46875 12.546875 
L 34.46875 0.921875 
Q 34.46875 -4.734375 40.046875 -4.734375 
L 60.9375 -4.734375 
Q 67.96875 -4.734375 69.140625 0.828125 
Q 69.921875 4.640625 70.609375 10.203125 
Q 74.125 8.84375 77.9375 7.671875 
Q 76.953125 1.90625 75.78125 -2.390625 
Q 73.53125 -10.984375 62.203125 -10.984375 
L 39.15625 -10.984375 
Q 27.25 -10.984375 27.25 0.046875 
z
M 78.421875 55.609375 
L 85.359375 55.609375 
L 85.359375 26.703125 
Q 85.359375 15.96875 75.296875 15.96875 
Q 71.78125 15.96875 65.140625 16.15625 
Q 64.453125 20.0625 63.375 23.6875 
Q 69.34375 23 73.921875 23 
Q 78.421875 23 78.421875 27.984375 
z
M 50.203125 77.484375 
Q 41.703125 71.234375 32.328125 66.65625 
L 66.40625 66.65625 
Q 56.9375 71.625 50.203125 77.484375 
z
M 60.546875 52.984375 
L 67.28125 52.984375 
L 67.28125 28.65625 
L 60.546875 28.65625 
z
M 12.703125 12.25 
L 19.34375 9.8125 
Q 14.9375 -0.34375 9.1875 -8.84375 
Q 6.25 -7.078125 2.734375 -5.421875 
Q 8.890625 2.78125 12.703125 12.25 
z
M 79.890625 9.03125 
L 85.25 12.84375 
Q 92.1875 5.21875 98.046875 -2.390625 
L 92 -6.6875 
Q 87.015625 0.53125 79.890625 9.03125 
z
M 19.234375 33.453125 
L 43.265625 33.453125 
L 43.265625 39.015625 
L 19.234375 39.015625 
z
M 43.265625 49.859375 
L 19.234375 49.859375 
L 19.234375 44.28125 
L 43.265625 44.28125 
z
M 43.75 11.46875 
L 48.25 15.671875 
Q 55.171875 10.59375 61.234375 5.328125 
L 56.25 0.34375 
Q 50.296875 6 43.75 11.46875 
z
" id="MicrosoftYaHei-24840"/>
      </defs>
      <use xlink:href="#MicrosoftYaHei-26032"/>
      <use x="100" xlink:href="#MicrosoftYaHei-22686"/>
      <use x="200" xlink:href="#MicrosoftYaHei-27835"/>
      <use x="300" xlink:href="#MicrosoftYaHei-24840"/>
     </g>
    </g>
   </g>
   <g id="line2d_15">
    <path clip-path="url(#p9fa2fd46ca)" d="M 69.218182 242.116364 
L 181.145455 242.116364 
L 183.109091 240.726799 
L 185.072727 241.109638 
L 187.036364 241.846958 
L 189 240.088733 
L 190.963636 242.116364 
L 194.890909 242.116364 
L 196.854545 224.434857 
L 198.818182 242.116364 
L 200.781818 242.116364 
L 202.745455 231.779701 
L 204.709091 235.749887 
L 206.672727 242.116364 
L 226.309091 242.116364 
L 228.272727 143.443061 
L 230.236364 242.116364 
L 232.2 242.116364 
L 234.163636 212.141459 
L 236.127273 231.581191 
L 238.090909 233.580464 
L 240.054545 230.801333 
L 242.018182 224.874413 
L 243.981818 237.309603 
L 245.945455 229.581919 
L 247.909091 229.411768 
L 249.872727 228.688627 
L 251.836364 228.461759 
L 253.8 226.575921 
L 255.763636 226.575921 
L 257.727273 215.27507 
L 259.690909 235.239434 
L 261.654545 226.41995 
L 263.618182 226.391591 
L 265.581818 228.277429 
L 267.545455 225.413224 
L 269.509091 226.859506 
L 271.472727 225.682629 
L 273.436364 230.163268 
L 275.4 225.016205 
L 277.363636 230.787154 
L 279.327273 230.943126 
L 281.290909 226.207261 
L 283.254545 228.972212 
L 285.218182 230.716258 
L 287.181818 229.01475 
L 289.145455 231.751342 
L 291.109091 232.502842 
L 293.072727 230.461032 
L 295.036364 242.116364 
L 297 218.507936 
L 298.963636 229.652815 
L 300.927273 232.034927 
L 304.854545 232.857323 
L 306.818182 232.176719 
L 308.781818 230.418494 
L 310.745455 232.5312 
L 312.709091 232.502842 
L 314.672727 227.3416 
L 316.636364 232.687172 
L 318.6 235.012566 
L 320.563636 233.169266 
L 322.527273 232.318512 
L 324.490909 232.318512 
L 326.454545 242.116364 
L 328.418182 215.530296 
L 330.381818 233.339417 
L 332.345455 233.608822 
L 334.309091 231.652088 
L 336.272727 219.812426 
L 338.236364 242.116364 
L 340.2 222.563197 
L 342.163636 230.333419 
L 344.127273 229.099825 
L 346.090909 231.198352 
L 348.054545 236.43049 
L 350.018182 233.977482 
L 351.981818 238.996932 
L 353.945455 231.524474 
L 355.909091 234.970029 
L 357.872727 236.473028 
L 359.836364 235.764066 
L 363.763636 237.905131 
L 365.727273 236.104368 
L 367.690909 242.116364 
L 369.654545 234.346142 
L 371.618182 239.02529 
L 373.581818 228.121458 
L 373.581818 228.121458 
" style="fill:none;stroke:#4c72b0;stroke-linecap:round;stroke-width:1.5;"/>
   </g>
   <g id="line2d_16">
    <path clip-path="url(#p9fa2fd46ca)" d="M 75.109091 242.116364 
L 167.4 242.116364 
L 169.363636 241.960392 
L 171.327273 242.116364 
L 179.181818 242.116364 
L 181.145455 241.875317 
L 183.109091 242.088005 
L 185.072727 242.116364 
L 187.036364 241.776062 
L 189 241.917854 
L 190.963636 241.903675 
L 192.927273 242.116364 
L 194.890909 242.031288 
L 196.854545 241.662628 
L 200.781818 242.017109 
L 202.745455 241.832779 
L 204.709091 240.826053 
L 206.672727 241.478298 
L 208.636364 241.63427 
L 210.6 241.293968 
L 212.563636 241.166355 
L 214.527273 241.577553 
L 216.490909 240.173808 
L 218.454545 240.528289 
L 220.418182 239.067828 
L 222.381818 239.138724 
L 224.345455 239.932761 
L 226.309091 239.691714 
L 228.272727 238.543196 
L 230.236364 238.599913 
L 232.2 238.046923 
L 234.163636 234.459576 
L 236.127273 236.189443 
L 238.090909 232.190899 
L 240.054545 236.940943 
L 242.018182 235.182717 
L 243.981818 236.501386 
L 245.945455 232.134182 
L 247.909091 235.764066 
L 249.872727 232.687172 
L 251.836364 231.212531 
L 253.8 233.934945 
L 255.763636 232.304332 
L 257.727273 228.603552 
L 259.690909 233.396134 
L 261.654545 226.887864 
L 263.618182 221.499755 
L 265.581818 227.639364 
L 267.545455 225.824422 
L 269.509091 224.987847 
L 271.472727 223.569923 
L 273.436364 220.691538 
L 275.4 216.990758 
L 277.363636 223.328876 
L 279.327273 214.736259 
L 281.290909 215.898957 
L 283.254545 218.224351 
L 285.218182 210.45413 
L 287.181818 186.023307 
L 289.145455 203.619738 
L 291.109091 208.809339 
L 293.072727 197.806252 
L 295.036364 242.116364 
L 297 153.694649 
L 298.963636 196.033847 
L 300.927273 204.442134 
L 302.890909 195.60847 
L 304.854545 202.83988 
L 306.818182 186.32107 
L 308.781818 195.806979 
L 310.745455 193.708452 
L 312.709091 82.401451 
L 314.672727 176.693369 
L 316.636364 173.559758 
L 318.6 189.539757 
L 320.563636 174.396333 
L 322.527273 188.17855 
L 324.490909 166.186556 
L 326.454545 176.735907 
L 328.418182 168.100752 
L 330.381818 169.277629 
L 332.345455 174.26872 
L 334.309091 157.168562 
L 336.272727 159.550673 
L 338.236364 154.701374 
L 340.2 140.933336 
L 342.163636 127.987694 
L 344.127273 136.920613 
L 346.090909 97.275469 
L 348.054545 143.967693 
L 350.018182 137.331811 
L 351.981818 94.864999 
L 353.945455 112.787553 
L 355.909091 44.670504 
L 357.872727 108.278556 
L 359.836364 86.229844 
L 361.8 93.305283 
L 363.763636 57.616146 
L 365.727273 44.443636 
L 367.690909 96.864271 
L 369.654545 46.003352 
L 371.618182 71.823741 
L 373.581818 56.382553 
L 373.581818 56.382553 
" style="fill:none;stroke:#dd8452;stroke-linecap:round;stroke-width:1.5;"/>
   </g>
   <g id="line2d_17">
    <path clip-path="url(#p9fa2fd46ca)" d="M 77.072727 242.116364 
L 128.127273 242.116364 
L 130.090909 241.577553 
L 132.054545 242.045467 
L 135.981818 242.059647 
L 139.909091 241.180534 
L 141.872727 241.960392 
L 143.836364 240.471572 
L 145.8 240.159629 
L 147.763636 240.570827 
L 149.727273 241.180534 
L 151.690909 241.648449 
L 153.654545 240.670082 
L 155.618182 238.146178 
L 157.581818 241.535015 
L 159.545455 239.096186 
L 161.509091 239.549922 
L 163.472727 234.643906 
L 165.436364 236.884226 
L 167.4 236.24616 
L 169.363636 239.39395 
L 171.327273 226.746072 
L 173.290909 236.231981 
L 175.254545 232.34687 
L 177.218182 228.745344 
L 179.181818 228.617731 
L 181.145455 236.331235 
L 183.109091 229.440127 
L 185.072727 227.426675 
L 187.036364 227.951307 
L 189 233.764794 
L 190.963636 221.783339 
L 192.927273 232.956577 
L 194.890909 219.571379 
L 196.854545 226.391591 
L 198.818182 226.263978 
L 200.781818 221.825877 
L 202.745455 221.131095 
L 204.709091 224.56247 
L 206.672727 230.503569 
L 208.636364 227.625185 
L 212.563636 212.354148 
L 214.527273 214.055656 
L 216.490909 213.97058 
L 218.454545 212.637732 
L 220.418182 218.337785 
L 222.381818 224.760979 
L 224.345455 218.082559 
L 226.309091 228.475939 
L 228.272727 212.736987 
L 230.236364 205.774982 
L 232.2 210.922045 
L 234.163636 211.94295 
L 236.127273 177.671737 
L 238.090909 242.116364 
L 242.018182 157.679014 
L 243.981818 242.116364 
L 245.945455 204.938407 
L 247.909091 216.480305 
L 249.872727 218.06838 
L 251.836364 209.263074 
L 253.8 209.34815 
L 255.763636 175.57321 
L 257.727273 209.447404 
L 259.690909 218.507936 
L 261.654545 217.444493 
L 263.618182 224.7468 
L 265.581818 208.766801 
L 267.545455 128.483967 
L 269.509091 199.1391 
L 271.472727 203.166003 
L 273.436364 185.285986 
L 275.4 211.56011 
L 277.363636 222.251254 
L 281.290909 192.46068 
L 283.254545 203.166003 
L 285.218182 172.397061 
L 287.181818 205.179454 
L 289.145455 208.568292 
L 291.109091 211.631007 
L 293.072727 212.694449 
L 295.036364 242.116364 
L 297 168.965686 
L 298.963636 211.489214 
L 300.927273 212.056384 
L 302.890909 218.876596 
L 304.854545 220.819151 
L 306.818182 204.158549 
L 308.781818 207.47649 
L 310.745455 192.4465 
L 312.709091 210.354875 
L 314.672727 202.570475 
L 316.636364 215.544476 
L 318.6 230.092372 
L 320.563636 217.487031 
L 322.527273 230.12073 
L 324.490909 228.546835 
L 326.454545 215.374325 
L 328.418182 223.725895 
L 330.381818 231.354324 
L 332.345455 231.524474 
L 334.309091 212.878779 
L 336.272727 223.782612 
L 338.236364 222.279613 
L 340.2 217.345239 
L 342.163636 216.877324 
L 344.127273 220.776614 
L 346.090909 233.041653 
L 348.054545 220.620642 
L 350.018182 228.943854 
L 351.981818 226.675176 
L 353.945455 222.790065 
L 355.909091 234.374501 
L 357.872727 235.8775 
L 359.836364 234.558831 
L 361.8 225.682629 
L 363.763636 220.47885 
L 365.727273 233.410313 
L 367.690909 229.496844 
L 369.654545 228.376684 
L 371.618182 237.763338 
L 373.581818 237.791697 
L 373.581818 237.791697 
" style="fill:none;stroke:#55a868;stroke-linecap:round;stroke-width:1.5;"/>
   </g>
   <g id="line2d_18">
    <path clip-path="url(#p9fa2fd46ca)" d="M 116.345455 242.116364 
L 128.127273 242.116364 
L 130.090909 241.421581 
L 132.054545 242.116364 
L 134.018182 241.0671 
L 135.981818 241.379043 
L 137.945455 242.116364 
L 139.909091 238.429762 
L 141.872727 240.457393 
L 143.836364 242.116364 
L 145.8 236.997659 
L 147.763636 231.396861 
L 149.727273 235.523019 
L 151.690909 241.265609 
L 153.654545 234.502114 
L 155.618182 238.883498 
L 157.581818 237.621546 
L 159.545455 238.529017 
L 161.509091 242.116364 
L 163.472727 227.072194 
L 165.436364 236.359594 
L 167.4 236.543924 
L 169.363636 237.564829 
L 171.327273 238.302149 
L 173.290909 231.255069 
L 175.254545 229.496844 
L 177.218182 238.174536 
L 179.181818 242.116364 
L 181.145455 227.937128 
L 183.109091 232.020748 
L 185.072727 230.319239 
L 187.036364 232.5312 
L 189 234.374501 
L 190.963636 232.020748 
L 192.927273 242.116364 
L 194.890909 210.000394 
L 196.854545 230.531928 
L 198.818182 224.56247 
L 200.781818 224.760979 
L 202.745455 216.57956 
L 204.709091 209.858602 
L 206.672727 210.567564 
L 208.636364 202.371965 
L 210.6 202.797343 
L 212.563636 206.710812 
L 214.527273 197.366695 
L 216.490909 150.206557 
L 218.454545 214.509391 
L 220.418182 212.49594 
L 222.381818 211.687723 
L 224.345455 216.537022 
L 226.309091 209.560838 
L 228.272727 216.097466 
L 230.236364 214.849693 
L 232.2 227.426675 
L 234.163636 210.213083 
L 236.127273 218.125097 
L 238.090909 211.659365 
L 240.054545 217.586286 
L 242.018182 217.217625 
L 243.981818 219.514662 
L 245.945455 221.357962 
L 247.909091 224.023659 
L 249.872727 220.762434 
L 251.836364 222.946037 
L 253.8 223.513206 
L 255.763636 224.888592 
L 257.727273 227.483392 
L 259.690909 226.916223 
L 261.654545 228.291609 
L 263.618182 226.831147 
L 265.581818 226.349053 
L 267.545455 225.710988 
L 269.509091 226.618459 
L 271.472727 210.539205 
L 273.436364 240.996204 
L 275.4 223.981121 
L 277.363636 228.858778 
L 279.327273 226.930402 
L 281.290909 226.363233 
L 283.254545 223.725895 
L 285.218182 223.527385 
L 287.181818 223.44231 
L 289.145455 225.143818 
L 291.109091 220.677359 
L 293.072727 242.116364 
L 295.036364 242.116364 
L 297 169.759723 
L 298.963636 216.650456 
L 300.927273 217.600465 
L 302.890909 215.005665 
L 304.854545 217.671361 
L 306.818182 217.458672 
L 308.781818 216.423588 
L 310.745455 214.566108 
L 312.709091 215.232532 
L 316.636364 211.545931 
L 318.6 212.722808 
L 320.563636 211.92877 
L 322.527273 209.801885 
L 324.490909 210.128008 
L 326.454545 209.546659 
L 328.418182 209.34815 
L 330.381818 213.60192 
L 332.345455 212.382506 
L 334.309091 211.872054 
L 336.272727 212.722808 
L 338.236364 213.956401 
L 340.2 212.354148 
L 342.163636 214.807155 
L 344.127273 214.948948 
L 346.090909 212.552657 
L 348.054545 211.815337 
L 350.018182 211.219809 
L 351.981818 242.116364 
L 353.945455 179.82698 
L 355.909091 210.82279 
L 357.872727 201.904051 
L 359.836364 203.364512 
L 361.8 200.486127 
L 363.763636 199.479401 
L 365.727273 203.137644 
L 367.690909 202.28689 
L 369.654545 204.683181 
L 371.618182 201.294344 
L 373.581818 205.562294 
L 373.581818 205.562294 
" style="fill:none;stroke:#c44e52;stroke-linecap:round;stroke-width:1.5;"/>
   </g>
   <g id="line2d_19">
    <path clip-path="url(#p9fa2fd46ca)" d="M 145.8 242.116364 
L 147.763636 242.116364 
L 149.727273 242.116364 
L 151.690909 242.116364 
L 153.654545 242.116364 
L 155.618182 242.116364 
L 157.581818 242.116364 
L 159.545455 242.116364 
L 161.509091 242.116364 
L 163.472727 242.116364 
L 165.436364 242.116364 
L 167.4 242.116364 
L 169.363636 242.116364 
L 171.327273 242.116364 
L 173.290909 242.116364 
L 175.254545 242.116364 
L 177.218182 242.116364 
L 179.181818 242.116364 
L 181.145455 242.102184 
L 183.109091 242.116364 
L 185.072727 242.116364 
L 187.036364 241.932034 
L 189 242.116364 
L 190.963636 242.116364 
L 192.927273 242.116364 
L 194.890909 242.116364 
L 196.854545 236.728254 
L 198.818182 242.116364 
L 200.781818 240.088733 
L 202.745455 242.116364 
L 204.709091 236.770792 
L 206.672727 242.116364 
L 208.636364 242.116364 
L 210.6 237.621546 
L 212.563636 242.116364 
L 214.527273 242.116364 
L 216.490909 237.323782 
L 218.454545 242.116364 
L 220.418182 238.869319 
L 222.381818 242.116364 
L 224.345455 242.116364 
L 226.309091 242.116364 
L 228.272727 242.116364 
L 230.236364 174.864248 
L 232.2 240.088733 
L 234.163636 240.315601 
L 236.127273 239.890224 
L 238.090909 241.917854 
L 240.054545 241.478298 
L 242.018182 236.515565 
L 243.981818 241.0671 
L 245.945455 237.848414 
L 247.909091 237.990206 
L 249.872727 237.337961 
L 251.836364 231.42522 
L 253.8 229.950579 
L 255.763636 236.898405 
L 257.727273 231.850597 
L 259.690909 223.612461 
L 261.654545 226.292336 
L 263.618182 229.681174 
L 265.581818 242.116364 
L 267.545455 198.160732 
L 269.509091 229.908042 
L 271.472727 233.26852 
L 273.436364 216.281796 
L 275.4 234.814057 
L 277.363636 227.128911 
L 279.327273 229.099825 
L 281.290909 227.937128 
L 283.254545 230.390136 
L 285.218182 213.814609 
L 287.181818 226.164723 
L 289.145455 237.16781 
L 291.109091 218.224351 
L 293.072727 153.949875 
L 295.036364 242.116364 
L 297 141.968421 
L 298.963636 224.236347 
L 300.927273 198.628647 
L 302.890909 215.4594 
L 304.854545 225.753525 
L 306.818182 214.367599 
L 308.781818 195.849517 
L 310.745455 195.707725 
L 312.709091 194.630103 
L 314.672727 190.277077 
L 316.636364 231.325965 
L 318.6 223.697536 
L 320.563636 231.481937 
L 322.527273 198.699543 
L 324.490909 186.689731 
L 326.454545 199.777165 
L 328.418182 192.247991 
L 330.381818 192.659189 
L 332.345455 194.800254 
L 334.309091 194.289801 
L 336.272727 169.773902 
L 338.236364 179.756084 
L 340.2 175.417238 
L 342.163636 177.019492 
L 344.127273 187.455409 
L 346.090909 187.80989 
L 348.054545 159.933513 
L 350.018182 193.665915 
L 351.981818 205.704086 
L 353.945455 180.720272 
L 355.909091 196.133102 
L 357.872727 196.686092 
L 359.836364 194.573386 
L 361.8 197.919685 
L 363.763636 197.423412 
L 365.727273 178.522491 
L 367.690909 189.199455 
L 369.654545 182.308347 
L 371.618182 185.76808 
L 373.581818 197.295799 
" style="fill:none;stroke:#8172b3;stroke-linecap:round;stroke-width:1.5;"/>
   </g>
   <g id="line2d_20">
    <path clip-path="url(#p9fa2fd46ca)" d="M 145.8 242.116364 
L 147.763636 242.116364 
L 149.727273 242.116364 
L 151.690909 242.116364 
L 153.654545 242.116364 
L 155.618182 242.116364 
L 157.581818 242.116364 
L 159.545455 242.116364 
L 161.509091 242.116364 
L 163.472727 242.116364 
L 165.436364 242.116364 
L 167.4 242.116364 
L 169.363636 242.116364 
L 171.327273 242.116364 
L 173.290909 242.116364 
L 175.254545 242.116364 
L 177.218182 242.116364 
L 179.181818 242.116364 
L 181.145455 242.116364 
L 183.109091 242.116364 
L 185.072727 242.116364 
L 187.036364 242.102184 
L 189 242.116364 
L 190.963636 242.116364 
L 192.927273 242.116364 
L 194.890909 242.116364 
L 196.854545 242.116364 
L 198.818182 242.116364 
L 200.781818 241.492477 
L 202.745455 242.116364 
L 204.709091 242.116364 
L 206.672727 242.116364 
L 208.636364 242.116364 
L 210.6 242.116364 
L 212.563636 242.116364 
L 214.527273 242.116364 
L 216.490909 242.116364 
L 218.454545 242.116364 
L 220.418182 242.116364 
L 222.381818 242.116364 
L 224.345455 242.116364 
L 226.309091 242.116364 
L 228.272727 229.950579 
L 230.236364 242.116364 
L 232.2 242.116364 
L 234.163636 242.116364 
L 236.127273 239.96112 
L 238.090909 242.116364 
L 240.054545 242.116364 
L 242.018182 236.189443 
L 243.981818 242.116364 
L 245.945455 242.116364 
L 247.909091 242.116364 
L 249.872727 242.116364 
L 251.836364 242.116364 
L 253.8 242.116364 
L 255.763636 233.608822 
L 257.727273 237.73498 
L 259.690909 239.748431 
L 261.654545 242.116364 
L 263.618182 239.323054 
L 265.581818 242.116364 
L 267.545455 236.345415 
L 269.509091 242.116364 
L 271.472727 242.116364 
L 273.436364 242.116364 
L 275.4 242.116364 
L 277.363636 225.044564 
L 279.327273 242.116364 
L 281.290909 236.61482 
L 283.254545 228.915495 
L 285.218182 236.345415 
L 287.181818 236.515565 
L 289.145455 234.629727 
L 291.109091 237.976027 
L 293.072727 232.729709 
L 295.036364 242.116364 
L 297 228.07892 
L 298.963636 225.753525 
L 300.927273 242.116364 
L 302.890909 227.993845 
L 304.854545 230.531928 
L 306.818182 230.432673 
L 308.781818 232.049106 
L 310.745455 242.116364 
L 312.709091 218.834058 
L 314.672727 227.611005 
L 316.636364 225.455761 
L 318.6 242.116364 
L 320.563636 227.625185 
L 322.527273 222.70499 
L 324.490909 219.018388 
L 326.454545 216.919861 
L 328.418182 225.526658 
L 330.381818 240.613365 
L 332.345455 217.515389 
L 334.309091 200.897325 
L 336.272727 206.682453 
L 338.236364 217.345239 
L 340.2 217.217625 
L 342.163636 215.998211 
L 344.127273 216.551201 
L 346.090909 224.902771 
L 348.054545 210.978762 
L 350.018182 209.957857 
L 351.981818 233.764794 
L 353.945455 200.925683 
L 355.909091 206.654095 
L 357.872727 223.938583 
L 359.836364 216.083287 
L 361.8 219.415407 
L 363.763636 216.182541 
L 365.727273 198.160732 
L 367.690909 183.456865 
L 369.654545 199.819703 
L 371.618182 216.154183 
L 373.581818 218.167634 
" style="fill:none;stroke:#937860;stroke-linecap:round;stroke-width:1.5;"/>
   </g>
   <g id="line2d_21"/>
   <g id="line2d_22"/>
   <g id="line2d_23"/>
   <g id="line2d_24"/>
   <g id="line2d_25"/>
   <g id="line2d_26"/>
   <g id="patch_3">
    <path d="M 54 252 
L 54 34.56 
" style="fill:none;stroke:#ffffff;stroke-linecap:square;stroke-linejoin:miter;stroke-width:1.25;"/>
   </g>
   <g id="patch_4">
    <path d="M 388.8 252 
L 388.8 34.56 
" style="fill:none;stroke:#ffffff;stroke-linecap:square;stroke-linejoin:miter;stroke-width:1.25;"/>
   </g>
   <g id="patch_5">
    <path d="M 54 252 
L 388.8 252 
" style="fill:none;stroke:#ffffff;stroke-linecap:square;stroke-linejoin:miter;stroke-width:1.25;"/>
   </g>
   <g id="patch_6">
    <path d="M 54 34.56 
L 388.8 34.56 
" style="fill:none;stroke:#ffffff;stroke-linecap:square;stroke-linejoin:miter;stroke-width:1.25;"/>
   </g>
   <g id="legend_1">
    <g id="patch_7">
     <path d="M 61.7 163.601563 
L 129.9 163.601563 
Q 132.1 163.601563 132.1 161.401563 
L 132.1 42.26 
Q 132.1 40.06 129.9 40.06 
L 61.7 40.06 
Q 59.5 40.06 59.5 42.26 
L 59.5 161.401563 
Q 59.5 163.601563 61.7 163.601563 
z
" style="fill:#eaeaf2;opacity:0.8;stroke:#cccccc;stroke-linejoin:miter;"/>
    </g>
    <g id="text_17">
     <!-- 国家 -->
     <g style="fill:#262626;" transform="translate(83.8 54.0525)scale(0.12 -0.12)">
      <defs>
       <path d="M 7.328125 78.078125 
L 92.78125 78.078125 
L 92.78125 -13.03125 
L 85.25 -13.03125 
L 85.25 -8.15625 
L 14.84375 -8.15625 
L 14.84375 -13.140625 
L 7.328125 -13.140625 
z
M 85.25 71.140625 
L 14.84375 71.140625 
L 14.84375 -1.21875 
L 85.25 -1.21875 
z
M 19.34375 15.765625 
L 46.296875 15.765625 
L 46.296875 35.109375 
L 22.75 35.109375 
L 22.75 41.75 
L 46.296875 41.75 
L 46.296875 54.828125 
L 20.90625 54.828125 
L 20.90625 61.46875 
L 79.109375 61.46875 
L 79.109375 54.828125 
L 53.515625 54.828125 
L 53.515625 41.75 
L 77.15625 41.75 
L 77.15625 35.109375 
L 53.515625 35.109375 
L 53.515625 15.765625 
L 80.671875 15.765625 
L 80.671875 9.125 
L 19.34375 9.125 
z
M 58.59375 28.859375 
L 64.0625 32.953125 
Q 69.4375 27.390625 73.25 22.515625 
L 67.484375 18.109375 
Q 62.796875 24.46875 58.59375 28.859375 
z
" id="MicrosoftYaHei-22269"/>
       <path d="M 3.03125 -3.265625 
Q 32.515625 5.171875 50 24.3125 
Q 48.640625 27.15625 46.828125 29.734375 
Q 32.28125 14.703125 6.640625 6.59375 
Q 5.171875 9.90625 3.125 13.234375 
Q 28.265625 20.171875 42.234375 35.25 
Q 40.625 36.859375 38.71875 38.421875 
Q 25.78125 29.25 6.9375 23.390625 
Q 5.078125 26.609375 2.546875 30.328125 
Q 25.828125 35.5 39.84375 47.703125 
L 15.234375 47.703125 
L 15.234375 54.734375 
L 84.96875 54.734375 
L 84.96875 47.703125 
L 49.515625 47.703125 
Q 47.015625 45.0625 44.140625 42.625 
Q 51.8125 36.421875 56.0625 28.765625 
Q 71.34375 36.234375 83.203125 44.09375 
L 87.796875 37.84375 
Q 79.828125 33.0625 70.84375 28.375 
Q 79.5 9.625 98.921875 2.203125 
Q 95.703125 -1.515625 92.875 -5.421875 
Q 73.78125 4.34375 64.546875 25.140625 
Q 61.765625 23.78125 58.890625 22.359375 
Q 64.453125 1.609375 57.125 -7.859375 
Q 53.609375 -12.0625 43.65625 -12.0625 
Q 39.75 -12.0625 31.34375 -11.765625 
Q 30.765625 -7.953125 29.890625 -3.65625 
Q 37.5 -4.546875 43.453125 -4.546875 
Q 54 -5.125 53.71875 8.15625 
Q 53.5625 12.546875 52.640625 16.609375 
Q 35.359375 -0.4375 6.546875 -10.015625 
Q 5.078125 -6.78125 3.03125 -3.265625 
z
M 5.171875 70.75 
L 49.3125 70.75 
Q 46.4375 75.09375 42.578125 80.03125 
L 49.421875 84.421875 
Q 53.8125 79.046875 57.421875 73.78125 
L 52.4375 70.75 
L 94.734375 70.75 
L 94.734375 54.046875 
L 86.921875 54.046875 
L 86.921875 63.53125 
L 12.984375 63.53125 
L 12.984375 54.046875 
L 5.171875 54.046875 
z
" id="MicrosoftYaHei-23478"/>
      </defs>
      <use xlink:href="#MicrosoftYaHei-22269"/>
      <use x="100" xlink:href="#MicrosoftYaHei-23478"/>
     </g>
    </g>
    <g id="line2d_27">
     <path d="M 63.9 67.47875 
L 85.9 67.47875 
" style="fill:none;stroke:#4c72b0;stroke-linecap:round;stroke-width:1.5;"/>
    </g>
    <g id="line2d_28"/>
    <g id="text_18">
     <!-- 加拿大 -->
     <g style="fill:#262626;" transform="translate(94.7 71.32875)scale(0.11 -0.11)">
      <defs>
       <path d="M 57.234375 70.0625 
L 94.34375 70.0625 
L 94.34375 -10.40625 
L 86.625 -10.40625 
L 86.625 -0.53125 
L 64.9375 -0.53125 
L 64.9375 -10.40625 
L 57.234375 -10.40625 
z
M 3.609375 65.28125 
L 17.234375 65.28125 
Q 17.328125 73.140625 17.28125 82.765625 
L 25 82.765625 
Q 25 73.046875 24.90625 65.28125 
L 47.65625 65.28125 
Q 47.171875 27.78125 46.390625 6.390625 
Q 46 -11.1875 33.109375 -10.5 
Q 29.296875 -10.5 21.875 -10.203125 
Q 21.1875 -6.109375 20.3125 -1.703125 
Q 27.15625 -2.59375 31.453125 -2.59375 
Q 37.984375 -2.78125 38.578125 6.6875 
Q 39.65625 29.828125 39.84375 57.859375 
L 24.8125 57.859375 
Q 24.703125 50.390625 24.515625 45.171875 
Q 24.125 6.984375 6.15625 -13.625 
Q 3.71875 -10.59375 0.390625 -7.078125 
Q 16.609375 10.6875 16.890625 45.953125 
Q 17.09375 51.078125 17.1875 57.859375 
L 3.609375 57.859375 
z
M 86.625 62.84375 
L 64.9375 62.84375 
L 64.9375 6.5 
L 86.625 6.5 
z
" id="MicrosoftYaHei-21152"/>
       <path d="M 2.25 6.5 
L 47.859375 6.5 
L 47.859375 12.359375 
L 11.328125 12.359375 
L 11.328125 17.625 
L 47.859375 17.625 
L 47.859375 23.78125 
Q 27.640625 23.09375 10.640625 22.796875 
Q 9.859375 26.90625 9.28125 28.953125 
Q 56.453125 29.34375 85.9375 31.390625 
L 87.109375 25.25 
Q 70.21875 24.5625 55.078125 23.96875 
L 55.078125 17.625 
L 87.703125 17.625 
L 87.703125 12.359375 
L 55.078125 12.359375 
L 55.078125 6.5 
L 97.359375 6.5 
L 97.359375 0.828125 
L 55.078125 0.828125 
L 55.078125 -1.8125 
Q 55.078125 -12.0625 45.015625 -12.25 
Q 39.75 -12.359375 30.078125 -12.359375 
Q 29.59375 -9.234375 28.71875 -4.828125 
Q 37.203125 -5.515625 42.578125 -5.515625 
Q 47.859375 -5.515625 47.859375 -0.4375 
L 47.859375 0.828125 
L 2.25 0.828125 
z
M 18.75 53.5625 
L 81.25 53.5625 
L 81.25 34.125 
L 74.421875 34.125 
L 74.421875 35.5 
L 25.59375 35.5 
L 25.59375 33.453125 
L 18.75 33.453125 
z
M 57.234375 82.953125 
L 55.671875 81.390625 
Q 71.484375 66.453125 98.640625 60.296875 
Q 95.609375 56.5 93.84375 53.171875 
Q 80.28125 57.375 69.53125 63.234375 
L 69.53125 59.515625 
L 29.78125 59.515625 
L 29.78125 63.234375 
Q 18.84375 57.171875 5.859375 51.90625 
Q 3.515625 55.515625 1.375 58.0625 
Q 29.390625 68.21875 46.875 82.953125 
z
M 74.421875 48.09375 
L 25.59375 48.09375 
L 25.59375 40.96875 
L 74.421875 40.96875 
z
M 50.6875 76.90625 
Q 42.578125 70.65625 32.8125 64.984375 
L 66.5 64.984375 
Q 57.625 70.265625 50.6875 76.90625 
z
" id="MicrosoftYaHei-25343"/>
       <path d="M 1.375 -5.328125 
Q 41.65625 12.59375 44.828125 48.484375 
L 3.125 48.484375 
L 3.125 56.109375 
L 45.171875 56.109375 
Q 45.40625 69.234375 45.40625 82.5625 
L 53.90625 82.5625 
Q 53.90625 69.4375 53.65625 56.109375 
L 96.96875 56.109375 
L 96.96875 48.484375 
L 53.515625 48.484375 
Q 60.453125 9.46875 99.03125 -2.984375 
Q 94.046875 -7.765625 91.609375 -10.890625 
Q 59.8125 1.90625 50.046875 34.671875 
Q 42.4375 5.03125 7.421875 -12.84375 
Q 5.46875 -10.203125 1.375 -5.328125 
z
" id="MicrosoftYaHei-22823"/>
      </defs>
      <use xlink:href="#MicrosoftYaHei-21152"/>
      <use x="100" xlink:href="#MicrosoftYaHei-25343"/>
      <use x="200" xlink:href="#MicrosoftYaHei-22823"/>
     </g>
    </g>
    <g id="line2d_29">
     <path d="M 63.9 84.506406 
L 85.9 84.506406 
" style="fill:none;stroke:#dd8452;stroke-linecap:round;stroke-width:1.5;"/>
    </g>
    <g id="line2d_30"/>
    <g id="text_19">
     <!-- 印度 -->
     <g style="fill:#262626;" transform="translate(94.7 88.356406)scale(0.11 -0.11)">
      <defs>
       <path d="M 51.265625 75.4375 
L 92.96875 75.4375 
L 92.96875 16.453125 
Q 92.96875 3.5625 80.5625 3.46875 
Q 74.3125 3.375 65.625 3.5625 
Q 65.140625 7.859375 64.359375 12.546875 
Q 73.140625 11.765625 78.125 11.765625 
Q 84.96875 11.671875 84.96875 18.890625 
L 84.96875 67.828125 
L 59.28125 67.828125 
L 59.28125 -13.03125 
L 51.265625 -13.03125 
z
M 47.46875 76.125 
Q 34.578125 72.609375 15.53125 68.703125 
L 15.53125 46.234375 
L 45.125 46.234375 
L 45.125 38.921875 
L 15.53125 38.921875 
L 15.53125 8.640625 
Q 30.765625 13.53125 45.703125 18.890625 
Q 45.703125 14.703125 46.484375 10.59375 
Q 30.078125 5.21875 15.71875 -0.4375 
Q 12.3125 -2.09375 9.859375 -4.34375 
L 4.59375 2.484375 
Q 7.71875 6 7.515625 11.375 
L 7.515625 74.46875 
Q 28.609375 78.5625 43.75 83.25 
z
" id="MicrosoftYaHei-21360"/>
       <path d="M 24.21875 19 
L 24.21875 25.4375 
L 85.453125 25.4375 
L 85.453125 19.09375 
Q 76.609375 9.578125 64.796875 2.546875 
Q 78.90625 -3.125 97.859375 -4.828125 
L 94.046875 -12.453125 
Q 72.265625 -9.421875 56.9375 -1.703125 
Q 40.625 -9.671875 19.53125 -13.53125 
Q 17.96875 -10.40625 15.53125 -6.5 
Q 34.859375 -3.46875 49.46875 2.59375 
Q 39.015625 9.375 32.28125 19 
z
M 21.296875 55.328125 
L 35.84375 55.328125 
L 35.84375 63.53125 
L 43.265625 63.53125 
L 43.265625 55.328125 
L 70.90625 55.328125 
L 70.90625 63.625 
L 78.328125 63.625 
L 78.328125 55.328125 
L 96.09375 55.328125 
L 96.09375 48.875 
L 78.328125 48.875 
L 78.328125 30.125 
L 70.90625 30.125 
L 70.90625 33.546875 
L 43.265625 33.546875 
L 43.265625 30.03125 
L 35.84375 30.03125 
L 35.84375 48.875 
L 21.296875 48.875 
z
M 47.265625 80.8125 
L 54.390625 84.234375 
Q 57.71875 79 61.078125 72.40625 
L 97.078125 72.40625 
L 97.078125 65.578125 
L 19.140625 65.578125 
L 19.140625 36.1875 
Q 19.140625 2.78125 6.15625 -13.625 
Q 3.71875 -10.40625 0.59375 -6.984375 
Q 11.328125 6.203125 11.53125 36.671875 
L 11.53125 72.40625 
L 52.046875 72.40625 
Q 49.8125 76.703125 47.265625 80.8125 
z
M 43.265625 39.796875 
L 70.90625 39.796875 
L 70.90625 48.875 
L 43.265625 48.875 
z
M 75.296875 19 
L 40.4375 19 
Q 47.359375 11.375 57.125 6.109375 
Q 67.71875 11.578125 75.296875 19 
z
" id="MicrosoftYaHei-24230"/>
      </defs>
      <use xlink:href="#MicrosoftYaHei-21360"/>
      <use x="100" xlink:href="#MicrosoftYaHei-24230"/>
     </g>
    </g>
    <g id="line2d_31">
     <path d="M 63.9 101.534063 
L 85.9 101.534063 
" style="fill:none;stroke:#55a868;stroke-linecap:round;stroke-width:1.5;"/>
    </g>
    <g id="line2d_32"/>
    <g id="text_20">
     <!-- 意大利 -->
     <g style="fill:#262626;" transform="translate(94.7 105.384063)scale(0.11 -0.11)">
      <defs>
       <path d="M 42.28125 11.859375 
L 47.21875 16.0625 
L 22.171875 16.0625 
L 22.171875 13.03125 
L 14.9375 13.03125 
L 14.9375 46.828125 
L 84.46875 46.828125 
L 84.46875 13.03125 
L 77.25 13.03125 
L 77.25 16.0625 
L 47.46875 16.0625 
Q 53.859375 10.640625 58.6875 5.515625 
L 52.9375 0.734375 
Q 48.828125 5.515625 42.28125 11.859375 
z
M 2.34375 58.15625 
L 29.78125 58.15625 
Q 25.921875 61.8125 21.96875 65.1875 
L 24.90625 67.921875 
L 8.40625 67.921875 
L 8.40625 73.78125 
L 47.3125 73.78125 
Q 45.3125 77.875 43.171875 81.5 
L 49.8125 84.328125 
Q 52.984375 78.8125 55.28125 73.78125 
L 91.609375 73.78125 
L 91.609375 67.921875 
L 74.5625 67.921875 
L 77.9375 65.375 
Q 74.03125 61.765625 69.875 58.15625 
L 97.65625 58.15625 
L 97.65625 52.296875 
L 2.34375 52.296875 
z
M 25.78125 12.359375 
L 33.203125 12.359375 
L 33.203125 1.21875 
Q 33.203125 -4.4375 39.65625 -4.4375 
L 59.671875 -4.4375 
Q 66.703125 -4.4375 67.96875 0.921875 
Q 68.953125 4.640625 69.734375 9.71875 
Q 73.140625 8.25 77.046875 6.984375 
Q 75.875 1.421875 74.90625 -2 
Q 72.5625 -11.078125 61.71875 -11.078125 
L 38.09375 -11.078125 
Q 25.78125 -11.078125 25.78125 0.53125 
z
M 22.171875 21.734375 
L 77.25 21.734375 
L 77.25 28.765625 
L 22.171875 28.765625 
z
M 77.25 41.15625 
L 22.171875 41.15625 
L 22.171875 34.234375 
L 77.25 34.234375 
z
M 61.328125 59.90625 
Q 65.28125 63.234375 70.015625 67.921875 
L 28.71875 67.921875 
Q 33.0625 64.703125 37.203125 61.078125 
L 34.234375 58.15625 
L 63.09375 58.15625 
z
M 10.25 11.859375 
L 17.09375 9.234375 
Q 13.578125 0.34375 8.890625 -8.734375 
Q 5.953125 -7.375 2.046875 -5.71875 
Q 6.0625 1.515625 10.25 11.859375 
z
M 80.859375 7.859375 
L 86.421875 12.15625 
Q 93.359375 4.734375 98.828125 -1.8125 
L 92.671875 -6.6875 
Q 86.71875 1.125 80.859375 7.859375 
z
" id="MicrosoftYaHei-24847"/>
       <path d="M 1.171875 11.578125 
Q 14.265625 25.828125 23.25 46.828125 
L 1.65625 46.828125 
L 1.65625 53.953125 
L 25.09375 53.953125 
L 25.09375 68.609375 
Q 15.046875 67.625 5.171875 66.75 
Q 4.5 70.359375 3.21875 74.171875 
Q 26.65625 76.03125 51.078125 79.15625 
L 53.03125 71.734375 
Q 42.671875 70.453125 32.515625 69.390625 
L 32.515625 53.953125 
L 54.6875 53.953125 
L 54.6875 46.828125 
L 32.515625 46.828125 
L 32.515625 33.734375 
L 36.8125 37.84375 
Q 46 30.03125 55.078125 21.046875 
L 49.125 14.984375 
Q 43.171875 21.921875 32.515625 32.078125 
L 32.515625 -12.9375 
L 25.09375 -12.9375 
L 25.09375 35.890625 
Q 16.703125 16.9375 5.078125 2.78125 
Q 2.4375 9.125 1.171875 11.578125 
z
M 85.0625 81.203125 
L 92.78125 81.203125 
L 92.78125 -0.140625 
Q 92.78125 -12.546875 80.28125 -12.453125 
Q 76.265625 -12.453125 67.28125 -12.359375 
Q 66.703125 -8.34375 65.828125 -3.5625 
Q 73.734375 -4.4375 77.828125 -4.4375 
Q 85.0625 -4.546875 85.0625 2.875 
z
M 61.921875 71.4375 
L 69.34375 71.4375 
L 69.34375 9.71875 
L 61.921875 9.71875 
z
" id="MicrosoftYaHei-21033"/>
      </defs>
      <use xlink:href="#MicrosoftYaHei-24847"/>
      <use x="100" xlink:href="#MicrosoftYaHei-22823"/>
      <use x="200" xlink:href="#MicrosoftYaHei-21033"/>
     </g>
    </g>
    <g id="line2d_33">
     <path d="M 63.9 118.561719 
L 85.9 118.561719 
" style="fill:none;stroke:#c44e52;stroke-linecap:round;stroke-width:1.5;"/>
    </g>
    <g id="line2d_34"/>
    <g id="text_21">
     <!-- 伊朗 -->
     <g style="fill:#262626;" transform="translate(94.7 122.411719)scale(0.11 -0.11)">
      <defs>
       <path d="M 30.28125 26.703125 
L 48.578125 26.703125 
Q 49.515625 34.28125 49.609375 44.578125 
L 27.34375 44.578125 
L 27.34375 51.609375 
L 49.65625 51.609375 
Q 49.703125 57.90625 49.703125 69.28125 
L 33.796875 69.28125 
L 33.796875 76.125 
L 88.671875 76.125 
L 88.671875 51.609375 
L 98.53125 51.609375 
L 98.53125 44.578125 
L 88.671875 44.578125 
L 88.671875 15.671875 
L 81.25 15.671875 
L 81.25 19.875 
L 55.078125 19.875 
Q 51.953125 -1.125 33.40625 -13.421875 
Q 31.15625 -10.5 28.03125 -7.171875 
Q 44.53125 3.5625 47.515625 19.875 
L 30.28125 19.875 
z
M 0.875 37.359375 
Q 16.015625 57.765625 23.828125 83.546875 
L 31.734375 80.90625 
Q 26.90625 67.328125 21.1875 55.90625 
L 21.1875 -12.75 
L 13.765625 -12.75 
L 13.765625 42.53125 
Q 9.125 35.015625 4 28.65625 
Q 2.640625 32.859375 0.875 37.359375 
z
M 56 26.703125 
L 81.25 26.703125 
L 81.25 44.578125 
L 57.078125 44.578125 
Q 56.890625 34.46875 56 26.703125 
z
M 81.25 69.28125 
L 57.328125 69.28125 
Q 57.328125 58.5 57.234375 51.609375 
L 81.25 51.609375 
z
" id="MicrosoftYaHei-20234"/>
       <path d="M 54.203125 77.390625 
L 92.09375 77.390625 
L 92.09375 -0.53125 
Q 92.09375 -10.890625 81.9375 -10.890625 
L 69.140625 -10.890625 
Q 69.046875 -10.296875 67.96875 -3.375 
Q 75.59375 -3.765625 80.859375 -3.765625 
Q 84.671875 -3.765625 84.671875 -0.140625 
L 84.671875 21.34375 
L 60.796875 21.34375 
Q 57.8125 -1.078125 43.953125 -12.640625 
Q 41.21875 -9.8125 37.890625 -7.375 
Q 54.203125 5.328125 54.203125 35.109375 
z
M 25.6875 17.921875 
L 30.46875 22.3125 
Q 39.453125 14.109375 46.484375 6.296875 
L 41.703125 1.125 
Q 39.453125 3.71875 37.359375 6 
Q 14.265625 -5.5625 10.25 -9.515625 
L 5.765625 -2.59375 
Q 8.40625 0.046875 8.40625 4.4375 
L 8.40625 71.734375 
L 26.078125 71.734375 
Q 22.46875 75.921875 18.5625 79.25 
L 24.03125 83.84375 
Q 28.515625 79.828125 32.234375 75.828125 
L 27.640625 71.734375 
L 44.4375 71.734375 
L 44.4375 23.484375 
L 37.203125 23.484375 
L 37.203125 27.484375 
L 15.625 27.484375 
L 15.625 2.484375 
Q 24.5625 6.9375 32.515625 11.234375 
Q 28.765625 15.1875 25.6875 17.921875 
z
M 61.421875 27.984375 
L 84.671875 27.984375 
L 84.671875 46.046875 
L 61.625 46.046875 
Q 61.71875 34.421875 61.421875 27.984375 
z
M 84.671875 70.75 
L 61.625 70.75 
L 61.625 52.6875 
L 84.671875 52.6875 
z
M 15.625 33.9375 
L 37.203125 33.9375 
L 37.203125 46.53125 
L 15.625 46.53125 
z
M 37.203125 65.28125 
L 15.625 65.28125 
L 15.625 52.984375 
L 37.203125 52.984375 
z
" id="MicrosoftYaHei-26391"/>
      </defs>
      <use xlink:href="#MicrosoftYaHei-20234"/>
      <use x="100" xlink:href="#MicrosoftYaHei-26391"/>
     </g>
    </g>
    <g id="line2d_35">
     <path d="M 63.9 135.589375 
L 85.9 135.589375 
" style="fill:none;stroke:#8172b3;stroke-linecap:round;stroke-width:1.5;"/>
    </g>
    <g id="line2d_36"/>
    <g id="text_22">
     <!-- 秘鲁 -->
     <g style="fill:#262626;" transform="translate(94.7 139.439375)scale(0.11 -0.11)">
      <defs>
       <path d="M 31.640625 -1.125 
Q 43.3125 6.5 52.546875 16.3125 
L 52.546875 67.921875 
L 59.859375 67.921875 
L 59.859375 24.953125 
Q 74.359375 44.09375 82.234375 73.6875 
L 89.84375 71.921875 
Q 79.640625 34.671875 59.859375 12.703125 
L 59.859375 4.046875 
Q 59.859375 -1.8125 65.625 -1.8125 
L 73.25 -1.8125 
Q 80.28125 -1.8125 80.953125 4.046875 
Q 81.9375 10.015625 82.328125 19.875 
Q 86.234375 18.109375 90.140625 16.9375 
Q 89.359375 7.078125 88.578125 1.703125 
Q 87.109375 -9.234375 74.3125 -9.234375 
L 63.484375 -9.234375 
Q 52.546875 -9.234375 52.546875 3.078125 
L 52.546875 5.328125 
Q 45.21875 -1.421875 36.71875 -6.984375 
Q 35.359375 -4.9375 31.640625 -1.125 
z
M 1.65625 13.71875 
Q 10.5 29.203125 15.671875 48.390625 
L 3.515625 48.390625 
L 3.515625 55.328125 
L 16.703125 55.328125 
L 16.703125 68.703125 
Q 11.03125 68.265625 4.59375 67.828125 
Q 4.109375 71.140625 3.125 74.953125 
Q 23.046875 76.03125 37.890625 78.171875 
L 39.65625 70.75 
Q 33.15625 70.0625 23.921875 69.28125 
L 23.921875 55.328125 
L 37.3125 55.328125 
L 37.3125 48.390625 
L 23.921875 48.390625 
L 23.921875 40.875 
L 28.03125 43.609375 
Q 32.125 37.546875 37.015625 28.375 
L 30.953125 24.46875 
Q 26.765625 32.953125 23.921875 38.03125 
L 23.921875 -12.25 
L 16.703125 -12.25 
L 16.703125 33.84375 
Q 11.96875 17.140625 5.078125 5.328125 
Q 3.515625 9.421875 1.65625 13.71875 
z
M 41.015625 47.3125 
L 48.34375 46.234375 
Q 46.09375 30.515625 43.453125 17.921875 
Q 38.578125 19.28125 36.234375 19.390625 
Q 39.359375 31.390625 41.015625 47.3125 
z
M 84.96875 45.65625 
L 92.28125 47.703125 
Q 96.09375 34.625 98.828125 21.828125 
L 91.3125 19.875 
Q 88.578125 33.84375 84.96875 45.65625 
z
M 55.953125 79.734375 
L 62.5 83.84375 
Q 68.453125 75.53125 75 64.984375 
L 67.96875 60.59375 
Q 62.109375 71.34375 55.953125 79.734375 
z
" id="MicrosoftYaHei-31192"/>
       <path d="M 1.859375 62.453125 
Q 17.484375 71.046875 26.5625 83.34375 
L 34.96875 83.34375 
Q 32.71875 80.46875 30.375 77.78125 
L 67.671875 77.78125 
L 67.671875 72.515625 
L 61.234375 65.375 
L 86.921875 65.375 
L 86.921875 35.40625 
L 80.28125 35.40625 
L 80.28125 37.453125 
L 19.734375 37.453125 
L 19.734375 35.40625 
L 13.09375 35.40625 
L 13.09375 61.578125 
Q 9.671875 58.984375 6.15625 56.78125 
Q 4.203125 59.8125 1.859375 62.453125 
z
M 14.84375 20.0625 
L 85.15625 20.0625 
L 85.15625 -13.03125 
L 78.328125 -13.03125 
L 78.328125 -9.03125 
L 21.6875 -9.03125 
L 21.6875 -13.03125 
L 14.84375 -13.03125 
z
M 2.734375 31.390625 
L 97.265625 31.390625 
L 97.265625 25.921875 
L 2.734375 25.921875 
z
M 78.328125 14.703125 
L 21.6875 14.703125 
L 21.6875 8.0625 
L 78.328125 8.0625 
z
M 21.6875 -3.65625 
L 78.328125 -3.65625 
L 78.328125 2.984375 
L 21.6875 2.984375 
z
M 17.828125 65.375 
L 52.4375 65.375 
L 58.5 72.3125 
L 25.296875 72.3125 
Q 21.6875 68.609375 17.828125 65.375 
z
M 80.28125 60.203125 
L 53.328125 60.203125 
L 53.328125 53.859375 
L 80.28125 53.859375 
z
M 19.734375 42.625 
L 46.6875 42.625 
L 46.6875 48.96875 
L 19.734375 48.96875 
z
M 19.734375 53.859375 
L 46.6875 53.859375 
L 46.6875 60.203125 
L 19.734375 60.203125 
z
M 53.328125 42.625 
L 80.28125 42.625 
L 80.28125 48.96875 
L 53.328125 48.96875 
z
" id="MicrosoftYaHei-40065"/>
      </defs>
      <use xlink:href="#MicrosoftYaHei-31192"/>
      <use x="100" xlink:href="#MicrosoftYaHei-40065"/>
     </g>
    </g>
    <g id="line2d_37">
     <path d="M 63.9 152.617031 
L 85.9 152.617031 
" style="fill:none;stroke:#937860;stroke-linecap:round;stroke-width:1.5;"/>
    </g>
    <g id="line2d_38"/>
    <g id="text_23">
     <!-- 南非 -->
     <g style="fill:#262626;" transform="translate(94.7 156.467031)scale(0.11 -0.11)">
      <defs>
       <path d="M 2.546875 71.140625 
L 46.390625 71.140625 
L 46.390625 82.171875 
L 54.390625 82.171875 
L 54.390625 71.140625 
L 97.171875 71.140625 
L 97.171875 64.203125 
L 54.390625 64.203125 
L 54.390625 54.25 
L 91.796875 54.25 
L 91.796875 -1.125 
Q 91.796875 -12.546875 80.46875 -12.640625 
Q 74.03125 -12.75 64.359375 -12.359375 
Q 63.765625 -8.734375 62.890625 -4.34375 
Q 72.5625 -4.9375 77.640625 -4.9375 
Q 84.078125 -4.9375 84.078125 0.734375 
L 84.078125 47.40625 
L 16.5 47.40625 
L 16.5 -13.03125 
L 8.796875 -13.03125 
L 8.796875 54.25 
L 46.390625 54.25 
L 46.390625 64.203125 
L 2.546875 64.203125 
z
M 20.3125 14.203125 
L 46.484375 14.203125 
L 46.484375 24.859375 
L 23.4375 24.859375 
L 23.4375 31.296875 
L 54.109375 31.296875 
Q 58.796875 38.328125 63.578125 46.734375 
L 70.796875 42.71875 
Q 66.015625 36.1875 62.109375 31.296875 
L 77.15625 31.296875 
L 77.15625 24.859375 
L 54.109375 24.859375 
L 54.109375 14.203125 
L 80.28125 14.203125 
L 80.28125 7.765625 
L 54.109375 7.765625 
L 54.109375 -10.984375 
L 46.484375 -10.984375 
L 46.484375 7.765625 
L 20.3125 7.765625 
z
M 29.890625 42.828125 
L 35.640625 46.734375 
Q 40.625 40.96875 44.734375 35.5 
L 38.28125 31.5 
Q 34.375 37.15625 29.890625 42.828125 
z
" id="MicrosoftYaHei-21335"/>
       <path d="M 57.625 82.5625 
L 65.4375 82.5625 
L 65.4375 68.609375 
L 95.796875 68.609375 
L 95.796875 61.578125 
L 65.4375 61.578125 
L 65.4375 42.4375 
L 94.34375 42.4375 
L 94.34375 35.40625 
L 65.4375 35.40625 
L 65.4375 15.875 
L 97.953125 15.875 
L 97.953125 8.84375 
L 65.4375 8.84375 
L 65.4375 -12.453125 
L 57.625 -12.453125 
z
M 2.34375 15.875 
L 34.46875 15.875 
L 34.46875 35.40625 
L 5.859375 35.40625 
L 5.859375 42.4375 
L 34.46875 42.4375 
L 34.46875 61.578125 
L 4.296875 61.578125 
L 4.296875 68.609375 
L 34.46875 68.609375 
L 34.46875 82.5625 
L 42.28125 82.5625 
L 42.28125 -12.453125 
L 34.46875 -12.453125 
L 34.46875 8.84375 
L 2.34375 8.84375 
z
" id="MicrosoftYaHei-38750"/>
      </defs>
      <use xlink:href="#MicrosoftYaHei-21335"/>
      <use x="100" xlink:href="#MicrosoftYaHei-38750"/>
     </g>
    </g>
   </g>
  </g>
 </g>
 <defs>
  <clipPath id="p9fa2fd46ca">
   <rect height="217.44" width="334.8" x="54" y="34.56"/>
  </clipPath>
 </defs>
</svg>
