<?xml version="1.0" encoding="utf-8" standalone="no"?>
<!DOCTYPE svg PUBLIC "-//W3C//DTD SVG 1.1//EN"
  "http://www.w3.org/Graphics/SVG/1.1/DTD/svg11.dtd">
<!-- Created with matplotlib (https://matplotlib.org/) -->
<svg height="288pt" version="1.1" viewBox="0 0 432 288" width="432pt" xmlns="http://www.w3.org/2000/svg" xmlns:xlink="http://www.w3.org/1999/xlink">
 <metadata>
  <rdf:RDF xmlns:cc="http://creativecommons.org/ns#" xmlns:dc="http://purl.org/dc/elements/1.1/" xmlns:rdf="http://www.w3.org/1999/02/22-rdf-syntax-ns#">
   <cc:Work>
    <dc:type rdf:resource="http://purl.org/dc/dcmitype/StillImage"/>
    <dc:date>2020-11-15T16:57:53.628332</dc:date>
    <dc:format>image/svg+xml</dc:format>
    <dc:creator>
     <cc:Agent>
      <dc:title>Matplotlib v3.3.2, https://matplotlib.org/</dc:title>
     </cc:Agent>
    </dc:creator>
   </cc:Work>
  </rdf:RDF>
 </metadata>
 <defs>
  <style type="text/css">*{stroke-linecap:butt;stroke-linejoin:round;}</style>
 </defs>
 <g id="figure_1">
  <g id="patch_1">
   <path d="M 0 288 
L 432 288 
L 432 0 
L 0 0 
z
" style="fill:#ffffff;"/>
  </g>
  <g id="axes_1">
   <g id="patch_2">
    <path d="M 54 252 
L 388.8 252 
L 388.8 34.56 
L 54 34.56 
z
" style="fill:#eaeaf2;"/>
   </g>
   <g id="matplotlib.axis_1">
    <g id="xtick_1">
     <g id="line2d_1">
      <path clip-path="url(#p4de90e474e)" d="M 79.036364 252 
L 79.036364 34.56 
" style="fill:none;stroke:#ffffff;stroke-linecap:round;"/>
     </g>
     <g id="text_1">
      <!-- 2020-02 -->
      <g style="fill:#262626;" transform="translate(57.305348 270.293125)scale(0.11 -0.11)">
       <defs>
        <path d="M 41.65625 55.8125 
Q 41.65625 61.921875 37.796875 65.40625 
Q 33.9375 68.890625 27.296875 68.890625 
Q 22.609375 68.890625 17.8125 66.5 
Q 13.03125 64.109375 8.890625 59.671875 
L 8.890625 68.953125 
Q 12.59375 72.796875 17.296875 74.84375 
Q 22.015625 76.90625 28.375 76.90625 
Q 38.625 76.90625 44.875 71.40625 
Q 51.125 65.921875 51.125 56.546875 
Q 51.125 48.1875 47.28125 42.078125 
Q 43.453125 35.984375 34.1875 29.59375 
Q 24.703125 23.046875 21.5 20.21875 
Q 18.3125 17.390625 17.03125 14.796875 
Q 15.765625 12.203125 15.765625 8.5 
L 53.375 8.5 
L 53.375 0 
L 5.8125 0 
L 5.8125 3.765625 
Q 5.8125 10.296875 7.59375 14.859375 
Q 9.375 19.4375 13.46875 23.75 
Q 17.578125 28.078125 26.265625 34.125 
Q 35.15625 40.375 38.40625 45.09375 
Q 41.65625 49.8125 41.65625 55.8125 
z
" id="MicrosoftYaHei-50"/>
        <path d="M 4.4375 36.328125 
Q 4.4375 56.34375 11.078125 66.625 
Q 17.71875 76.90625 30.328125 76.90625 
Q 54.34375 76.90625 54.34375 38.140625 
Q 54.34375 19 47.578125 8.859375 
Q 40.828125 -1.265625 28.609375 -1.265625 
Q 17.09375 -1.265625 10.765625 8.34375 
Q 4.4375 17.96875 4.4375 36.328125 
z
M 14.203125 36.765625 
Q 14.203125 6.640625 29.5 6.640625 
Q 44.53125 6.640625 44.53125 37.25 
Q 44.53125 68.953125 29.78125 68.953125 
Q 14.203125 68.953125 14.203125 36.765625 
z
" id="MicrosoftYaHei-48"/>
        <path d="M 36.375 26.265625 
L 7.625 26.265625 
L 7.625 33.640625 
L 36.375 33.640625 
z
" id="MicrosoftYaHei-45"/>
       </defs>
       <use xlink:href="#MicrosoftYaHei-50"/>
       <use x="58.642578" xlink:href="#MicrosoftYaHei-48"/>
       <use x="117.285156" xlink:href="#MicrosoftYaHei-50"/>
       <use x="175.927734" xlink:href="#MicrosoftYaHei-48"/>
       <use x="234.570312" xlink:href="#MicrosoftYaHei-45"/>
       <use x="277.832031" xlink:href="#MicrosoftYaHei-48"/>
       <use x="336.474609" xlink:href="#MicrosoftYaHei-50"/>
      </g>
     </g>
    </g>
    <g id="xtick_2">
     <g id="line2d_2">
      <path clip-path="url(#p4de90e474e)" d="M 135.981818 252 
L 135.981818 34.56 
" style="fill:none;stroke:#ffffff;stroke-linecap:round;"/>
     </g>
     <g id="text_2">
      <!-- 2020-03 -->
      <g style="fill:#262626;" transform="translate(114.250803 270.293125)scale(0.11 -0.11)">
       <defs>
        <path d="M 6.984375 12.640625 
Q 14.75 6.640625 24.515625 6.640625 
Q 32.328125 6.640625 36.890625 10.46875 
Q 41.453125 14.3125 41.453125 20.75 
Q 41.453125 35.109375 20.90625 35.109375 
L 14.59375 35.109375 
L 14.59375 43.015625 
L 20.609375 43.015625 
Q 38.8125 43.015625 38.8125 56.5 
Q 38.8125 68.953125 24.90625 68.953125 
Q 16.9375 68.953125 9.90625 63.578125 
L 9.90625 72.609375 
Q 17.328125 76.90625 27.25 76.90625 
Q 36.921875 76.90625 42.78125 71.84375 
Q 48.640625 66.796875 48.640625 58.734375 
Q 48.640625 43.890625 33.5 39.65625 
L 33.5 39.453125 
Q 41.703125 38.578125 46.453125 33.671875 
Q 51.21875 28.765625 51.21875 21.4375 
Q 51.21875 11.234375 43.875 4.984375 
Q 36.53125 -1.265625 24.3125 -1.265625 
Q 13.578125 -1.265625 6.984375 2.734375 
z
" id="MicrosoftYaHei-51"/>
       </defs>
       <use xlink:href="#MicrosoftYaHei-50"/>
       <use x="58.642578" xlink:href="#MicrosoftYaHei-48"/>
       <use x="117.285156" xlink:href="#MicrosoftYaHei-50"/>
       <use x="175.927734" xlink:href="#MicrosoftYaHei-48"/>
       <use x="234.570312" xlink:href="#MicrosoftYaHei-45"/>
       <use x="277.832031" xlink:href="#MicrosoftYaHei-48"/>
       <use x="336.474609" xlink:href="#MicrosoftYaHei-51"/>
      </g>
     </g>
    </g>
    <g id="xtick_3">
     <g id="line2d_3">
      <path clip-path="url(#p4de90e474e)" d="M 196.854545 252 
L 196.854545 34.56 
" style="fill:none;stroke:#ffffff;stroke-linecap:round;"/>
     </g>
     <g id="text_3">
      <!-- 2020-04 -->
      <g style="fill:#262626;" transform="translate(175.12353 270.293125)scale(0.11 -0.11)">
       <defs>
        <path d="M 45.40625 75.640625 
L 45.40625 25.6875 
L 56.734375 25.6875 
L 56.734375 17.78125 
L 45.40625 17.78125 
L 45.40625 0 
L 36.140625 0 
L 36.140625 17.78125 
L 0.828125 17.78125 
L 0.828125 25.25 
Q 10.25 35.84375 19.765625 49.65625 
Q 29.296875 63.484375 35.5 75.640625 
z
M 11.578125 25.6875 
L 36.140625 25.6875 
L 36.140625 61.71875 
Q 31.0625 52.59375 25.25 44.015625 
Q 19.4375 35.453125 11.578125 25.6875 
z
" id="MicrosoftYaHei-52"/>
       </defs>
       <use xlink:href="#MicrosoftYaHei-50"/>
       <use x="58.642578" xlink:href="#MicrosoftYaHei-48"/>
       <use x="117.285156" xlink:href="#MicrosoftYaHei-50"/>
       <use x="175.927734" xlink:href="#MicrosoftYaHei-48"/>
       <use x="234.570312" xlink:href="#MicrosoftYaHei-45"/>
       <use x="277.832031" xlink:href="#MicrosoftYaHei-48"/>
       <use x="336.474609" xlink:href="#MicrosoftYaHei-52"/>
      </g>
     </g>
    </g>
    <g id="xtick_4">
     <g id="line2d_4">
      <path clip-path="url(#p4de90e474e)" d="M 255.763636 252 
L 255.763636 34.56 
" style="fill:none;stroke:#ffffff;stroke-linecap:round;"/>
     </g>
     <g id="text_4">
      <!-- 2020-05 -->
      <g style="fill:#262626;" transform="translate(234.032621 270.293125)scale(0.11 -0.11)">
       <defs>
        <path d="M 51.46875 23.34375 
Q 51.46875 12.25 44.109375 5.46875 
Q 36.765625 -1.3125 24.359375 -1.3125 
Q 13.71875 -1.3125 8.5 1.859375 
L 8.5 11.625 
Q 16.15625 6.640625 24.125 6.640625 
Q 32.03125 6.640625 36.890625 11 
Q 41.75 15.375 41.75 22.609375 
Q 41.75 29.828125 36.6875 33.859375 
Q 31.640625 37.890625 22.40625 37.890625 
Q 15.28125 37.890625 9.578125 37.25 
L 12.359375 75.640625 
L 47.703125 75.640625 
L 47.703125 67.234375 
L 20.40625 67.234375 
L 18.84375 45.796875 
L 25.734375 46.09375 
Q 37.75 46.09375 44.609375 40.109375 
Q 51.46875 34.125 51.46875 23.34375 
z
" id="MicrosoftYaHei-53"/>
       </defs>
       <use xlink:href="#MicrosoftYaHei-50"/>
       <use x="58.642578" xlink:href="#MicrosoftYaHei-48"/>
       <use x="117.285156" xlink:href="#MicrosoftYaHei-50"/>
       <use x="175.927734" xlink:href="#MicrosoftYaHei-48"/>
       <use x="234.570312" xlink:href="#MicrosoftYaHei-45"/>
       <use x="277.832031" xlink:href="#MicrosoftYaHei-48"/>
       <use x="336.474609" xlink:href="#MicrosoftYaHei-53"/>
      </g>
     </g>
    </g>
    <g id="xtick_5">
     <g id="line2d_5">
      <path clip-path="url(#p4de90e474e)" d="M 316.636364 252 
L 316.636364 34.56 
" style="fill:none;stroke:#ffffff;stroke-linecap:round;"/>
     </g>
     <g id="text_5">
      <!-- 2020-06 -->
      <g style="fill:#262626;" transform="translate(294.905348 270.293125)scale(0.11 -0.11)">
       <defs>
        <path d="M 49.703125 65.921875 
Q 43.796875 68.953125 37.359375 68.953125 
Q 27.546875 68.953125 21.578125 60.40625 
Q 15.625 51.859375 15.53125 37.0625 
L 15.765625 37.0625 
Q 21.140625 47.46875 32.90625 47.46875 
Q 42.71875 47.46875 48.578125 41.0625 
Q 54.4375 34.671875 54.4375 24.078125 
Q 54.4375 12.984375 47.671875 5.859375 
Q 40.921875 -1.265625 30.421875 -1.265625 
Q 18.890625 -1.265625 12.328125 7.734375 
Q 5.765625 16.75 5.765625 33.296875 
Q 5.765625 53.328125 14.375 65.109375 
Q 23 76.90625 37.0625 76.90625 
Q 45.125 76.90625 49.703125 74.703125 
z
M 16.109375 24.75 
Q 16.109375 17.28125 20.09375 11.953125 
Q 24.078125 6.640625 30.671875 6.640625 
Q 36.921875 6.640625 40.828125 11.234375 
Q 44.734375 15.828125 44.734375 23.046875 
Q 44.734375 30.859375 41.046875 35.203125 
Q 37.359375 39.546875 30.5625 39.546875 
Q 24.125 39.546875 20.109375 35.15625 
Q 16.109375 30.765625 16.109375 24.75 
z
" id="MicrosoftYaHei-54"/>
       </defs>
       <use xlink:href="#MicrosoftYaHei-50"/>
       <use x="58.642578" xlink:href="#MicrosoftYaHei-48"/>
       <use x="117.285156" xlink:href="#MicrosoftYaHei-50"/>
       <use x="175.927734" xlink:href="#MicrosoftYaHei-48"/>
       <use x="234.570312" xlink:href="#MicrosoftYaHei-45"/>
       <use x="277.832031" xlink:href="#MicrosoftYaHei-48"/>
       <use x="336.474609" xlink:href="#MicrosoftYaHei-54"/>
      </g>
     </g>
    </g>
    <g id="xtick_6">
     <g id="line2d_6">
      <path clip-path="url(#p4de90e474e)" d="M 375.545455 252 
L 375.545455 34.56 
" style="fill:none;stroke:#ffffff;stroke-linecap:round;"/>
     </g>
     <g id="text_6">
      <!-- 2020-07 -->
      <g style="fill:#262626;" transform="translate(353.814439 270.293125)scale(0.11 -0.11)">
       <defs>
        <path d="M 53.46875 69.734375 
Q 41.546875 48.921875 34.734375 31.21875 
Q 27.9375 13.53125 26.3125 0 
L 16.359375 0 
Q 18.171875 13.328125 24.90625 30.421875 
Q 31.640625 47.515625 42.921875 67.1875 
L 5.421875 67.1875 
L 5.421875 75.640625 
L 53.46875 75.640625 
z
" id="MicrosoftYaHei-55"/>
       </defs>
       <use xlink:href="#MicrosoftYaHei-50"/>
       <use x="58.642578" xlink:href="#MicrosoftYaHei-48"/>
       <use x="117.285156" xlink:href="#MicrosoftYaHei-50"/>
       <use x="175.927734" xlink:href="#MicrosoftYaHei-48"/>
       <use x="234.570312" xlink:href="#MicrosoftYaHei-45"/>
       <use x="277.832031" xlink:href="#MicrosoftYaHei-48"/>
       <use x="336.474609" xlink:href="#MicrosoftYaHei-55"/>
      </g>
     </g>
    </g>
    <g id="text_7">
     <!-- 日期 -->
     <g style="fill:#262626;" transform="translate(209.4 286.620156)scale(0.12 -0.12)">
      <defs>
       <path d="M 15.234375 76.703125 
L 84.859375 76.703125 
L 84.859375 -11.96875 
L 76.5625 -11.96875 
L 76.5625 -5.03125 
L 23.53125 -5.03125 
L 23.53125 -11.96875 
L 15.234375 -11.96875 
z
M 23.53125 32.859375 
L 23.53125 2.09375 
L 76.5625 2.09375 
L 76.5625 32.859375 
z
M 23.53125 69.390625 
L 23.53125 40.1875 
L 76.5625 40.1875 
L 76.5625 69.390625 
z
" id="MicrosoftYaHei-26085"/>
       <path d="M 58.890625 79.15625 
L 93.453125 79.15625 
L 93.453125 -0.046875 
Q 93.453125 -11.578125 82.515625 -11.578125 
Q 77.046875 -11.578125 71.78125 -11.28125 
Q 71.390625 -8.0625 70.609375 -3.765625 
Q 77.734375 -4.4375 80.859375 -4.4375 
Q 86.234375 -4.4375 86.234375 0.921875 
L 86.234375 21.4375 
L 65.328125 21.4375 
Q 64.265625 0.046875 52.34375 -14.109375 
Q 49.703125 -11.375 46.484375 -8.640625 
Q 54.390625 0.4375 56.546875 10.203125 
Q 58.890625 19.578125 58.890625 42.828125 
z
M 1.953125 17.828125 
L 11.140625 17.828125 
L 11.140625 62.9375 
L 3.125 62.9375 
L 3.125 69.578125 
L 11.140625 69.578125 
L 11.140625 81.5 
L 18.359375 81.5 
L 18.359375 69.578125 
L 38.671875 69.578125 
L 38.671875 81.890625 
L 45.90625 81.890625 
L 45.90625 69.578125 
L 53.8125 69.578125 
L 53.8125 62.9375 
L 45.90625 62.9375 
L 45.90625 17.828125 
L 53.71875 17.828125 
L 53.71875 11.1875 
L 1.953125 11.1875 
z
M 65.765625 27.875 
L 86.234375 27.875 
L 86.234375 47.015625 
L 66.109375 47.015625 
Q 66.21875 34.421875 65.765625 27.875 
z
M 86.234375 72.515625 
L 66.109375 72.515625 
L 66.109375 53.46875 
L 86.234375 53.46875 
z
M 18.359375 17.828125 
L 38.671875 17.828125 
L 38.671875 28.765625 
L 18.359375 28.765625 
z
M 18.359375 35.015625 
L 38.671875 35.015625 
L 38.671875 45.84375 
L 18.359375 45.84375 
z
M 18.359375 52.09375 
L 38.671875 52.09375 
L 38.671875 62.9375 
L 18.359375 62.9375 
z
M 18.359375 9.328125 
L 24.3125 4.640625 
Q 14.453125 -6 6.34375 -13.234375 
Q 4.296875 -10.890625 1.171875 -8.0625 
Q 10.453125 -0.140625 18.359375 9.328125 
z
M 31.15625 4.734375 
L 35.84375 9.515625 
Q 42.671875 4.4375 48.734375 -0.734375 
L 43.5625 -6.296875 
Q 38.09375 -0.828125 31.15625 4.734375 
z
" id="MicrosoftYaHei-26399"/>
      </defs>
      <use xlink:href="#MicrosoftYaHei-26085"/>
      <use x="100" xlink:href="#MicrosoftYaHei-26399"/>
     </g>
    </g>
   </g>
   <g id="matplotlib.axis_2">
    <g id="ytick_1">
     <g id="line2d_7">
      <path clip-path="url(#p4de90e474e)" d="M 54 242.116364 
L 388.8 242.116364 
" style="fill:none;stroke:#ffffff;stroke-linecap:round;"/>
     </g>
     <g id="text_8">
      <!-- 0 -->
      <g style="fill:#262626;" transform="translate(38.049531 246.512926)scale(0.11 -0.11)">
       <use xlink:href="#MicrosoftYaHei-48"/>
      </g>
     </g>
    </g>
    <g id="ytick_2">
     <g id="line2d_8">
      <path clip-path="url(#p4de90e474e)" d="M 54 202.125927 
L 388.8 202.125927 
" style="fill:none;stroke:#ffffff;stroke-linecap:round;"/>
     </g>
     <g id="text_9">
      <!-- 1000 -->
      <g style="fill:#262626;" transform="translate(18.698125 206.52249)scale(0.11 -0.11)">
       <defs>
        <path d="M 27.828125 0 
L 27.828125 64.703125 
Q 25.59375 62.453125 20.234375 59.671875 
Q 14.890625 56.890625 10.359375 55.765625 
L 10.359375 65.140625 
Q 16.359375 66.796875 23.1875 70.4375 
Q 30.03125 74.078125 33.6875 77.296875 
L 37.3125 77.296875 
L 37.3125 0 
z
" id="MicrosoftYaHei-49"/>
       </defs>
       <use xlink:href="#MicrosoftYaHei-49"/>
       <use x="58.642578" xlink:href="#MicrosoftYaHei-48"/>
       <use x="117.285156" xlink:href="#MicrosoftYaHei-48"/>
       <use x="175.927734" xlink:href="#MicrosoftYaHei-48"/>
      </g>
     </g>
    </g>
    <g id="ytick_3">
     <g id="line2d_9">
      <path clip-path="url(#p4de90e474e)" d="M 54 162.135491 
L 388.8 162.135491 
" style="fill:none;stroke:#ffffff;stroke-linecap:round;"/>
     </g>
     <g id="text_10">
      <!-- 2000 -->
      <g style="fill:#262626;" transform="translate(18.698125 166.532053)scale(0.11 -0.11)">
       <use xlink:href="#MicrosoftYaHei-50"/>
       <use x="58.642578" xlink:href="#MicrosoftYaHei-48"/>
       <use x="117.285156" xlink:href="#MicrosoftYaHei-48"/>
       <use x="175.927734" xlink:href="#MicrosoftYaHei-48"/>
      </g>
     </g>
    </g>
    <g id="ytick_4">
     <g id="line2d_10">
      <path clip-path="url(#p4de90e474e)" d="M 54 122.145054 
L 388.8 122.145054 
" style="fill:none;stroke:#ffffff;stroke-linecap:round;"/>
     </g>
     <g id="text_11">
      <!-- 3000 -->
      <g style="fill:#262626;" transform="translate(18.698125 126.541617)scale(0.11 -0.11)">
       <use xlink:href="#MicrosoftYaHei-51"/>
       <use x="58.642578" xlink:href="#MicrosoftYaHei-48"/>
       <use x="117.285156" xlink:href="#MicrosoftYaHei-48"/>
       <use x="175.927734" xlink:href="#MicrosoftYaHei-48"/>
      </g>
     </g>
    </g>
    <g id="ytick_5">
     <g id="line2d_11">
      <path clip-path="url(#p4de90e474e)" d="M 54 82.154618 
L 388.8 82.154618 
" style="fill:none;stroke:#ffffff;stroke-linecap:round;"/>
     </g>
     <g id="text_12">
      <!-- 4000 -->
      <g style="fill:#262626;" transform="translate(18.698125 86.55118)scale(0.11 -0.11)">
       <use xlink:href="#MicrosoftYaHei-52"/>
       <use x="58.642578" xlink:href="#MicrosoftYaHei-48"/>
       <use x="117.285156" xlink:href="#MicrosoftYaHei-48"/>
       <use x="175.927734" xlink:href="#MicrosoftYaHei-48"/>
      </g>
     </g>
    </g>
    <g id="ytick_6">
     <g id="line2d_12">
      <path clip-path="url(#p4de90e474e)" d="M 54 42.164181 
L 388.8 42.164181 
" style="fill:none;stroke:#ffffff;stroke-linecap:round;"/>
     </g>
     <g id="text_13">
      <!-- 5000 -->
      <g style="fill:#262626;" transform="translate(18.698125 46.560744)scale(0.11 -0.11)">
       <use xlink:href="#MicrosoftYaHei-53"/>
       <use x="58.642578" xlink:href="#MicrosoftYaHei-48"/>
       <use x="117.285156" xlink:href="#MicrosoftYaHei-48"/>
       <use x="175.927734" xlink:href="#MicrosoftYaHei-48"/>
      </g>
     </g>
    </g>
    <g id="text_14">
     <!-- 新增死亡 -->
     <g style="fill:#262626;" transform="translate(11.715 167.28)rotate(-90)scale(0.12 -0.12)">
      <defs>
       <path d="M 56.15625 74.953125 
Q 76.375 75.140625 93.453125 78.953125 
L 96 71.4375 
Q 76.65625 68.890625 63.09375 68.109375 
L 63.09375 45.359375 
L 98.734375 45.359375 
L 98.734375 38.71875 
L 84.765625 38.71875 
L 84.765625 -12.453125 
L 77.546875 -12.453125 
L 77.546875 38.71875 
L 63.09375 38.71875 
L 63.09375 33.9375 
Q 63.09375 3.953125 48.734375 -12.75 
Q 46.390625 -9.71875 43.5625 -6.5 
Q 56.15625 7.28125 56.15625 34.234375 
z
M 4.109375 31.109375 
L 24.03125 31.109375 
L 24.03125 40.375 
L 31.0625 40.375 
L 31.0625 31.109375 
L 50.203125 31.109375 
L 50.203125 24.859375 
L 31.0625 24.859375 
L 31.0625 -0.640625 
Q 31.0625 -10.984375 21.09375 -10.984375 
Q 16.890625 -10.984375 11.625 -10.890625 
Q 11.234375 -7.671875 10.546875 -3.46875 
Q 16.21875 -4.046875 19.4375 -4.046875 
Q 24.03125 -4.046875 24.03125 0.921875 
L 24.03125 24.859375 
L 4.109375 24.859375 
z
M 1.375 49.359375 
L 17.09375 49.359375 
Q 12.9375 55.953125 9.28125 60.6875 
L 14.546875 64.40625 
Q 17.78125 60.5 22.859375 53.375 
L 17.328125 49.359375 
L 30.21875 49.359375 
Q 35.546875 57.03125 40.046875 64.5 
L 46.96875 60.59375 
Q 42.234375 54.5 37.9375 49.359375 
L 52.734375 49.359375 
L 52.734375 43.109375 
L 1.375 43.109375 
z
M 4.5 72.015625 
L 25.59375 72.015625 
Q 23.484375 76.03125 20.796875 80.71875 
L 27.046875 83.640625 
Q 30.078125 78.65625 32.71875 73.578125 
L 29.4375 72.015625 
L 50.203125 72.015625 
L 50.203125 65.765625 
L 4.5 65.765625 
z
M 11.625 20.453125 
L 18.265625 17.328125 
Q 12.984375 6.296875 7.8125 -2.59375 
Q 4.984375 -0.828125 1.375 0.921875 
Q 6.15625 8.34375 11.625 20.453125 
z
M 39.75 19.96875 
Q 45.21875 12.546875 49.3125 6.296875 
L 43.0625 2 
Q 38.765625 9.515625 33.984375 16.15625 
z
" id="MicrosoftYaHei-26032"/>
       <path d="M 34.1875 69.671875 
L 50.921875 69.671875 
Q 47.515625 74.703125 43.359375 79.9375 
L 48.921875 83.84375 
Q 54 77.984375 57.71875 72.90625 
L 53.171875 69.671875 
L 69.578125 69.671875 
Q 74.359375 76.375 78.90625 83.9375 
L 85.9375 79.9375 
Q 81.78125 74.5625 77.78125 69.671875 
L 94.34375 69.671875 
L 94.34375 33.15625 
L 87.5 33.15625 
L 87.5 36.078125 
L 41.015625 36.078125 
L 41.015625 33.15625 
L 34.1875 33.15625 
z
M 38.09375 28.078125 
L 90.4375 28.078125 
L 90.4375 -13.234375 
L 83.40625 -13.234375 
L 83.40625 -8.546875 
L 45.125 -8.546875 
L 45.125 -13.234375 
L 38.09375 -13.234375 
z
M 1.265625 6.6875 
Q 7.28125 8.40625 13.96875 10.5 
L 13.96875 50.828125 
L 2.25 50.828125 
L 2.25 57.765625 
L 13.96875 57.765625 
L 13.96875 82.171875 
L 21.1875 82.171875 
L 21.1875 57.765625 
L 31.25 57.765625 
L 31.25 50.828125 
L 21.1875 50.828125 
L 21.1875 12.796875 
Q 26.703125 14.546875 32.71875 16.546875 
Q 32.90625 11.859375 33.203125 8.640625 
Q 20.40625 4.9375 3.90625 -0.828125 
z
M 87.5 63.8125 
L 67.578125 63.8125 
L 67.578125 41.9375 
L 87.5 41.9375 
z
M 41.015625 41.9375 
L 60.84375 41.9375 
L 60.84375 63.8125 
L 41.015625 63.8125 
z
M 83.40625 22.015625 
L 45.125 22.015625 
L 45.125 12.640625 
L 83.40625 12.640625 
z
M 45.125 -2.484375 
L 83.40625 -2.484375 
L 83.40625 6.78125 
L 45.125 6.78125 
z
M 83.59375 56.390625 
Q 78.21875 47.90625 75.875 45.0625 
L 70.609375 48.1875 
Q 74.125 52.984375 77.828125 59.8125 
z
M 44.734375 56.203125 
L 49.703125 59.421875 
Q 54.109375 53.765625 57.328125 48.78125 
L 51.859375 45.265625 
Q 48.734375 50.4375 44.734375 56.203125 
z
" id="MicrosoftYaHei-22686"/>
       <path d="M 3.90625 75.734375 
L 96.09375 75.734375 
L 96.09375 68.703125 
L 66.703125 68.703125 
L 66.703125 32.953125 
Q 78.8125 42.140625 91.3125 55.03125 
L 97.078125 49.078125 
Q 81.34375 34.625 66.703125 24.078125 
L 66.703125 4.15625 
Q 66.703125 -2.203125 71.96875 -2.203125 
L 81.640625 -2.203125 
Q 87.703125 -2.203125 89.265625 4.546875 
Q 90.53125 11.1875 91.3125 20.5625 
Q 95.609375 18.5 99.21875 17.4375 
Q 98.046875 8.34375 96.578125 1.609375 
Q 94.046875 -9.625 82.8125 -9.625 
L 70.40625 -9.625 
Q 59.078125 -9.625 59.078125 3.859375 
L 59.078125 68.703125 
L 30.671875 68.703125 
Q 28.515625 60.984375 25.78125 53.953125 
L 51.171875 53.953125 
L 51.171875 47.21875 
Q 44.234375 8.9375 8.5 -12.9375 
Q 5.671875 -9.625 2.828125 -6.984375 
Q 20.40625 3.65625 30.171875 16.84375 
Q 23.046875 22.796875 16.21875 27.78125 
L 20.3125 33.734375 
Q 27.546875 28.46875 34.46875 23.1875 
Q 41.109375 34.234375 43.5625 47.125 
L 22.953125 47.125 
Q 16.703125 32.953125 6.546875 20.75 
Q 3.8125 24.46875 1.65625 26.90625 
Q 16.609375 45.359375 22.75 68.703125 
L 3.90625 68.703125 
z
" id="MicrosoftYaHei-27515"/>
       <path d="M 1.953125 63.421875 
L 97.953125 63.421875 
L 97.953125 55.71875 
L 25.09375 55.71875 
L 25.09375 0.4375 
L 93.359375 0.4375 
L 93.359375 -6.984375 
L 16.40625 -6.984375 
L 16.40625 55.71875 
L 1.953125 55.71875 
z
M 41.796875 78.859375 
L 48.25 83.25 
Q 55.46875 74.5625 59.46875 69 
L 52.34375 63.8125 
Q 46.6875 72.609375 41.796875 78.859375 
z
" id="MicrosoftYaHei-20129"/>
      </defs>
      <use xlink:href="#MicrosoftYaHei-26032"/>
      <use x="100" xlink:href="#MicrosoftYaHei-22686"/>
      <use x="200" xlink:href="#MicrosoftYaHei-27515"/>
      <use x="300" xlink:href="#MicrosoftYaHei-20129"/>
     </g>
    </g>
   </g>
   <g id="line2d_13">
    <path clip-path="url(#p4de90e474e)" d="M 69.218182 242.116364 
L 137.945455 242.116364 
L 139.909091 241.916411 
L 143.836364 242.036383 
L 145.8 241.996392 
L 147.763636 242.116364 
L 149.727273 241.916411 
L 151.690909 242.036383 
L 153.654545 241.916411 
L 155.618182 241.916411 
L 157.581818 242.116364 
L 159.545455 241.79644 
L 161.509091 242.036383 
L 163.472727 241.356545 
L 165.436364 241.876421 
L 167.4 241.156593 
L 169.363636 241.396536 
L 171.327273 240.316794 
L 173.290909 239.91689 
L 175.254545 240.036861 
L 177.218182 238.917129 
L 179.181818 236.797636 
L 181.145455 237.317511 
L 183.109091 233.758362 
L 185.072727 232.198735 
L 187.036364 232.278716 
L 189 225.560323 
L 190.963636 222.880964 
L 192.927273 229.079481 
L 194.890909 216.002609 
L 196.854545 205.685076 
L 198.818182 199.886463 
L 200.781818 204.885267 
L 202.745455 198.326836 
L 204.709091 188.529179 
L 206.672727 196.087371 
L 208.636364 188.569169 
L 210.6 165.374716 
L 212.563636 165.414707 
L 214.527273 165.894592 
L 216.490909 160.335921 
L 218.454545 167.5342 
L 220.418182 182.130709 
L 222.381818 181.810786 
L 224.345455 145.939364 
L 226.309091 44.443636 
L 228.272727 149.498513 
L 230.236364 91.51238 
L 232.2 161.695596 
L 234.163636 177.851732 
L 236.127273 171.893157 
L 238.090909 134.462109 
L 240.054545 174.612507 
L 242.018182 114.4269 
L 243.981818 160.855797 
L 245.945455 164.614898 
L 247.909091 204.925258 
L 249.872727 183.930279 
L 251.836364 158.736304 
L 253.8 136.061726 
L 255.763636 166.294496 
L 257.727273 153.137643 
L 259.690909 196.487276 
L 261.654545 190.088806 
L 263.618182 186.409686 
L 265.581818 159.216189 
L 267.545455 145.57945 
L 269.509091 157.976485 
L 271.472727 177.731761 
L 273.436364 178.851493 
L 275.4 212.363479 
L 277.363636 190.48871 
L 281.290909 168.054075 
L 283.254545 175.692249 
L 285.218182 173.212842 
L 287.181818 197.567017 
L 289.145455 209.124254 
L 291.109091 210.283976 
L 293.072727 182.570604 
L 295.036364 242.116364 
L 297 129.823218 
L 298.963636 188.009303 
L 300.927273 199.446568 
L 302.890909 216.322532 
L 304.854545 222.121145 
L 306.818182 208.964292 
L 308.781818 184.01026 
L 310.745455 196.92717 
L 312.709091 194.12784 
L 314.672727 204.24542 
L 316.636364 218.84193 
L 318.6 211.843603 
L 320.563636 201.885985 
L 322.527273 200.646281 
L 324.490909 203.085698 
L 326.454545 201.965965 
L 328.418182 218.282064 
L 330.381818 214.003087 
L 332.345455 218.801939 
L 334.309091 202.285889 
L 336.272727 204.325401 
L 338.236364 210.843842 
L 340.2 203.565583 
L 342.163636 215.162809 
L 344.127273 230.239204 
L 346.090909 227.11995 
L 348.054545 206.08498 
L 350.018182 214.243029 
L 351.981818 213.843125 
L 353.945455 214.28302 
L 355.909091 217.602226 
L 357.872727 231.998783 
L 359.836364 223.960705 
L 361.8 209.004282 
L 363.763636 212.48345 
L 365.727273 145.979354 
L 367.690909 217.522245 
L 369.654545 221.321337 
L 371.618182 232.758602 
L 373.581818 92.072246 
L 373.581818 92.072246 
" style="fill:none;stroke:#4c72b0;stroke-linecap:round;stroke-width:1.5;"/>
   </g>
   <g id="line2d_14">
    <path clip-path="url(#p4de90e474e)" d="M 77.072727 242.116364 
L 189 242.076373 
L 190.963636 241.956402 
L 192.927273 242.076373 
L 194.890909 241.79644 
L 200.781818 241.956402 
L 202.745455 241.75645 
L 204.709091 242.036383 
L 206.672727 242.036383 
L 208.636364 241.676469 
L 210.6 241.916411 
L 212.563636 241.596488 
L 214.527273 241.396536 
L 216.490909 241.636478 
L 218.454545 241.156593 
L 220.418182 241.396536 
L 224.345455 240.996631 
L 228.272727 240.476756 
L 230.236364 240.516746 
L 232.2 240.196823 
L 234.163636 240.356784 
L 238.090909 239.836909 
L 240.054545 240.436765 
L 242.018182 239.716937 
L 243.981818 239.476995 
L 245.945455 239.476995 
L 247.909091 240.236813 
L 249.872727 239.197062 
L 251.836364 237.917368 
L 255.763636 238.277282 
L 257.727273 239.996871 
L 259.690909 239.796918 
L 263.618182 238.317272 
L 265.581818 238.677186 
L 267.545455 238.597205 
L 269.509091 238.197301 
L 271.472727 237.957358 
L 273.436364 238.597205 
L 275.4 238.357263 
L 277.363636 237.837387 
L 279.327273 238.277282 
L 281.290909 238.397253 
L 283.254545 237.597444 
L 285.218182 237.357502 
L 287.181818 238.357263 
L 289.145455 238.477234 
L 291.109091 237.517463 
L 293.072727 236.717655 
L 295.036364 242.116364 
L 297 231.039013 
L 298.963636 236.557693 
L 300.927273 235.997827 
L 302.890909 238.437243 
L 304.854545 235.158028 
L 306.818182 235.677903 
L 308.781818 235.158028 
L 310.745455 232.838582 
L 312.709091 234.878095 
L 314.672727 236.597683 
L 316.636364 235.637913 
L 318.6 234.838104 
L 320.563636 234.998066 
L 322.527273 235.35798 
L 324.490909 236.357741 
L 326.454545 234.238248 
L 328.418182 236.757645 
L 330.381818 237.637435 
L 332.345455 235.277999 
L 334.309091 233.478429 
L 336.272727 235.158028 
L 338.236364 234.798114 
L 340.2 237.557454 
L 342.163636 237.357502 
L 344.127273 236.397731 
L 346.090909 234.398209 
L 348.054545 234.358219 
L 350.018182 234.838104 
L 351.981818 234.878095 
L 353.945455 235.677903 
L 355.909091 237.757406 
L 357.872727 238.317272 
L 359.836364 235.997827 
L 361.8 235.957836 
L 363.763636 238.437243 
L 365.727273 235.078047 
L 367.690909 234.598162 
L 369.654545 237.957358 
L 371.618182 238.397253 
L 373.581818 235.957836 
L 373.581818 235.957836 
" style="fill:none;stroke:#dd8452;stroke-linecap:round;stroke-width:1.5;"/>
   </g>
   <g id="line2d_15">
    <path clip-path="url(#p4de90e474e)" d="M 77.072727 242.116364 
L 153.654545 242.116364 
L 155.618182 241.956402 
L 157.581818 242.116364 
L 161.509091 242.116364 
L 163.472727 241.516507 
L 165.436364 241.556498 
L 167.4 241.276564 
L 169.363636 241.956402 
L 171.327273 240.356784 
L 173.290909 240.516746 
L 175.254545 240.796679 
L 177.218182 239.876899 
L 179.181818 240.196823 
L 181.145455 239.95688 
L 183.109091 238.637196 
L 185.072727 240.396775 
L 187.036364 230.359175 
L 189 231.71885 
L 190.963636 233.758362 
L 192.927273 234.918085 
L 194.890909 226.880007 
L 196.854545 219.601748 
L 198.818182 219.361805 
L 200.781818 214.762905 
L 202.745455 213.803135 
L 204.709091 217.282303 
L 206.672727 202.925736 
L 208.636364 232.318707 
L 210.6 242.116364 
L 212.563636 204.605334 
L 214.527273 206.884789 
L 216.490909 166.254506 
L 218.454545 212.643412 
L 220.418182 213.443221 
L 222.381818 211.003804 
L 224.345455 211.683642 
L 226.309091 207.684598 
L 228.272727 208.244464 
L 230.236364 206.604856 
L 232.2 218.282064 
L 234.163636 224.160658 
L 236.127273 209.004282 
L 238.090909 211.603661 
L 240.054545 216.602465 
L 242.018182 211.403708 
L 243.981818 209.604139 
L 247.909091 242.116364 
L 249.872727 227.719807 
L 251.836364 218.681968 
L 253.8 65.398625 
L 255.763636 215.162809 
L 257.727273 212.563431 
L 259.690909 217.282303 
L 261.654545 229.519376 
L 263.618182 230.599118 
L 265.581818 214.402991 
L 267.545455 216.16257 
L 269.509091 220.561518 
L 271.472727 217.08235 
L 273.436364 217.562236 
L 275.4 233.718372 
L 277.363636 217.04236 
L 279.327273 222.361088 
L 281.290909 225.000457 
L 283.254545 226.760036 
L 285.218182 223.400839 
L 287.181818 242.116364 
L 289.145455 235.317989 
L 291.109091 235.717894 
L 293.072727 220.321576 
L 295.036364 242.116364 
L 297 200.046425 
L 298.963636 230.839061 
L 300.927273 242.116364 
L 302.890909 237.397492 
L 304.854545 231.918802 
L 306.818182 225.640304 
L 308.781818 242.116364 
L 310.745455 227.039969 
L 312.709091 220.561518 
L 314.672727 237.597444 
L 316.636364 242.116364 
L 318.6 206.92478 
L 320.563636 227.759797 
L 322.527273 242.116364 
L 324.490909 220.801461 
L 326.454545 233.958315 
L 328.418182 242.116364 
L 330.381818 236.837626 
L 332.345455 242.116364 
L 334.309091 220.881442 
L 336.272727 236.077808 
L 338.236364 242.116364 
L 340.2 226.800026 
L 342.163636 240.676708 
L 344.127273 242.116364 
L 346.090909 240.596727 
L 348.054545 225.440352 
L 350.018182 242.116364 
L 351.981818 236.717655 
L 353.945455 230.079242 
L 355.909091 240.396775 
L 357.872727 242.116364 
L 359.836364 241.516507 
L 361.8 230.919041 
L 363.763636 235.957836 
L 365.727273 228.799548 
L 367.690909 242.116364 
L 369.654545 236.677664 
L 371.618182 242.116364 
L 373.581818 234.918085 
L 373.581818 234.918085 
" style="fill:none;stroke:#55a868;stroke-linecap:round;stroke-width:1.5;"/>
   </g>
   <g id="line2d_16"/>
   <g id="line2d_17"/>
   <g id="line2d_18"/>
   <g id="patch_3">
    <path d="M 54 252 
L 54 34.56 
" style="fill:none;stroke:#ffffff;stroke-linecap:square;stroke-linejoin:miter;stroke-width:1.25;"/>
   </g>
   <g id="patch_4">
    <path d="M 388.8 252 
L 388.8 34.56 
" style="fill:none;stroke:#ffffff;stroke-linecap:square;stroke-linejoin:miter;stroke-width:1.25;"/>
   </g>
   <g id="patch_5">
    <path d="M 54 252 
L 388.8 252 
" style="fill:none;stroke:#ffffff;stroke-linecap:square;stroke-linejoin:miter;stroke-width:1.25;"/>
   </g>
   <g id="patch_6">
    <path d="M 54 34.56 
L 388.8 34.56 
" style="fill:none;stroke:#ffffff;stroke-linecap:square;stroke-linejoin:miter;stroke-width:1.25;"/>
   </g>
   <g id="legend_1">
    <g id="patch_7">
     <path d="M 61.7 112.518594 
L 129.9 112.518594 
Q 132.1 112.518594 132.1 110.318594 
L 132.1 42.26 
Q 132.1 40.06 129.9 40.06 
L 61.7 40.06 
Q 59.5 40.06 59.5 42.26 
L 59.5 110.318594 
Q 59.5 112.518594 61.7 112.518594 
z
" style="fill:#eaeaf2;opacity:0.8;stroke:#cccccc;stroke-linejoin:miter;"/>
    </g>
    <g id="text_15">
     <!-- 国家 -->
     <g style="fill:#262626;" transform="translate(83.8 54.0525)scale(0.12 -0.12)">
      <defs>
       <path d="M 7.328125 78.078125 
L 92.78125 78.078125 
L 92.78125 -13.03125 
L 85.25 -13.03125 
L 85.25 -8.15625 
L 14.84375 -8.15625 
L 14.84375 -13.140625 
L 7.328125 -13.140625 
z
M 85.25 71.140625 
L 14.84375 71.140625 
L 14.84375 -1.21875 
L 85.25 -1.21875 
z
M 19.34375 15.765625 
L 46.296875 15.765625 
L 46.296875 35.109375 
L 22.75 35.109375 
L 22.75 41.75 
L 46.296875 41.75 
L 46.296875 54.828125 
L 20.90625 54.828125 
L 20.90625 61.46875 
L 79.109375 61.46875 
L 79.109375 54.828125 
L 53.515625 54.828125 
L 53.515625 41.75 
L 77.15625 41.75 
L 77.15625 35.109375 
L 53.515625 35.109375 
L 53.515625 15.765625 
L 80.671875 15.765625 
L 80.671875 9.125 
L 19.34375 9.125 
z
M 58.59375 28.859375 
L 64.0625 32.953125 
Q 69.4375 27.390625 73.25 22.515625 
L 67.484375 18.109375 
Q 62.796875 24.46875 58.59375 28.859375 
z
" id="MicrosoftYaHei-22269"/>
       <path d="M 3.03125 -3.265625 
Q 32.515625 5.171875 50 24.3125 
Q 48.640625 27.15625 46.828125 29.734375 
Q 32.28125 14.703125 6.640625 6.59375 
Q 5.171875 9.90625 3.125 13.234375 
Q 28.265625 20.171875 42.234375 35.25 
Q 40.625 36.859375 38.71875 38.421875 
Q 25.78125 29.25 6.9375 23.390625 
Q 5.078125 26.609375 2.546875 30.328125 
Q 25.828125 35.5 39.84375 47.703125 
L 15.234375 47.703125 
L 15.234375 54.734375 
L 84.96875 54.734375 
L 84.96875 47.703125 
L 49.515625 47.703125 
Q 47.015625 45.0625 44.140625 42.625 
Q 51.8125 36.421875 56.0625 28.765625 
Q 71.34375 36.234375 83.203125 44.09375 
L 87.796875 37.84375 
Q 79.828125 33.0625 70.84375 28.375 
Q 79.5 9.625 98.921875 2.203125 
Q 95.703125 -1.515625 92.875 -5.421875 
Q 73.78125 4.34375 64.546875 25.140625 
Q 61.765625 23.78125 58.890625 22.359375 
Q 64.453125 1.609375 57.125 -7.859375 
Q 53.609375 -12.0625 43.65625 -12.0625 
Q 39.75 -12.0625 31.34375 -11.765625 
Q 30.765625 -7.953125 29.890625 -3.65625 
Q 37.5 -4.546875 43.453125 -4.546875 
Q 54 -5.125 53.71875 8.15625 
Q 53.5625 12.546875 52.640625 16.609375 
Q 35.359375 -0.4375 6.546875 -10.015625 
Q 5.078125 -6.78125 3.03125 -3.265625 
z
M 5.171875 70.75 
L 49.3125 70.75 
Q 46.4375 75.09375 42.578125 80.03125 
L 49.421875 84.421875 
Q 53.8125 79.046875 57.421875 73.78125 
L 52.4375 70.75 
L 94.734375 70.75 
L 94.734375 54.046875 
L 86.921875 54.046875 
L 86.921875 63.53125 
L 12.984375 63.53125 
L 12.984375 54.046875 
L 5.171875 54.046875 
z
" id="MicrosoftYaHei-23478"/>
      </defs>
      <use xlink:href="#MicrosoftYaHei-22269"/>
      <use x="100" xlink:href="#MicrosoftYaHei-23478"/>
     </g>
    </g>
    <g id="line2d_19">
     <path d="M 63.9 67.47875 
L 85.9 67.47875 
" style="fill:none;stroke:#4c72b0;stroke-linecap:round;stroke-width:1.5;"/>
    </g>
    <g id="line2d_20"/>
    <g id="text_16">
     <!-- 美国 -->
     <g style="fill:#262626;" transform="translate(94.7 71.32875)scale(0.11 -0.11)">
      <defs>
       <path d="M 2.34375 37.546875 
L 46.1875 37.546875 
L 46.1875 46.734375 
L 10.359375 46.734375 
L 10.359375 53.375 
L 46.1875 53.375 
L 46.1875 62.359375 
L 4.5 62.359375 
L 4.5 69 
L 35.296875 69 
Q 30.28125 73.34375 22.265625 79.4375 
L 26.765625 84.328125 
Q 35.25 78.5625 40.921875 74.265625 
L 35.75 69 
L 61.71875 69 
L 58.109375 73.09375 
Q 65.828125 78.46875 72.078125 83.9375 
L 77.828125 78.46875 
Q 71.578125 73.78125 64.3125 69 
L 96.09375 69 
L 96.09375 62.359375 
L 54.203125 62.359375 
L 54.203125 53.375 
L 90.828125 53.375 
L 90.828125 46.734375 
L 54.203125 46.734375 
L 54.203125 37.546875 
L 97.859375 37.546875 
L 97.859375 30.90625 
L 2.34375 30.90625 
z
M 98.640625 -4.734375 
Q 94.921875 -9.71875 92.96875 -12.84375 
Q 60.890625 -6.546875 50.25 12.546875 
Q 40.71875 -7.625 6.34375 -13.625 
Q 4.390625 -10.296875 1.5625 -6.203125 
Q 34.375 -1.65625 42.828125 14.3125 
L 3.71875 14.3125 
L 3.71875 20.953125 
L 45.515625 20.953125 
Q 46.484375 24.359375 47.078125 28.765625 
L 55.078125 28.765625 
Q 54.296875 24.46875 53.328125 20.953125 
L 96.875 20.953125 
L 96.875 14.3125 
L 56.734375 14.3125 
Q 68.171875 -2.15625 98.640625 -4.734375 
z
" id="MicrosoftYaHei-32654"/>
      </defs>
      <use xlink:href="#MicrosoftYaHei-32654"/>
      <use x="100" xlink:href="#MicrosoftYaHei-22269"/>
     </g>
    </g>
    <g id="line2d_21">
     <path d="M 63.9 84.506406 
L 85.9 84.506406 
" style="fill:none;stroke:#dd8452;stroke-linecap:round;stroke-width:1.5;"/>
    </g>
    <g id="line2d_22"/>
    <g id="text_17">
     <!-- 俄罗斯 -->
     <g style="fill:#262626;" transform="translate(94.7 88.356406)scale(0.11 -0.11)">
      <defs>
       <path d="M 51.265625 2.203125 
Q 61.234375 7.375 69.234375 14.203125 
Q 66.609375 27.09375 65.671875 45.953125 
L 47.75 45.953125 
L 47.75 29.734375 
Q 54.390625 31.296875 61.71875 33.0625 
Q 62.015625 28.953125 62.40625 25.828125 
Q 54.546875 23.875 47.75 22.21875 
L 47.75 1.3125 
Q 47.75 -6 45.40625 -8.453125 
Q 42.96875 -11.078125 36.03125 -11.1875 
Q 31.546875 -11.28125 26.5625 -10.984375 
Q 26.171875 -6.6875 25 -2.984375 
Q 30.765625 -3.859375 34.859375 -3.859375 
Q 38.1875 -3.859375 39.359375 -2.78125 
Q 40.328125 -1.90625 40.328125 1.703125 
L 40.328125 20.359375 
Q 31.78125 18.21875 25.296875 16.546875 
L 23.046875 24.359375 
Q 30.953125 25.984375 40.328125 28.03125 
L 40.328125 45.953125 
L 23.640625 45.953125 
L 23.640625 52.984375 
L 40.328125 52.984375 
L 40.328125 66.703125 
Q 34.28125 65.765625 28.515625 65.09375 
Q 27.828125 68.40625 26.46875 72.125 
Q 41.796875 73.578125 59.578125 77.6875 
L 61.8125 70.65625 
Q 54.59375 69.140625 47.75 67.921875 
L 47.75 52.984375 
L 65.375 52.984375 
Q 64.984375 66.015625 64.84375 83.0625 
L 72.5625 83.0625 
Q 72.3125 67.390625 72.796875 52.984375 
L 98.640625 52.984375 
L 98.640625 45.953125 
L 73.046875 45.953125 
Q 73.828125 30.515625 75.484375 20.0625 
Q 83.9375 28.859375 89.65625 39.890625 
L 96.484375 36.1875 
Q 88.875 22.21875 77.25 11.421875 
Q 80.28125 -0.140625 85.15625 -3.46875 
Q 88.765625 -5.71875 89.9375 -0.640625 
Q 91.015625 5.21875 91.609375 13.421875 
Q 95.515625 11.578125 98.734375 10.6875 
Q 97.859375 2.875 96.6875 -2.6875 
Q 94.53125 -12.546875 88.28125 -12.546875 
Q 80.859375 -12.546875 75.6875 -3.859375 
Q 73.1875 0.203125 71.296875 6.25 
Q 64.3125 0.6875 56.0625 -3.859375 
Q 54.109375 -0.921875 51.265625 2.203125 
z
M 0.875 37.359375 
Q 14.9375 59.421875 20.3125 83.15625 
L 27.640625 81.6875 
Q 24.078125 68.75 19.234375 57.28125 
L 19.234375 -13.421875 
L 12.5 -13.421875 
L 12.5 43.171875 
Q 8.59375 35.9375 4.109375 29.34375 
Q 2.734375 33.15625 0.875 37.359375 
z
M 76.953125 73.296875 
L 81.546875 77.984375 
Q 88.484375 72.21875 95.609375 65.578125 
L 90.234375 60.109375 
Q 83.890625 67.046875 76.953125 73.296875 
z
" id="MicrosoftYaHei-20420"/>
       <path d="M 7.421875 78.171875 
L 93.0625 78.171875 
L 93.0625 41.84375 
L 85.640625 41.84375 
L 85.640625 45.65625 
L 14.84375 45.65625 
L 14.84375 41.84375 
L 7.421875 41.84375 
z
M 34.578125 45.5625 
L 42.1875 42.4375 
Q 39.0625 38.421875 35.75 34.625 
L 87.796875 34.625 
L 87.796875 27.6875 
Q 65.046875 -7.078125 6.734375 -14.796875 
Q 4.984375 -11.375 2.828125 -7.28125 
Q 28.609375 -4.25 43.65625 2.203125 
Q 35.75 9.125 24.21875 17.828125 
L 29.59375 22.796875 
Q 42.578125 13.53125 51.859375 6 
Q 67.28125 13.8125 78.328125 27.875 
L 29.5 27.875 
Q 20.125 18.609375 7.125 9.125 
Q 4.390625 12.75 2.046875 15.484375 
Q 21.78125 27.59375 34.578125 45.5625 
z
M 85.640625 71.625 
L 66.796875 71.625 
L 66.796875 52.203125 
L 85.640625 52.203125 
z
M 40.828125 52.203125 
L 59.578125 52.203125 
L 59.578125 71.625 
L 40.828125 71.625 
z
M 14.84375 52.203125 
L 33.59375 52.203125 
L 33.59375 71.625 
L 14.84375 71.625 
z
" id="MicrosoftYaHei-32599"/>
       <path d="M 2.046875 19 
L 9.578125 19 
L 9.578125 64.109375 
L 2.734375 64.109375 
L 2.734375 70.75 
L 9.578125 70.75 
L 9.578125 82.375 
L 16.796875 82.375 
L 16.796875 70.75 
L 37.109375 70.75 
L 37.109375 82.375 
L 44.34375 82.375 
L 44.34375 70.75 
L 51.5625 70.75 
L 51.5625 64.109375 
L 44.34375 64.109375 
L 44.34375 19 
L 51.65625 19 
L 51.65625 12.359375 
L 2.046875 12.359375 
z
M 57.03125 74.265625 
Q 77.9375 76.3125 93.265625 80.03125 
L 96.296875 72.796875 
Q 80.859375 69.875 64.265625 68.21875 
L 64.265625 47.125 
L 98.046875 47.125 
L 98.046875 40.28125 
L 86.921875 40.28125 
L 86.921875 -12.75 
L 79.6875 -12.75 
L 79.6875 40.28125 
L 64.265625 40.28125 
Q 64.109375 6.6875 52.4375 -12.15625 
Q 49.8125 -9.421875 46.296875 -6.6875 
Q 57.03125 9.625 57.03125 39.59375 
z
M 16.796875 19 
L 37.109375 19 
L 37.109375 29.9375 
L 16.796875 29.9375 
z
M 16.796875 53.265625 
L 37.109375 53.265625 
L 37.109375 64.109375 
L 16.796875 64.109375 
z
M 16.796875 36.1875 
L 37.109375 36.1875 
L 37.109375 47.015625 
L 16.796875 47.015625 
z
M 17.1875 10.109375 
L 23.140625 5.421875 
Q 13.96875 -5.90625 6.546875 -12.640625 
Q 4.5 -10.296875 1.171875 -7.46875 
Q 10.359375 0.640625 17.1875 10.109375 
z
M 30.171875 6.109375 
L 35.25 10.59375 
Q 41.21875 5.125 46.96875 -0.921875 
L 41.40625 -6 
Q 36.140625 0.140625 30.171875 6.109375 
z
" id="MicrosoftYaHei-26031"/>
      </defs>
      <use xlink:href="#MicrosoftYaHei-20420"/>
      <use x="100" xlink:href="#MicrosoftYaHei-32599"/>
      <use x="200" xlink:href="#MicrosoftYaHei-26031"/>
     </g>
    </g>
    <g id="line2d_23">
     <path d="M 63.9 101.534062 
L 85.9 101.534062 
" style="fill:none;stroke:#55a868;stroke-linecap:round;stroke-width:1.5;"/>
    </g>
    <g id="line2d_24"/>
    <g id="text_18">
     <!-- 英国 -->
     <g style="fill:#262626;" transform="translate(94.7 105.384062)scale(0.11 -0.11)">
      <defs>
       <path d="M 2.25 24.5625 
L 14.546875 24.5625 
L 14.546875 50.34375 
L 46.34375 50.34375 
Q 46.34375 54.890625 46.296875 59.90625 
L 54.109375 59.90625 
Q 54.109375 54.890625 54.046875 50.34375 
L 85.453125 50.34375 
L 85.453125 24.5625 
L 98.140625 24.5625 
L 98.140625 17.71875 
L 55.8125 17.71875 
Q 67.1875 -1.421875 98.734375 -4.34375 
Q 95.40625 -8.640625 93.0625 -12.25 
Q 60.109375 -5.671875 50.140625 15.046875 
Q 42.71875 -2.484375 6.9375 -13.71875 
Q 4.6875 -10.5 1.375 -6.59375 
Q 35.75 2.34375 43.703125 17.71875 
L 2.25 17.71875 
z
M 2.734375 71.734375 
L 28.328125 71.734375 
L 28.328125 83.25 
L 35.9375 83.25 
L 35.9375 71.734375 
L 64.265625 71.734375 
L 64.265625 83.25 
L 71.875 83.25 
L 71.875 71.734375 
L 97.65625 71.734375 
L 97.65625 64.890625 
L 71.875 64.890625 
L 71.875 56 
L 64.265625 56 
L 64.265625 64.890625 
L 35.9375 64.890625 
L 35.9375 56 
L 28.328125 56 
L 28.328125 64.890625 
L 2.734375 64.890625 
z
M 46.296875 43.703125 
L 22.171875 43.703125 
L 22.171875 24.5625 
L 45.84375 24.5625 
Q 46.1875 32.328125 46.296875 43.703125 
z
M 53.609375 24.5625 
L 77.828125 24.5625 
L 77.828125 43.703125 
L 54 43.703125 
Q 53.90625 32.375 53.609375 24.5625 
z
" id="MicrosoftYaHei-33521"/>
      </defs>
      <use xlink:href="#MicrosoftYaHei-33521"/>
      <use x="100" xlink:href="#MicrosoftYaHei-22269"/>
     </g>
    </g>
   </g>
  </g>
 </g>
 <defs>
  <clipPath id="p4de90e474e">
   <rect height="217.44" width="334.8" x="54" y="34.56"/>
  </clipPath>
 </defs>
</svg>
