<?xml version="1.0" encoding="utf-8" standalone="no"?>
<!DOCTYPE svg PUBLIC "-//W3C//DTD SVG 1.1//EN"
  "http://www.w3.org/Graphics/SVG/1.1/DTD/svg11.dtd">
<!-- Created with matplotlib (https://matplotlib.org/) -->
<svg height="288pt" version="1.1" viewBox="0 0 432 288" width="432pt" xmlns="http://www.w3.org/2000/svg" xmlns:xlink="http://www.w3.org/1999/xlink">
 <metadata>
  <rdf:RDF xmlns:cc="http://creativecommons.org/ns#" xmlns:dc="http://purl.org/dc/elements/1.1/" xmlns:rdf="http://www.w3.org/1999/02/22-rdf-syntax-ns#">
   <cc:Work>
    <dc:type rdf:resource="http://purl.org/dc/dcmitype/StillImage"/>
    <dc:date>2020-11-15T16:56:33.532663</dc:date>
    <dc:format>image/svg+xml</dc:format>
    <dc:creator>
     <cc:Agent>
      <dc:title>Matplotlib v3.3.2, https://matplotlib.org/</dc:title>
     </cc:Agent>
    </dc:creator>
   </cc:Work>
  </rdf:RDF>
 </metadata>
 <defs>
  <style type="text/css">*{stroke-linecap:butt;stroke-linejoin:round;}</style>
 </defs>
 <g id="figure_1">
  <g id="patch_1">
   <path d="M 0 288 
L 432 288 
L 432 0 
L 0 0 
z
" style="fill:#ffffff;"/>
  </g>
  <g id="axes_1">
   <g id="patch_2">
    <path d="M 54 252 
L 388.8 252 
L 388.8 34.56 
L 54 34.56 
z
" style="fill:#eaeaf2;"/>
   </g>
   <g id="matplotlib.axis_1">
    <g id="xtick_1">
     <g id="line2d_1">
      <path clip-path="url(#p8a01b7f9da)" d="M 79.036364 252 
L 79.036364 34.56 
" style="fill:none;stroke:#ffffff;stroke-linecap:round;"/>
     </g>
     <g id="text_1">
      <!-- 2020-02 -->
      <g style="fill:#262626;" transform="translate(57.305348 270.293125)scale(0.11 -0.11)">
       <defs>
        <path d="M 41.65625 55.8125 
Q 41.65625 61.921875 37.796875 65.40625 
Q 33.9375 68.890625 27.296875 68.890625 
Q 22.609375 68.890625 17.8125 66.5 
Q 13.03125 64.109375 8.890625 59.671875 
L 8.890625 68.953125 
Q 12.59375 72.796875 17.296875 74.84375 
Q 22.015625 76.90625 28.375 76.90625 
Q 38.625 76.90625 44.875 71.40625 
Q 51.125 65.921875 51.125 56.546875 
Q 51.125 48.1875 47.28125 42.078125 
Q 43.453125 35.984375 34.1875 29.59375 
Q 24.703125 23.046875 21.5 20.21875 
Q 18.3125 17.390625 17.03125 14.796875 
Q 15.765625 12.203125 15.765625 8.5 
L 53.375 8.5 
L 53.375 0 
L 5.8125 0 
L 5.8125 3.765625 
Q 5.8125 10.296875 7.59375 14.859375 
Q 9.375 19.4375 13.46875 23.75 
Q 17.578125 28.078125 26.265625 34.125 
Q 35.15625 40.375 38.40625 45.09375 
Q 41.65625 49.8125 41.65625 55.8125 
z
" id="MicrosoftYaHei-50"/>
        <path d="M 4.4375 36.328125 
Q 4.4375 56.34375 11.078125 66.625 
Q 17.71875 76.90625 30.328125 76.90625 
Q 54.34375 76.90625 54.34375 38.140625 
Q 54.34375 19 47.578125 8.859375 
Q 40.828125 -1.265625 28.609375 -1.265625 
Q 17.09375 -1.265625 10.765625 8.34375 
Q 4.4375 17.96875 4.4375 36.328125 
z
M 14.203125 36.765625 
Q 14.203125 6.640625 29.5 6.640625 
Q 44.53125 6.640625 44.53125 37.25 
Q 44.53125 68.953125 29.78125 68.953125 
Q 14.203125 68.953125 14.203125 36.765625 
z
" id="MicrosoftYaHei-48"/>
        <path d="M 36.375 26.265625 
L 7.625 26.265625 
L 7.625 33.640625 
L 36.375 33.640625 
z
" id="MicrosoftYaHei-45"/>
       </defs>
       <use xlink:href="#MicrosoftYaHei-50"/>
       <use x="58.642578" xlink:href="#MicrosoftYaHei-48"/>
       <use x="117.285156" xlink:href="#MicrosoftYaHei-50"/>
       <use x="175.927734" xlink:href="#MicrosoftYaHei-48"/>
       <use x="234.570312" xlink:href="#MicrosoftYaHei-45"/>
       <use x="277.832031" xlink:href="#MicrosoftYaHei-48"/>
       <use x="336.474609" xlink:href="#MicrosoftYaHei-50"/>
      </g>
     </g>
    </g>
    <g id="xtick_2">
     <g id="line2d_2">
      <path clip-path="url(#p8a01b7f9da)" d="M 135.981818 252 
L 135.981818 34.56 
" style="fill:none;stroke:#ffffff;stroke-linecap:round;"/>
     </g>
     <g id="text_2">
      <!-- 2020-03 -->
      <g style="fill:#262626;" transform="translate(114.250803 270.293125)scale(0.11 -0.11)">
       <defs>
        <path d="M 6.984375 12.640625 
Q 14.75 6.640625 24.515625 6.640625 
Q 32.328125 6.640625 36.890625 10.46875 
Q 41.453125 14.3125 41.453125 20.75 
Q 41.453125 35.109375 20.90625 35.109375 
L 14.59375 35.109375 
L 14.59375 43.015625 
L 20.609375 43.015625 
Q 38.8125 43.015625 38.8125 56.5 
Q 38.8125 68.953125 24.90625 68.953125 
Q 16.9375 68.953125 9.90625 63.578125 
L 9.90625 72.609375 
Q 17.328125 76.90625 27.25 76.90625 
Q 36.921875 76.90625 42.78125 71.84375 
Q 48.640625 66.796875 48.640625 58.734375 
Q 48.640625 43.890625 33.5 39.65625 
L 33.5 39.453125 
Q 41.703125 38.578125 46.453125 33.671875 
Q 51.21875 28.765625 51.21875 21.4375 
Q 51.21875 11.234375 43.875 4.984375 
Q 36.53125 -1.265625 24.3125 -1.265625 
Q 13.578125 -1.265625 6.984375 2.734375 
z
" id="MicrosoftYaHei-51"/>
       </defs>
       <use xlink:href="#MicrosoftYaHei-50"/>
       <use x="58.642578" xlink:href="#MicrosoftYaHei-48"/>
       <use x="117.285156" xlink:href="#MicrosoftYaHei-50"/>
       <use x="175.927734" xlink:href="#MicrosoftYaHei-48"/>
       <use x="234.570312" xlink:href="#MicrosoftYaHei-45"/>
       <use x="277.832031" xlink:href="#MicrosoftYaHei-48"/>
       <use x="336.474609" xlink:href="#MicrosoftYaHei-51"/>
      </g>
     </g>
    </g>
    <g id="xtick_3">
     <g id="line2d_3">
      <path clip-path="url(#p8a01b7f9da)" d="M 196.854545 252 
L 196.854545 34.56 
" style="fill:none;stroke:#ffffff;stroke-linecap:round;"/>
     </g>
     <g id="text_3">
      <!-- 2020-04 -->
      <g style="fill:#262626;" transform="translate(175.12353 270.293125)scale(0.11 -0.11)">
       <defs>
        <path d="M 45.40625 75.640625 
L 45.40625 25.6875 
L 56.734375 25.6875 
L 56.734375 17.78125 
L 45.40625 17.78125 
L 45.40625 0 
L 36.140625 0 
L 36.140625 17.78125 
L 0.828125 17.78125 
L 0.828125 25.25 
Q 10.25 35.84375 19.765625 49.65625 
Q 29.296875 63.484375 35.5 75.640625 
z
M 11.578125 25.6875 
L 36.140625 25.6875 
L 36.140625 61.71875 
Q 31.0625 52.59375 25.25 44.015625 
Q 19.4375 35.453125 11.578125 25.6875 
z
" id="MicrosoftYaHei-52"/>
       </defs>
       <use xlink:href="#MicrosoftYaHei-50"/>
       <use x="58.642578" xlink:href="#MicrosoftYaHei-48"/>
       <use x="117.285156" xlink:href="#MicrosoftYaHei-50"/>
       <use x="175.927734" xlink:href="#MicrosoftYaHei-48"/>
       <use x="234.570312" xlink:href="#MicrosoftYaHei-45"/>
       <use x="277.832031" xlink:href="#MicrosoftYaHei-48"/>
       <use x="336.474609" xlink:href="#MicrosoftYaHei-52"/>
      </g>
     </g>
    </g>
    <g id="xtick_4">
     <g id="line2d_4">
      <path clip-path="url(#p8a01b7f9da)" d="M 255.763636 252 
L 255.763636 34.56 
" style="fill:none;stroke:#ffffff;stroke-linecap:round;"/>
     </g>
     <g id="text_4">
      <!-- 2020-05 -->
      <g style="fill:#262626;" transform="translate(234.032621 270.293125)scale(0.11 -0.11)">
       <defs>
        <path d="M 51.46875 23.34375 
Q 51.46875 12.25 44.109375 5.46875 
Q 36.765625 -1.3125 24.359375 -1.3125 
Q 13.71875 -1.3125 8.5 1.859375 
L 8.5 11.625 
Q 16.15625 6.640625 24.125 6.640625 
Q 32.03125 6.640625 36.890625 11 
Q 41.75 15.375 41.75 22.609375 
Q 41.75 29.828125 36.6875 33.859375 
Q 31.640625 37.890625 22.40625 37.890625 
Q 15.28125 37.890625 9.578125 37.25 
L 12.359375 75.640625 
L 47.703125 75.640625 
L 47.703125 67.234375 
L 20.40625 67.234375 
L 18.84375 45.796875 
L 25.734375 46.09375 
Q 37.75 46.09375 44.609375 40.109375 
Q 51.46875 34.125 51.46875 23.34375 
z
" id="MicrosoftYaHei-53"/>
       </defs>
       <use xlink:href="#MicrosoftYaHei-50"/>
       <use x="58.642578" xlink:href="#MicrosoftYaHei-48"/>
       <use x="117.285156" xlink:href="#MicrosoftYaHei-50"/>
       <use x="175.927734" xlink:href="#MicrosoftYaHei-48"/>
       <use x="234.570312" xlink:href="#MicrosoftYaHei-45"/>
       <use x="277.832031" xlink:href="#MicrosoftYaHei-48"/>
       <use x="336.474609" xlink:href="#MicrosoftYaHei-53"/>
      </g>
     </g>
    </g>
    <g id="xtick_5">
     <g id="line2d_5">
      <path clip-path="url(#p8a01b7f9da)" d="M 316.636364 252 
L 316.636364 34.56 
" style="fill:none;stroke:#ffffff;stroke-linecap:round;"/>
     </g>
     <g id="text_5">
      <!-- 2020-06 -->
      <g style="fill:#262626;" transform="translate(294.905348 270.293125)scale(0.11 -0.11)">
       <defs>
        <path d="M 49.703125 65.921875 
Q 43.796875 68.953125 37.359375 68.953125 
Q 27.546875 68.953125 21.578125 60.40625 
Q 15.625 51.859375 15.53125 37.0625 
L 15.765625 37.0625 
Q 21.140625 47.46875 32.90625 47.46875 
Q 42.71875 47.46875 48.578125 41.0625 
Q 54.4375 34.671875 54.4375 24.078125 
Q 54.4375 12.984375 47.671875 5.859375 
Q 40.921875 -1.265625 30.421875 -1.265625 
Q 18.890625 -1.265625 12.328125 7.734375 
Q 5.765625 16.75 5.765625 33.296875 
Q 5.765625 53.328125 14.375 65.109375 
Q 23 76.90625 37.0625 76.90625 
Q 45.125 76.90625 49.703125 74.703125 
z
M 16.109375 24.75 
Q 16.109375 17.28125 20.09375 11.953125 
Q 24.078125 6.640625 30.671875 6.640625 
Q 36.921875 6.640625 40.828125 11.234375 
Q 44.734375 15.828125 44.734375 23.046875 
Q 44.734375 30.859375 41.046875 35.203125 
Q 37.359375 39.546875 30.5625 39.546875 
Q 24.125 39.546875 20.109375 35.15625 
Q 16.109375 30.765625 16.109375 24.75 
z
" id="MicrosoftYaHei-54"/>
       </defs>
       <use xlink:href="#MicrosoftYaHei-50"/>
       <use x="58.642578" xlink:href="#MicrosoftYaHei-48"/>
       <use x="117.285156" xlink:href="#MicrosoftYaHei-50"/>
       <use x="175.927734" xlink:href="#MicrosoftYaHei-48"/>
       <use x="234.570312" xlink:href="#MicrosoftYaHei-45"/>
       <use x="277.832031" xlink:href="#MicrosoftYaHei-48"/>
       <use x="336.474609" xlink:href="#MicrosoftYaHei-54"/>
      </g>
     </g>
    </g>
    <g id="xtick_6">
     <g id="line2d_6">
      <path clip-path="url(#p8a01b7f9da)" d="M 375.545455 252 
L 375.545455 34.56 
" style="fill:none;stroke:#ffffff;stroke-linecap:round;"/>
     </g>
     <g id="text_6">
      <!-- 2020-07 -->
      <g style="fill:#262626;" transform="translate(353.814439 270.293125)scale(0.11 -0.11)">
       <defs>
        <path d="M 53.46875 69.734375 
Q 41.546875 48.921875 34.734375 31.21875 
Q 27.9375 13.53125 26.3125 0 
L 16.359375 0 
Q 18.171875 13.328125 24.90625 30.421875 
Q 31.640625 47.515625 42.921875 67.1875 
L 5.421875 67.1875 
L 5.421875 75.640625 
L 53.46875 75.640625 
z
" id="MicrosoftYaHei-55"/>
       </defs>
       <use xlink:href="#MicrosoftYaHei-50"/>
       <use x="58.642578" xlink:href="#MicrosoftYaHei-48"/>
       <use x="117.285156" xlink:href="#MicrosoftYaHei-50"/>
       <use x="175.927734" xlink:href="#MicrosoftYaHei-48"/>
       <use x="234.570312" xlink:href="#MicrosoftYaHei-45"/>
       <use x="277.832031" xlink:href="#MicrosoftYaHei-48"/>
       <use x="336.474609" xlink:href="#MicrosoftYaHei-55"/>
      </g>
     </g>
    </g>
    <g id="text_7">
     <!-- 日期 -->
     <g style="fill:#262626;" transform="translate(209.4 286.620156)scale(0.12 -0.12)">
      <defs>
       <path d="M 15.234375 76.703125 
L 84.859375 76.703125 
L 84.859375 -11.96875 
L 76.5625 -11.96875 
L 76.5625 -5.03125 
L 23.53125 -5.03125 
L 23.53125 -11.96875 
L 15.234375 -11.96875 
z
M 23.53125 32.859375 
L 23.53125 2.09375 
L 76.5625 2.09375 
L 76.5625 32.859375 
z
M 23.53125 69.390625 
L 23.53125 40.1875 
L 76.5625 40.1875 
L 76.5625 69.390625 
z
" id="MicrosoftYaHei-26085"/>
       <path d="M 58.890625 79.15625 
L 93.453125 79.15625 
L 93.453125 -0.046875 
Q 93.453125 -11.578125 82.515625 -11.578125 
Q 77.046875 -11.578125 71.78125 -11.28125 
Q 71.390625 -8.0625 70.609375 -3.765625 
Q 77.734375 -4.4375 80.859375 -4.4375 
Q 86.234375 -4.4375 86.234375 0.921875 
L 86.234375 21.4375 
L 65.328125 21.4375 
Q 64.265625 0.046875 52.34375 -14.109375 
Q 49.703125 -11.375 46.484375 -8.640625 
Q 54.390625 0.4375 56.546875 10.203125 
Q 58.890625 19.578125 58.890625 42.828125 
z
M 1.953125 17.828125 
L 11.140625 17.828125 
L 11.140625 62.9375 
L 3.125 62.9375 
L 3.125 69.578125 
L 11.140625 69.578125 
L 11.140625 81.5 
L 18.359375 81.5 
L 18.359375 69.578125 
L 38.671875 69.578125 
L 38.671875 81.890625 
L 45.90625 81.890625 
L 45.90625 69.578125 
L 53.8125 69.578125 
L 53.8125 62.9375 
L 45.90625 62.9375 
L 45.90625 17.828125 
L 53.71875 17.828125 
L 53.71875 11.1875 
L 1.953125 11.1875 
z
M 65.765625 27.875 
L 86.234375 27.875 
L 86.234375 47.015625 
L 66.109375 47.015625 
Q 66.21875 34.421875 65.765625 27.875 
z
M 86.234375 72.515625 
L 66.109375 72.515625 
L 66.109375 53.46875 
L 86.234375 53.46875 
z
M 18.359375 17.828125 
L 38.671875 17.828125 
L 38.671875 28.765625 
L 18.359375 28.765625 
z
M 18.359375 35.015625 
L 38.671875 35.015625 
L 38.671875 45.84375 
L 18.359375 45.84375 
z
M 18.359375 52.09375 
L 38.671875 52.09375 
L 38.671875 62.9375 
L 18.359375 62.9375 
z
M 18.359375 9.328125 
L 24.3125 4.640625 
Q 14.453125 -6 6.34375 -13.234375 
Q 4.296875 -10.890625 1.171875 -8.0625 
Q 10.453125 -0.140625 18.359375 9.328125 
z
M 31.15625 4.734375 
L 35.84375 9.515625 
Q 42.671875 4.4375 48.734375 -0.734375 
L 43.5625 -6.296875 
Q 38.09375 -0.828125 31.15625 4.734375 
z
" id="MicrosoftYaHei-26399"/>
      </defs>
      <use xlink:href="#MicrosoftYaHei-26085"/>
      <use x="100" xlink:href="#MicrosoftYaHei-26399"/>
     </g>
    </g>
   </g>
   <g id="matplotlib.axis_2">
    <g id="ytick_1">
     <g id="line2d_7">
      <path clip-path="url(#p8a01b7f9da)" d="M 54 242.116364 
L 388.8 242.116364 
" style="fill:none;stroke:#ffffff;stroke-linecap:round;"/>
     </g>
     <g id="text_8">
      <!-- 0 -->
      <g style="fill:#262626;" transform="translate(38.049531 246.512926)scale(0.11 -0.11)">
       <use xlink:href="#MicrosoftYaHei-48"/>
      </g>
     </g>
    </g>
    <g id="ytick_2">
     <g id="line2d_8">
      <path clip-path="url(#p8a01b7f9da)" d="M 54 213.669333 
L 388.8 213.669333 
" style="fill:none;stroke:#ffffff;stroke-linecap:round;"/>
     </g>
     <g id="text_9">
      <!-- 5000 -->
      <g style="fill:#262626;" transform="translate(18.698125 218.065895)scale(0.11 -0.11)">
       <use xlink:href="#MicrosoftYaHei-53"/>
       <use x="58.642578" xlink:href="#MicrosoftYaHei-48"/>
       <use x="117.285156" xlink:href="#MicrosoftYaHei-48"/>
       <use x="175.927734" xlink:href="#MicrosoftYaHei-48"/>
      </g>
     </g>
    </g>
    <g id="ytick_3">
     <g id="line2d_9">
      <path clip-path="url(#p8a01b7f9da)" d="M 54 185.222302 
L 388.8 185.222302 
" style="fill:none;stroke:#ffffff;stroke-linecap:round;"/>
     </g>
     <g id="text_10">
      <!-- 10000 -->
      <g style="fill:#262626;" transform="translate(12.247656 189.618865)scale(0.11 -0.11)">
       <defs>
        <path d="M 27.828125 0 
L 27.828125 64.703125 
Q 25.59375 62.453125 20.234375 59.671875 
Q 14.890625 56.890625 10.359375 55.765625 
L 10.359375 65.140625 
Q 16.359375 66.796875 23.1875 70.4375 
Q 30.03125 74.078125 33.6875 77.296875 
L 37.3125 77.296875 
L 37.3125 0 
z
" id="MicrosoftYaHei-49"/>
       </defs>
       <use xlink:href="#MicrosoftYaHei-49"/>
       <use x="58.642578" xlink:href="#MicrosoftYaHei-48"/>
       <use x="117.285156" xlink:href="#MicrosoftYaHei-48"/>
       <use x="175.927734" xlink:href="#MicrosoftYaHei-48"/>
       <use x="234.570312" xlink:href="#MicrosoftYaHei-48"/>
      </g>
     </g>
    </g>
    <g id="ytick_4">
     <g id="line2d_10">
      <path clip-path="url(#p8a01b7f9da)" d="M 54 156.775271 
L 388.8 156.775271 
" style="fill:none;stroke:#ffffff;stroke-linecap:round;"/>
     </g>
     <g id="text_11">
      <!-- 15000 -->
      <g style="fill:#262626;" transform="translate(12.247656 161.171834)scale(0.11 -0.11)">
       <use xlink:href="#MicrosoftYaHei-49"/>
       <use x="58.642578" xlink:href="#MicrosoftYaHei-53"/>
       <use x="117.285156" xlink:href="#MicrosoftYaHei-48"/>
       <use x="175.927734" xlink:href="#MicrosoftYaHei-48"/>
       <use x="234.570312" xlink:href="#MicrosoftYaHei-48"/>
      </g>
     </g>
    </g>
    <g id="ytick_5">
     <g id="line2d_11">
      <path clip-path="url(#p8a01b7f9da)" d="M 54 128.328241 
L 388.8 128.328241 
" style="fill:none;stroke:#ffffff;stroke-linecap:round;"/>
     </g>
     <g id="text_12">
      <!-- 20000 -->
      <g style="fill:#262626;" transform="translate(12.247656 132.724803)scale(0.11 -0.11)">
       <use xlink:href="#MicrosoftYaHei-50"/>
       <use x="58.642578" xlink:href="#MicrosoftYaHei-48"/>
       <use x="117.285156" xlink:href="#MicrosoftYaHei-48"/>
       <use x="175.927734" xlink:href="#MicrosoftYaHei-48"/>
       <use x="234.570312" xlink:href="#MicrosoftYaHei-48"/>
      </g>
     </g>
    </g>
    <g id="ytick_6">
     <g id="line2d_12">
      <path clip-path="url(#p8a01b7f9da)" d="M 54 99.88121 
L 388.8 99.88121 
" style="fill:none;stroke:#ffffff;stroke-linecap:round;"/>
     </g>
     <g id="text_13">
      <!-- 25000 -->
      <g style="fill:#262626;" transform="translate(12.247656 104.277772)scale(0.11 -0.11)">
       <use xlink:href="#MicrosoftYaHei-50"/>
       <use x="58.642578" xlink:href="#MicrosoftYaHei-53"/>
       <use x="117.285156" xlink:href="#MicrosoftYaHei-48"/>
       <use x="175.927734" xlink:href="#MicrosoftYaHei-48"/>
       <use x="234.570312" xlink:href="#MicrosoftYaHei-48"/>
      </g>
     </g>
    </g>
    <g id="ytick_7">
     <g id="line2d_13">
      <path clip-path="url(#p8a01b7f9da)" d="M 54 71.434179 
L 388.8 71.434179 
" style="fill:none;stroke:#ffffff;stroke-linecap:round;"/>
     </g>
     <g id="text_14">
      <!-- 30000 -->
      <g style="fill:#262626;" transform="translate(12.247656 75.830742)scale(0.11 -0.11)">
       <use xlink:href="#MicrosoftYaHei-51"/>
       <use x="58.642578" xlink:href="#MicrosoftYaHei-48"/>
       <use x="117.285156" xlink:href="#MicrosoftYaHei-48"/>
       <use x="175.927734" xlink:href="#MicrosoftYaHei-48"/>
       <use x="234.570312" xlink:href="#MicrosoftYaHei-48"/>
      </g>
     </g>
    </g>
    <g id="ytick_8">
     <g id="line2d_14">
      <path clip-path="url(#p8a01b7f9da)" d="M 54 42.987148 
L 388.8 42.987148 
" style="fill:none;stroke:#ffffff;stroke-linecap:round;"/>
     </g>
     <g id="text_15">
      <!-- 35000 -->
      <g style="fill:#262626;" transform="translate(12.247656 47.383711)scale(0.11 -0.11)">
       <use xlink:href="#MicrosoftYaHei-51"/>
       <use x="58.642578" xlink:href="#MicrosoftYaHei-53"/>
       <use x="117.285156" xlink:href="#MicrosoftYaHei-48"/>
       <use x="175.927734" xlink:href="#MicrosoftYaHei-48"/>
       <use x="234.570312" xlink:href="#MicrosoftYaHei-48"/>
      </g>
     </g>
    </g>
    <g id="text_16">
     <!-- 累计死亡 -->
     <g style="fill:#262626;" transform="translate(5.264531 167.28)rotate(-90)scale(0.12 -0.12)">
      <defs>
       <path d="M 71.09375 31.109375 
Q 84.765625 19.96875 92.875 12.0625 
L 87.5 6.59375 
Q 83.6875 10.546875 79.640625 14.40625 
Q 67.71875 13.921875 55.5625 13.375 
L 55.5625 0.34375 
Q 55.5625 -11.765625 43.359375 -11.765625 
Q 37.109375 -11.765625 29.390625 -11.671875 
Q 28.8125 -7.765625 27.9375 -3.5625 
Q 35.453125 -4.25 41.40625 -4.25 
Q 47.953125 -4.25 47.953125 2.875 
L 47.953125 13.03125 
Q 34.859375 12.40625 21.484375 11.765625 
Q 17.1875 11.578125 13.1875 10.984375 
L 10.546875 18.40625 
Q 16.5 19.09375 23.921875 21.921875 
Q 33.9375 25.78125 45.5625 31 
Q 33.40625 30.609375 23.921875 30.03125 
Q 19.234375 29.734375 16.890625 29.4375 
L 14.359375 35.890625 
Q 19.234375 36.859375 24.21875 39.109375 
Q 30.765625 42.046875 37.15625 45.453125 
L 18.84375 45.453125 
L 18.84375 42.625 
L 11.421875 42.625 
L 11.421875 79.734375 
L 88.671875 79.734375 
L 88.671875 42.625 
L 81.25 42.625 
L 81.25 45.453125 
L 48.828125 45.453125 
Q 38.03125 39.984375 27.546875 35.5 
Q 40.328125 35.84375 57.328125 36.46875 
Q 64.0625 39.65625 71.296875 43.3125 
L 76.375 38.03125 
Q 53.03125 27 28.515625 17.921875 
Q 53.171875 19 73.1875 20.265625 
Q 69.625 23.4375 65.921875 26.515625 
z
M 53.609375 51.125 
L 81.25 51.125 
L 81.25 60.015625 
L 53.609375 60.015625 
z
M 18.84375 51.125 
L 46.390625 51.125 
L 46.390625 60.015625 
L 18.84375 60.015625 
z
M 81.25 74.078125 
L 53.609375 74.078125 
L 53.609375 65.28125 
L 81.25 65.28125 
z
M 18.84375 65.28125 
L 46.390625 65.28125 
L 46.390625 74.078125 
L 18.84375 74.078125 
z
M 29.59375 8.9375 
L 33.984375 2.875 
Q 19.734375 -4.25 5.953125 -9.625 
Q 4.5 -6.59375 2.546875 -3.078125 
Q 17.09375 2.59375 29.59375 8.9375 
z
M 69.234375 8.546875 
Q 83.796875 3.65625 97.171875 -2.296875 
L 94.140625 -8.9375 
Q 81.0625 -2.984375 65.921875 2.09375 
z
" id="MicrosoftYaHei-32047"/>
       <path d="M 32.8125 49.265625 
L 61.234375 49.265625 
L 61.234375 82.859375 
L 69.625 82.859375 
L 69.625 49.265625 
L 98.25 49.265625 
L 98.25 42.234375 
L 69.625 42.234375 
L 69.625 -12.84375 
L 61.234375 -12.84375 
L 61.234375 42.234375 
L 32.8125 42.234375 
z
M 41.796875 14.109375 
Q 42.09375 9.03125 42.484375 5.609375 
Q 26.859375 -4.15625 16.703125 -11.375 
L 12.015625 -4.734375 
Q 15.4375 -1.8125 15.4375 4.15625 
L 15.4375 42.828125 
L 1.5625 42.828125 
L 1.5625 49.859375 
L 23.25 49.859375 
L 23.25 2.390625 
Q 31.734375 7.5625 41.796875 14.109375 
z
M 11.53125 81.59375 
Q 22.171875 70.65625 26.953125 65.375 
L 20.125 59.625 
Q 13.96875 67.71875 5.5625 76.421875 
z
" id="MicrosoftYaHei-35745"/>
       <path d="M 3.90625 75.734375 
L 96.09375 75.734375 
L 96.09375 68.703125 
L 66.703125 68.703125 
L 66.703125 32.953125 
Q 78.8125 42.140625 91.3125 55.03125 
L 97.078125 49.078125 
Q 81.34375 34.625 66.703125 24.078125 
L 66.703125 4.15625 
Q 66.703125 -2.203125 71.96875 -2.203125 
L 81.640625 -2.203125 
Q 87.703125 -2.203125 89.265625 4.546875 
Q 90.53125 11.1875 91.3125 20.5625 
Q 95.609375 18.5 99.21875 17.4375 
Q 98.046875 8.34375 96.578125 1.609375 
Q 94.046875 -9.625 82.8125 -9.625 
L 70.40625 -9.625 
Q 59.078125 -9.625 59.078125 3.859375 
L 59.078125 68.703125 
L 30.671875 68.703125 
Q 28.515625 60.984375 25.78125 53.953125 
L 51.171875 53.953125 
L 51.171875 47.21875 
Q 44.234375 8.9375 8.5 -12.9375 
Q 5.671875 -9.625 2.828125 -6.984375 
Q 20.40625 3.65625 30.171875 16.84375 
Q 23.046875 22.796875 16.21875 27.78125 
L 20.3125 33.734375 
Q 27.546875 28.46875 34.46875 23.1875 
Q 41.109375 34.234375 43.5625 47.125 
L 22.953125 47.125 
Q 16.703125 32.953125 6.546875 20.75 
Q 3.8125 24.46875 1.65625 26.90625 
Q 16.609375 45.359375 22.75 68.703125 
L 3.90625 68.703125 
z
" id="MicrosoftYaHei-27515"/>
       <path d="M 1.953125 63.421875 
L 97.953125 63.421875 
L 97.953125 55.71875 
L 25.09375 55.71875 
L 25.09375 0.4375 
L 93.359375 0.4375 
L 93.359375 -6.984375 
L 16.40625 -6.984375 
L 16.40625 55.71875 
L 1.953125 55.71875 
z
M 41.796875 78.859375 
L 48.25 83.25 
Q 55.46875 74.5625 59.46875 69 
L 52.34375 63.8125 
Q 46.6875 72.609375 41.796875 78.859375 
z
" id="MicrosoftYaHei-20129"/>
      </defs>
      <use xlink:href="#MicrosoftYaHei-32047"/>
      <use x="100" xlink:href="#MicrosoftYaHei-35745"/>
      <use x="200" xlink:href="#MicrosoftYaHei-27515"/>
      <use x="300" xlink:href="#MicrosoftYaHei-20129"/>
     </g>
    </g>
   </g>
   <g id="line2d_15">
    <path clip-path="url(#p8a01b7f9da)" d="M 69.218182 242.116364 
L 177.218182 242.008265 
L 187.036364 241.894477 
L 190.963636 241.757931 
L 194.890909 241.661211 
L 202.745455 241.046755 
L 212.563636 239.641472 
L 214.527273 239.135115 
L 216.490909 238.879092 
L 224.345455 236.97883 
L 230.236364 234.464112 
L 232.2 233.548118 
L 238.090909 231.681993 
L 240.054545 230.578248 
L 243.981818 228.746259 
L 247.909091 227.227188 
L 249.872727 226.715141 
L 251.836364 225.594328 
L 253.8 225.070903 
L 257.727273 222.51067 
L 261.654545 221.16797 
L 265.581818 219.114095 
L 271.472727 215.785792 
L 273.436364 215.216851 
L 275.4 214.204137 
L 283.254545 210.983933 
L 287.181818 209.67537 
L 291.109091 208.793512 
L 293.072727 208.480594 
L 295.036364 208.480594 
L 297 207.115137 
L 298.963636 206.403961 
L 300.927273 205.817952 
L 302.890909 205.567619 
L 304.854545 204.759723 
L 306.818182 204.344396 
L 310.745455 202.990318 
L 312.709091 202.313278 
L 314.672727 201.767095 
L 316.636364 200.555252 
L 318.6 200.333365 
L 320.563636 199.935106 
L 322.527273 199.201173 
L 324.490909 198.666369 
L 326.454545 197.943814 
L 330.381818 197.738996 
L 332.345455 197.539866 
L 336.272727 196.760418 
L 338.236364 196.635251 
L 344.127273 195.770461 
L 348.054545 195.389271 
L 353.945455 194.63258 
L 355.909091 194.268458 
L 365.727273 193.733654 
L 371.618182 193.631244 
L 373.581818 193.380911 
L 373.581818 193.380911 
" style="fill:none;stroke:#4c72b0;stroke-linecap:round;stroke-width:1.5;"/>
   </g>
   <g id="line2d_16">
    <path clip-path="url(#p8a01b7f9da)" d="M 75.109091 242.116364 
L 189 242.008265 
L 204.709091 241.644143 
L 210.6 241.268642 
L 214.527273 240.944346 
L 242.018182 238.002923 
L 253.8 236.000252 
L 261.654545 234.304809 
L 263.618182 233.110034 
L 267.545455 231.949395 
L 271.472727 230.84565 
L 273.436364 230.117406 
L 275.4 229.514329 
L 277.363636 229.070555 
L 283.254545 227.045127 
L 287.181818 225.776389 
L 289.145455 224.883152 
L 293.072727 223.324255 
L 295.036364 223.324255 
L 297 221.731221 
L 300.927273 220.11543 
L 306.818182 217.441409 
L 310.745455 215.342018 
L 312.709091 213.834326 
L 314.672727 212.73627 
L 316.636364 211.427707 
L 320.563636 209.032467 
L 324.490909 206.000013 
L 328.418182 202.694468 
L 334.309091 198.051913 
L 336.272727 196.020795 
L 340.2 191.571679 
L 344.127273 187.953217 
L 346.090909 185.791243 
L 348.054545 174.395362 
L 351.981818 170.58346 
L 353.945455 168.449933 
L 355.909091 166.708975 
L 357.872727 164.177189 
L 359.836364 162.402094 
L 361.8 159.75652 
L 365.727273 155.06276 
L 371.618182 148.383397 
L 373.581818 146.005226 
L 373.581818 146.005226 
" style="fill:none;stroke:#dd8452;stroke-linecap:round;stroke-width:1.5;"/>
   </g>
   <g id="line2d_17">
    <path clip-path="url(#p8a01b7f9da)" d="M 77.072727 242.116364 
L 132.054545 242.019644 
L 139.909091 241.820515 
L 145.8 241.274332 
L 149.727273 240.790732 
L 151.690909 240.034041 
L 153.654545 239.482169 
L 155.618182 238.526348 
L 159.545455 236.335927 
L 161.509091 234.913575 
L 163.472727 233.917929 
L 167.4 229.838625 
L 169.363636 227.87578 
L 171.327273 225.173312 
L 173.290909 222.743936 
L 175.254545 219.176678 
L 177.218182 214.664979 
L 179.181818 210.961176 
L 181.145455 207.541842 
L 183.109091 203.314614 
L 187.036364 195.377892 
L 189 189.443842 
L 194.890909 176.170457 
L 196.854545 171.408424 
L 200.781818 162.948277 
L 202.745455 158.590192 
L 204.709091 154.715706 
L 206.672727 151.728768 
L 210.6 144.673905 
L 212.563636 141.590246 
L 214.527273 138.119709 
L 216.490909 134.876747 
L 218.454545 131.355005 
L 220.418182 128.902871 
L 224.345455 122.257644 
L 226.309091 118.969168 
L 228.272727 115.982229 
L 230.236364 112.710821 
L 232.2 109.968527 
L 234.163636 107.505014 
L 236.127273 101.883881 
L 238.090909 101.883881 
L 240.054545 99.39761 
L 242.018182 94.368175 
L 243.981818 94.368175 
L 245.945455 92.007072 
L 247.909091 90.527826 
L 249.872727 88.633254 
L 251.836364 86.459901 
L 253.8 84.622223 
L 257.727273 81.470292 
L 259.690909 78.773513 
L 263.618182 76.674122 
L 265.581818 75.331422 
L 267.545455 73.232031 
L 269.509091 71.673134 
L 271.472727 70.290609 
L 273.436364 69.186864 
L 279.327273 66.25113 
L 281.290909 65.141696 
L 285.218182 62.274235 
L 289.145455 60.578792 
L 291.109091 60.015541 
L 293.072727 59.093857 
L 295.036364 59.093857 
L 297 57.290315 
L 300.927273 55.873653 
L 302.890909 55.589183 
L 316.636364 52.004857 
L 322.527273 50.946628 
L 328.418182 49.552723 
L 332.345455 48.881373 
L 336.272727 48.027962 
L 340.2 47.407817 
L 342.163636 46.964043 
L 346.090909 46.565785 
L 350.018182 46.127701 
L 353.945455 45.484798 
L 355.909091 45.206017 
L 359.836364 45.012577 
L 373.581818 44.443636 
L 373.581818 44.443636 
" style="fill:none;stroke:#55a868;stroke-linecap:round;stroke-width:1.5;"/>
   </g>
   <g id="line2d_18">
    <path clip-path="url(#p8a01b7f9da)" d="M 116.345455 242.104985 
L 132.054545 241.968439 
L 141.872727 241.592938 
L 143.836364 241.592938 
L 151.690909 240.767974 
L 155.618182 240.102314 
L 159.545455 239.192009 
L 161.509091 239.192009 
L 163.472727 237.997234 
L 167.4 236.49523 
L 175.254545 233.263648 
L 183.109091 230.299467 
L 187.036364 228.586956 
L 190.963636 227.096331 
L 192.927273 227.096331 
L 194.890909 225.628465 
L 210.6 219.341671 
L 214.527273 218.038797 
L 218.454545 216.661961 
L 222.381818 215.472875 
L 228.272727 213.908288 
L 232.2 212.997983 
L 243.981818 209.971219 
L 245.945455 209.629855 
L 247.909091 209.083672 
L 257.727273 207.092379 
L 259.690909 206.824977 
L 267.545455 205.214875 
L 273.436364 204.338707 
L 279.327273 203.525122 
L 281.290909 203.121174 
L 289.145455 201.966224 
L 291.109091 201.613481 
L 295.036364 201.613481 
L 297 200.583699 
L 300.927273 199.918038 
L 302.890909 199.724598 
L 314.672727 197.756064 
L 318.6 196.9311 
L 340.2 192.447848 
L 346.090909 190.541897 
L 348.054545 189.859168 
L 350.018182 189.36419 
L 351.981818 189.36419 
L 353.945455 188.027179 
L 359.836364 186.001751 
L 363.763636 184.482679 
L 367.690909 183.151358 
L 373.581818 180.574057 
L 373.581818 180.574057 
" style="fill:none;stroke:#c44e52;stroke-linecap:round;stroke-width:1.5;"/>
   </g>
   <g id="line2d_19">
    <path clip-path="url(#p8a01b7f9da)" d="M 145.8 242.116364 
L 147.763636 242.116364 
L 149.727273 242.116364 
L 151.690909 242.116364 
L 153.654545 242.116364 
L 155.618182 242.116364 
L 157.581818 242.116364 
L 159.545455 242.116364 
L 161.509091 242.116364 
L 163.472727 242.116364 
L 165.436364 242.116364 
L 167.4 242.116364 
L 169.363636 242.116364 
L 171.327273 242.116364 
L 173.290909 242.110674 
L 175.254545 242.093606 
L 177.218182 242.087917 
L 179.181818 242.087917 
L 181.145455 242.087917 
L 183.109091 242.087917 
L 185.072727 242.087917 
L 187.036364 242.065159 
L 189 242.05378 
L 190.963636 242.025333 
L 192.927273 242.013954 
L 194.890909 241.979818 
L 196.854545 241.945681 
L 198.818182 241.945681 
L 200.781818 241.803446 
L 202.745455 241.803446 
L 204.709091 241.701037 
L 206.672727 241.644143 
L 208.636364 241.644143 
L 210.6 241.507597 
L 212.563636 241.427945 
L 214.527273 241.427945 
L 216.490909 241.154854 
L 218.454545 241.154854 
L 220.418182 241.018308 
L 222.381818 241.018308 
L 224.345455 241.018308 
L 226.309091 241.018308 
L 228.272727 240.8078 
L 230.236364 240.409542 
L 232.2 240.13645 
L 234.163636 239.840601 
L 236.127273 239.584578 
L 238.090909 239.362691 
L 240.054545 239.100978 
L 242.018182 238.862023 
L 243.981818 238.50928 
L 245.945455 238.133779 
L 247.909091 237.974476 
L 249.872727 237.667248 
L 251.836364 237.257611 
L 253.8 236.751254 
L 255.763636 236.136798 
L 257.727273 235.721471 
L 259.690909 235.289076 
L 261.654545 234.799787 
L 263.618182 234.469802 
L 265.581818 233.900861 
L 267.545455 233.394504 
L 269.509091 232.8597 
L 271.472727 232.364721 
L 273.436364 231.795781 
L 275.4 231.369075 
L 277.363636 230.959438 
L 279.327273 230.413255 
L 281.290909 229.776042 
L 283.254545 229.21848 
L 285.218182 228.507304 
L 287.181818 227.761992 
L 289.145455 227.050816 
L 291.109091 226.24861 
L 293.072727 225.537434 
L 295.036364 225.537434 
L 297 224.206113 
L 298.963636 223.65993 
L 300.927273 222.925997 
L 302.890909 222.453776 
L 304.854545 221.469509 
L 306.818182 220.564893 
L 308.781818 219.455459 
L 310.745455 218.795488 
L 312.709091 218.050176 
L 314.672727 217.247969 
L 316.636364 216.4799 
L 318.6 215.751656 
L 320.563636 214.994965 
L 322.527273 214.27241 
L 324.490909 213.492961 
L 326.454545 212.747649 
L 328.418182 211.956822 
L 330.381818 211.023759 
L 332.345455 210.420682 
L 334.309091 209.470551 
L 336.272727 208.531799 
L 338.236364 207.359781 
L 340.2 206.22759 
L 342.163636 205.146602 
L 344.127273 204.065615 
L 346.090909 203.087037 
L 348.054545 201.971914 
L 350.018182 200.828343 
L 351.981818 199.667704 
L 353.945455 198.535513 
L 355.909091 197.391942 
L 357.872727 196.345091 
L 359.836364 195.332377 
L 361.8 194.302594 
L 363.763636 193.267122 
L 365.727273 192.271476 
L 367.690909 191.258762 
L 369.654545 190.143638 
L 371.618182 189.108167 
L 373.581818 188.044248 
" style="fill:none;stroke:#8172b3;stroke-linecap:round;stroke-width:1.5;"/>
   </g>
   <g id="line2d_20">
    <path clip-path="url(#p8a01b7f9da)" d="M 145.8 242.116364 
L 147.763636 242.116364 
L 149.727273 242.116364 
L 151.690909 242.116364 
L 153.654545 242.116364 
L 155.618182 242.116364 
L 157.581818 242.116364 
L 159.545455 242.116364 
L 161.509091 242.116364 
L 163.472727 242.116364 
L 165.436364 242.116364 
L 167.4 242.116364 
L 169.363636 242.116364 
L 171.327273 242.116364 
L 173.290909 242.116364 
L 175.254545 242.116364 
L 177.218182 242.116364 
L 179.181818 242.116364 
L 181.145455 242.116364 
L 183.109091 242.116364 
L 185.072727 242.116364 
L 187.036364 242.110674 
L 189 242.110674 
L 190.963636 242.104985 
L 192.927273 242.104985 
L 194.890909 242.099295 
L 196.854545 242.087917 
L 198.818182 242.087917 
L 200.781818 242.087917 
L 202.745455 242.087917 
L 204.709091 242.065159 
L 206.672727 242.05378 
L 208.636364 242.05378 
L 210.6 242.048091 
L 212.563636 242.013954 
L 214.527273 241.979818 
L 216.490909 241.979818 
L 218.454545 241.974128 
L 220.418182 241.974128 
L 222.381818 241.96275 
L 224.345455 241.96275 
L 226.309091 241.922924 
L 228.272727 241.843272 
L 230.236364 241.831893 
L 232.2 241.820515 
L 234.163636 241.809136 
L 236.127273 241.786378 
L 238.090909 241.786378 
L 240.054545 241.746552 
L 242.018182 241.689658 
L 243.981818 241.666901 
L 245.945455 241.627075 
L 247.909091 241.621385 
L 249.872727 241.604317 
L 251.836364 241.587249 
L 253.8 241.530355 
L 255.763636 241.530355 
L 257.727273 241.456393 
L 259.690909 241.416567 
L 261.654545 241.371051 
L 263.618182 241.331226 
L 265.581818 241.274332 
L 267.545455 241.245884 
L 269.509091 241.200369 
L 271.472727 241.058134 
L 273.436364 241.058134 
L 275.4 241.012619 
L 277.363636 240.944346 
L 279.327273 240.944346 
L 281.290909 240.870384 
L 283.254545 240.762285 
L 285.218182 240.71108 
L 287.181818 240.631429 
L 289.145455 240.61436 
L 291.109091 240.489193 
L 293.072727 240.341269 
L 295.036364 240.341269 
L 297 240.016973 
L 298.963636 239.857669 
L 300.927273 239.800775 
L 302.890909 239.675608 
L 304.854545 239.379759 
L 306.818182 239.135115 
L 308.781818 238.975811 
L 310.745455 238.833576 
L 312.709091 238.640136 
L 314.672727 238.458075 
L 316.636364 238.105332 
L 318.6 238.105332 
L 320.563636 237.820862 
L 322.527273 237.610354 
L 324.490909 237.291747 
L 326.454545 236.950383 
L 328.418182 236.700049 
L 330.381818 236.438336 
L 332.345455 235.971805 
L 334.309091 235.505274 
L 336.272727 235.232182 
L 338.236364 235.232182 
L 340.2 234.412908 
L 342.163636 234.020339 
L 344.127273 233.696043 
L 346.090909 233.195375 
L 348.054545 232.871079 
L 350.018182 232.592298 
L 351.981818 232.233865 
L 353.945455 231.699061 
L 355.909091 231.437348 
L 357.872727 231.13581 
L 359.836364 230.788756 
L 361.8 230.157232 
L 363.763636 229.571223 
L 365.727273 229.076245 
L 367.690909 228.803153 
L 369.654545 228.387827 
L 371.618182 228.143182 
L 373.581818 227.727855 
" style="fill:none;stroke:#937860;stroke-linecap:round;stroke-width:1.5;"/>
   </g>
   <g id="line2d_21"/>
   <g id="line2d_22"/>
   <g id="line2d_23"/>
   <g id="line2d_24"/>
   <g id="line2d_25"/>
   <g id="line2d_26"/>
   <g id="patch_3">
    <path d="M 54 252 
L 54 34.56 
" style="fill:none;stroke:#ffffff;stroke-linecap:square;stroke-linejoin:miter;stroke-width:1.25;"/>
   </g>
   <g id="patch_4">
    <path d="M 388.8 252 
L 388.8 34.56 
" style="fill:none;stroke:#ffffff;stroke-linecap:square;stroke-linejoin:miter;stroke-width:1.25;"/>
   </g>
   <g id="patch_5">
    <path d="M 54 252 
L 388.8 252 
" style="fill:none;stroke:#ffffff;stroke-linecap:square;stroke-linejoin:miter;stroke-width:1.25;"/>
   </g>
   <g id="patch_6">
    <path d="M 54 34.56 
L 388.8 34.56 
" style="fill:none;stroke:#ffffff;stroke-linecap:square;stroke-linejoin:miter;stroke-width:1.25;"/>
   </g>
   <g id="legend_1">
    <g id="patch_7">
     <path d="M 61.7 163.601563 
L 129.9 163.601563 
Q 132.1 163.601563 132.1 161.401563 
L 132.1 42.26 
Q 132.1 40.06 129.9 40.06 
L 61.7 40.06 
Q 59.5 40.06 59.5 42.26 
L 59.5 161.401563 
Q 59.5 163.601563 61.7 163.601563 
z
" style="fill:#eaeaf2;opacity:0.8;stroke:#cccccc;stroke-linejoin:miter;"/>
    </g>
    <g id="text_17">
     <!-- 国家 -->
     <g style="fill:#262626;" transform="translate(83.8 54.0525)scale(0.12 -0.12)">
      <defs>
       <path d="M 7.328125 78.078125 
L 92.78125 78.078125 
L 92.78125 -13.03125 
L 85.25 -13.03125 
L 85.25 -8.15625 
L 14.84375 -8.15625 
L 14.84375 -13.140625 
L 7.328125 -13.140625 
z
M 85.25 71.140625 
L 14.84375 71.140625 
L 14.84375 -1.21875 
L 85.25 -1.21875 
z
M 19.34375 15.765625 
L 46.296875 15.765625 
L 46.296875 35.109375 
L 22.75 35.109375 
L 22.75 41.75 
L 46.296875 41.75 
L 46.296875 54.828125 
L 20.90625 54.828125 
L 20.90625 61.46875 
L 79.109375 61.46875 
L 79.109375 54.828125 
L 53.515625 54.828125 
L 53.515625 41.75 
L 77.15625 41.75 
L 77.15625 35.109375 
L 53.515625 35.109375 
L 53.515625 15.765625 
L 80.671875 15.765625 
L 80.671875 9.125 
L 19.34375 9.125 
z
M 58.59375 28.859375 
L 64.0625 32.953125 
Q 69.4375 27.390625 73.25 22.515625 
L 67.484375 18.109375 
Q 62.796875 24.46875 58.59375 28.859375 
z
" id="MicrosoftYaHei-22269"/>
       <path d="M 3.03125 -3.265625 
Q 32.515625 5.171875 50 24.3125 
Q 48.640625 27.15625 46.828125 29.734375 
Q 32.28125 14.703125 6.640625 6.59375 
Q 5.171875 9.90625 3.125 13.234375 
Q 28.265625 20.171875 42.234375 35.25 
Q 40.625 36.859375 38.71875 38.421875 
Q 25.78125 29.25 6.9375 23.390625 
Q 5.078125 26.609375 2.546875 30.328125 
Q 25.828125 35.5 39.84375 47.703125 
L 15.234375 47.703125 
L 15.234375 54.734375 
L 84.96875 54.734375 
L 84.96875 47.703125 
L 49.515625 47.703125 
Q 47.015625 45.0625 44.140625 42.625 
Q 51.8125 36.421875 56.0625 28.765625 
Q 71.34375 36.234375 83.203125 44.09375 
L 87.796875 37.84375 
Q 79.828125 33.0625 70.84375 28.375 
Q 79.5 9.625 98.921875 2.203125 
Q 95.703125 -1.515625 92.875 -5.421875 
Q 73.78125 4.34375 64.546875 25.140625 
Q 61.765625 23.78125 58.890625 22.359375 
Q 64.453125 1.609375 57.125 -7.859375 
Q 53.609375 -12.0625 43.65625 -12.0625 
Q 39.75 -12.0625 31.34375 -11.765625 
Q 30.765625 -7.953125 29.890625 -3.65625 
Q 37.5 -4.546875 43.453125 -4.546875 
Q 54 -5.125 53.71875 8.15625 
Q 53.5625 12.546875 52.640625 16.609375 
Q 35.359375 -0.4375 6.546875 -10.015625 
Q 5.078125 -6.78125 3.03125 -3.265625 
z
M 5.171875 70.75 
L 49.3125 70.75 
Q 46.4375 75.09375 42.578125 80.03125 
L 49.421875 84.421875 
Q 53.8125 79.046875 57.421875 73.78125 
L 52.4375 70.75 
L 94.734375 70.75 
L 94.734375 54.046875 
L 86.921875 54.046875 
L 86.921875 63.53125 
L 12.984375 63.53125 
L 12.984375 54.046875 
L 5.171875 54.046875 
z
" id="MicrosoftYaHei-23478"/>
      </defs>
      <use xlink:href="#MicrosoftYaHei-22269"/>
      <use x="100" xlink:href="#MicrosoftYaHei-23478"/>
     </g>
    </g>
    <g id="line2d_27">
     <path d="M 63.9 67.47875 
L 85.9 67.47875 
" style="fill:none;stroke:#4c72b0;stroke-linecap:round;stroke-width:1.5;"/>
    </g>
    <g id="line2d_28"/>
    <g id="text_18">
     <!-- 加拿大 -->
     <g style="fill:#262626;" transform="translate(94.7 71.32875)scale(0.11 -0.11)">
      <defs>
       <path d="M 57.234375 70.0625 
L 94.34375 70.0625 
L 94.34375 -10.40625 
L 86.625 -10.40625 
L 86.625 -0.53125 
L 64.9375 -0.53125 
L 64.9375 -10.40625 
L 57.234375 -10.40625 
z
M 3.609375 65.28125 
L 17.234375 65.28125 
Q 17.328125 73.140625 17.28125 82.765625 
L 25 82.765625 
Q 25 73.046875 24.90625 65.28125 
L 47.65625 65.28125 
Q 47.171875 27.78125 46.390625 6.390625 
Q 46 -11.1875 33.109375 -10.5 
Q 29.296875 -10.5 21.875 -10.203125 
Q 21.1875 -6.109375 20.3125 -1.703125 
Q 27.15625 -2.59375 31.453125 -2.59375 
Q 37.984375 -2.78125 38.578125 6.6875 
Q 39.65625 29.828125 39.84375 57.859375 
L 24.8125 57.859375 
Q 24.703125 50.390625 24.515625 45.171875 
Q 24.125 6.984375 6.15625 -13.625 
Q 3.71875 -10.59375 0.390625 -7.078125 
Q 16.609375 10.6875 16.890625 45.953125 
Q 17.09375 51.078125 17.1875 57.859375 
L 3.609375 57.859375 
z
M 86.625 62.84375 
L 64.9375 62.84375 
L 64.9375 6.5 
L 86.625 6.5 
z
" id="MicrosoftYaHei-21152"/>
       <path d="M 2.25 6.5 
L 47.859375 6.5 
L 47.859375 12.359375 
L 11.328125 12.359375 
L 11.328125 17.625 
L 47.859375 17.625 
L 47.859375 23.78125 
Q 27.640625 23.09375 10.640625 22.796875 
Q 9.859375 26.90625 9.28125 28.953125 
Q 56.453125 29.34375 85.9375 31.390625 
L 87.109375 25.25 
Q 70.21875 24.5625 55.078125 23.96875 
L 55.078125 17.625 
L 87.703125 17.625 
L 87.703125 12.359375 
L 55.078125 12.359375 
L 55.078125 6.5 
L 97.359375 6.5 
L 97.359375 0.828125 
L 55.078125 0.828125 
L 55.078125 -1.8125 
Q 55.078125 -12.0625 45.015625 -12.25 
Q 39.75 -12.359375 30.078125 -12.359375 
Q 29.59375 -9.234375 28.71875 -4.828125 
Q 37.203125 -5.515625 42.578125 -5.515625 
Q 47.859375 -5.515625 47.859375 -0.4375 
L 47.859375 0.828125 
L 2.25 0.828125 
z
M 18.75 53.5625 
L 81.25 53.5625 
L 81.25 34.125 
L 74.421875 34.125 
L 74.421875 35.5 
L 25.59375 35.5 
L 25.59375 33.453125 
L 18.75 33.453125 
z
M 57.234375 82.953125 
L 55.671875 81.390625 
Q 71.484375 66.453125 98.640625 60.296875 
Q 95.609375 56.5 93.84375 53.171875 
Q 80.28125 57.375 69.53125 63.234375 
L 69.53125 59.515625 
L 29.78125 59.515625 
L 29.78125 63.234375 
Q 18.84375 57.171875 5.859375 51.90625 
Q 3.515625 55.515625 1.375 58.0625 
Q 29.390625 68.21875 46.875 82.953125 
z
M 74.421875 48.09375 
L 25.59375 48.09375 
L 25.59375 40.96875 
L 74.421875 40.96875 
z
M 50.6875 76.90625 
Q 42.578125 70.65625 32.8125 64.984375 
L 66.5 64.984375 
Q 57.625 70.265625 50.6875 76.90625 
z
" id="MicrosoftYaHei-25343"/>
       <path d="M 1.375 -5.328125 
Q 41.65625 12.59375 44.828125 48.484375 
L 3.125 48.484375 
L 3.125 56.109375 
L 45.171875 56.109375 
Q 45.40625 69.234375 45.40625 82.5625 
L 53.90625 82.5625 
Q 53.90625 69.4375 53.65625 56.109375 
L 96.96875 56.109375 
L 96.96875 48.484375 
L 53.515625 48.484375 
Q 60.453125 9.46875 99.03125 -2.984375 
Q 94.046875 -7.765625 91.609375 -10.890625 
Q 59.8125 1.90625 50.046875 34.671875 
Q 42.4375 5.03125 7.421875 -12.84375 
Q 5.46875 -10.203125 1.375 -5.328125 
z
" id="MicrosoftYaHei-22823"/>
      </defs>
      <use xlink:href="#MicrosoftYaHei-21152"/>
      <use x="100" xlink:href="#MicrosoftYaHei-25343"/>
      <use x="200" xlink:href="#MicrosoftYaHei-22823"/>
     </g>
    </g>
    <g id="line2d_29">
     <path d="M 63.9 84.506406 
L 85.9 84.506406 
" style="fill:none;stroke:#dd8452;stroke-linecap:round;stroke-width:1.5;"/>
    </g>
    <g id="line2d_30"/>
    <g id="text_19">
     <!-- 印度 -->
     <g style="fill:#262626;" transform="translate(94.7 88.356406)scale(0.11 -0.11)">
      <defs>
       <path d="M 51.265625 75.4375 
L 92.96875 75.4375 
L 92.96875 16.453125 
Q 92.96875 3.5625 80.5625 3.46875 
Q 74.3125 3.375 65.625 3.5625 
Q 65.140625 7.859375 64.359375 12.546875 
Q 73.140625 11.765625 78.125 11.765625 
Q 84.96875 11.671875 84.96875 18.890625 
L 84.96875 67.828125 
L 59.28125 67.828125 
L 59.28125 -13.03125 
L 51.265625 -13.03125 
z
M 47.46875 76.125 
Q 34.578125 72.609375 15.53125 68.703125 
L 15.53125 46.234375 
L 45.125 46.234375 
L 45.125 38.921875 
L 15.53125 38.921875 
L 15.53125 8.640625 
Q 30.765625 13.53125 45.703125 18.890625 
Q 45.703125 14.703125 46.484375 10.59375 
Q 30.078125 5.21875 15.71875 -0.4375 
Q 12.3125 -2.09375 9.859375 -4.34375 
L 4.59375 2.484375 
Q 7.71875 6 7.515625 11.375 
L 7.515625 74.46875 
Q 28.609375 78.5625 43.75 83.25 
z
" id="MicrosoftYaHei-21360"/>
       <path d="M 24.21875 19 
L 24.21875 25.4375 
L 85.453125 25.4375 
L 85.453125 19.09375 
Q 76.609375 9.578125 64.796875 2.546875 
Q 78.90625 -3.125 97.859375 -4.828125 
L 94.046875 -12.453125 
Q 72.265625 -9.421875 56.9375 -1.703125 
Q 40.625 -9.671875 19.53125 -13.53125 
Q 17.96875 -10.40625 15.53125 -6.5 
Q 34.859375 -3.46875 49.46875 2.59375 
Q 39.015625 9.375 32.28125 19 
z
M 21.296875 55.328125 
L 35.84375 55.328125 
L 35.84375 63.53125 
L 43.265625 63.53125 
L 43.265625 55.328125 
L 70.90625 55.328125 
L 70.90625 63.625 
L 78.328125 63.625 
L 78.328125 55.328125 
L 96.09375 55.328125 
L 96.09375 48.875 
L 78.328125 48.875 
L 78.328125 30.125 
L 70.90625 30.125 
L 70.90625 33.546875 
L 43.265625 33.546875 
L 43.265625 30.03125 
L 35.84375 30.03125 
L 35.84375 48.875 
L 21.296875 48.875 
z
M 47.265625 80.8125 
L 54.390625 84.234375 
Q 57.71875 79 61.078125 72.40625 
L 97.078125 72.40625 
L 97.078125 65.578125 
L 19.140625 65.578125 
L 19.140625 36.1875 
Q 19.140625 2.78125 6.15625 -13.625 
Q 3.71875 -10.40625 0.59375 -6.984375 
Q 11.328125 6.203125 11.53125 36.671875 
L 11.53125 72.40625 
L 52.046875 72.40625 
Q 49.8125 76.703125 47.265625 80.8125 
z
M 43.265625 39.796875 
L 70.90625 39.796875 
L 70.90625 48.875 
L 43.265625 48.875 
z
M 75.296875 19 
L 40.4375 19 
Q 47.359375 11.375 57.125 6.109375 
Q 67.71875 11.578125 75.296875 19 
z
" id="MicrosoftYaHei-24230"/>
      </defs>
      <use xlink:href="#MicrosoftYaHei-21360"/>
      <use x="100" xlink:href="#MicrosoftYaHei-24230"/>
     </g>
    </g>
    <g id="line2d_31">
     <path d="M 63.9 101.534063 
L 85.9 101.534063 
" style="fill:none;stroke:#55a868;stroke-linecap:round;stroke-width:1.5;"/>
    </g>
    <g id="line2d_32"/>
    <g id="text_20">
     <!-- 意大利 -->
     <g style="fill:#262626;" transform="translate(94.7 105.384063)scale(0.11 -0.11)">
      <defs>
       <path d="M 42.28125 11.859375 
L 47.21875 16.0625 
L 22.171875 16.0625 
L 22.171875 13.03125 
L 14.9375 13.03125 
L 14.9375 46.828125 
L 84.46875 46.828125 
L 84.46875 13.03125 
L 77.25 13.03125 
L 77.25 16.0625 
L 47.46875 16.0625 
Q 53.859375 10.640625 58.6875 5.515625 
L 52.9375 0.734375 
Q 48.828125 5.515625 42.28125 11.859375 
z
M 2.34375 58.15625 
L 29.78125 58.15625 
Q 25.921875 61.8125 21.96875 65.1875 
L 24.90625 67.921875 
L 8.40625 67.921875 
L 8.40625 73.78125 
L 47.3125 73.78125 
Q 45.3125 77.875 43.171875 81.5 
L 49.8125 84.328125 
Q 52.984375 78.8125 55.28125 73.78125 
L 91.609375 73.78125 
L 91.609375 67.921875 
L 74.5625 67.921875 
L 77.9375 65.375 
Q 74.03125 61.765625 69.875 58.15625 
L 97.65625 58.15625 
L 97.65625 52.296875 
L 2.34375 52.296875 
z
M 25.78125 12.359375 
L 33.203125 12.359375 
L 33.203125 1.21875 
Q 33.203125 -4.4375 39.65625 -4.4375 
L 59.671875 -4.4375 
Q 66.703125 -4.4375 67.96875 0.921875 
Q 68.953125 4.640625 69.734375 9.71875 
Q 73.140625 8.25 77.046875 6.984375 
Q 75.875 1.421875 74.90625 -2 
Q 72.5625 -11.078125 61.71875 -11.078125 
L 38.09375 -11.078125 
Q 25.78125 -11.078125 25.78125 0.53125 
z
M 22.171875 21.734375 
L 77.25 21.734375 
L 77.25 28.765625 
L 22.171875 28.765625 
z
M 77.25 41.15625 
L 22.171875 41.15625 
L 22.171875 34.234375 
L 77.25 34.234375 
z
M 61.328125 59.90625 
Q 65.28125 63.234375 70.015625 67.921875 
L 28.71875 67.921875 
Q 33.0625 64.703125 37.203125 61.078125 
L 34.234375 58.15625 
L 63.09375 58.15625 
z
M 10.25 11.859375 
L 17.09375 9.234375 
Q 13.578125 0.34375 8.890625 -8.734375 
Q 5.953125 -7.375 2.046875 -5.71875 
Q 6.0625 1.515625 10.25 11.859375 
z
M 80.859375 7.859375 
L 86.421875 12.15625 
Q 93.359375 4.734375 98.828125 -1.8125 
L 92.671875 -6.6875 
Q 86.71875 1.125 80.859375 7.859375 
z
" id="MicrosoftYaHei-24847"/>
       <path d="M 1.171875 11.578125 
Q 14.265625 25.828125 23.25 46.828125 
L 1.65625 46.828125 
L 1.65625 53.953125 
L 25.09375 53.953125 
L 25.09375 68.609375 
Q 15.046875 67.625 5.171875 66.75 
Q 4.5 70.359375 3.21875 74.171875 
Q 26.65625 76.03125 51.078125 79.15625 
L 53.03125 71.734375 
Q 42.671875 70.453125 32.515625 69.390625 
L 32.515625 53.953125 
L 54.6875 53.953125 
L 54.6875 46.828125 
L 32.515625 46.828125 
L 32.515625 33.734375 
L 36.8125 37.84375 
Q 46 30.03125 55.078125 21.046875 
L 49.125 14.984375 
Q 43.171875 21.921875 32.515625 32.078125 
L 32.515625 -12.9375 
L 25.09375 -12.9375 
L 25.09375 35.890625 
Q 16.703125 16.9375 5.078125 2.78125 
Q 2.4375 9.125 1.171875 11.578125 
z
M 85.0625 81.203125 
L 92.78125 81.203125 
L 92.78125 -0.140625 
Q 92.78125 -12.546875 80.28125 -12.453125 
Q 76.265625 -12.453125 67.28125 -12.359375 
Q 66.703125 -8.34375 65.828125 -3.5625 
Q 73.734375 -4.4375 77.828125 -4.4375 
Q 85.0625 -4.546875 85.0625 2.875 
z
M 61.921875 71.4375 
L 69.34375 71.4375 
L 69.34375 9.71875 
L 61.921875 9.71875 
z
" id="MicrosoftYaHei-21033"/>
      </defs>
      <use xlink:href="#MicrosoftYaHei-24847"/>
      <use x="100" xlink:href="#MicrosoftYaHei-22823"/>
      <use x="200" xlink:href="#MicrosoftYaHei-21033"/>
     </g>
    </g>
    <g id="line2d_33">
     <path d="M 63.9 118.561719 
L 85.9 118.561719 
" style="fill:none;stroke:#c44e52;stroke-linecap:round;stroke-width:1.5;"/>
    </g>
    <g id="line2d_34"/>
    <g id="text_21">
     <!-- 伊朗 -->
     <g style="fill:#262626;" transform="translate(94.7 122.411719)scale(0.11 -0.11)">
      <defs>
       <path d="M 30.28125 26.703125 
L 48.578125 26.703125 
Q 49.515625 34.28125 49.609375 44.578125 
L 27.34375 44.578125 
L 27.34375 51.609375 
L 49.65625 51.609375 
Q 49.703125 57.90625 49.703125 69.28125 
L 33.796875 69.28125 
L 33.796875 76.125 
L 88.671875 76.125 
L 88.671875 51.609375 
L 98.53125 51.609375 
L 98.53125 44.578125 
L 88.671875 44.578125 
L 88.671875 15.671875 
L 81.25 15.671875 
L 81.25 19.875 
L 55.078125 19.875 
Q 51.953125 -1.125 33.40625 -13.421875 
Q 31.15625 -10.5 28.03125 -7.171875 
Q 44.53125 3.5625 47.515625 19.875 
L 30.28125 19.875 
z
M 0.875 37.359375 
Q 16.015625 57.765625 23.828125 83.546875 
L 31.734375 80.90625 
Q 26.90625 67.328125 21.1875 55.90625 
L 21.1875 -12.75 
L 13.765625 -12.75 
L 13.765625 42.53125 
Q 9.125 35.015625 4 28.65625 
Q 2.640625 32.859375 0.875 37.359375 
z
M 56 26.703125 
L 81.25 26.703125 
L 81.25 44.578125 
L 57.078125 44.578125 
Q 56.890625 34.46875 56 26.703125 
z
M 81.25 69.28125 
L 57.328125 69.28125 
Q 57.328125 58.5 57.234375 51.609375 
L 81.25 51.609375 
z
" id="MicrosoftYaHei-20234"/>
       <path d="M 54.203125 77.390625 
L 92.09375 77.390625 
L 92.09375 -0.53125 
Q 92.09375 -10.890625 81.9375 -10.890625 
L 69.140625 -10.890625 
Q 69.046875 -10.296875 67.96875 -3.375 
Q 75.59375 -3.765625 80.859375 -3.765625 
Q 84.671875 -3.765625 84.671875 -0.140625 
L 84.671875 21.34375 
L 60.796875 21.34375 
Q 57.8125 -1.078125 43.953125 -12.640625 
Q 41.21875 -9.8125 37.890625 -7.375 
Q 54.203125 5.328125 54.203125 35.109375 
z
M 25.6875 17.921875 
L 30.46875 22.3125 
Q 39.453125 14.109375 46.484375 6.296875 
L 41.703125 1.125 
Q 39.453125 3.71875 37.359375 6 
Q 14.265625 -5.5625 10.25 -9.515625 
L 5.765625 -2.59375 
Q 8.40625 0.046875 8.40625 4.4375 
L 8.40625 71.734375 
L 26.078125 71.734375 
Q 22.46875 75.921875 18.5625 79.25 
L 24.03125 83.84375 
Q 28.515625 79.828125 32.234375 75.828125 
L 27.640625 71.734375 
L 44.4375 71.734375 
L 44.4375 23.484375 
L 37.203125 23.484375 
L 37.203125 27.484375 
L 15.625 27.484375 
L 15.625 2.484375 
Q 24.5625 6.9375 32.515625 11.234375 
Q 28.765625 15.1875 25.6875 17.921875 
z
M 61.421875 27.984375 
L 84.671875 27.984375 
L 84.671875 46.046875 
L 61.625 46.046875 
Q 61.71875 34.421875 61.421875 27.984375 
z
M 84.671875 70.75 
L 61.625 70.75 
L 61.625 52.6875 
L 84.671875 52.6875 
z
M 15.625 33.9375 
L 37.203125 33.9375 
L 37.203125 46.53125 
L 15.625 46.53125 
z
M 37.203125 65.28125 
L 15.625 65.28125 
L 15.625 52.984375 
L 37.203125 52.984375 
z
" id="MicrosoftYaHei-26391"/>
      </defs>
      <use xlink:href="#MicrosoftYaHei-20234"/>
      <use x="100" xlink:href="#MicrosoftYaHei-26391"/>
     </g>
    </g>
    <g id="line2d_35">
     <path d="M 63.9 135.589375 
L 85.9 135.589375 
" style="fill:none;stroke:#8172b3;stroke-linecap:round;stroke-width:1.5;"/>
    </g>
    <g id="line2d_36"/>
    <g id="text_22">
     <!-- 秘鲁 -->
     <g style="fill:#262626;" transform="translate(94.7 139.439375)scale(0.11 -0.11)">
      <defs>
       <path d="M 31.640625 -1.125 
Q 43.3125 6.5 52.546875 16.3125 
L 52.546875 67.921875 
L 59.859375 67.921875 
L 59.859375 24.953125 
Q 74.359375 44.09375 82.234375 73.6875 
L 89.84375 71.921875 
Q 79.640625 34.671875 59.859375 12.703125 
L 59.859375 4.046875 
Q 59.859375 -1.8125 65.625 -1.8125 
L 73.25 -1.8125 
Q 80.28125 -1.8125 80.953125 4.046875 
Q 81.9375 10.015625 82.328125 19.875 
Q 86.234375 18.109375 90.140625 16.9375 
Q 89.359375 7.078125 88.578125 1.703125 
Q 87.109375 -9.234375 74.3125 -9.234375 
L 63.484375 -9.234375 
Q 52.546875 -9.234375 52.546875 3.078125 
L 52.546875 5.328125 
Q 45.21875 -1.421875 36.71875 -6.984375 
Q 35.359375 -4.9375 31.640625 -1.125 
z
M 1.65625 13.71875 
Q 10.5 29.203125 15.671875 48.390625 
L 3.515625 48.390625 
L 3.515625 55.328125 
L 16.703125 55.328125 
L 16.703125 68.703125 
Q 11.03125 68.265625 4.59375 67.828125 
Q 4.109375 71.140625 3.125 74.953125 
Q 23.046875 76.03125 37.890625 78.171875 
L 39.65625 70.75 
Q 33.15625 70.0625 23.921875 69.28125 
L 23.921875 55.328125 
L 37.3125 55.328125 
L 37.3125 48.390625 
L 23.921875 48.390625 
L 23.921875 40.875 
L 28.03125 43.609375 
Q 32.125 37.546875 37.015625 28.375 
L 30.953125 24.46875 
Q 26.765625 32.953125 23.921875 38.03125 
L 23.921875 -12.25 
L 16.703125 -12.25 
L 16.703125 33.84375 
Q 11.96875 17.140625 5.078125 5.328125 
Q 3.515625 9.421875 1.65625 13.71875 
z
M 41.015625 47.3125 
L 48.34375 46.234375 
Q 46.09375 30.515625 43.453125 17.921875 
Q 38.578125 19.28125 36.234375 19.390625 
Q 39.359375 31.390625 41.015625 47.3125 
z
M 84.96875 45.65625 
L 92.28125 47.703125 
Q 96.09375 34.625 98.828125 21.828125 
L 91.3125 19.875 
Q 88.578125 33.84375 84.96875 45.65625 
z
M 55.953125 79.734375 
L 62.5 83.84375 
Q 68.453125 75.53125 75 64.984375 
L 67.96875 60.59375 
Q 62.109375 71.34375 55.953125 79.734375 
z
" id="MicrosoftYaHei-31192"/>
       <path d="M 1.859375 62.453125 
Q 17.484375 71.046875 26.5625 83.34375 
L 34.96875 83.34375 
Q 32.71875 80.46875 30.375 77.78125 
L 67.671875 77.78125 
L 67.671875 72.515625 
L 61.234375 65.375 
L 86.921875 65.375 
L 86.921875 35.40625 
L 80.28125 35.40625 
L 80.28125 37.453125 
L 19.734375 37.453125 
L 19.734375 35.40625 
L 13.09375 35.40625 
L 13.09375 61.578125 
Q 9.671875 58.984375 6.15625 56.78125 
Q 4.203125 59.8125 1.859375 62.453125 
z
M 14.84375 20.0625 
L 85.15625 20.0625 
L 85.15625 -13.03125 
L 78.328125 -13.03125 
L 78.328125 -9.03125 
L 21.6875 -9.03125 
L 21.6875 -13.03125 
L 14.84375 -13.03125 
z
M 2.734375 31.390625 
L 97.265625 31.390625 
L 97.265625 25.921875 
L 2.734375 25.921875 
z
M 78.328125 14.703125 
L 21.6875 14.703125 
L 21.6875 8.0625 
L 78.328125 8.0625 
z
M 21.6875 -3.65625 
L 78.328125 -3.65625 
L 78.328125 2.984375 
L 21.6875 2.984375 
z
M 17.828125 65.375 
L 52.4375 65.375 
L 58.5 72.3125 
L 25.296875 72.3125 
Q 21.6875 68.609375 17.828125 65.375 
z
M 80.28125 60.203125 
L 53.328125 60.203125 
L 53.328125 53.859375 
L 80.28125 53.859375 
z
M 19.734375 42.625 
L 46.6875 42.625 
L 46.6875 48.96875 
L 19.734375 48.96875 
z
M 19.734375 53.859375 
L 46.6875 53.859375 
L 46.6875 60.203125 
L 19.734375 60.203125 
z
M 53.328125 42.625 
L 80.28125 42.625 
L 80.28125 48.96875 
L 53.328125 48.96875 
z
" id="MicrosoftYaHei-40065"/>
      </defs>
      <use xlink:href="#MicrosoftYaHei-31192"/>
      <use x="100" xlink:href="#MicrosoftYaHei-40065"/>
     </g>
    </g>
    <g id="line2d_37">
     <path d="M 63.9 152.617031 
L 85.9 152.617031 
" style="fill:none;stroke:#937860;stroke-linecap:round;stroke-width:1.5;"/>
    </g>
    <g id="line2d_38"/>
    <g id="text_23">
     <!-- 南非 -->
     <g style="fill:#262626;" transform="translate(94.7 156.467031)scale(0.11 -0.11)">
      <defs>
       <path d="M 2.546875 71.140625 
L 46.390625 71.140625 
L 46.390625 82.171875 
L 54.390625 82.171875 
L 54.390625 71.140625 
L 97.171875 71.140625 
L 97.171875 64.203125 
L 54.390625 64.203125 
L 54.390625 54.25 
L 91.796875 54.25 
L 91.796875 -1.125 
Q 91.796875 -12.546875 80.46875 -12.640625 
Q 74.03125 -12.75 64.359375 -12.359375 
Q 63.765625 -8.734375 62.890625 -4.34375 
Q 72.5625 -4.9375 77.640625 -4.9375 
Q 84.078125 -4.9375 84.078125 0.734375 
L 84.078125 47.40625 
L 16.5 47.40625 
L 16.5 -13.03125 
L 8.796875 -13.03125 
L 8.796875 54.25 
L 46.390625 54.25 
L 46.390625 64.203125 
L 2.546875 64.203125 
z
M 20.3125 14.203125 
L 46.484375 14.203125 
L 46.484375 24.859375 
L 23.4375 24.859375 
L 23.4375 31.296875 
L 54.109375 31.296875 
Q 58.796875 38.328125 63.578125 46.734375 
L 70.796875 42.71875 
Q 66.015625 36.1875 62.109375 31.296875 
L 77.15625 31.296875 
L 77.15625 24.859375 
L 54.109375 24.859375 
L 54.109375 14.203125 
L 80.28125 14.203125 
L 80.28125 7.765625 
L 54.109375 7.765625 
L 54.109375 -10.984375 
L 46.484375 -10.984375 
L 46.484375 7.765625 
L 20.3125 7.765625 
z
M 29.890625 42.828125 
L 35.640625 46.734375 
Q 40.625 40.96875 44.734375 35.5 
L 38.28125 31.5 
Q 34.375 37.15625 29.890625 42.828125 
z
" id="MicrosoftYaHei-21335"/>
       <path d="M 57.625 82.5625 
L 65.4375 82.5625 
L 65.4375 68.609375 
L 95.796875 68.609375 
L 95.796875 61.578125 
L 65.4375 61.578125 
L 65.4375 42.4375 
L 94.34375 42.4375 
L 94.34375 35.40625 
L 65.4375 35.40625 
L 65.4375 15.875 
L 97.953125 15.875 
L 97.953125 8.84375 
L 65.4375 8.84375 
L 65.4375 -12.453125 
L 57.625 -12.453125 
z
M 2.34375 15.875 
L 34.46875 15.875 
L 34.46875 35.40625 
L 5.859375 35.40625 
L 5.859375 42.4375 
L 34.46875 42.4375 
L 34.46875 61.578125 
L 4.296875 61.578125 
L 4.296875 68.609375 
L 34.46875 68.609375 
L 34.46875 82.5625 
L 42.28125 82.5625 
L 42.28125 -12.453125 
L 34.46875 -12.453125 
L 34.46875 8.84375 
L 2.34375 8.84375 
z
" id="MicrosoftYaHei-38750"/>
      </defs>
      <use xlink:href="#MicrosoftYaHei-21335"/>
      <use x="100" xlink:href="#MicrosoftYaHei-38750"/>
     </g>
    </g>
   </g>
  </g>
 </g>
 <defs>
  <clipPath id="p8a01b7f9da">
   <rect height="217.44" width="334.8" x="54" y="34.56"/>
  </clipPath>
 </defs>
</svg>
